<?xml version="1.0" encoding="utf-8"?>
<!-- Generator: Adobe Illustrator 24.1.2, SVG Export Plug-In . SVG Version: 6.00 Build 0)  -->
<!DOCTYPE svg PUBLIC "-//W3C//DTD SVG 1.1//EN" "http://www.w3.org/Graphics/SVG/1.1/DTD/svg11.dtd" [
	<!ENTITY ns_extend "http://ns.adobe.com/Extensibility/1.0/">
	<!ENTITY ns_ai "http://ns.adobe.com/AdobeIllustrator/10.0/">
	<!ENTITY ns_graphs "http://ns.adobe.com/Graphs/1.0/">
	<!ENTITY ns_vars "http://ns.adobe.com/Variables/1.0/">
	<!ENTITY ns_imrep "http://ns.adobe.com/ImageReplacement/1.0/">
	<!ENTITY ns_sfw "http://ns.adobe.com/SaveForWeb/1.0/">
	<!ENTITY ns_custom "http://ns.adobe.com/GenericCustomNamespace/1.0/">
	<!ENTITY ns_adobe_xpath "http://ns.adobe.com/XPath/1.0/">
]>
<svg version="1.1" id="Layer_1" xmlns:x="&ns_extend;" xmlns:i="&ns_ai;" xmlns:graph="&ns_graphs;"
	 xmlns="http://www.w3.org/2000/svg" xmlns:xlink="http://www.w3.org/1999/xlink" x="0px" y="0px" viewBox="0 0 182 69"
	 style="enable-background:new 0 0 182 69;" xml:space="preserve">
<style type="text/css">
	.st0{fill:#31344B;}
	.st1{fill:#4876B4;}
	.st2{fill:none;stroke:#FFFFFF;stroke-width:4;}
</style>
<metadata>
	<sfw  xmlns="&ns_sfw;">
		<slices></slices>
		<sliceSourceBounds  bottomLeftOrigin="true" height="62.9" width="180.1" x="0" y="1.1"></sliceSourceBounds>
	</sfw>
</metadata>
<path class="st0" d="M8.3,65l-1.2-3.8C7,61,6.9,60.5,6.7,59.7l0,0c-0.2,0.7-0.3,1.2-0.4,1.6L5,65H3.9l-1.8-6.4h1
	c0.4,1.6,0.7,2.8,0.9,3.7c0.2,0.8,0.3,1.4,0.4,1.7l0,0c0-0.2,0.1-0.5,0.2-0.9s0.2-0.6,0.3-0.8l1.2-3.7h1.1l1.1,3.7
	C8.5,63,8.7,63.5,8.7,64l0,0c0-0.1,0.1-0.4,0.1-0.7c0.1-0.3,0.5-1.9,1.2-4.7h1L9.4,65H8.3z M15.1,65.1c-0.9,0-1.7-0.3-2.2-0.9
	s-0.8-1.4-0.8-2.4s0.3-1.9,0.8-2.5s1.2-0.9,2.1-0.9c0.8,0,1.4,0.3,1.9,0.8s0.7,1.2,0.7,2.1V62H13c0,0.8,0.2,1.3,0.6,1.7
	c0.4,0.4,0.9,0.6,1.5,0.6c0.7,0,1.4-0.1,2.1-0.4v0.9c-0.3,0.1-0.7,0.3-1,0.3C15.9,65.1,15.5,65.1,15.1,65.1z M14.8,59.3
	c-0.5,0-0.9,0.2-1.2,0.5s-0.5,0.8-0.5,1.4h3.4c0-0.6-0.1-1.1-0.4-1.4C15.7,59.4,15.3,59.3,14.8,59.3z M22.1,58.5
	c0.8,0,1.5,0.3,2,0.9c0.5,0.6,0.7,1.4,0.7,2.4s-0.2,1.9-0.7,2.5s-1.1,0.9-2,0.9c-0.4,0-0.8-0.1-1.1-0.2c-0.3-0.2-0.6-0.4-0.9-0.7H20
	L19.8,65h-0.7v-9.1h1v2.2c0,0.5,0,0.9,0,1.3l0,0C20.5,58.8,21.2,58.5,22.1,58.5z M22,59.3c-0.7,0-1.1,0.2-1.4,0.6
	c-0.3,0.4-0.4,1-0.4,1.9s0.2,1.5,0.5,1.9c0.3,0.4,0.8,0.6,1.4,0.6s1-0.2,1.3-0.7c0.3-0.4,0.4-1.1,0.4-1.9c0-0.8-0.1-1.5-0.4-1.9
	C23,59.5,22.6,59.3,22,59.3z M33.5,65l-0.2-0.9l0,0c-0.3,0.4-0.6,0.7-1,0.8c-0.3,0.1-0.7,0.2-1.2,0.2c-0.6,0-1.1-0.2-1.5-0.5
	s-0.5-0.8-0.5-1.4c0-1.3,1-2,3.1-2h1.1v-0.4c0-0.5-0.1-0.9-0.3-1.1c-0.2-0.2-0.6-0.4-1-0.4c-0.5,0-1.1,0.2-1.8,0.5L29.8,59
	c0.3-0.2,0.7-0.3,1-0.4c0.4-0.1,0.8-0.1,1.1-0.1c0.8,0,1.3,0.2,1.7,0.5c0.4,0.3,0.6,0.9,0.6,1.6V65H33.5z M31.3,64.3
	c0.6,0,1.1-0.2,1.4-0.5c0.3-0.3,0.5-0.8,0.5-1.4v-0.6h-1c-0.8,0-1.3,0.1-1.7,0.4c-0.3,0.2-0.5,0.5-0.5,1c0,0.4,0.1,0.6,0.3,0.8
	C30.7,64.2,31,64.3,31.3,64.3z M38.8,65.1c-0.9,0-1.7-0.3-2.2-0.9s-0.8-1.4-0.8-2.4c0-1.1,0.3-1.9,0.8-2.5s1.3-0.9,2.2-0.9
	c0.3,0,0.6,0,0.9,0.1c0.3,0.1,0.6,0.1,0.7,0.2l-0.3,0.8c-0.2-0.1-0.4-0.2-0.7-0.2c-0.3-0.1-0.5-0.1-0.7-0.1c-1.3,0-2,0.8-2,2.5
	c0,0.8,0.2,1.4,0.5,1.8c0.3,0.4,0.8,0.6,1.4,0.6c0.5,0,1.1-0.1,1.6-0.3v0.9C40,65,39.5,65.1,38.8,65.1z M44.6,65.1
	c-0.9,0-1.7-0.3-2.2-0.9s-0.8-1.4-0.8-2.4c0-1.1,0.3-1.9,0.8-2.5s1.3-0.9,2.2-0.9c0.3,0,0.6,0,0.9,0.1c0.3,0.1,0.6,0.1,0.7,0.2
	L46,59.6c-0.2-0.1-0.4-0.2-0.7-0.2c-0.3-0.1-0.5-0.1-0.7-0.1c-1.3,0-2,0.8-2,2.5c0,0.8,0.2,1.4,0.5,1.8c0.3,0.4,0.8,0.6,1.4,0.6
	c0.5,0,1.1-0.1,1.6-0.3v0.9C45.7,65,45.2,65.1,44.6,65.1z M50.4,65.1c-0.9,0-1.7-0.3-2.2-0.9s-0.8-1.4-0.8-2.4s0.3-1.9,0.8-2.5
	s1.2-0.9,2.1-0.9c0.8,0,1.4,0.3,1.9,0.8s0.7,1.2,0.7,2.1V62h-4.4c0,0.8,0.2,1.3,0.6,1.7c0.4,0.4,0.9,0.6,1.5,0.6
	c0.7,0,1.4-0.1,2.1-0.4v0.9c-0.3,0.1-0.7,0.3-1,0.3C51.2,65.1,50.8,65.1,50.4,65.1z M50.2,59.3c-0.5,0-0.9,0.2-1.2,0.5
	s-0.5,0.8-0.5,1.4h3.4c0-0.6-0.1-1.1-0.4-1.4C51.1,59.4,50.7,59.3,50.2,59.3z M58.6,63.2c0,0.6-0.2,1.1-0.7,1.4
	c-0.4,0.3-1.1,0.5-1.9,0.5c-0.9,0-1.5-0.1-2-0.4v-0.9c0.3,0.2,0.6,0.3,1,0.4s0.7,0.1,1,0.1c0.5,0,0.9-0.1,1.2-0.2
	c0.3-0.2,0.4-0.4,0.4-0.7c0-0.2-0.1-0.5-0.3-0.6c-0.2-0.2-0.6-0.4-1.3-0.6c-0.6-0.2-1-0.4-1.3-0.6c-0.2-0.2-0.4-0.4-0.6-0.6
	c-0.1-0.2-0.2-0.5-0.2-0.8c0-0.5,0.2-0.9,0.6-1.2c0.4-0.3,1-0.5,1.8-0.5c0.7,0,1.4,0.1,2,0.4L58,59.7c-0.6-0.3-1.2-0.4-1.8-0.4
	c-0.5,0-0.8,0.1-1,0.2c-0.2,0.1-0.4,0.3-0.4,0.6c0,0.2,0,0.3,0.1,0.4c0.1,0.1,0.2,0.2,0.4,0.3s0.6,0.3,1.1,0.5
	c0.8,0.3,1.3,0.6,1.5,0.8C58.4,62.5,58.6,62.8,58.6,63.2z M64.3,63.2c0,0.6-0.2,1.1-0.7,1.4c-0.4,0.3-1.1,0.5-1.9,0.5
	c-0.9,0-1.5-0.1-2-0.4v-0.9c0.3,0.2,0.6,0.3,1,0.4s0.7,0.1,1,0.1c0.5,0,0.9-0.1,1.2-0.2c0.3-0.2,0.4-0.4,0.4-0.7
	c0-0.2-0.1-0.5-0.3-0.6c-0.2-0.2-0.6-0.4-1.3-0.6c-0.6-0.2-1-0.4-1.3-0.6c-0.2-0.2-0.4-0.4-0.6-0.6c-0.1-0.2-0.2-0.5-0.2-0.8
	c0-0.5,0.2-0.9,0.6-1.2c0.4-0.3,1-0.5,1.8-0.5c0.7,0,1.4,0.1,2,0.4l-0.3,0.8c-0.6-0.3-1.2-0.4-1.8-0.4c-0.5,0-0.8,0.1-1,0.2
	c-0.2,0.1-0.4,0.3-0.4,0.6c0,0.2,0,0.3,0.1,0.4c0.1,0.1,0.2,0.2,0.4,0.3s0.6,0.3,1.1,0.5c0.8,0.3,1.3,0.6,1.5,0.8
	C64.2,62.5,64.3,62.8,64.3,63.2z M66.9,65h-1v-6.4h1V65z M65.8,56.8c0-0.2,0.1-0.4,0.2-0.5s0.2-0.2,0.4-0.2c0.2,0,0.3,0.1,0.4,0.2
	c0.1,0.1,0.2,0.3,0.2,0.5s-0.1,0.4-0.2,0.5s-0.2,0.2-0.4,0.2c-0.2,0-0.3-0.1-0.4-0.2C65.9,57.2,65.8,57.1,65.8,56.8z M71.9,58.5
	c0.8,0,1.5,0.3,2,0.9c0.5,0.6,0.7,1.4,0.7,2.4s-0.2,1.9-0.7,2.5s-1.1,0.9-2,0.9c-0.4,0-0.8-0.1-1.1-0.2c-0.3-0.2-0.6-0.4-0.9-0.7
	h-0.1L69.6,65h-0.7v-9.1h1v2.2c0,0.5,0,0.9,0,1.3l0,0C70.4,58.8,71,58.5,71.9,58.5z M71.8,59.3c-0.7,0-1.1,0.2-1.4,0.6
	c-0.3,0.4-0.4,1-0.4,1.9s0.2,1.5,0.5,1.9c0.3,0.4,0.8,0.6,1.4,0.6s1-0.2,1.3-0.7c0.3-0.4,0.4-1.1,0.4-1.9c0-0.8-0.1-1.5-0.4-1.9
	C72.9,59.5,72.4,59.3,71.8,59.3z M77.3,65h-1v-6.4h1V65z M76.2,56.8c0-0.2,0.1-0.4,0.2-0.5s0.2-0.2,0.4-0.2c0.2,0,0.3,0.1,0.4,0.2
	c0.1,0.1,0.2,0.3,0.2,0.5s-0.1,0.4-0.2,0.5s-0.2,0.2-0.4,0.2c-0.2,0-0.3-0.1-0.4-0.2C76.3,57.2,76.2,57.1,76.2,56.8z M80.3,65h-1
	v-9.1h1V65z M83.3,65h-1v-6.4h1V65z M82.3,56.8c0-0.2,0.1-0.4,0.2-0.5s0.2-0.2,0.4-0.2c0.2,0,0.3,0.1,0.4,0.2
	c0.1,0.1,0.2,0.3,0.2,0.5s-0.1,0.4-0.2,0.5s-0.2,0.2-0.4,0.2c-0.2,0-0.3-0.1-0.4-0.2C82.3,57.2,82.3,57.1,82.3,56.8z M87.5,64.3
	c0.2,0,0.3,0,0.5,0s0.3-0.1,0.4-0.1v0.7C88.3,65,88.1,65,87.9,65s-0.4,0.1-0.6,0.1c-1.2,0-1.9-0.7-1.9-2v-3.8h-0.9v-0.5l0.9-0.4
	l0.4-1.4h0.6v1.5h1.9v0.8h-1.9v3.8c0,0.4,0.1,0.7,0.3,0.9C86.9,64.2,87.2,64.3,87.5,64.3z M88.6,58.6h1l1.4,3.7
	c0.3,0.8,0.5,1.4,0.6,1.8l0,0c0.1-0.2,0.2-0.5,0.3-1c0.2-0.5,0.7-2,1.6-4.5h1l-2.8,7.3c-0.3,0.7-0.6,1.2-1,1.5s-0.8,0.5-1.3,0.5
	c-0.3,0-0.6,0-0.9-0.1V67c0.2,0,0.5,0.1,0.7,0.1c0.7,0,1.1-0.4,1.4-1.1l0.4-0.9L88.6,58.6z M101.5,65.1c-0.9,0-1.7-0.3-2.2-0.9
	s-0.8-1.4-0.8-2.4s0.3-1.9,0.8-2.5s1.2-0.9,2.1-0.9c0.8,0,1.4,0.3,1.9,0.8s0.7,1.2,0.7,2.1V62h-4.4c0,0.8,0.2,1.3,0.6,1.7
	c0.4,0.4,0.9,0.6,1.5,0.6c0.7,0,1.4-0.1,2.1-0.4v0.9c-0.3,0.1-0.7,0.3-1,0.3C102.3,65.1,102,65.1,101.5,65.1z M101.3,59.3
	c-0.5,0-0.9,0.2-1.2,0.5c-0.3,0.3-0.5,0.8-0.5,1.4h3.4c0-0.6-0.1-1.1-0.4-1.4C102.2,59.4,101.8,59.3,101.3,59.3z M107,65l-2.4-6.4h1
	l1.4,3.8c0.3,0.9,0.5,1.5,0.6,1.7l0,0c0-0.2,0.2-0.6,0.4-1.3c0.2-0.7,0.7-2.1,1.5-4.3h1l-2.4,6.4L107,65L107,65z M115.5,65l-0.2-0.9
	l0,0c-0.3,0.4-0.6,0.7-1,0.8c-0.3,0.1-0.7,0.2-1.2,0.2c-0.6,0-1.1-0.2-1.5-0.5s-0.5-0.8-0.5-1.4c0-1.3,1-2,3.1-2h1.1v-0.4
	c0-0.5-0.1-0.9-0.3-1.1c-0.2-0.2-0.6-0.4-1-0.4c-0.5,0-1.1,0.2-1.8,0.5l-0.3-0.7c0.3-0.2,0.7-0.3,1-0.4c0.4-0.1,0.8-0.1,1.1-0.1
	c0.8,0,1.3,0.2,1.7,0.5c0.4,0.3,0.6,0.9,0.6,1.6V65H115.5z M113.3,64.3c0.6,0,1.1-0.2,1.4-0.5c0.3-0.3,0.5-0.8,0.5-1.4v-0.6h-1
	c-0.8,0-1.3,0.1-1.7,0.4c-0.3,0.2-0.5,0.5-0.5,1c0,0.4,0.1,0.6,0.3,0.8C112.6,64.2,112.9,64.3,113.3,64.3z M119.2,65h-1v-9.1h1V65z
	 M122.2,58.6v4.2c0,0.5,0.1,0.9,0.4,1.2c0.2,0.3,0.6,0.4,1.1,0.4c0.7,0,1.2-0.2,1.5-0.6s0.5-1,0.5-1.8v-3.4h1V65h-0.8l-0.1-0.9h-0.1
	c-0.2,0.3-0.5,0.6-0.8,0.7c-0.4,0.2-0.8,0.3-1.2,0.3c-0.8,0-1.4-0.2-1.8-0.6s-0.6-1-0.6-1.8v-4.2L122.2,58.6L122.2,58.6z M132.6,65
	l-0.2-0.9l0,0c-0.3,0.4-0.6,0.7-1,0.8c-0.3,0.1-0.7,0.2-1.2,0.2c-0.6,0-1.1-0.2-1.5-0.5s-0.5-0.8-0.5-1.4c0-1.3,1-2,3.1-2h1.1v-0.4
	c0-0.5-0.1-0.9-0.3-1.1c-0.2-0.2-0.6-0.4-1-0.4c-0.5,0-1.1,0.2-1.8,0.5l-0.3-0.7c0.3-0.2,0.7-0.3,1-0.4c0.4-0.1,0.8-0.1,1.1-0.1
	c0.8,0,1.3,0.2,1.7,0.5s0.6,0.9,0.6,1.6V65H132.6z M130.4,64.3c0.6,0,1.1-0.2,1.4-0.5c0.3-0.3,0.5-0.8,0.5-1.4v-0.6h-1
	c-0.8,0-1.3,0.1-1.7,0.4c-0.3,0.2-0.5,0.5-0.5,1c0,0.4,0.1,0.6,0.3,0.8C129.7,64.2,130,64.3,130.4,64.3z M137.4,64.3
	c0.2,0,0.3,0,0.5,0s0.3-0.1,0.4-0.1v0.7c-0.1,0.1-0.3,0.1-0.5,0.1s-0.4,0.1-0.6,0.1c-1.2,0-1.9-0.7-1.9-2v-3.8h-0.9v-0.5l0.9-0.4
	l0.4-1.4h0.6v1.5h1.9v0.8h-1.9v3.8c0,0.4,0.1,0.7,0.3,0.9C136.8,64.2,137.1,64.3,137.4,64.3z M140.5,65h-1v-6.4h1V65z M139.5,56.8
	c0-0.2,0.1-0.4,0.2-0.5c0.1-0.1,0.2-0.2,0.4-0.2s0.3,0.1,0.4,0.2c0.1,0.1,0.2,0.3,0.2,0.5s-0.1,0.4-0.2,0.5
	c-0.1,0.1-0.2,0.2-0.4,0.2s-0.3-0.1-0.4-0.2C139.5,57.2,139.5,57.1,139.5,56.8z M148.1,61.8c0,1-0.3,1.9-0.8,2.5
	c-0.5,0.6-1.3,0.9-2.2,0.9c-0.6,0-1.1-0.1-1.5-0.4s-0.8-0.7-1-1.2c-0.2-0.5-0.4-1.1-0.4-1.8c0-1,0.3-1.9,0.8-2.4
	c0.5-0.6,1.2-0.9,2.2-0.9c0.9,0,1.6,0.3,2.1,0.9C147.9,60,148.1,60.8,148.1,61.8z M143.3,61.8c0,0.8,0.2,1.4,0.5,1.9
	c0.3,0.5,0.8,0.6,1.4,0.6c0.6,0,1.1-0.2,1.4-0.6c0.3-0.4,0.5-1.1,0.5-1.9c0-0.8-0.2-1.4-0.5-1.9c-0.3-0.4-0.8-0.6-1.5-0.6
	c-0.6,0-1.1,0.2-1.4,0.6C143.4,60.3,143.3,61,143.3,61.8z M154.2,65v-4.2c0-0.5-0.1-0.9-0.4-1.2c-0.2-0.3-0.6-0.4-1.1-0.4
	c-0.7,0-1.2,0.2-1.5,0.5c-0.3,0.4-0.5,1-0.5,1.8V65h-1v-6.4h0.8l0.2,0.9l0,0c0.2-0.3,0.5-0.6,0.8-0.7c0.4-0.2,0.8-0.3,1.2-0.3
	c0.8,0,1.4,0.2,1.7,0.6c0.4,0.4,0.6,1,0.6,1.8V65H154.2z M162.4,64.3c0.2,0,0.3,0,0.5,0s0.3-0.1,0.4-0.1v0.7
	c-0.1,0.1-0.3,0.1-0.5,0.1s-0.4,0.1-0.6,0.1c-1.2,0-1.9-0.7-1.9-2v-3.8h-0.9v-0.5l0.9-0.4l0.4-1.4h0.6v1.5h1.9v0.8h-1.9v3.8
	c0,0.4,0.1,0.7,0.3,0.9C161.8,64.2,162.1,64.3,162.4,64.3z M170.1,61.8c0,1-0.3,1.9-0.8,2.5c-0.5,0.6-1.3,0.9-2.2,0.9
	c-0.6,0-1.1-0.1-1.5-0.4s-0.8-0.7-1-1.2c-0.2-0.5-0.4-1.1-0.4-1.8c0-1,0.3-1.9,0.8-2.4c0.5-0.6,1.2-0.9,2.2-0.9
	c0.9,0,1.6,0.3,2.1,0.9C169.9,60,170.1,60.8,170.1,61.8z M165.2,61.8c0,0.8,0.2,1.4,0.5,1.9c0.3,0.4,0.8,0.6,1.4,0.6
	c0.6,0,1.1-0.2,1.4-0.6c0.3-0.4,0.5-1.1,0.5-1.9c0-0.8-0.2-1.4-0.5-1.9c-0.3-0.4-0.8-0.6-1.5-0.6c-0.6,0-1.1,0.2-1.4,0.6
	C165.4,60.3,165.2,61,165.2,61.8z M177.4,61.8c0,1-0.3,1.9-0.8,2.5c-0.5,0.6-1.3,0.9-2.2,0.9c-0.6,0-1.1-0.1-1.5-0.4s-0.8-0.7-1-1.2
	c-0.2-0.5-0.4-1.1-0.4-1.8c0-1,0.3-1.9,0.8-2.4c0.5-0.6,1.2-0.9,2.2-0.9c0.9,0,1.6,0.3,2.1,0.9C177.1,60,177.4,60.8,177.4,61.8z
	 M172.5,61.8c0,0.8,0.2,1.4,0.5,1.9c0.3,0.4,0.8,0.6,1.4,0.6c0.6,0,1.1-0.2,1.4-0.6c0.3-0.4,0.5-1.1,0.5-1.9c0-0.8-0.2-1.4-0.5-1.9
	c-0.3-0.4-0.8-0.6-1.5-0.6c-0.6,0-1.1,0.2-1.4,0.6C172.7,60.3,172.5,61,172.5,61.8z M180.1,65h-1v-9.1h1V65z"/>
<path class="st0" d="M79.8,43h-1.6l-6.3-22c-0.5-1.8-0.9-3.3-1.2-4.5c-0.2,1.1-0.5,2.4-0.9,3.9s-2.5,9-6.3,22.6h-1.7L54,14.4h2.1
	l5,18.4c0.2,0.7,0.4,1.4,0.5,2.1c0.2,0.6,0.3,1.2,0.4,1.8c0.1,0.5,0.3,1.1,0.4,1.6c0.1,0.5,0.2,1,0.3,1.5c0.3-1.8,1-4.5,2-8.1
	l4.9-17.3h2.2l5.7,19.9c0.7,2.3,1.1,4.1,1.4,5.5c0.2-0.9,0.4-1.9,0.6-3c0.3-1.1,2.3-8.5,6-22.4h2L79.8,43z M106.5,32.9H94.9l-4,10.1
	h-2.2l11.5-28.7h1.3L112.7,43h-2.2L106.5,32.9z M95.6,31.1h10.2l-3.9-10.3c-0.3-0.8-0.7-1.9-1.2-3.4c-0.4,1.2-0.7,2.4-1.2,3.4
	L95.6,31.1z M133.6,14.4h2.2L125.1,43h-1.8l-10.6-28.6h2.1l7.2,19.4c1.1,2.9,1.8,5.1,2.2,6.6c0.3-1,0.8-2.5,1.5-4.6L133.6,14.4z
	 M155.5,43h-15.6V14.4h15.6v1.8h-13.6V27h12.9v1.8h-12.9V41h13.6V43z"/>
<g>
	<circle class="st1" cx="22" cy="27" r="22"/>
	<path class="st2" d="M0,17c6.1,0,4.9,20,11,20s4.9-20,11-20s4.9,20,11,20s4.9-20,11-20"/>
</g>
</svg>
