<svg xmlns="http://www.w3.org/2000/svg" viewBox="0 0 979 231.8" width="2500" height="592"><path d="M101 .91c-24.9 2.4-48.5 13-66.1 29.7-22.4 21.1-34.9 50.4-34.9 82 0 50.4 26.2 91.5 70 109.5 18.9 7.8 33.4 10.2 57.9 9.4 18.8-.6 31.1-2.6 45.5-7.3 8.6-2.8 28.6-12.2 28.6-13.4 0-.4-2-5-4.5-10.3l-4.5-9.7-6.2 3.5c-16 8.7-31 12.4-53.8 13.2-34.7 1.1-57.9-6.4-77.6-25-16.5-15.5-26.1-35.8-28.3-59.8-3.8-40.7 16.6-76.5 52-91.5 11.7-4.9 22.2-6.8 37.4-6.7 16.7.1 25.5 2 38.5 8.5 11.9 5.9 26.8 20.6 32.8 32.4 6.5 12.7 8.7 21.7 8.7 35.9 0 12.8-2 21.6-7 31.5-5.7 11.3-17.1 21.5-29.5 26.6-18.6 7.5-42.8 7.1-58.8-1-12.6-6.4-22.5-22.1-24.6-38.9l-.6-4.7h96v-10.5c0-33.2-15.5-56.1-42.5-63-7.9-2-25.9-2-33.9.1-37.6 9.7-58.4 56.6-43.7 99 4.1 12 8.4 18.7 18.1 28.4 12.3 12.3 23.6 18.3 40.8 21.6 9.9 1.9 30.9 1.8 41.3-.2 31.8-6 56.5-28 66.2-58.9 1.3-4.4 2.8-9.9 3.2-12.3l.7-4.2H234v37.2c0 21.5.5 39.2 1.1 41.7 2.9 12.8 13.2 25.2 26 31.5 10 4.8 17.6 6.6 28.4 6.6 17.7 0 30.7-5.1 42.1-16.5 7.8-7.8 11.6-14.5 13.3-23.9.7-3.8 1.1-23.2 1.1-52.8v-46.8h-27v94.6l-2.6 5.2c-4.9 9.9-14.2 15.2-27 15.2-7 0-8.9-.4-14.3-3.1-6.1-3-9.1-6.1-12.7-12.9-1.8-3.3-1.9-6.9-2.2-51.3l-.3-47.7h-37.8l-.6-4.8c-2.9-22.8-12.7-42.4-28.8-57.9-17.3-16.6-38.3-25.8-64.6-28.3-11.8-1.1-14.8-1.1-27.1.1zm25.1 63.4c9.1 3.2 16.9 12.6 18.8 22.9l.8 4.6H77.1l1.5-5.3c2.8-9.3 8.4-16.4 16.4-20.7 7.6-4.1 21.8-4.8 31.1-1.5zM401 115.31v108.5h9v-217h-9v108.5zM684 15.31v8.5h20v-17h-20v8.5zM461 52.81v42h22.7c26.1 0 33.1-.9 40.4-5.3 6.9-4.2 9.9-9.6 9.9-18s-2.9-14.1-9.1-18l-4.8-3 2.8-2.6c4.9-4.6 6.3-8.6 5.9-16.7-.3-6.3-.7-7.8-3.4-11.1-1.6-2.1-5.2-4.9-8-6.3-4.8-2.4-5.5-2.5-30.6-2.8l-25.8-.3v42.1zm44.3-23.8c5.2 2.7 6 7.1 2.3 11.5-2.4 2.8-2.6 2.8-15 3.1l-12.6.4v-16.2h11.6c6.8 0 12.4.5 13.7 1.2zm4.7 33.1c3.7 1.9 5.5 6.1 4 9.7-1.9 4.6-7 6-21.5 6H480v-17h13.8c9 0 14.6.5 16.2 1.3zM634.7 30.31c-16.1 5.2-19.5 26.8-5.4 34.9 2.3 1.3 8 3.6 12.7 5.1 9.5 3 11 3.9 11 6.6 0 5-10.9 5-20.8 0-3.4-1.7-6.5-3.1-6.9-3.1s-2.5 2.7-4.7 6c-4.5 7-4.5 6.8 5.1 11.5 7.2 3.5 14.4 4.8 22.8 4.3 13.9-.9 21.5-7.3 22.3-18.8.8-11-4.1-16.3-20.5-22-5.1-1.8-10-4.1-11-5.2-1.7-1.9-1.7-2.1.6-3.9 3.5-2.9 8.4-2.2 18.7 2.7 1.9.9 3.6 1.5 3.8 1.3s1.9-3.2 3.9-6.6l3.6-6.3-2.4-1.6c-8.1-5.3-24-7.7-32.8-4.9zM749 30.31c-1.9.9-5 3-6.7 4.7l-3.3 3.2v-8.4h-19v65h19v-19c0-20.8.7-24.5 5.4-27.5 3-2 8.4-2.2 11.6-.5 4.2 2.3 5 6.5 5 27.5v19.5h19.1l-.3-26.3-.3-26.4-2.7-4c-4-6.1-8.7-8.5-17.2-9-5-.2-8.1.1-10.6 1.2zM814 30.51c-10.3 3.6-17.7 12-20.6 23.3-4.5 17.6 4.6 35.1 20.8 40.4 7.2 2.3 19.4 2.1 26.1-.4 4.9-1.8 13.7-8.2 13.7-9.8 0-.4-2.5-2.8-5.4-5.5l-5.5-4.7-5.2 3.2c-4.2 2.7-6.2 3.3-10.9 3.3-6.5 0-10-1.9-13-6.8-1.1-1.8-2-3.5-2-4 0-.4 10.2-.7 22.6-.7h22.7l-.5-7.8c-1.1-16.4-8.3-26.8-21.4-30.8-6.1-1.8-15.7-1.7-21.4.3zm17.7 15.9c2.5 1.6 4.7 4.7 5.8 8.1l.6 2.3h-13c-8.5 0-13.1-.4-13.1-1s.6-2.3 1.4-3.8c3.8-7.3 11.7-9.7 18.3-5.6zM884.5 29.71c-10.1 2.7-16.5 10.4-16.5 20.1 0 9.9 5.5 15.3 20.1 20 9.1 2.9 12.9 4.9 12.9 6.9 0 .4-.9 1.6-2 2.6-2.9 2.7-11.4 1.6-19.1-2.3-3.4-1.8-6.5-3.2-6.9-3.2-1.2 0-8.2 11.1-7.7 12.4.7 1.9 9.8 6.4 16.2 8.1 15.5 4 31.1-.5 35.1-10.2.8-1.8 1.4-6.2 1.4-9.7 0-5.9-.3-6.9-3.2-10.1-3.5-4-7.6-6.3-15.8-9-8.7-2.8-13-5.3-13-7.5 0-4.8 8.2-5 18-.4 6.2 2.9 6.1 3 10.6-5.9 2.4-4.6 2.4-5 .8-6.2-6-4.3-23.6-7.6-30.9-5.6zM945.5 29.71c-6.9 1.7-13.4 6.9-15.4 12.4-1.6 4-1.4 12.3.3 15.6 2.8 5.3 7.9 8.6 18.2 11.9 5.4 1.8 10.4 3.6 11 4 2.1 1.4 2.3 4 .4 5.7-2.9 2.6-11.3 1.6-19.3-2.3-3.5-1.8-6.7-3.2-6.9-3.2-1.1 0-7.9 11.3-7.5 12.4.7 1.9 9.8 6.4 16.2 8.1 15.5 4 31.1-.5 35.1-10.2.8-1.8 1.4-5.9 1.4-9.1 0-9.7-4.9-15-17.8-19.3-9.9-3.2-14.2-5.6-14.2-7.9 0-4.7 8.2-5 17.9-.5 2.9 1.4 5.5 2.5 5.7 2.5.5 0 7.7-13.1 7.3-13.4-.2-.2-2.3-1.3-4.6-2.5-8.7-4.4-20-6.1-27.8-4.2zM546.2 55.01c.3 23.6.4 25.6 2.5 29.3 4.2 7.8 10.5 11.5 19.8 11.5 6.4 0 10.6-1.5 15.3-5.4l3.2-2.8v7.2h20v-65h-19.9l-.3 21.4c-.3 19.4-.5 21.6-2.2 23.5-4.1 4.6-12.2 4.3-16.3-.4-2.2-2.5-2.3-3.3-2.3-23.6v-20.9h-20.2l.4 25.2zM684 62.31v32.5h19v-65h-19v32.5zM606 177.81v44h19v-17.8c.1-19.8.8-24.4 4.3-28 4.7-4.6 14.4-2.7 16.7 3.4.6 1.4 1 11.5 1 22.5v19.9h20.2l-.4-24.8c-.3-20.9-.6-25.3-2.1-28.7-3.7-8.3-10.3-12.4-20-12.5-6.8 0-12 1.9-16.4 6.2l-3.3 3.2v-31.4h-19v44zM844 177.81v44h19v-88h-19v44zM480.3 136.81c-13.4 2.7-21.2 12-21.3 25.3 0 8.5 1.6 12.3 7 17 4.2 3.5 8.9 5.4 26.8 10.7 4 1.1 8.2 3 9.3 4.1 4.2 4.2.4 10.3-7.2 11.5-5.7.9-14.1-1.4-21.5-5.8l-6.8-4.1-5.8 6.4c-3.1 3.5-5.7 6.7-5.8 7.1 0 1.6 12.9 9 19.4 11.1 5.5 1.7 9.5 2.2 17.7 2.2 10.1 0 10.9-.2 17.5-3.5 5.8-3 7.4-4.4 10.1-9 2.9-4.8 3.3-6.3 3.3-12.6 0-8.4-1-11.8-4.8-15.7-4.4-4.7-10-7.3-23.2-11.2-7.2-2.1-13.5-4.5-14.7-5.7-6.4-6 1.5-12.6 12.7-10.6 2.5.4 7.5 2.3 11.2 4.2l6.8 3.4 5-7.1 5.1-7.2-2.3-1.9c-8.6-7.1-26.1-11-38.5-8.6zM556.8 157.11c-10.5 4-18 11.2-21.3 20.6-.8 2.5-1.5 7.7-1.5 11.8 0 13.3 5.8 23.2 17.2 29.4 6.1 3.3 6.7 3.4 17.3 3.4 10.2 0 11.4-.2 16.2-2.9 2.8-1.5 6.4-4.1 7.9-5.7l2.8-2.9-5.4-5.5c-5.8-5.9-7-6.4-9.1-3.9-4.2 5-14.2 6.2-20.3 2.4-7.1-4.3-9.6-15.1-5.6-23 4.6-9.1 15.9-11.2 23.8-4.5 1.7 1.4 3.4 2.5 3.9 2.5s3.5-2.7 6.8-6.1l6-6-3.5-3c-6.6-5.6-11.6-7.3-22-7.6-6.2-.2-10.8.1-13.2 1zM701.3 157.71c-14 5.2-22.5 17-22.6 31.5 0 7.9 1.6 13.3 5.6 19.2 6.9 10 18.2 15 32.1 14.2 14.2-.8 24.1-7 29.8-18.6 3-6 3.3-7.5 3.2-15.2 0-6.7-.5-9.5-2.3-13.1-3.6-7.4-8.6-12.5-15.8-16.1-5.7-2.8-7.8-3.3-15.7-3.5-7.1-.3-10.2.1-14.3 1.6zm21.4 17.3c9 5.4 10.5 18.8 2.9 26.4-10.3 10.3-27.6 2.7-27.6-12.1 0-8.1 3.6-13.5 10.7-16 4.5-1.6 9.5-1 14 1.7zM782.3 157.61c-15.5 5.5-24.2 18.5-23.1 34.3.9 12.6 7.7 22.2 19.7 27.8 4.9 2.3 6.8 2.6 16.1 2.6 9.5 0 11-.3 16-2.8 7.5-3.9 13.3-9.8 16.5-16.9 2.4-5.3 2.7-7 2.3-14.6-.4-10.2-2.5-15.5-8.9-22-6.8-6.8-13.6-9.6-24.3-9.9-6.9-.3-10.3.1-14.3 1.5zm19.7 16.7c15.2 7.8 9.9 31.9-7 31.9-12 0-20.1-12.6-15.2-23.5 4.2-9.4 13.4-12.9 22.2-8.4z"/></svg>