<svg xmlns="http://www.w3.org/2000/svg" width="2500" height="630" viewBox="0 0 1374.143 346.396"><g fill="#231F20"><path d="M195.034 0s28.407 58.086 23.319 82.252c0 0 74.62 24.167 82.677 64.024 0-.426 40.701-53.849-105.996-146.276zM166.202 86.916c7.21 15.266 10.6 31.801 14.841 48.76l-42.397-16.113c3.815-25.862-21.2-64.869-21.2-64.869l48.756 32.222zM90.734 126.772c4.663 12.295 10.175 27.982 12.719 41.549l-38.161-9.325c3.816-25.864-20.35-56.814-20.35-56.814l45.792 24.59z"/><path d="M174.258 64.868s170.867 119.989 182.314 166.629c8.479 35.191-16.113 67.414-16.113 67.414S327.317 207.327 0 346.396c33.07-36.889 51.301-84.373 46.214-135.253-2.12-20.775-7.207-40.701-16.113-58.509l76.743 40.277c0 1.271 0 2.544.426 3.814 2.966 30.955.847 61.48-6.359 89.463 15.688-33.069 23.319-70.806 19.503-109.813-2.121-23.742-8.056-46.214-17.384-66.564l81.831 54.692c.422 2.544.422 5.513.847 8.057 3.391 34.346 0 67.84-8.904 98.365 19.079-35.612 28.832-77.165 24.591-119.988-2.971-31.375-12.3-60.207-27.137-86.069z"/></g><g fill="#231F20"><path d="M382.86 217.504c0 49.186 40.702 83.527 92.428 81.407 30.951-1.271 49.183-12.722 55.542-15.688v-42.399h-6.359c-5.935 25.865-21.623 47.487-48.758 47.487-33.495 0-59.357-32.646-59.357-70.808 0-38.157 26.284-70.806 59.357-70.806 27.135 0 42.823 21.2 48.758 47.485h6.359v-42.396c-6.359-2.966-24.591-13.991-55.542-15.688-51.726-2.12-92.428 32.223-92.428 81.406zM626.652 136.097c-45.367 0-80.56 36.464-80.56 81.831 0 44.944 35.192 81.83 80.56 81.83s80.556-36.464 80.556-81.83c-.001-45.367-35.189-81.831-80.556-81.831zm0 153.486c-28.407 0-47.486-33.495-47.486-72.079 0-38.157 19.079-72.078 47.486-72.078s47.485 33.495 47.485 72.078c0 38.16-19.079 72.079-47.485 72.079zM892.067 169.593c0-13.142 13.567-23.742 27.559-24.167 15.265 0 30.529 6.785 38.582 36.463h4.241v-35.612c-6.358-2.122-21.622-10.18-43.248-10.18-26.284 0-52.572 16.113-52.572 46.217 0 53.846 73.772 43.672 73.772 79.71 0 18.23-11.021 26.714-27.981 26.714-16.534 0-35.615-13.57-41.976-40.705h-5.513v39.008c6.785 2.118 24.168 12.295 46.639 12.295 39.008 0 58.086-25.864 58.086-49.185.425-57.661-77.589-40.28-77.589-80.558zM1185.464 155.601c0-3.391 2.122-6.359 4.666-8.054l10.176-5.512v-2.544h-60.63v2.544l10.175 5.512c2.97 1.694 4.664 4.663 4.664 8.054V279.83c0 3.395-2.12 6.359-4.664 8.057l-10.175 5.514v2.544h60.63v-2.544l-10.176-5.514c-2.969-1.696-4.666-4.662-4.666-8.057V155.601zM708.479 139.492v2.544l10.179 5.512c2.966 1.694 4.663 4.663 4.663 8.054v124.229c0 3.395-2.12 6.359-4.663 8.057l-10.179 5.514v2.544h60.634v-2.544l-10.178-5.514c-2.968-1.696-4.664-4.662-4.664-8.057v-124.23c0-2.118.848-3.814 1.696-5.51.848-1.271 2.119-1.697 3.816-1.697h19.503c11.869 0 24.592 13.992 24.592 31.376v8.903c0 17.382-11.447 29.255-24.592 29.255h-11.872s38.157 65.718 44.096 72.927c8.479 10.601 36.463 24.592 58.086 19.929-21.2-11.448-41.127-47.91-57.664-78.439-8.903-1.271-14.838-4.239-18.653-6.783 33.494 0 41.974-27.561 41.974-41.127 0-36.886-25.863-44.52-55.116-44.52H708.48l-.001-.423zM1213.025 139.492v2.544l10.175 5.512c2.97 1.694 4.666 4.663 4.666 8.054v124.229c0 3.395-2.122 6.359-4.666 8.057l-10.175 5.514v2.544h60.63v-2.544l-10.176-5.514c-2.969-1.696-4.662-4.662-4.662-8.057v-124.23c0-2.118.847-3.814 1.693-5.51.85-1.271 2.12-1.697 3.815-1.697h19.504c11.871 0 24.592 13.992 24.592 31.376v8.903c0 17.382-11.447 29.255-24.592 29.255h-11.87s38.158 65.718 44.093 72.927c8.48 10.601 36.464 24.592 58.09 19.929-21.201-11.448-41.13-47.91-57.665-78.439-8.902-1.271-14.838-4.239-18.652-6.783 33.494 0 41.974-27.561 41.974-41.127 0-36.886-25.863-44.52-55.117-44.52h-71.655l-.002-.423zM1121.444 287.886c-2.118-1.271-3.391-2.97-4.24-4.662l-57.663-143.732h-18.654l-57.662 143.732c-.848 2.118-2.118 3.815-4.24 4.662l-10.176 5.514v2.544h46.639V293.4l-8.902-4.662c-2.97-1.697-5.088-4.667-5.088-8.482 0-1.271.422-2.544.848-3.391l12.719-31.376h54.271l12.721 31.376c.425.847.425 2.118.425 2.966 0 2.97-1.271 5.513-3.392 7.21-.425.421-.85.421-1.271.847l-10.175 5.514v2.544h64.021v-2.544l-10.181-5.516zm-102.606-53.845l22.473-55.967 22.473 55.967h-44.946z"/></g></svg>