<svg id="Layer_1" xmlns="http://www.w3.org/2000/svg" viewBox="0 0 820.3 197.8" width="2500" height="603"><style>.st0{fill:#4f2984}</style><path class="st0" d="M247.4 21.4V24l6.5 7.4V82l-8.8 2.5v2.9h24v-3l-7.6-2-1.9-2.3V37.9l42 50h3.7V27.8l8.9-2.7v-3.2h-24.3v3.6l7.7 1.9 1.9 2.4v40-.1h-.5l-40.8-48.3zM337.4 88.5c-11.9 0-23.2-7.6-23.2-23.8 0-16.1 12.1-24.2 23.2-24.2 11.7 0 23.4 7.3 23.4 23.4 0 15.5-12.4 24.6-23.4 24.6zm14.2-23.2c0-11.1-6-20.5-15.5-20.5-8.5 0-12.8 7.4-12.8 18.5s5.3 20.8 15.3 20.8c8.6 0 13-7.7 13-18.8zM480.3 60.5c0-11.1-6.2-13.3-13.5-13.3-6.1 0-10.1 4.6-10.1 4.6v28.5l1.9 2.4 6.4 2.2v2.5h-23v-2.6l6.5-2.5V34.6c0-8.6-2.2-11-6.9-11v-2.3l14.6-4.9h1s-.5 10.2-.5 17.8V48s9.5-7.6 16-7.6c8.1 0 15.6 3.4 15.6 15.3v24.5l1.9 2.4 6.4 2.2v2.5h-23v-2.6l6.3-2.4.4-21.8zM573.7 62c0 13.8 7.8 19.5 16.7 19.5 5.5 0 12.2-2.3 12.2-2.3l1 1.9c-2.4 2.4-9 7.4-17.3 7.4-11.3 0-21.4-8.4-21.4-23.8 0-14 9.7-24.2 21.8-24.2 9.4 0 16.7 5.6 16.7 16.3 0 2.8-.5 5.2-.5 5.2h-29.2zm14.6-3.7c4.7-.2 6.4-1.1 6.4-5.9 0-4.2-3-7.3-9.3-7.3-6.6 0-11.7 5.8-11.7 13.8l14.6-.6zM614.3 86.7c-.7-.3-2.5-1.3-2.6-3.4l-.6-9.4h4.4c1.2 6.4 5.5 10.6 11.2 10.6s8-3 8-6.9c0-3.8-3.1-5.7-6.8-7.7l-5-2.6c-7.2-3.7-10.8-6.6-10.8-13.8 0-8.9 6.4-13.2 16.4-13.2 7 0 12.5 2.7 12.5 2.7l-1.3 11.6h-4.1c0-7.2-3-9.9-9-9.9-4.1 0-7.8 1.6-7.8 5.5 0 3.2 1.3 4.6 9.1 8.6l4.5 2.3c8.1 4.2 10.4 7.6 10.4 14.3 0 8.1-8.1 13-16 13-5.2.1-9.7-.5-12.5-1.7zM692 62c0 13.8 7.8 19.5 16.7 19.5 5.5 0 12.2-2.3 12.2-2.3l1 1.9c-2.4 2.4-9 7.4-17.3 7.4-11.3 0-21.4-8.4-21.4-23.8 0-14 9.7-24.2 21.8-24.2 9.4 0 16.7 5.6 16.7 16.3 0 2.8-.5 5.2-.5 5.2H692zm14.6-3.7c4.7-.2 6.4-1.1 6.4-5.9 0-4.2-3-7.3-9.3-7.3-6.6 0-11.7 5.8-11.7 13.8l14.6-.6zM813.8 82.7l-1.9-2.4.1-25c0-11.6-7.5-14.8-15.2-14.8-6.5 0-15.7 7.6-15.7 7.6 0-4.2.2-7.9.2-7.9h-.8l-14.4 5.2v2.4c5.5 0 7 4.9 7 13.9v20.8l-6.5 2.5v2.6h22.7l.2-2.5-6.4-2.2-1.9-2.4V52.1s3.5-4.7 9.7-4.7c6.4 0 13.1 2.3 13.1 13.3l-.3 22-6.3 2.4v2.6h22.7l.2-2.5-6.5-2.5zM539.2 87.9l-10.6-29.4-12.1 29.4h-4.2l-11.9-36.3c-1.7-4.6-2.6-7.2-5.8-7.2v-2.8h19.5v2.8l-5.9 2 8.9 30.1 7.8-18.8 1.8-4.8-2.7-7.7-3.4-.8v-2.8h18.9v3l-6 1.8 10 30.1 10.4-29.9-6.7-2.4v-2.6h17.7v2.8c-4.1.5-6 1.6-9.2 9.7l-11.9 33.8h-4.6zM436.5 80.6s-2.8 1.8-6.9 1.8c-4.5 0-8.5-2.5-8.4-8.6l.4-25.9h14.7l.2-1.6 1-8.1-1.9-.3-1.4 3.1-.8.7-11.6.3h-.1V30.3l-5.7 1-2.5 11.2-8.1.8v3.9c4.5 0 8.1.4 8.1 4.6 0 4.3-.4 17.6-.4 23 0 10.1 3.9 13.9 10.3 13.9 5.5 0 10.1-2.3 14.2-5.6l-1.1-2.5zM678.7 80.6s-2.8 1.8-6.9 1.8c-4.5 0-8.5-2.5-8.4-8.6l.4-25.9h14.6l.2-1.6 1-8.1-1.9-.3-1.4 3.1-.8.7-11.6.3V30.3l-5.7 1-2.5 11.2-8.1.8v3.9c4.5 0 8.1.4 8.1 4.6 0 4.3-.4 17.6-.4 23 0 10.1 3.9 13.9 10.3 13.9 5.5 0 10.1-2.3 14.2-5.6l-1.1-2.5zM399.7 41c-.1 0-1.7-.6-4.9-.6-6.9 0-14.1 10.9-14.1 10.9 0-6 .2-11.2.2-11.2h-.8L366 45.3v2.4c5.3 0 7 4.8 7 13.1v21.6l-6.5 2.5v2.6h22.7V85l-6.4-2.2-1.9-2.4V59.2c0-6.5 5.1-10.2 10.7-10.2 1.1 0 2.3.3 3.3.6l1.5 2.3 1.8.1 1.5-11zM761.5 41c-.1 0-1.7-.6-4.9-.6-6.9 0-14.2 10.9-14.2 10.9 0-6 .2-11.2.2-11.2h-.8l-14.1 5.2v2.4c5.3 0 7 4.8 7 13.1v21.6l-6.5 2.5v2.6h22.7V85l-6.4-2.2-1.9-2.4V59.2c0-6.5 5.1-10.2 10.7-10.2 1.1 0 2.3.3 3.3.6l1.5 2.3 1.9.2 1.5-11.1z"/><g><path class="st0" d="M453.1 149.2c0 13.8 7.8 19.5 16.7 19.5 5.5 0 12.2-2.3 12.2-2.3l1 1.9c-2.4 2.4-9 7.4-17.3 7.4-11.3 0-21.4-8.4-21.4-23.8 0-14 9.7-24.2 21.8-24.2 9.4 0 16.7 5.6 16.7 16.3 0 2.8-.5 5.2-.5 5.2h-29.2zm14.5-3.7c4.7-.2 6.4-1.1 6.4-5.9 0-4.2-3-7.3-9.3-7.3-6.6 0-11.7 5.8-11.7 13.8l14.6-.6zM386 167.5l1.9 2.4 6.4 2.2-.2 2.5h-22.5V172l6.5-2.5V147c0-9.1-1.8-12.2-7.1-12.2v-2.4l14.4-5.2h.8s-.3 6.8-.3 14l.1 26.3zM416.8 128.8v2.6l-6.6 2.2 11 30 11.4-29.8-6.9-2.4v-2.6h17.5v2.8c-2.6 0-5.7 1.3-9.2 9.7l-12.5 33.8h-4.7L403 138.8c-2.2-5.2-4.7-7.2-7.8-7.2v-2.8h21.6zM532.9 173.9c-.7-.3-2.5-1.3-2.6-3.4l-.6-9.4h4.4c1.2 6.4 5.5 10.6 11.2 10.6s8-3 8-6.9c0-3.8-3.1-5.7-6.8-7.7l-5-2.6c-7.2-3.7-10.8-6.6-10.8-13.8 0-8.9 6.4-13.2 16.4-13.2 7 0 12.5 2.7 12.5 2.7l-1.3 11.6h-4.1c0-7.2-3-9.9-9-9.9-4.1 0-7.8 1.6-7.8 5.5 0 3.2 1.3 4.6 9.1 8.6l4.5 2.3c8.1 4.2 10.4 7.6 10.4 14.4 0 8.1-8.1 13-16 13-5.2 0-9.6-.6-12.5-1.8zM635.8 138.8c-2.3-5.2-4.7-7.2-7.8-7.2v-2.8h21.4v2.6l-6.6 2.2 11.4 30 10.4-29.8-6.9-2.4v-2.6h18.4v2.8c-2.6 0-6.2 1.3-9.4 9.7l-11.5 31.5c-6.4 16.8-14.2 25.7-26.1 25l-1.2-9.7s2.7.7 7.6.3c5.7-.4 11.3-6.2 13.7-13.8l-13.4-35.8zM360.2 169.9l-1.9-2.4.1-25c0-11.6-7.5-14.8-15.2-14.8-6.5 0-15.7 7.6-15.7 7.6 0-4.2.2-7.9.2-7.9h-.8l-14.4 5.2v2.4c5.5 0 7 4.9 7 13.9v20.8l-6.5 2.5v2.6h22.7l.2-2.5-6.4-2.2-1.9-2.4v-28.4s3.5-4.7 9.7-4.7c6.4 0 13.1 2.3 13.1 13.3l-.3 22-6.3 2.4v2.6h22.7l.2-2.5-6.5-2.5zM624.3 167.8s-2.8 1.8-6.9 1.8c-4.5 0-8.5-2.5-8.4-8.6l.4-25.9h12.5l.2-1.6 1-8.1-1.9-.3-1.4 3.1-.8.7-9.5.5v-11.8l-5.7 1-2.5 11.2-8.1.8v3.9c4.5 0 8.1.4 8.1 4.6s-.4 17.6-.4 23c0 10.1 3.9 13.9 10.3 13.9 5.5 0 10.1-2.3 14.2-5.6l-1.1-2.6zM524.1 128.2c-.1 0-1.7-.6-4.9-.6-6.9 0-14.1 10.9-14.1 10.9 0-6 .2-11.2.2-11.2h-.8l-14.1 5.2v2.4c5.3 0 7 4.8 7 13.1v21.6l-6.5 2.5v2.6h22.7v-2.5l-6.4-2.2-1.9-2.4v-21.2c0-6.5 5.1-10.2 10.7-10.2 1.1 0 2.3.3 3.3.6l1.5 2.3 1.9.2 1.4-11.1zM381.9 119.8c-1.1 0-6.2-5.6-6.2-6.7 0-1 5-6.7 6.2-6.7 1.3 0 6.2 5.7 6.2 6.7s-5.1 6.7-6.2 6.7zM583.9 167.5l1.9 2.4 6.4 2.2-.2 2.5h-22.5V172l6.5-2.5V147c0-9.1-1.8-12.2-7.1-12.2v-2.4l14.5-5.2h.8s-.3 6.8-.3 14v26.3zM302.6 152.6c0 17.1-12.2 22.8-23.9 22.8-17.5 0-24.7-8.2-24.7-23.5v-28.8c0-8.4-2.3-10.3-8.9-10.6v-3.3h27v3l-9.2 2.9v32.5c0 19.6 7.9 22.5 16.9 22.5 9.4 0 16.5-4.4 16.5-20.3v-34.6l-8.9-2.7v-3.1h23.8v3.5l-6.7 1.1-1.9 2.4v36.2zM579.8 119.8c-1.1 0-6.2-5.6-6.2-6.7 0-1 5-6.7 6.2-6.7 1.3 0 6.2 5.7 6.2 6.7s-5.1 6.7-6.2 6.7z"/></g><g><path class="st0" d="M111.8 123.3l9.3 12.3-6-12.1c1.6 0 3.1-.2 4.4-.4l8.2 7.4-5.3-7.9c.3-.1.4-.1.4-.1l-.2-.8s-.3.1-.7.2c-.7.2-1.8.4-3.2.6-1.2.1-2.5.3-3.9.3h-.1c-1.2 0-2.5-.1-3.6-.3-.6-.1-1.2-.3-1.7-.4-.2-.1-.4-.1-.5-.2-1.1-.3-2.4-.5-3.8-.5h-1c-1.3.1-2.6.3-3.8.6-.2.1-.5.2-.7.3-.3.1-.6.3-.8.4-.8-.5-1.8-.8-3-1-.2 0-.4-.1-.6-.1-.9-.1-1.8-.2-2.7-.2h-1.1c-.3 0-.6.1-.9.1-.8.1-1.6.3-2.3.5-.6.2-1.2.3-1.8.4-.8.1-1.7.2-2.6.3h-.7c-.9 0-1.8-.1-2.6-.1-1.1-.1-2.1-.2-3-.4-1.2-.2-2.2-.4-2.8-.6-.4-.1-.6-.2-.6-.2l-.2.8s.1 0 .2.1l-6.6 7.2 9.1-6.7c1 .2 2.2.4 3.5.5L74 134.7l9.2-11.3c1 0 2-.1 3-.2l-4.8 15.4 8.8-16.3c.4-.1.9-.1 1.3-.2l-2.2 19 5.9-18.9c.3 0 .6.1.9.2l1.5 19.7 2.1-18.9c.3-.2.7-.3 1-.4l5.1 18.7-1.5-19.3h1.1l8.4 17.1-4.6-16.6c.8.3 1.7.5 2.6.6z"/></g><g><path class="st0" d="M166.4 97.8c0-37.8-30.6-68.4-68.4-68.4S29.6 60 29.6 97.8s30.6 68.4 68.4 68.4c37.8.1 68.4-30.6 68.4-68.4zM98 164.6c-18.4 0-35.1-7.5-47.2-19.6-12.1-12-19.6-28.7-19.6-47.2 0-18.4 7.5-35.1 19.6-47.2S79.6 31 98 31c18.4 0 35.1 7.5 47.2 19.6s19.6 28.8 19.6 47.2c0 18.4-7.5 35.1-19.6 47.2s-28.8 19.6-47.2 19.6z"/><path class="st0" d="M98.2 0C44 0 0 44 0 98.2s44 98.2 98.2 98.2 98.2-44 98.2-98.2S152.5 0 98.2 0zm67.1 165.4c-17.2 17.2-40.9 27.8-67.1 27.8s-49.9-10.6-67.1-27.8S3.3 124.5 3.3 98.3s10.6-49.9 27.8-67.1S72 3.3 98.2 3.3s49.9 10.6 67.1 27.8c17.2 17.2 27.8 40.9 27.8 67.1 0 26.3-10.6 50-27.8 67.2z"/><path class="st0" d="M145.5 98.3c0-26.3-21.3-47.7-47.7-47.7-26.3 0-47.7 21.3-47.7 47.7 0 26.3 21.3 47.7 47.7 47.7 26.3-.1 47.7-21.4 47.7-47.7zm-47.7 46c-12.7 0-24.2-5.2-32.6-13.5-8.3-8.3-13.5-19.8-13.5-32.5s5.2-24.2 13.5-32.5S85 52.3 97.8 52.3c12.7 0 24.2 5.1 32.5 13.5 8.3 8.3 13.5 19.8 13.5 32.5s-5.2 24.2-13.5 32.5-19.8 13.5-32.5 13.5z"/><path class="st0" d="M120.9 120.4c-1 .2-2.3.4-3.9.6-.7.1-1.5.1-2.2.1h-.9c-1.5-.1-3-.3-4.4-.7h-.2c-.3-.1-.7-.2-1-.3-1-.2-2.2-.3-3.3-.3h-1.1c-1.5.1-2.9.3-4.1.7h-.1c-.4.1-.7.3-1.1.5-1.5-.9-4-1.3-6.3-1.3h-1.1c-1.2.1-2.4.3-3.3.6-.4.1-.8.3-1.3.3-.5.1-1.1.2-1.7.3-.7.1-1.4.1-2.2.1-.6 0-1.2 0-1.8-.1-.6 0-1.3-.1-1.9-.2-.9-.1-1.8-.2-2.6-.4-.3-.1-.6-.1-.9-.2-1.2-.2-1.9-.4-1.9-.4l-.2.8s.6.2 1.5.4c.8.2 1.9.4 3.2.6l2.4.3c.7.1 1.5.1 2.2.1h1.4c.7 0 1.4-.1 2.1-.3.6-.1 1.2-.3 1.8-.5.7-.2 1.6-.4 2.5-.5h1.6c1 0 2 .1 3 .3h.2c1.1.2 2.1.6 2.8 1l.2.2.2-.2c.2-.1.4-.3.7-.4.1-.1.3-.1.4-.2 1.1-.4 2.5-.7 3.9-.7h1c1.3 0 2.6.2 3.6.4.2.1.4.1.5.1.4.1.8.3 1.2.4 1.3.3 2.6.4 4 .5h.5c1.1 0 2.1-.1 3-.2 1.5-.2 2.7-.4 3.6-.6.7-.2 1.1-.3 1.2-.3l-.2-.8c.4 0-.1.1-1 .3zM83 150.4s.2 1.3 1 2c1.6 1.3 3.4 1.6 3.4 1.6s.1-1.4-2.1-2.7c-1.8-1-2.3-.9-2.3-.9zM78 149.2s.1 1.3.9 2c1.5 1.4 3.3 1.7 3.3 1.7s.2-1.3-1.9-2.7c-1.8-1.1-2.3-1-2.3-1zM72.7 147.3s0 1.3.8 2c1.4 1.4 3.2 1.8 3.2 1.8s.2-1.3-1.7-2.8c-1.7-1.1-2.3-1-2.3-1zM67.4 144.5s-.1 1.3.5 2.1c1.3 1.5 3 2 3 2s.4-1.3-1.4-2.8c-1.6-1.4-2.1-1.3-2.1-1.3zM87.9 151.8s.4 1.3 1.3 1.9c1.8 1.2 3.6 1.2 3.6 1.2s-.2-1.4-2.5-2.4c-1.9-.9-2.4-.7-2.4-.7zM78.3 153.6c-2.7-.1-3.9 1-3.9 1s1.5.7 3.9.5c1.3-.1 2.6-1 2.6-1s-.3-.4-2.6-.5zM83.9 155.1c-2.7-.1-3.8.9-3.8.9s1.6.8 3.9.6c1.3-.1 2.4-1 2.4-1s-.2-.4-2.5-.5zM90.1 156.1c-2.7 0-3.9 1.1-3.9 1.1s1.6.7 3.9.4c1.3-.2 2.5-1.1 2.5-1.1s-.2-.3-2.5-.4z"/><path class="st0" d="M132.9 144.3c-1.4.6-1.9 1.3-2.1 1.8-10.8 5.9-21.1 8.9-30.3 9.2l-1.2.2c.4-.8 1.4-2.2.3-2.5s-1.8 2.4-1.3 2.6h-.1c-.2-1.1-.6-3.5-1.1-2.3-.1.4-1.9.3.1 2.2-13.9-.6-23.4-4.7-31.3-9.1-.2-.5-.7-1.2-2.1-1.8-1.9-.8-2.4-.5-2.4-.5s.2 1.2 1.2 1.8c1.2.7 2.4.9 3.1 1 8 4.4 17.7 8.6 31.9 9.2-.2.7-1.9 1.8-.7 2 1.7.3 1.5-1.8 2.3-1s.6 1.1 1.2.8c.5-.3-.2-1.4-.9-1.9l1.3-.2c9.3-.3 19.7-3.3 30.6-9.3.6-.1 1.9-.2 3.1-1 .9-.6 1.1-1.8 1.1-1.8s-.8-.2-2.7.6zM72.1 151.6c-2.1.2-2.4.7-2.4.7s.8 1 1.9 1c2 .1 3.6-.8 3.6-.8s-.7-1.1-3.1-.9zM67 149c-2.1-.2-2.5.2-2.5.2s.6 1.1 1.6 1.4c1.9.5 3.6-.1 3.6-.1s-.3-1.3-2.7-1.5z"/><path class="st0" d="M109.2 153.6s1.8-.2 3.5-1.5c.9-.7 1.1-2 1.1-2s-.5-.2-2.4.9c-2.3 1.2-2.2 2.6-2.2 2.6zM114.3 152.3s1.8-.3 3.3-1.6c.8-.7.9-2 .9-2s-.5-.1-2.3 1c-2 1.3-1.9 2.6-1.9 2.6zM119.8 150.7s1.8-.3 3.3-1.7c.8-.8.8-2 .8-2s-.6-.1-2.3 1.1c-2 1.2-1.8 2.6-1.8 2.6zM127.1 145.5c-1.9 1.5-1.5 2.8-1.5 2.8s1.8-.5 3.1-2c.7-.8.6-2.1.6-2.1s-.6 0-2.2 1.3zM103.5 154.7s1.8 0 3.6-1.1c1-.6 1.4-1.9 1.4-1.9s-.5-.2-2.5.6c-2.3 1-2.5 2.4-2.5 2.4zM115.6 153.7s1.3.9 2.6 1.1c2.4.3 3.9-.4 3.9-.4s-1.2-1.1-3.9-1.1c-2.3 0-2.6.4-2.6.4zM112.3 155c-2.3.1-2.6.4-2.6.4s1.2.9 2.4 1c2.3.2 3.9-.5 3.9-.5s-1-1-3.7-.9zM103.3 156.3s1.2 1 2.5 1.1c2.3.4 3.9-.3 3.9-.3s-1.1-1.1-3.8-1.2c-2.3.1-2.6.4-2.6.4zM124.2 151c-2.4.2-2.9 1.4-2.9 1.4s1.7.6 3.7.1c1.1-.3 1.7-1.3 1.7-1.3s-.4-.3-2.5-.2zM129.3 148.4c-2.4.1-2.9 1.4-2.9 1.4s1.7.6 3.6.2c1-.2 1.7-1.3 1.7-1.3s-.3-.4-2.4-.3zM41.5 145.3c-.6-.8-.9-1.4-1.2-1.8-.1-.1-.2-.2-.3-.2-.2 0-.2.1-.3.1-.1.1-.2.2-.2.3 0 .4.5.8.4 1.3 0 .3-.1.6-.6.9l-7.1 5.1c-.1.1-.1.1-.2.1 0-.1.1-.3.1-.4l3-13.5c.1-.3.1-.5.1-.7s0-.3-.1-.5c-.1-.1-.2-.1-.3-.1-.3 0-.5.2-.9.5l-10.1 7.2c-.3.2-.6.3-.8.3-.4 0-.6-.4-1.1-.4-.1 0-.2 0-.3.1s-.2.2-.2.3c0 .1 0 .2.1.3.3.4.9 1.1 1.3 1.7.4.5.7 1.1 1.1 1.6.1.1.2.2.3.2s.2 0 .2-.1c.1-.1.2-.3.2-.4 0-.5-.4-.9-.4-1.6 0-.5.2-1 1-1.6l7.1-5.1-3.3 14.9c0 .1-.1.3-.1.6 0 .1 0 .2.1.3.2.3.5.5.6.8.2.2.3.6.5.9.1.1.2.2.4.2.1 0 .1 0 .2-.1s.2-.2.2-.4c0-.4-.4-.8-.4-1.5 0-.6.3-1.5 1.9-2.6l6.4-4.6c.7-.5 1.2-.7 1.6-.7.7 0 .9.6 1.5.7.1 0 .2 0 .3-.1s.2-.2.2-.3 0-.2-.1-.3c.4 0-.3-.8-.8-1.4zM25.6 135.7c3.2-1.3 5.2-3.9 5.2-7 0-1-.2-2.1-.6-3.1-1.4-3.4-4.1-5.4-7.3-5.4-1.1 0-2.2.2-3.4.7-3.1 1.3-4.9 4-4.9 7.1 0 1 .2 2.1.6 3.2 1.3 3.2 4.1 5.1 7.3 5.1 1.1 0 2.1-.2 3.1-.6zm-9-4.4c-.3-.8-.4-1.5-.4-2.3 0-2.9 2.1-5.5 4.9-6.6 1-.4 1.9-.6 2.8-.6 2.3 0 4.2 1.3 5 3.3.3.8.4 1.6.4 2.3 0 2.9-2.2 5.5-5 6.7-.9.4-1.8.6-2.7.6-2.2-.1-4.1-1.1-5-3.4zM24.4 114.9c.5 0 .8.3 1 .6s.3.7.7.7h.1c.2 0 .4-.2.4-.4-.1-.8-.3-1.6-.5-2.4-.3-1.8-.3-2.2-.3-2.4 0-.1 0-.5-.4-.5h-.1c-.6.2-.4.8-.5 1.4s-.2 1-1 1.1l-4.5.7c-.1 0-.2.1-.3.1s-.1 0-.2-.3c-.1-.9-.2-1.4-.2-1.7 0-.5.1-.5.8-1.1l3.3-2.9c1-.9 1.9-1.8 1.9-3.2v-.5c0-.1-.1-.4-.2-.8-.1-.3-.1-.7-.5-.8h-.1c-.2 0-.3.3-.3.4-.1.4.1 1.1-1.4 2.5l-4.6 4.2c-.8-1.2-2.1-2-3.6-2h-.6c-2.7.4-3.2 2.6-3.2 4.1 0 .9.2 1.6.2 1.7.2 1.1.4 2.3.6 3.5.1.6.1.8.1 1v.4c.1.3.2.5.5.6.6-.2.4-.8.5-1.2.1-.4.2-.8 1.1-1l10.8-1.7c.3-.1.4-.1.5-.1zm-6.7-1.1l-5.4.8h-.2c-.4 0-.4-.2-.5-.9-.1-.3-.1-.7-.1-1 0-1.6.7-3 2.7-3.3.2 0 .4-.1.6-.1 1.9 0 2.4 1.6 2.6 2.4.1.6.3 1.4.3 1.8v.3zM12.1 101.3c.2 0 .3-.1.4-.4h-.1.1c0-.5-.5-.5-.6-.6-1.1-.5-1.3-.4-1.3-1.4v-.3l.1-3.5h.8l11.1.5c.5 0 .7.3.9.8.2.4.1.9.6 1 .1 0 .2 0 .3-.1s.1-.2.1-.3h-.1.1v-.8c0-.4 0-1.1.1-2.1 0-.6.1-1.2.2-1.7 0-.4-.4-.4-.5-.4-.6.1-.5.6-.7 1-.1.4-.3.7-1 .7h-.1l-10.9-.5c-.4 0-.7 0-.8-.1v-.2-.5l.1-3.1c.1-1 .4-1.1.7-1.2.2 0 .4 0 .6-.1.2 0 .4-.2.4-.5 0-.4-.4-.4-.5-.4h-1.8c-.2 0-.5 0-.6.2-.2.2-.2.4-.2.6 0 .4 0 2.4-.2 6.3-.1 2.7-.3 4.4-.3 6.1.1.6.8.6 1 .6l2.1.4zM10.6 82s.1 0 0 0c.6-.1.6-.5.8-.8s.5-.6.9-.6h.3l10.6 2.9c1.2.3 1.1.8 1.2 1.3v.2c0 .2 0 .6.4.7h.2c.2 0 .4-.1.4-.3s0-.3.4-1.8c.3-1.1.8-2.6.9-2.8v-.2c0-.1 0-.3-.3-.4h-.1c-.5.1-.6.5-.8.9s-.5.7-.9.7h-.3l-5.1-1.4H19l2.1-7.6c.1 0 .2.1.3.1l4.9 1.4c.6.2.6.5.7.8.1.3-.1.8.4 1h.2c.5 0 .5-.5.5-.6.1-.4.2-1 .5-2.3.2-.7.5-1.3.6-1.9v-.1c0-.3-.2-.4-.3-.4h-.1c-.5.1-.5.5-.8.8-.2.4-.5.6-.9.6-.1 0-.2 0-.3-.1l-10.9-3c-.8-.2-.8-.7-.8-1.1v-.1c0-.2 0-.5-.3-.6h-.1c-.2 0-.5.2-.6.7-.1.4-.1.8-.3 1.5-.1.4-.5 1.4-.7 2.1v.3c0 .2.2.4.3.4h.1c.4-.1.5-.4.7-.7.2-.3.4-.5.8-.5.1 0 .2 0 .4.1l4.2 1.2c.1 0 .2 0 .3.1 0 0 .1 0 .1.1l-2.1 7.5v.1h-.2L13.2 79c-.9-.3-.8-.7-.9-1.2v-.1c0-.2 0-.5-.3-.6h-.1c-.2 0-.4.2-.5.5-.2.7-.3 1.3-.5 1.9-.2.8-.5 1.5-.7 2.2v.2c.1-.2.2.1.4.1zM16.8 61.5c.1 0 .1.1.2.1.5-.1.7-.7 1.5-.7h.3l12.4 2c1 .2 1.6.3 2 .3.2 0 .4-.1.5-.2s.1-.2.1-.3c0-.2-.1-.4-.3-.6L29.7 57l6 .9c.3 0 .5.1.7.1s.4-.1.5-.2.1-.2.1-.3c0-.3-.2-.6-.4-.8l-8.3-11.4c-.5-.7-.6-1.1-.6-1.3v-.3c0-.1-.1-.3-.2-.4-.1 0-.2-.1-.3-.1-.2 0-.3.2-.4.3-.3.4-.5 1-.8 1.6-.3.4-.6.8-.8 1.2 0 .1-.1.1-.1.2 0 .2.1.3.3.4.1 0 .1.1.2.1.5-.1.9-.7 1.3-.7.1 0 .2 0 .3.1.2.1.3.2.5.4l6.2 8.3c.2.3.3.5.4.6h-.6L29 55c-.3 0-.8-.2-.9-.3-.1-.1-.3-.2-.5-.5l-2.2-3.1c-.7-1-.8-1.4-.8-1.7v-.3c0-.1-.1-.3-.3-.4h-.1c-.1 0-.2.1-.3.2-.2.3-.3.6-.7 1.4-.2.4-.5.7-.8 1.1 0 .1-.2.2-.2.4 0 .1 0 .2.2.3.1 0 .2.1.2.1.5-.1.8-.6 1.2-.6.1 0 .2 0 .3.1s.4.3.5.5l1.6 2.2c0 .1.1.1.1.2H26l-3-.5c-.3 0-.4-.1-.6-.2s-.2-.2-.2-.4v-.4c0-.1 0-.3-.2-.4-.1-.1-.2-.1-.3-.1s-.2 0-.3.1c-.3.4-.5.9-1 1.8-.1.2-.8 1.2-1.2 1.8-.1.1-.1.2-.1.3s.1.3.2.4c.1.1.2.1.3.1.8-.1.8-1.2 1.8-1.1h.2l5.5.8c.3 0 .6.1.6.1.1 0 .3.3.6.6l2.4 3.3c.1.1.1.1.1.2h-.4l-10.7-1.7c-.2 0-.4-.1-.5-.1-.2-.1-.2-.3-.2-.5v-.4c0-.1 0-.3-.2-.4-.1-.1-.2-.1-.3-.1s-.3.1-.3.2c-.3.5-.5.9-.7 1.4-.3.5-.7 1-1 1.6-.1.1-.1.3-.1.4.1-.2.2 0 .4.1zM31.5 39.8c.3 0 .6-.2.7-.3.3-.2.5-.3.7-.3.5 0 1 .4 1.4.9l6.9 6.9c.6.6.9 1 .9 1.3v.2c-.2.5-.3.7-.3 1 0 .1 0 .2.1.3.1.1.2.2.3.2.2 0 .3-.1.4-.2.6-.6 1.2-1.3 1.8-1.9 1.1-1.2 2.3-2.2 3.5-3.4.6-.6 1-1 1-1.9v-.2c0-.8-.2-1.7-.8-2.4-.1 0-.1-.1-.3-.2-.1 0-.2 0-.2.1-.1.1-.1.2-.1.3v.7c0 .9-.3 2.5-2.6 4.8-.5.5-.9.7-1.1.7s-.5-.3-1-.8L40 42.8l-.3-.3.1-.1 2.2-2.3c.3-.3.6-.4.8-.4.5 0 .9.6 1.5.6.1 0 .2 0 .3-.1s.1-.2.1-.3-.1-.3-.2-.3l-1.2-1.2-1.5-1.5c-.1-.1-.3-.2-.5-.2-.1 0-.2 0-.3.1s-.1.2-.1.3c.1.4.5.7.4 1.3 0 .3-.1.7-.6 1.2L39 41l-.4.4s-.1-.1-.4-.3l-2.8-2.8c-.5-.5-.7-.7-.6-.8 0-.1.3-.5 1.1-1.3.6-.6 2-2.1 2.7-2.1h.1c.4 0 .7.7 1.3.8.1 0 .2 0 .3-.1 0-.1.1-.1.1-.3 0-.4-.3-.8-1.6-2.1-.2-.1-.3-.3-.5-.3-.1 0-.2 0-.3.1-.5.5-1.8 1.9-2.1 2.2-.6.6-1.5 1.4-4.3 4.2-.3.3-.5.5-.5.7 0 .1.1.2.1.3.1.1.2.2.3.2zM49.3 32.3c2.2 0 4.6-1.5 6.4-1.4.7 0 1.3.2 1.8.9.4.5.5 1.1.5 1.7 0 1.2-.8 2.4-1.9 3.1-.9.6-1.8.8-2.6.8-1.2 0-2.3-.6-2.7-.9-.3-.2-.4-.4-.7-.5-.1 0-.2 0-.3.1s-.2.2-.2.4.1.4.3.6l2 2c.2.1.3.1.5.1.8 0 2.3-.4 3.4-1.2 2.5-1.7 3.3-3.5 3.3-5 0-1-.3-1.8-.7-2.4-1-1.4-2.2-1.9-3.4-1.9-2.2 0-4.6 1.4-6.3 1.4-.7 0-1.2-.2-1.7-.9-.3-.5-.4-.9-.4-1.3 0-1 .7-2 1.7-2.7.8-.5 1.6-.8 2.4-.8s1.6.2 2.3.8c.1.1.4.3.7.3.1 0 .2 0 .2-.1.1-.1.2-.2.2-.4s-.1-.3-.2-.3L52 22.5c-.1-.1-.2-.2-.4-.2-.1 0-.2 0-.3.1-.3.3-.2.5-.2.4 0 .1-1.3-.1-3.4 1.4-1.4 1-2.4 2.4-2.4 4 0 .8.2 1.5.7 2.3 1 1.3 2.2 1.8 3.3 1.8zM57.8 21.7c.1.2.2.3.4.3h.1c.2-.1.3-.3.3-.5v-.3c0-.3-.1-.6-.1-.8 0-.5.1-.6 1-1l3.2-1.4c.1.1.3.5.3.7l4.4 10.2c.1.1.1.3.1.4 0 .7-.9.9-1 1.6v.2c.1.1.2.3.4.3.1 0 .2 0 .2-.1.2-.1.5-.3 2.7-1.2.6-.2 1.1-.4 1.6-.6.2-.1.3-.2.2-.4 0-.1-.1-.2-.1-.2-.1-.2-.3-.3-.5-.3-.3 0-.6.1-.9.1s-.6-.1-.9-.7l-4.3-10c-.2-.5-.3-.7-.3-.8h.1c.1-.1.3-.1.5-.2l2.8-1.2c.4-.2.6-.2.8-.2.4 0 .5.2.7.4.1.2.2.6.6.6h.2c.2-.1.3-.2.3-.4s-.1-.3-.1-.4l-.8-1.5c-.1-.3-.3-.5-.6-.5-.1 0-.3 0-.5.1-.4.2-2.2 1-5.7 2.5-2.5 1.1-4.1 1.7-5.6 2.3-.2.1-.3.3-.3.5 0 .3.1.5.2.7l.6 1.8zM74.9 12.8H75.2c.9 0 1.1.8 1.3 1.7l2 9.5c.1.4.2.8.2 1.1 0 .3-.1.5-.3.7-.5.4-.8.4-.9.9 0 .2.2.3.4.3h.2c.9-.2 1.7-.4 2.5-.6 1.6-.4 3.2-.6 4.8-.9.9-.2 1.5-.3 2-1.2.3-.6.7-1.3.7-2v-.4c0-.1-.1-.3-.4-.4h-.1c-.3.1-.2.3-.4.5-.4.7-1.4 2.1-5 2.9-.4.1-.6.1-.8.1-.7 0-.6-.3-.9-1.4l-.8-3.9c0-.2-.1-.3-.1-.4s0-.1.2-.1l3.1-.6h.4c.5 0 .7.3.9.7.2.3.2.8.7.9h.1c.2 0 .4-.2.4-.4v-.1c-.1-.6-.3-1.1-.4-1.6-.1-.7-.2-1.4-.4-2.1-.1-.2-.1-.5-.5-.5H84c-.5.2-.3.7-.4 1.1s-.3.8-1.3 1l-2.3.5c-.3.1-.5.1-.5.1-.1 0 0 .1-.2-.5l-.8-3.9c-.1-.4-.1-.7-.1-.8 0-.3.2-.3 1.7-.7.6-.1 1.7-.4 2.6-.4.4 0 .7.1.9.2.1.1.2.4.3.7.1.3.2.7.6.7h.1c.2-.1.4-.3.3-.8 0-.4-.1-1-.3-2.1-.1-.2-.1-.5-.5-.6H84c-.7.1-2.6.6-3 .7-.9.2-2 .3-5.9 1.2-.5.1-.8.2-.9.6v.1c.2.2.5.2.7.2zM90 9.5c.1.6.7.5 1.1.6s.8.3.8 1.2l.1 10.9c0 .7-.3.9-.7 1.1-.3.2-.8.2-.9.7 0 .2.2.4.4.4.8 0 1.6-.1 2.4-.1h.6c1.2 0 1.6.1 1.8.1h.1c.1 0 .3 0 .4-.2h.1V24c-.1-.6-.8-.6-1.3-.7-.5-.2-1-.3-1-1.2l-.1-4.5v-.2c0-.1-.1-.1.4-.2h1c1.3 0 .9 0 1.6 1l2.4 3.7c.8 1.2 1.7 2.4 3.4 2.4h.8c.2-.1.5 0 .7-.2h.1v-.2.1-.1c0-.2-.2-.4-.3-.4-.4-.1-1.1 0-2.3-1.8l-3.5-5.2c1.4-.7 2.5-2.1 2.5-3.8-.1-3.6-3.3-3.9-4.7-3.9h-.6c-1.1 0-2.3.1-3.6.1h-.2c-.8 0-.7-.1-1.1-.1h-.1c0 .2-.3.3-.3.7 0-.1 0-.1 0 0 0-.1 0-.1 0 0 0-.1 0-.1 0 0 0-.1 0-.1 0 0 0-.1 0 0 0 0zm3.9 1.1c0-.7.2-.5 1-.6h.1c2 0 3.8.8 3.8 3.2v.1c0 2.4-1.9 2.8-2.7 2.8h-1.2c-.3 0-.6 0-.7-.1-.1 0-.1 0-.2-.1l-.1-5.3zM106.4 24.5c.2 0 1.3.2 2 .3 1 .2 1.6.4 2.1.5h.1c.3 0 .4-.3.4-.4v-.1c-.1-.5-.6-.5-.9-.7-.4-.2-.6-.4-.6-.9 0-.1 0-.3.1-.4l1.8-8.6V14c.1.1.1.3.2.3l6.8 12c.4.6.6.8.8.9h.1c.4-.1.4-.5.6-1l2.6-12.1c.2-.7.4-.8.7-.9s.7 0 .9-.5v-.1c0-.2-.2-.4-.3-.4-.5-.1-1.4-.2-2.1-.4-.7-.1-1.2-.4-1.9-.5h-.1c-.2 0-.4.1-.4.3v.1c.1.5.6.6 1 .8.4.3.8.6.8 1.5 0 .2 0 .5-.1.7l-1.8 8.6-7.6-13.2c-.1-.1-.2-.6-.6-.7-.3-.1-.7-.1-1-.1-.3-.1-.6-.2-1-.3h-.1c-.1 0-.4 0-.5.3v.1c.1.6.6.5 1 .8s.8.8.9 2c0 .4-.1.9-.2 1.5l-1.7 7.7c-.3 1.4-.8 1.7-1.2 1.8-.4.1-1-.1-1.2.5v.1c0 .5.2.7.4.7zM136.8 35.6c1.4.8 2.6 1.2 3.6 1.2 3.1 0 4.6-2.9 5.1-3.5l3.5-5.6c.5-.8.9-.9 1.2-.9h.5c.2 0 .4-.1.5-.3 0-.1.1-.1.1-.2 0-.2-.1-.3-.2-.4-.4-.2-.7-.3-1.1-.5-.7-.4-1.4-.9-2.1-1.4h-.2c-.1 0-.3 0-.4.2-.1.1-.1.2-.1.3.1.7 1 .9 1 1.7 0 .2-.1.5-.3.9l-3.6 5.9c-.9 1.4-2.1 2.7-3.9 2.7-.8 0-1.7-.3-2.8-.9-1.6-1-2.5-2.3-2.5-3.9 0-.8.3-1.7.9-2.7l4-6.5c.3-.4.5-.5.7-.5.3 0 .6.2.9.2.1 0 .3-.1.4-.2V21c-.1-.4-.5-.6-.6-.6-.6-.4-1.2-.6-1.8-1-.5-.3-.9-.6-1.4-1-.1-.1-.3-.1-.5-.1-.1 0-.2 0-.3.2 0 .1-.1.2-.1.3.1.7 1 1 .9 1.5 0 .1 0 .2-.1.4l-3.8 6.1c-.8 1.2-1.3 2.6-1.3 4 .1 1.3 1.1 3.1 3.8 4.8zM148.5 39.7c-.8.7-1.3.9-1.7.9-.5 0-.8-.4-1.3-.4-.1 0-.3.1-.3.2-.1 0-.1.1-.1.3 0 .1.1.2.2.4.1.1 1 .8 1.5 1.4.7.7 1.1 1.2 1.5 1.6.1.1.2.1.3.1.2 0 .3-.1.3-.2.1-.1.1-.2.1-.3-.1-.5-.7-.9-.6-1.4 0-.2.1-.5.5-.9l6.2-6.1c.1-.1.1-.1.2-.1v.4l-1.1 13.6v.3c0 .5.1.7.2.8 0 .1.1.1.2.1.3 0 .5-.3.8-.6l8.8-8.7c.3-.3.6-.4.8-.4.3 0 .6.2 1 .2.1 0 .2-.1.3-.1.1-.1.1-.2.1-.3s-.1-.2-.1-.3c-.4-.4-1.1-1-1.6-1.5s-.8-1-1.3-1.4c-.1-.1-.2-.1-.3-.1s-.2.1-.3.1c-.1.1-.1.2-.1.3.1.6.7 1 .7 1.8 0 .4-.2.9-.8 1.5l-6.2 6.2.9-15.2v-.5c0-.1 0-.3-.1-.4-.3-.3-.6-.4-.8-.6-.2-.2-.4-.5-.6-.8-.1-.1-.2-.2-.4-.2-.1 0-.2 0-.2.1-.1.1-.2.2-.1.3 0 .5.6.9.6 1.7 0 .6-.3 1.4-1.5 2.6l-5.7 5.6zM169.3 47.9l-9 6.2c-.4.3-.8.4-1 .4-.6 0-.8-.6-1.4-.7-.1 0-.2 0-.3.1-.1.1-.2.2-.2.4s.1.3.2.4c.2.3.5.6 1.2 1.6.5.7 1 1.5 1.3 2 .1.2.2.4.5.4.1 0 .2 0 .2-.1.1-.1.2-.3.2-.4 0-.4-.4-.9-.4-1.4 0-.2.1-.5.4-.7l9.5-6.5c.3-.2.5-.3.7-.3.5 0 .8.6 1.3.7.1 0 .2 0 .2-.1.1-.1.2-.2.2-.3 0-.2-.1-.3-.2-.4-.4-.6-.8-1.1-1.2-1.6-.4-.6-.8-1.3-1.3-2-.1-.1-.2-.2-.3-.2-.1 0-.2.1-.3.1-.1.1-.2.2-.2.3 0 .4.3.8.3 1.2.1.3 0 .6-.4.9zM165.8 66.3c-.3.3-.9.8-1 1.3v.2c.1.3.4.3.7.3h.9l13.7-.4h.1c1.2 0 .9.4 1.5.6h.2c.2-.1.3-.2.3-.4 0-.1 0-.2-.1-.3-.1-.3-.3-.5-.8-1.5-.2-.4-.3-.9-.5-1.3-.1-.2-.2-.3-.4-.3-.1 0-.2 0-.2.1-.2.1-.3.3-.2.4 0 .3.1.6.1.8s0 .3-.3.4c-.3.2-1 .3-1.4.3l-9.9.4h-.5c0-.1.4-.5 1.1-1.2l6.5-7.1c.1-.1.4-.4.6-.5.1 0 .2-.1.2-.1.3 0 .5.4 1 .4h.2c.2-.1.2-.3.2-.4s0-.1-.1-.2c-.1-.3-.5-1-.8-1.5-.3-.6-.5-1.2-.7-1.8-.1-.2-.2-.3-.4-.3-.1 0-.2 0-.2.1-.2.1-.3.3-.3.4 0 .2.1.4.1.7 0 .3-.1.6-.4 1l-9.2 9.9zM182.9 73.7c0 .9-.8 1-1.7 1.3l-9.5 2.2c-.5.1-.8.2-1.1.2s-.5-.1-.6-.3c-.5-.5-.5-.8-.9-.9-.2 0-.4.3-.4.4v.2c.2.8.5 1.7.7 2.5.4 1.6.6 3.2 1 4.8.2.9.3 1.5 1.3 2 .6.3 1.3.6 2 .7h.4c.1 0 .3 0 .4-.4v-.1c-.1-.3-.3-.2-.5-.4-.7-.4-2.1-1.3-3-4.9-.1-.4-.1-.7-.1-.9 0-.7.3-.6 1.3-.9l3.8-.9c.2 0 .3-.1.4-.1s.1 0 .1.1l.7 3.1v.4c0 .5-.3.7-.6.9-.3.2-.8.2-.9.7v.1c0 .2.2.3.4.3h.1c.6-.1 1.1-.3 1.6-.4.7-.2 1.4-.3 2.1-.4.2-.1.5-.1.5-.5v-.1c-.2-.5-.7-.3-1.1-.4s-.8-.3-1.1-1.3l-.5-2.3c-.1-.3-.1-.5-.1-.5 0-.1-.1 0 .5-.2l3.9-.9c.4-.1.7-.2.8-.2.3 0 .3.2.7 1.7.1.6.5 1.8.5 2.7 0 .4-.1.7-.2.8-.1.1-.4.2-.7.3-.3.1-.6.2-.7.6v.1c0 .2.3.3.7.3.4 0 1-.1 2.1-.3.2-.1.5-.1.6-.5v-.1c-.1-.7-.7-2.6-.8-3-.2-.9-.4-2-1.3-5.9-.1-.5-.2-.8-.6-.8h-.1c-.4.1-.4.5-.4.7v.2c.3.2.3.2.3.3zM184.7 90.2l-10.9.3h-.1c-.7 0-.9-.3-1.1-.6-.2-.3-.2-.8-.7-.9-.2 0-.4.2-.4.4 0 .8.1 1.6.2 2.4v2.6c0 .1.1.4.4.5.7-.1.6-.8.7-1.3.2-.5.3-1 1.1-1l4.5-.1h.2c.1 0 .1-.1.2.4v1.2c0 1 0 .8-1 1.5l-3.7 2.5c-1.2.8-2.3 1.7-2.3 3.4v.1c0 .1 0 .4.1.8.1.3 0 .6.4.8.2 0 .4-.2.4-.4.1-.4 0-1.1 1.7-2.3l5.1-3.6c.7 1.4 2.1 2.5 3.8 2.5h.1c3.4-.1 3.8-3.2 3.8-4.6V94c0-1.1-.1-2.3-.2-3.6V90v-.9c0-.4-.2-.6-.5-.7h-.1c-.5.1-.4.7-.5 1.1-.1.3-.3.6-1.2.7zm1.3 3.3c0 2-.8 3.7-3.2 3.8h-.1c-2.4 0-2.7-1.8-2.8-2.7v-1.4-.6-.1l5.4-.2c.6 0 .5.2.6 1 .1 0 .1.1.1.2zM182.8 107.1c-.3-.1-.6-.1-.8-.1-2.4 0-3.5 2-4.4 3.8-.9 1.9-1.7 3.6-3.2 3.6h-.4c-1.8-.3-2.6-1.8-2.6-3.4 0-.3 0-.6.1-.8.5-2.8 2.8-3.6 3.7-3.7.4 0 .8 0 1-.5v-.1c0-.4-.4-.5-.8-.5h-.1l-2.8.1c-.7.2-1.6 1.9-2 3.5-.1.6-.2 1.2-.2 1.8 0 3.5 2.1 5 3.8 5.2.3.1.6.1.9.1 2.5 0 3.6-2 4.5-3.8.9-1.9 1.6-3.6 3.1-3.6h.4c1.5.3 2.1 1.5 2.1 2.9 0 .3 0 .5-.1.8-.3 1.8-1.4 3.1-3.3 3.4-.2.1-.7 0-.9.5v.1c0 .3.3.4.5.4l2.9.2h.1c.2 0 .4-.2.5-.4v-.1c0-.3-.2-.4-.2-.4 0-.1.9-.9 1.4-3.4.1-.4.1-.8.1-1.1.2-2.1-.9-4.1-3.3-4.5zM183.3 122.8h-.1c-.4.1-.5.4-.7.7-.2.3-.4.5-.8.5-.1 0-.3 0-.4-.1l-10.4-3.4c-1-.4-1.1-.8-1.1-1.2v-.5c0-.2-.1-.5-.3-.6h-.2c-.3 0-.4.2-.5.5s-.2.7-.6 2c-.3.9-.6 1.7-.8 2.2 0 .1-.1.3-.1.4 0 .2.2.4.3.4h.1c.5-.1.6-.5.8-.8.2-.3.5-.6.8-.6.1 0 .2 0 .3.1l10.9 3.6c.7.3.8.6.8 1v.4c0 .2 0 .4.3.5h.2c.3 0 .4-.2.4-.5.2-.6.3-1.3.5-1.9.2-.7.6-1.4.8-2.2v-.2c.1-.2-.1-.3-.2-.3zM179.4 132.6l-1.7-1.2c-.1-.1-.2-.1-.2-.1-.1 0-.3 0-.4.2 0 .1-.1.2-.1.2 0 .3.3.5.4.6.6.6.8.8.8 1.1 0 .2-.1.5-.3.9l-1.6 3.1c-.1 0-.6-.3-.7-.3l-9.9-5.2c-.4-.2-.5-.5-.5-.8s.1-.6.1-.9c0-.2 0-.4-.2-.5-.1 0-.2-.1-.3-.1-.2 0-.3.1-.4.3-.1.2-.2.5-1.3 2.6l-.9 1.5c0 .1-.1.1-.1.2 0 .3.3.4.3.4.1 0 .1.1.2.1.7-.1.8-1 1.5-1 .2 0 .4.1.7.2l9.7 5.1c.3.2.5.3.6.3l.1.1-.3.6-1.4 2.7c-.4.7-.7.8-.9.8-.3 0-.6-.2-.9-.3-.2 0-.4.1-.4.3 0 .1-.1.2-.1.2 0 .4.3.4.5.5l1.6.7c.2.1.3.1.5.1.3 0 .5-.2.6-.5.2-.4 1-2.2 2.8-5.6 1.3-2.4 2.1-3.9 2.9-5.3 0-.1.1-.1.1-.2-.2-.5-.6-.7-.8-.8zM170.7 148.7c-.5.1-.8.7-1.5.7h-.2l-6.7-.8c-.3 0-.8-.1-1-.3l-4-3.3c-.3-.3-.4-.5-.4-.7 0-.4.4-.8.4-1.2 0-.1-.1-.3-.2-.4s-.2-.1-.3-.1c-.2 0-.3.2-.4.2-.1.2-.5.8-1.1 1.5-.5.6-1.3 1.5-1.6 1.8-.1.2-.3.3-.3.5 0 .1.1.2.1.3.1.1.2.1.3.1.6-.1.9-.6 1.5-.6.2 0 .5.1.8.4l4.1 3.3c.2.1.1.3.4.9l1.7 5.3c.2.5.4 1 .4 1.5v.2c0 .1-.1.3-.1.5 0 .1 0 .3.2.4.1.1.2.1.3.1s.2 0 .3-.1c.4-.5.7-1 1.1-1.5.3-.4.7-.7 1.1-1.2.1-.1.2-.3.2-.5 0-.1-.1-.3-.2-.4s-.2-.1-.3-.1c-.6.1-.9.8-1.3.8-.1 0-.2 0-.3-.1-.4-.3-.5-.7-.6-1l-1.4-4c-.1-.2-.1-.3-.1-.4h.4l4.8.6c.3 0 .6.1.8.2.1.1.1.1.1.3 0 .2-.1.5-.1.8 0 .1 0 .3.2.4.1.1.2.1.2.1.3 0 .4-.2.5-.3.2-.2.5-.7.9-1.2.9-1.1 1.2-1.4 1.6-1.8.1-.1.1-.2.1-.3 0-.2-.1-.3-.2-.4 0-.1-.1-.2-.2-.2zM56.1 164.4l-2.6 1.7-2.2-1.8.8 2.7-2.3 1.5 2.8.3.9 2.7 1-2.6 2.7.2-2.2-1.8zM81.8 170.3s0-.1 0 0c0-.1 0-.1 0 0-.4 0-1.3.5-2.6.7-1.1.1-1.6-.1-1.9.5v.1c0 .2.1.4.3.4h1.3c.4.1.4.2.4.4s-.1.5-.2.8l-2.7 9.5c-.2.7-.6.8-1 .8-.3 0-.7-.1-1-.1-.2 0-.4.1-.5.3v.1c0 .3.3.4.5.5.6.2 1.8.4 2.5.6.8.2 1.4.5 2.1.7.2.1.4.1.6.1.1 0 .4-.1.4-.3v-.1c-.1-.5-.6-.5-1-.7s-.8-.4-.8-1.1c0-.2 0-.4.1-.7l3-10.7c.2-.7.4-.9.5-1.3v-.2c.3-.1.2-.3 0-.3zM96.5 176.1v-.4c0-2.2-1.5-3.4-3.6-3.6h-.3c-2.1 0-3.9 1.5-4.1 3.7v.2c0 1.2.6 2.4 1.7 3.1-1.6.7-2.7 2-2.8 3.9v.4c0 2.5 1.9 4.2 4.1 4.4h.4c2.5 0 4.5-1.8 4.7-4.4v-.4c0-1.8-.9-3.1-2.4-4 1.2-.5 2.2-1.5 2.3-2.9zm-1.6 7.7v.2c-.1 1.7-1.2 2.8-2.8 2.8h-.3c-1.8-.1-2.9-2.1-2.9-3.8v-.3c.1-1.6 1.6-3 2.4-2.9.5.2 3.6 1.8 3.6 4zm.2-7.8c-.1 1.4-.9 2.2-2 2.2h-.2c-1.2-.1-2.8-1.2-2.8-2.8v-.2c.1-1.3 1-2.1 2.3-2.1h.2c1.5.1 2.5 1.2 2.5 2.6v.3zM105.2 176.9h-.7c-.5.1-1 .2-1.5.4l.2-2.8c0-.4.2-.4.9-.5l2.3-.3c.7-.1 1.2 0 1.5-.6.1-.3.6-1.6.6-2 0-.2-.2-.3-.3-.3h-.1c-.6.2-.3.8-1.3.9l-3.6.5c-.9.1-1 .7-1 1.3l-.3 5.4v.1c0 .3.2.4.4.4h.1c.4-.1 1.1-.3 1.6-.4h.7c2.4 0 2.9 1.8 3 2.9v.7c0 2.4-1.7 3.9-3.7 4.2h-.7c-.8 0-1.2-.2-1.4-.2-.2 0-.3.2-.3.4v.1c.2.4.8.6 2.1.7.3 0 .6 0 1-.1 4-.5 5-3.8 5-5.9v-.8c-.4-2.6-2.2-4.1-4.5-4.1zM123.4 182.2c-.4 0-.8.2-1.2.2s-.8-.2-1.1-1.1l-3.5-10.4c-.2-.7-.2-1-.3-1.4-.1-.1-.1-.4-.4-.4h-.1c-.2.2-.2.3-.6.7-.3.4-.6.8-1.1 1.3-.8.7-1.2.8-1.3 1.3v.2c.1.2.3.3.4.3h.1c.3-.1.8-.7 1.1-.7.1 0 .2-.1.3-.1.3 0 .4.3.6.9l3.1 9.1c.1.2.1.3.1.5 0 .5-.3.7-.6.9-.3.2-.8.2-.9.7v.1c0 .2.2.3.4.3.1 0 .2 0 .4-.1.6-.2 1.7-.7 2.4-.9.7-.3 1.4-.4 2.1-.6.3-.1.7-.1.8-.6v-.1c-.3 0-.5-.1-.7-.1zM146 163.7l-2.1 1.9-2.7-1.5 1.2 2.8-2.1 1.8 2.7-.3 1.1 2.6.8-2.8 2.8-.4-2.4-1.4zM55.6 127c-.3 0-.6.2-.9.2s-.5-.1-.8-.5-.3-1.2-.3-2 .1-1.6.1-2.4c0-.9-.1-1.6-.4-2.2-.7-1.1-1.4-1.6-1.9-1.6-.1 0-.2 0-.3.1-.1 0-.2.1-.2.3 0 .1 0 .1.1.2.2.2.6.4.8.7.1.3.3.5.3 1v.2c-.1.9-.1 1.5-.1 1.9v.3c-1.1-1.1-2.4-1.7-3.8-1.7-1 0-2 .3-3 .9-1.8 1-2.7 2.8-2.7 4.6 0 1 .3 2 .8 2.9 1.1 1.8 2.9 2.9 4.8 2.9.9 0 1.9-.3 2.8-.8 1.7-1 2.7-2.5 2.9-4.1.3.1.6.2 1 .2.3 0 .7-.1 1-.3.1-.1.3-.2.3-.4 0-.1 0-.2-.1-.3-.2 0-.3-.1-.4-.1zm-5.9 4c-.8.5-1.6.7-2.4.7-1.2 0-2.3-.5-3.1-1.8-.4-.7-.6-1.4-.6-2.1 0-1.7 1.1-3.4 2.7-4.4.9-.5 1.7-.7 2.5-.7 1.3 0 2.4.6 3.1 1.7.4.7.6 1.4.6 2.1-.1 1.8-1.2 3.5-2.8 4.5zM48.2 115.1c0-.6-.1-1.3-.3-2.1-.8-2.5-2.4-3.2-3.7-3.2-.9 0-1.6.3-1.9.3l-4.4 1.3c-.2.1-.4.1-.5.1-.6 0-.4-.4-1-.5h-.1c-.2.1-.2.3-.2.4v.1c.1.3.2.5.3.8.2.5.3 1.1.4 1.7.1.2.2.2.3.3h.1c.3-.1.3-.4.3-.5v-.5c0-.3 0-.6.7-.8l4.6-1.4c.5-.1 1-.2 1.4-.2 1.1 0 2.2.5 2.7 2.3.1.4.2.9.2 1.3 0 1.3-.7 2.4-2.3 2.9l-5.1 1.5h-.3c-.2 0-.3-.1-.4-.3-.1-.1-.2-.4-.5-.4h-.1c-.2.1-.2.3-.2.4 0 .2.1.4.1.4.1.5.3.9.5 1.3.1.4.2.7.3 1.1.1.1.1.3.4.4h.1c.3-.1.3-.4.3-.5v-.4c0-.3 0-.4.3-.5L45 119c1.5-.5 3.2-1.6 3.2-3.9zM44.6 106c.4.2.5.3.6.5s.1.4.4.5c.1 0 .3-.1.4-.2v-.1c0-.4-.1-.8-.1-1.2v-.3-.5-.4-.3c0-.1-.2-.3-.4-.3h-.1c-.4.1-.3.5-.3.7-.1.2-.1.4-.5.4h-.1c-.1 0-.3 0-.4-.1l-2.1-.8c-.2-.1-.2-.2-.2-.5l-.2-3.3v-.1c0-.3.1-.3.4-.4l1.2-.5c.4-.2 1.1-.5 1.3-.5.1 0 .2.1.3.3.1.2.1.5.5.5.3-.1.3-.4.3-.5v-.1c0-.4-.1-.8-.1-1.2 0-.6 0-1.2-.1-1.8 0-.1 0-.4-.3-.4H45c-.4.1-.3.5-.3.7 0 .3-.1.5-.3.7-.5.3-1.1.6-1.6.8l-7.4 3.5c-.1.1-.5.1-.7.5v.1c.2.4.5.3 2.3 1l7.6 3.3zm-4.2-5.6c.1 0 .1 0 0 0 .1 0 .1 0 0 0l.2 3-3.5-1.4 3.3-1.6zM35.2 93c.5-.1.5-.5.5-.5.2-.4.4-.5.7-.5.2 0 .4 0 .6.1l6.7 1c.7.1 1 .2 1 .5.2.4.1.7.4.8h.1c.3 0 .3-.3.3-.4.1-.6.1-1.2.2-1.8.1-1.1.4-2.2.5-3.3 0-.3.1-.5.1-.7 0-.3-.1-.7-.4-1-.3-.4-.8-.9-1.4-1h-.1c-.1 0-.2 0-.3.2v.1c.1.3.3.4.5.8s.5 1.1.5 2.1c0 .4 0 .8-.1 1.3-.2.8-.2.8-.5.8-.1 0-.4 0-.7-.1l-2.7-.4c-.3 0-.3 0-.3-.1l.3-2.2c.1-.5.3-.6.6-.6.3-.1.7.1.9-.4v-.1c0-.2-.2-.4-.3-.4-.4-.1-.8-.1-1.2-.1-.5-.1-.9-.2-1.5-.2h-.1c-.1 0-.4 0-.4.3.1.4.4.4.6.5.2.1.4.3.4.8v.3l-.2 1.6c0 .2 0 .3-.1.3h-.3l-2.7-.4c-.7-.1-.6 0-.7-.3 0-.2.1-.5.1-1 .1-.6.3-2.1.7-2.3h.7c.2 0 .5-.1.5-.3-.1-.4-.4-.5-1.9-.7H36c-.1 0-.4.1-.4.3-.1.5-.2 1.8-.3 2.1-.1.6-.3 1.4-.7 4.1v.3c.2.2.4.5.6.5zM42 83.6c.7.2 1.4.4 2 .4 2.2 0 4.1-1.4 4.9-3.6.5-1.4.7-2.5.7-3.2 0-1-.2-1.4-.3-1.5l-1.3-.8c-.1 0-.1-.1-.2-.1s-.3.1-.3.2v.1c0 .2.1.3.2.4.3.2.9 1.3.9 2.6 0 .5-.1 1.1-.3 1.7-.7 1.8-2.2 2.6-4 2.6-.7 0-1.4-.1-2.1-.4-2-.7-3.1-2-3.1-3.7 0-.5.1-1 .3-1.6.6-1.7 1.8-2.3 3.6-2.7h.1c.2 0 .4 0 .6-.3v-.1c-.2-.5-.7-.4-1.3-.7-.6-.2-.9-.3-1.1-.3-.1 0-.3.1-.3.2V73.1c0 .2-1.5.7-2.4 3.3-.2.6-.3 1.3-.3 1.9-.2 2.4 1.3 4.5 3.7 5.3zM41.9 69.1c.1 0 .2.1.2.1.5-.1.7-.7 1-.6.1 0 .1 0 .2.1l4.2 2.7c.9.6 1.8 1 2.8 1 1.2 0 2.5-.7 3.7-2.5.6-1 .9-1.8.9-2.6 0-2.1-1.9-3.2-2.4-3.5l-3.9-2.5c-.5-.4-.6-.6-.6-.8v-.4c0-.1-.1-.3-.2-.4-.1 0-.1-.1-.2-.1-.2 0-.3.1-.3.2-.2.3-.3.5-.4.7-.3.5-.7.9-1 1.4-.1.1 0 .1 0 .2s0 .2.2.3c.1.1.2.1.2.1.6-.1.7-.7 1.1-.7.1 0 .3 0 .6.2l4 2.6c1 .6 1.8 1.5 1.8 2.6 0 .6-.2 1.2-.7 1.9-.7 1-1.6 1.7-2.6 1.7-.6 0-1.2-.2-1.9-.6l-4.5-2.9c-.3-.2-.3-.3-.3-.4 0-.2.1-.4.1-.6 0-.1-.1-.3-.2-.3 0 0-.1-.1-.2-.1-.4.1-.4.4-.5.4-.3.4-.5.8-.7 1.2-.2.3-.5.6-.7.9-.1.1-.1.2-.1.4.3.1.3.2.4.3zM50.7 56.7c.3 0 .4-.2.8-.2s1 .2 2.1 1.4c1.1 1.1 2 2.4 3.5 4.3.3.4.4.6.4.8 0 .3-.2.4-.3.7 0 .1.1.2.1.3.1.1.2.1.3.1s.2 0 .2-.1c.2-.2.3-.4.9-.9.3-.3.8-.7 1-.8.1-.1.2-.2.3-.4 0-.1 0-.2-.1-.2-.1-.1-.2-.1-.3-.1-.4 0-.6.3-.9.3-.2 0-.5-.1-1-.6l-3.2-3.8 6.6 2.6c.1 0 .3.2.5.2.1 0 .2 0 .2-.1.1-.1.1-.2.1-.3 0-.3-.2-.7-.2-.8l-2-6.7c0-.1-.1-.2-.1-.3.1 0 .1.1.2.2l4 4.1c.2.2.2.4.2.5 0 .2-.2.4-.2.7 0 .1 0 .2.1.3 0 0 .1.1.2.1s.2 0 .3-.1l.9-.9c.4-.4.8-.7 1.1-.9.1-.1.2-.2.3-.4 0-.1 0-.2-.1-.2-.1-.1-.2-.2-.3-.2-.4.1-.6.3-.8.3-.1 0-.3 0-.5-.3l-5.1-5.2c-.4-.4-.5-.7-.5-.9 0-.3.3-.4.3-.8 0-.1 0-.2-.1-.3-.1-.1-.2-.1-.3-.1s-.2 0-.2.1c-.2.2-.2.3-.5.5 0 0-.4.3-.6.4-.1.1-.1.2-.1.3 0 .2.1.4.1.5l2.2 7.6c.1.3.1.5.2.6-.1 0-.1-.1-.3-.1l-7.7-3.1c-.1 0-.2-.2-.5-.2-.1 0-.2 0-.3.1-.2.2-.4.4-.5.6-.2.2-.4.3-.6.5-.1.1-.2.2-.2.3s0 .2.1.2c.1.3.3.4.3.4zM69.3 53.2c-.2.3-.3.7-.3 1.1 0 .3.1.7.2 1 .1.1.2.3.4.3.1 0 .2 0 .2-.1.1-.1.2-.2.2-.3 0-.3-.1-.6-.1-.9s.1-.5.5-.8c.4-.2.9-.3 1.6-.3 1 0 2.2.1 3.2.1.7 0 1.3-.1 1.8-.3 1.1-.6 1.6-1.4 1.7-1.8 0-.1 0-.2-.1-.2 0-.1-.1-.2-.3-.2-.1 0-.1 0-.2.1-.2.2-.4.6-.7.7-.2.1-.5.2-.9.2h-.3c-1.1-.1-1.8-.1-2.2-.1 1.2-1.1 1.8-2.5 1.8-4 0-.9-.3-1.9-.8-2.9-1-1.9-2.8-2.9-4.7-2.9-.9 0-1.9.2-2.8.7-1.9 1-3 2.9-3 4.9 0 .9.2 1.8.7 2.7 1 1.7 2.5 2.8 4.1 3zm-1.7-9.5c.7-.4 1.3-.5 2-.5 1.8 0 3.5 1.2 4.4 2.9.4.8.6 1.6.6 2.4 0 1.4-.7 2.5-1.9 3.1-.7.4-1.3.5-2 .5-1.8 0-3.5-1.2-4.5-2.9-.4-.7-.6-1.6-.6-2.3.2-1.4.7-2.5 2-3.2zM76.4 39.5h.3c.3 0 .5 0 .5.3l1.3 4.8c.5 1.8 1.5 3.5 3.9 3.5.6 0 1.2-.1 1.9-.3 2.7-.7 3.3-2.4 3.3-3.8 0-.8-.2-1.5-.3-1.8l-1.2-4.4c-.1-.2-.1-.4-.1-.5 0-.6.4-.5.6-1v-.1c-.1-.2-.3-.3-.4-.3h-.1c-.3.1-.5.2-.8.3-.5.1-1.1.2-1.7.4-.2.1-.2.2-.3.4v.1c.1.3.4.4.5.3h.4c.3 0 .6 0 .8.7l1.2 4.6c.1.4.2.9.2 1.3 0 1.2-.5 2.3-2.4 2.8-.4.1-.8.2-1.2.2-1.4 0-2.4-.7-2.9-2.4l-1.4-5.1v-.3c0-.2.1-.3.3-.4.1-.1.4-.1.5-.5v-.1c-.1-.2-.3-.3-.4-.2-.2 0-.4.1-.4.1-.5.1-.9.3-1.3.4s-.7.1-1.1.2c-.1.1-.3 0-.4.4v.1c.2.3.5.3.7.3zM90.7 36.3c.6.1.7.6.7 1.3l.4 6.7v.4c0 .4-.1.6-.2.7-.4.3-.6.2-.7.6 0 .3.3.4.4.4.6 0 1.2-.1 1.8-.2 1.1-.1 2.2-.1 3.4-.1.6 0 1.1 0 1.6-.7.3-.4.7-.9.7-1.5v-.1s0-.3-.3-.4h-.1c-.3.2-.3.4-.8.8s-1.4.8-3.1.9h-.3c-.9-.1-.6-.1-.7-1l-.2-2.7v-.2-.1h.1l2.2-.1h.1c.5 0 .5.2.6.5.1.2 0 .7.5.8.2 0 .4-.2.4-.4 0-.4-.1-.8-.1-1.2 0-.5 0-1-.1-1.5 0-.1 0-.4-.4-.5h-.1c-.4.2-.2.5-.4.7-.1.2-.3.5-1 .5l-1.6.1h-.4v-.3l-.2-2.7v-.4c0-.4-.1-.3 1.2-.4.3 0 .7-.1 1.2-.1s1.1.1 1.2.3c.1.1.1.3.1.5s.1.5.4.6c.3-.1.4-.3.4-1.2v-.8c0-.2 0-.5-.4-.5h-.1c-.4 0-1.8.2-2.1.2-.6 0-1.4 0-4.2.2-.4 0-.7.1-.7.4.3.6.7.4.8.5zM117.6 50.1c.9.4 1.7.6 2.4.6 1.7 0 2.6-1 3-1.8.2-.5.3-.9.3-1.3-.1-2.7-4-3.8-3.9-5.4 0-.2 0-.3.1-.5.3-.7.9-1 1.5-1 .4 0 .8.1 1.2.3 1.1.5 1.7 1.3 1.7 2.5v.4c0 .2 0 .4.2.5h.2c.2 0 .3-.2.4-.3l.6-1.9V42c0-.2-.1-.3-.2-.3h-.2c-.1 0-.2 0-.2.1-.1-.1-.5-.8-2.1-1.5-.6-.2-1.1-.4-1.7-.4-1.1 0-2.2.5-2.7 1.7-.2.4-.3.8-.3 1.2.1 2.6 4 3.7 3.9 5.4 0 .2 0 .4-.1.6-.4.9-1.1 1.2-1.9 1.2-.4 0-.9-.1-1.3-.3-1.5-.7-1.9-2-1.9-2.8v-.3c0-.2.1-.3.1-.4s-.1-.3-.2-.4h-.2c-.3 0-.4.3-.5.5l-.4 1.9v.1c.2.5 1.1 1.3 2.2 1.8zM127.8 55.8c1 .7 1.9 1 2.7 1 2.1 0 3.2-1.8 3.5-2.2l2.7-3.8c.4-.5.6-.5.8-.5h.4c.1 0 .3-.1.4-.2 0-.1.1-.1.1-.2s-.1-.2-.2-.3c-.2-.2-.5-.3-.7-.4-.5-.3-.9-.7-1.4-1-.1 0-.1-.1-.2-.1s-.2 0-.3.1c-.1.1-.1.2-.1.2.1.5.6.7.6 1.1 0 .2-.1.3-.2.6l-2.8 3.9c-.6.9-1.5 1.7-2.6 1.7-.6 0-1.2-.2-2-.7-1-.7-1.6-1.6-1.6-2.6 0-.6.2-1.3.7-2l3.1-4.3c.2-.3.3-.3.4-.3.2 0 .4.1.7.2.1 0 .2-.1.3-.2 0-.1.1-.1.1-.2-.1-.4-.4-.4-.4-.5-.4-.3-.8-.5-1.2-.8-.3-.2-.6-.5-.9-.7-.1-.1-.2-.1-.4-.1-.1 0-.2 0-.3.1 0 .1-.1.2-.1.2.1.5.6.7.6 1 0 .1 0 .1-.1.2l-2.9 4.1c-.6.9-1.1 1.9-1.1 2.9 0 1.3.6 2.6 2.4 3.8zM134.6 59.6c-.4 0-.5-.3-1-.4-.1 0-.2 0-.3.1 0 0-.1.1-.1.3 0 .1.1.2.1.3l1 1c.5.5.7.9.9 1.2.1.1.2.1.3.1s.2-.1.3-.1c.1-.1.1-.2.1-.3-.1-.4-.4-.6-.4-1 0-.2.1-.3.3-.6l4.5-4v.1l-1.2 9.5v.4c0 .2 0 .4.1.5 0 .1.1.1.2.1.3 0 .4-.2.6-.4l6.4-5.7c.2-.2.4-.2.5-.2.2 0 .4.2.7.2.1 0 .2 0 .3-.1s.1-.1.1-.3c0-.1 0-.2-.1-.2-.3-.3-.7-.7-1-1.1-.3-.3-.5-.7-.8-1.1-.1-.1-.2-.1-.3-.1s-.2 0-.2.1c-.1.1-.1.2-.1.3 0 .4.4.7.4 1.2 0 .3-.1.6-.6 1l-4.4 3.9 1.3-10.3s.1-.2.1-.4c0-.1 0-.2-.1-.3-.2-.2-.4-.3-.5-.5s-.2-.4-.4-.6c-.1-.1-.2-.1-.3-.2-.1 0-.1 0-.2.1s-.1.2-.1.3c0 .4.4.6.4 1.1 0 .4-.2.9-1.1 1.8l-4.1 3.6c-.8.6-1.1.7-1.3.7zM148.7 65.3h.3c.3-.1.5-.1.7-.1s.3.1.6.6l1.1 2.1c-.1.1-.3.2-.4.2l-6.8 3.7c-.1.1-.2.1-.3.1-.4 0-.6-.5-1.1-.6h-.2c-.1 0-.2.2-.2.3s0 .2.1.2c.1.1.2.3 1 1.8.2.4.3.8.5 1.1 0 .1.2.2.3.2.1 0 .2-.1.2-.1.1-.1.2-.2.2-.4 0-.3-.1-.5-.1-.7s.1-.3.4-.6l6.6-3.6c.2-.1.4-.2.5-.2 0 0 .1.1.2.3l1 1.9c.1.3.2.4.2.6 0 .4-.5.3-.6.9 0 .1 0 .1.1.2s.2.2.3.2c.2 0 .3-.1.3-.1l1-.6c.2-.1.3-.2.4-.5 0-.1 0-.2-.1-.4-.2-.3-.9-1.4-2.2-3.8-.9-1.7-1.4-2.7-2-3.7-.1-.2-.2-.2-.4-.2s-.4.1-.5.2l-1.3.5c-.1.1-.2.2-.2.4v.2c.1-.2.3-.1.4-.1zM160.7 99.2v-.1V98.3c0-.2-.2-.4-.4-.4-.4.1-.3.5-.4.6-.1.2-.1.3-.3.3h-.2c-.2 0-.6-.1-.8-.2l-6.5-2.3c-.1 0-.2-.1-.2-.1.1-.1.5-.2.9-.4l6-2.9c.1-.1.3-.1.5-.1s.2.1.3.2c.1.1.1.3.4.4.3 0 .3-.3.4-.4 0-.2-.1-.8-.1-1.2v-.3-.8-.3c0-.2-.2-.4-.4-.4-.4.1-.3.4-.4.6s-.2.4-.5.6l-8.5 4c-.3.2-.9.2-1 .8v.1c.2.4.7.4 1 .6l8.9 3.3c.5.2.6.3.6.4s.1.4.4.4c.2 0 .4-.2.4-.4 0-.4-.1-.5-.1-1.2zM160.1 103.8c-.5.1-.5.5-.5.5-.2.4-.4.5-.7.5-.2 0-.4 0-.6-.1l-6.7-1c-.7-.1-1-.2-1-.5-.2-.4-.1-.7-.4-.8h-.1c-.3 0-.4.3-.4.4-.1.6-.1 1.2-.2 1.8-.1 1.1-.4 2.2-.6 3.3 0 .3-.1.5-.1.7 0 .3.1.6.4 1s.8.9 1.4 1h.1c.1 0 .3 0 .4-.3v-.1h-.1c-.1-.2-.3-.3-.5-.7-.2-.4-.5-1-.5-2.1 0-.4 0-.8.1-1.4.2-.8.2-.8.5-.8.2 0 .4 0 .7.1l2.7.4c.3 0 .3 0 .3.1l-.3 2.2c-.1.5-.3.6-.6.6h-.2c-.2 0-.5 0-.6.4v.1c0 .2.2.4.3.4.4.1.8.1 1.2.2l1.5.3h.1c.1 0 .4 0 .4-.3-.1-.4-.4-.3-.6-.5-.2-.1-.4-.3-.4-.8v-.3l.2-1.6c0-.2 0-.3.1-.3h.3l2.7.4c.7.1.6.1.7.3 0 .2-.1.5-.1 1-.1.6-.3 2.1-.7 2.3h-.7c-.2 0-.4.1-.5.3v.1c.1.4.3.5 1.9.8h.2c.1 0 .3-.1.4-.3.1-.5.2-1.8.3-2.1.1-.6.3-1.4.7-4.1v-.3c-.2-.5-.3-.8-.5-.8zM158.2 114.7h-.1c-.4.1-.4.4-.6.5-.1.2-.2.3-.5.3-.1 0-.3 0-.4-.1l-7.1-2.6c-.5-.2-.5-.4-.5-.7-.1-.2.1-.6-.3-.8h-.1c-.1 0-.3.1-.3.2-.2.5-.3 1.1-.5 1.6-.4 1.2-.6 1.4-.6 1.6 0 0-.1.1-.1.2s.1.3.2.3h.1c.4-.1.5-.4.7-.6.2-.3.4-.5.6-.5.1 0 .2 0 .3.1l2.9 1.1c.2.1.2 0 .2.1v.2c-.6 1.6-.3 1.2-1.3 1.5l-3 .7c-1 .2-2 .6-2.4 1.7 0 .1-.2.6-.2.9 0 .1 0 .2.2.3h.1c.6-.2.2-.8 2-1.2l4.1-1c.1 1.1.8 2.2 1.9 2.6.4.1.7.2 1 .2 2.1 0 2.8-2.6 2.8-2.7.3-.7.5-1.5.8-2.3.3-.7.3-.6.4-.9v-.2c-.1-.2-.1-.4-.3-.5zm-1.7 3.1c-.4 1.1-1.1 1.9-2.1 1.9-.3 0-.5-.1-.9-.2-1.1-.4-1.3-1-1.3-1.6 0-.3.1-.6.1-.8.1-.3.2-.7.3-1 .1-.1.1-.3.2-.3l3.5 1.3c.3.1.2.1.3.2.1.1 0 .3-.1.5zM145.3 122.9c-.1-.2-.2-.4-.2-.5 0-.2.1-.4.1-.6 0-.1 0-.2-.2-.3-.1 0-.1-.1-.2-.1s-.2.1-.3.2c-.2.3-.4.7-.6 1s-.5.6-.7 1c0 .1-.2.2-.2.4 0 .1.1.3.2.3s.1.1.2.1c.5-.1.6-.6.9-.5.1 0 .2 0 .3.1.1.1.3.2.3.3l1.2 1.9c0 .1.1.1.1.2s-.1.2-.2.4l-1.8 2.7c-.1.2-.2.2-.3.2h-.3l-1.3-.3c-.4-.1-1.2-.2-1.4-.3-.1-.1-.1-.1-.1-.2 0-.2.1-.4.1-.6 0-.1 0-.3-.2-.4-.1 0-.1-.1-.2-.1-.3 0-.4.3-.4.3-.2.3-.4.7-.6 1-.3.5-.7 1-1 1.5 0 .1-.1.1-.1.3 0 .1.1.2.2.3 0 0 .1.1.2.1.6-.1.6-.7 1.2-.7s1.2.2 1.7.3l8.1 1.5c.1 0 .3.1.5.1.1 0 .2 0 .3-.1 0-.1.1-.1.1-.2 0-.3-.3-.6-1.2-2.1l-4.2-7.2zm0 6.9l1.6-2.5 2 3.2-3.6-.7zM87.4 98.5c.4 0 .6-.4.6-.4v-1.9c.1 0 .3.1.5.1h.1c1.1-.2 1.6-.9 1.6-2V94c-.1-.7-.4-2-1.5-2h-.3c-1.3.3-1.6 1.3-1.6 2.2v4s0 .1.1.1c.3.2.4.2.5.2zm1.3-5.7c.5-.1.7.9.7 1.5.1.8-.2 1.2-.7 1.3-.7.2-.6-.7-.7-1.2-.1-.6 0-1.5.7-1.6zM87.5 79.1c0-.2-.1-.3-.2-.5-.1-.1-.3-.2-.4-.2-.7.1-1.2 1.1-1.3 1.5l-.1.2h.2c.9 0 1.8-.3 1.8-1zM87.4 80.5v.2c.6.9 1 2.9 1.1 3.2 0 .1-.1.2-.1.4-.1.4-.5.7-.7.9l-.1.1.1.1s.2.2.6.2c.2 0 .3 0 .5-.2.3-.3.6-.5.7-.7l.1-.1v-.1l-.1-.1c-.2.1-.1 0-.2.1.5-1.4 1.4-3.8 1.4-3.8v-.1l-.1-.1s-.2-.2-.5-.2c-.1 0-.3 0-.5.2 0 0-.3 1.1-.6 1.8-.2-.9-.4-1.6-.4-1.6s-.3-.5-.7-.5c-.2 0-.4.1-.5.3zM92.3 97.5c.2 0 .4-.2.6-.5.3-.6.5-2.1.5-3.3 0-1-.1-1.7-.4-2-.1-.1-.2-.1-.3-.1-.4 0-.9.4-1.1.6V92c0-.1-.2-.2-.4-.2-.1 0-.3.1-.4.3 0 0-.1 1.5-.1 2.6v.9c.2.3.4.5.6.5s.3-.2.4-.3c.1-1-.1-2.5.5-2.8h.1s.1 0 .1.2c.1.2.1.5.1.8 0 .9-.2 2.1-.5 3.1 0-.1-.1.3.3.4zM95 95.5c-.2.1-.5.1-.8.1h-.1v.1s-.2.2-.2.5c0 .2.1.4.4.5 1.6-.2 2-.9 2.1-1.3v-.1c0-.8-1.1-1.4-1.2-1.5 0-.3.1-.3.2-.3.2 0 .4.1.7.1h.1c.2-.1.3-.3.3-.5 0-.3-.3-.5-.3-.5-.2 0-2-.1-2 1.4 0 1 1.3 1.3 1.2 1.5-.1-.2-.2-.1-.4 0zM95.7 83.2s-.1.1-.3.2c-.2.1-.5.1-.8.1h-.1v.1s-.2.2-.2.5c0 .2.1.4.4.5 1.6-.2 2.1-.9 2.1-1.3v-.1c-.1-.8-1.1-1.4-1.2-1.5 0-.3.1-.3.2-.3.2 0 .4.1.7.1h.1c.2-.1.3-.3.3-.5 0-.3-.3-.5-.3-.5-.2 0-2-.1-2 1.4 0 .7 1.2 1.1 1.1 1.3zM109 96.6c.1.3.3.5.5.5s.4-.2.5-.3c.3-1 .4-2.6 1-2.5.1 0 .2.1.2.5 0 .8-.5 2.3-1.1 3.4v.2c0 .1 0 .4.3.5.2 0 .4-.1.7-.4.8-.9 1.4-3.2 1.4-4.5 0-.3 0-.6-.2-.8-.1-.1-.2-.2-.4-.2-.4 0-.9.3-1.1.5v-.4s-.2-.2-.5-.2c-.1 0-.3.1-.5.2s-.8 2.8-.8 3.5zM111.1 103.6c-.6 0-1.2.9-1.5 1.3l-.1.2H110.1c.8 0 1.5-.2 1.6-.8 0-.1 0-.3-.1-.4-.1-.2-.3-.3-.5-.3zM107.6 97.3c.3 0 .5-.2.5-.2l.1-.1-.4-5.1h-.1s-.3-.3-.6-.3c-.2 0-.4.2-.4.4 0 0 .2 1.3.2 1.4-.1.3-1.1 2.4-1.9 3.4l-.1.1.1.1c.2.2.4.2.6.2.3 0 .5-.2.5-.2s.4-.9 1-2v1.9c.2.3.4.4.5.4zM105.8 83.3c0 .5.1 1.1.6 1.3.1.1.2.1.3.1.3 0 .6-.2.8-.3 0 .2.1.4.4.4.2 0 .6-.1 1.1-.4h.1V83.8l-.2.1h-.2c0-.1.1-.3.1-.4l.5-2.6-.1-.1s-.2-.1-.4-.1-.4.1-.6.2c0 0-.1-.1-.2-.1-.2 0-.3.1-.8.3-.7.3-1.2 1.2-1.4 1.9v.3zm1.1-.6c.2-.6.6-1.1 1.4-1.1-.1 1.5-.5 2-1.2 2.2-.4 0-.3-.8-.2-1.1zM90.9 81.7c-.1.3-.1.5-.1.8 0 .9.5 1.5 1.2 1.6h.3c1 0 1.6-.7 1.9-1.8 0-.2.1-.4.1-.6 0-.7-.3-1.6-1.1-1.7h-.4c-1.3-.1-1.7.8-1.9 1.7zm1 .1c.1-.7.7-1.3 1.1-1.2.5.1.4.8.2 1.5-.2.8-.6 1.2-1.1 1.1-.5-.1-.4-.9-.2-1.4zM111.7 80.5l.2.1v-.2c-.1-.5-.5-1.7-1.2-1.7-.1 0-.3.1-.4.2-.2.2-.3.4-.3.6.1.4.9.8 1.7 1zM110.8 85.4c.5 0 .9-.4.9-1.1V84l-.3.2c-.2.2-.3.2-.3.2s-.1 0-.1-.2v-.1c0-.6.7-2.9.7-2.9l.1-.2-1.1-.1h-.2V81.2c0 .6-.6 2.2-.6 3.1v.3c.2.5.5.8.9.8zM104 92H104.3c.7 0 1-.7 1.1-1v-.2c0-.4-.3-.9-.8-1h-.3c-.3.1-.4.3-.4.6 0 .1 0 .2.1.4.1.3.4.3.5.4 0 .1-.2.5-.3.6l-.2.2zM109.7 106.1V106.4c0 .6-.6 2.1-.6 3v.3c.1.4.5.6.8.6.5 0 .9-.4.9-1.1v-.3l-.2.2c-.2.2-.3.2-.4.2 0 0-.1 0-.1-.2v-.1c0-.6.7-2.7.7-2.7l.1-.2-1.1-.1-.1.1zM116.6 108.7s-.1.1-.3.2c-.2.1-.5.1-.8.1h-.1v.1s-.2.2-.2.5c0 .2.1.4.4.5 1.6-.2 2.1-.9 2.1-1.3v-.1c-.1-.8-1.1-1.4-1.2-1.5 0-.3.1-.3.2-.3.2 0 .4.1.7.1h.1c.2-.1.3-.3.3-.5 0-.3-.3-.5-.3-.5-.2 0-2-.1-2 1.4 0 .8 1.2 1.1 1.1 1.3zM102.2 84.5c.3 0 .4-.2.5-.2 0-.1.2-.5.3-.8.1-.2.1-.4.2-.5v-.1c.3.3.6 1 .7 1.4.1.1.2.1.4.1.4 0 .5-.3.6-.3v-.2c-.2-1-.7-1.7-.7-1.8.3-.3 1.7-.8 1.7-1.7 0-.2-.1-.3-.3-.3-.4 0-1.3.7-1.8 1.1.1-.2.2-.5.2-.7s-.1-.5-.4-.5h-.1c-1 .2-1.7 3.8-1.8 4.1v.1h.1c.2.3.3.3.4.3zM113 95.4h-.2V96.2h.1c.3.1.5.2.9.2.2 0 .5 0 .8-.1h.1V95.4h-.2c-.4.1-.5.1-.6.1 0 .1-.1 0-.9-.1zM114.9 106.3c-.1-.1-.2-.2-.5-.2-.2 0-.4.1-.6.2-.1 0-.1-.1-.2-.1-.2 0-.3.1-.8.3-.7.3-1.2 1.2-1.4 1.9v.3c0 .5.1 1.1.6 1.4.1.1.2.1.3.1.3 0 .6-.2.8-.3 0 .2.1.4.4.4s.6-.1 1.1-.4h.1V109.3l-.2.1h-.2c0-.1.1-.3.1-.4l.5-2.7zm-2.3 2.9c-.5.1-.4-.8-.3-1.1.2-.6.6-1.1 1.4-1.1-.1 1.6-.4 2.1-1.1 2.2zM102.1 96.8c.1.1.2.1.3.1.3 0 .6-.2.8-.3 0 .2.1.4.4.4s.6-.1 1.1-.4h.1V96l-.2.1h-.2c0-.1.1-.3.1-.4l.5-2.6-.1-.1s-.2-.1-.4-.1-.4.1-.6.2c-.1 0-.1-.1-.2-.1-.2 0-.4.1-.8.3-.7.3-1.2 1.1-1.3 1.9v.3c-.1.4.1 1 .5 1.3zm.6-2c.2-.6.6-1.1 1.4-1.1-.1 1.5-.5 2-1.2 2.2-.5.1-.4-.8-.2-1.1zM104.5 102.6c-2 .1-2.7 1.9-3 3.9 0 .3-.1.5-.1.8 0 1.4.6 2.3 1.6 2.3 1.5 0 2.3-1 2.7-3.1.1-.6.2-1.1.2-1.6.1-1.3-.4-2.3-1.4-2.3zm-1.3 5.9c-1 0-.5-2.2-.5-2.2h1.8c-.3 1.5-.7 2.2-1.3 2.2zm1.5-2.9h-1.8c.3-1.5.7-2.2 1.3-2.2 1 0 .5 2.2.5 2.2zM108.8 105.5c-.2-.1-.4-.1-.6-.1-1.1 0-1.8.7-2.1 1.9-.1.3-.1.5-.1.8 0 1.1.9 1.6 2 1.6h.2l.2-.7v-.2h-.2c-.2 0-1-.1-1.1-.6v-.1h.3c.4 0 .9-.1 1.1-.6v-.2l-1.2-.2c.2-.8 1.2-.8 1.4-.8h.1l.1-.1c.1-.1.1-.2.1-.3 0-.3-.2-.4-.2-.4zM93.3 104.9h-.4c-1.2 0-1.6.9-1.8 1.8-.1.3-.1.5-.1.8 0 .9.5 1.5 1.1 1.6h.2c1 0 1.5-.6 1.8-1.8 0-.2.1-.4.1-.6.1-.8-.1-1.7-.9-1.8zm0 2.2c-.2.8-.6 1.2-1 1.1-.6-.1-.4-.9-.3-1.4.1-.7.6-1.2 1-1.1.5.1.4.8.3 1.4zM83.4 104c0-.2-.1-.3-.2-.5-.1-.1-.2-.2-.4-.2-.6.1-1 1.1-1.2 1.6l-.1.2h.2c.9-.2 1.7-.5 1.7-1.1zM77.5 85h.3c1 0 1.6-.7 1.9-1.8 0-.2.1-.4.1-.6 0-.7-.3-1.6-1.1-1.7h-.4c-1.3 0-1.7.9-1.9 1.8-.1.3-.1.5-.1.8 0 .9.5 1.5 1.2 1.5zm-.1-2.2c.1-.7.7-1.3 1.1-1.2.5.1.4.8.2 1.5-.2.8-.6 1.2-1.1 1.1-.5 0-.3-.8-.2-1.4zM78.9 80.4l.4.1-.2-.4c0-.1-.1-.3-.1-.4v-.1c.1-.1.4 0 .6-.2.1-.1.2-.3.2-.5s-.1-.3-.2-.5c-.2-.1-.3-.2-.5-.2-.5 0-.8.4-.9.8v.2c.1.4.2 1 .7 1.2zM76.8 97.3c.9-.1 1.4-2 1.6-3h.2c-.1.7-.3 1.5-.3 2.2 0 .4.2.9.7.9.4 0 .7-.2.6-.5 0-.4-.3-.9-.3-1.5v-.2c0-.3.1-.6.1-.8h.4c.3 0 .7 0 .7-.4.1-.1.1-.2.1-.3 0-.3-.3-.4-.3-.5l-3.5.1v.1s-.3.5-.3.9c0 .1.1.3.2.3s.2 0 .3-.1h.5c0 .8 0 .9-.6 1.5-.2.1-.8.4-.8.9 0 .1 0 .2.1.3.2-.1.4.1.6.1zM79.1 109.3c-.2 0-.4.2-.5.2-.1-.3-.4-1-.4-1.8v-.1c.3-.6 1.4-1.5 1.4-2.1 0-.1-.1-.3-.2-.4h-.2c-.4.1-.6.5-1 1 0-.4-.1-1-.5-1.1-.1 0-.3-.1-.4-.1-.3 0-.6.1-.7.4l.3.1h.2c.2 0 .3.9.4 1.8-.4.6-1.8 1.9-1.8 2.6 0 .1 0 .2.2.3h.2c.5 0 .7-.5 1.4-1.4 0 .6.1 1.6.8 1.6h.1c.4-.1 1-.3 1-.7 0-.1 0-.2-.1-.2-.1-.1-.1-.2-.2-.1zM85.5 89.5c-.7.1-1 1.3-1 1.8v.2l.2-.1c.8-.3 1.5-.7 1.5-1.3 0-.2-.1-.4-.3-.6-.2.1-.3 0-.4 0zM96 106.3c.2 0 .4.1.7.1h.1c.2-.1.3-.3.3-.5 0-.3-.3-.5-.3-.5-.2 0-2-.1-2 1.4.1 1 1.3 1.3 1.2 1.5 0 0-.1.1-.3.2-.2.1-.5.1-.8.1h-.1v.1s-.2.2-.2.5c0 .2.1.4.4.5 1.7-.2 2.1-.9 2.1-1.3v-.1c-.1-.8-1.1-1.4-1.2-1.5 0-.5 0-.5.1-.5zM79.9 96.9l-.1.1.1.1c.2.2.4.2.6.2.3 0 .5-.2.5-.2s.4-.9.9-2V97c.1.3.3.4.4.4.3 0 .5-.2.5-.2h.1l-.4-5.1s-.3-.3-.6-.3c-.2 0-.4.2-.4.4 0 0 .2 1.3.2 1.4 0 .2-1 2.4-1.8 3.3zM81.3 85.1c.3 0 .5-.2.5-.2s.4-.9 1-2v1.8c.1.3.3.4.4.4.3 0 .5-.2.5-.2v-.1l-.4-5.1s-.3-.3-.6-.3c-.2 0-.4.2-.4.4l.2 1.4c-.1.3-1.1 2.4-1.9 3.4l-.1.1.1.1c.3.3.5.3.7.3zM91.2 105.7s.1-.1.1-.3-.1-.4-.3-.6l-.1-.1-.1.1c-.3.1-2 .3-2 .3h-.1c-.1.1-.2.3-.2.5s.1.4.2.4v.1l.7-.1c-.1.9-.3 2.9-.3 2.9v.1H89.4c.2 0 .6-.1.7-.5 0-.2.2-2.2.2-2.8h.9z"/><path class="st0" d="M85.2 85h.3c1 0 1.6-.7 1.9-1.8 0-.2.1-.4.1-.6 0-.7-.3-1.6-1.1-1.7H86c-1.2 0-1.7.9-1.8 1.8-.1.3-.1.5-.1.8-.1.8.4 1.4 1.1 1.5zm-.1-2.3c.1-.7.7-1.3 1.1-1.2.5.1.4.8.2 1.5-.2.8-.6 1.2-1 1.1-.7 0-.5-.8-.3-1.4zM82.9 106.2c-.1-.1-.2-.2-.5-.2-.2 0-.4.1-.6.2 0 0-.1-.1-.2-.1-.2 0-.3.1-.8.3-.7.3-1.1 1.2-1.3 1.9v.3c0 .5.1 1.1.6 1.4.1.1.2.1.3.1.3 0 .5-.2.7-.3 0 .2.1.4.4.4.2 0 .6-.1 1.1-.4h.1V109.2l-.2.1h-.2c0-.1.1-.3.1-.4l.5-2.7zm-2 3.1c-.4.1-.4-.8-.2-1.1.2-.6.6-1.2 1.3-1.1-.2 1.5-.5 2-1.1 2.2z"/><path class="st0" d="M140.4 109.4l-17.8-6.5v-1.2l19.1-.5-19.1-3.1V97l18.8-4.2-18.8.6v-1.3l17-7.4-17 3.8v-2.1l13.7-9.4-13.7 6v-3.8l9-9.1-9 6.2v-5.9l-.5.1c-.2 0-.4.1-.7.1l4.3-6.4L119 71c-1.4.2-2.9.3-4.5.3h-.7l4.9-11.7-7.6 11.4c-.6-.1-1.1-.2-1.6-.4-.4-.1-.9-.2-1.3-.3l3-13.9-5.7 13.7h-.3c-.8 0-1.6 0-2.4.2l.3-15.5-3.4 16.3c-.2.1-.5.2-.7.3-.4-.2-.9-.5-1.4-.6l-2.8-16.2-.3 15.6c-.6-.1-1.2-.1-1.8-.1h-.8L86.6 56l2.5 14.5c-.3.1-.5.1-.8.2-.6.2-1.3.4-2 .5L78.8 59l4.7 12.5h-.3c-1.5 0-3-.1-4.4-.3l-7.1-7.8 4.5 7.3c-1.3-.3-2.1-.5-2.1-.5l-.5-.1V75l-8-6 8 8.7v4.2l-13-6.2 13 9.6v2.3L57 83.2l16.6 7.9v1.4l-18.7-1.2 18.7 4.9v1l-19.2 2.4 19.2 1.2v1.1l-18.2 5.9 18.2-2.3v1.6L58 115.7l15.6-5.1v2.7L62 123l11.6-5.5v.7l.3.1s1.2.3 2.9.7c1.1.2 2.4.5 3.9.6.4 0 .7.1 1.1.1.6 0 1.2.1 1.8.1.8 0 1.7-.1 2.5-.2.4-.1.8-.1 1.1-.2.5-.1 1-.2 1.4-.4 1.1-.4 2.7-.6 4.3-.6 2.2 0 4.4.4 5.6 1.2l.2.2.2-.2c1.2-.8 3.6-1.3 5.9-1.2 1.2 0 2.3.1 3.2.3.2 0 .3.1.5.1.3.1.6.1.8.2 1.2.4 2.6.6 4 .7h2.5c1.6-.1 3.1-.3 4.4-.5.8-.1 1.5-.3 2.1-.4l.3-.1v-1l10.6 6.4-10.6-9.5v-3.1l14.9 5.5-14.9-8.9v-1.8l17.8 3.1zm-42.1 9.4c-1.5-.8-3.5-1.1-5.5-1.1-1.7 0-3.4.2-4.6.7-1.4.5-3.1.7-4.7.7-2.3 0-4.7-.4-6.4-.7-1.3-.3-2.2-.5-2.7-.6V71.3c1.3.3 5 1.1 8.8 1.1 1.9 0 3.7-.2 5.4-.8 1-.4 2.5-.6 4.1-.6 2.1 0 4.4.4 5.7 1.1l-.1 46.7zm23.6-.6c-1.8.4-4.6.9-7.4.9-1.7 0-3.5-.2-4.9-.7-1.2-.4-3-.7-4.8-.7-2 0-4.1.3-5.6 1V72.3c1.2-.9 3.7-1.3 6-1.3 1.6 0 3.1.2 4.1.6 1.6.6 3.5.8 5.3.8 2.7 0 5.5-.4 7.3-.8v46.6z"/><path class="st0" d="M85 105.8c-1.3 0-1.6 1.4-1.6 2.3 0 .3-.4 3.3-.4 3.5 0 0 0 .1.1.1 0 .1.2.2.3.2.3 0 .5-.3.5-.3l.3-1.8c.1.1.3.1.4.2h.1c1 0 1.5-.8 1.6-2v-.3c-.1-.7-.3-1.9-1.3-1.9zm.4 2.4c-.1.8-.3 1.1-.7 1.2-.6.1-.5-.8-.4-1.3 0-.7.2-1.5.8-1.5.4.1.4 1 .3 1.6zM88 109s-.2-.2-.2-.5v-.3c0-.8.2-2.5.2-2.5v-.2l-1.1.1h-.2l.1.2v.4c0 .6-.1 1.6-.1 2.3 0 .3 0 .6.1.7.1.3.4.5.7.5.5 0 .9-.3 1-.8l.1-.5-.3.4c-.2.1-.3.2-.3.2zM85.7 92.4c-.4 0-.9.4-1.1.6v-.2c0-.1-.2-.2-.4-.2s-.3.1-.5.3v1.2c0 .9 0 2 .1 2.3.2.3.4.5.6.5s.3-.2.4-.4v-.7-.5c0-.7.1-1.4.4-1.6h.1s.1 0 .1.3c.1.2.1.5.1.9 0 .9-.2 2-.4 2.9 0 .1 0 .5.4.6.2 0 .4-.2.6-.5.3-.6.4-1.9.4-3.1 0-1.1-.1-2-.4-2.3-.2-.1-.3-.2-.4-.1z"/></g></svg>