<svg id="Layer_1" xmlns="http://www.w3.org/2000/svg" viewBox="0 0 596.9 120" width="2500" height="503"><style>.st0{fill:maroon}</style><path class="st0" d="M593.5 8.5v-.2c-.1-1.5-.1-3.3-.1-5.3v-.4l-.4.1c-.5.1-3 .1-5.3.1h-7.4c-1.5 0-2.9 0-4.6-.1h-.2c-.3.2-.4.6-.4.8 0 .3.1.6.3.8l.8.1c2 .2 2.1.5 2.1 4.7v14.4c0 4.2-.1 4.5-2.1 4.7l-1.1.1-.1.1c-.2.2-.3.6-.2.9 0 .3.2.5.4.6h.2c1.9-.1 3.2-.1 5-.1 1.6 0 3 0 5.3.1h.2c.3-.1.4-.5.4-.8 0-.3-.1-.6-.3-.8l-1.5-.2c-2-.2-2.2-.4-2.2-4.7V18c0-.8 0-.8 1-.8h2.7c1.4 0 2.5 0 3 .2.6.2.9.5 1.1 1.3l.4 1.7.1.1c.4.3 1.2.3 1.5-.1l.1-.1v-.1c0-.4 0-1-.1-1.5 0-.7-.1-1.6-.1-2.3 0-.8 0-1.7.1-2.4 0-.6.1-1.2.1-1.6v-.1l-.1-.1c-.2-.3-.6-.3-.8-.3-.3 0-.6.1-.8.3l-.4 1.7c-.2 1-.5 1.1-.8 1.2-.4.1-1.7.2-3.3.2h-2.7c-1 0-1 0-1-.8V6c0-1.3 0-1.3.9-1.3h2.4c1.7 0 3 0 3.8.2 1.7.4 2.2 1.6 2.6 3.6v.1l.1.1c.2.1.4.2.6.2.3 0 .7-.1.8-.4zm-26.9 7.8c0-6.8-4.4-14.1-14.2-14.1-8.3 0-14.6 6.2-14.6 14.5 0 6.9 5 13.9 14.6 13.9 8.1 0 14.2-6.2 14.2-14.3zm-4.6 1.2c0 8.3-4.9 11.2-9.1 11.2-8.3 0-10.5-8.4-10.5-13.3 0-8.4 5-11.3 9.3-11.3 7.6 0 10.3 7.2 10.3 13.4zm-32.8 68.3c0 17.3 12.9 32.6 34.2 32.6 18.6 0 33.4-14.1 33.4-33.6 0-16.9-11.2-33-33.4-33-19.7.1-34.2 14.8-34.2 34zm9.7-3.1c0-21.1 13-27.9 23-27.9 18.4 0 25.4 17.1 25.4 33 0 18.9-11 27.6-22.5 27.6-19 .1-25.9-18.4-25.9-32.7zM517.6 4.3c.2-.2.3-.5.3-.8 0-.3-.2-.6-.4-.7l-.1-.1h-.1c-2.8.2-4.5.2-7.5 0h-.2c-.2.1-.4.3-.4.6-.1.3 0 .7.3.9l.1.1.8.1c.8.1 1.3.3 1.4.4-.1.6-1.5 3.2-2.4 4.8l-.2.3c-1 1.9-2.1 3.9-3.5 6.3-1.1-1.9-2.1-4-3.1-6l-1.2-2.4c-.3-.6-1.2-2.6-1.2-2.9 0-.1.2-.2 1.4-.4l.6-.1.1-.1c.2-.2.3-.6.2-1-.1-.3-.2-.5-.5-.6h-.2c-1 .1-2.4.1-4.3.1s-3.3 0-4.6-.1h-.2c-.2.1-.3.3-.4.6-.1.3 0 .7.2.9l.1.1 1.2.2c1.1.2 1.6.3 2.9 2.9l4.7 9.2c1.1 2.2 1.2 2.6 1.2 4.8v2c0 4.3-.1 4.6-2.1 4.8l-1.4.1-.1.1c-.2.2-.3.6-.2.9.1.3.2.5.4.6h.2c2.2-.1 3.6-.1 5.2-.1s3.1 0 5.4.1h.2c.2-.1.3-.3.4-.6 0-.3 0-.6-.2-.9l-.1-.1-1.6-.1c-1.9-.1-2.1-.4-2.1-4.8v-2.1c0-3 .1-3.3 1.8-6.3l2.5-4.4c.2-.4.4-.8.7-1.1 1.6-2.8 2.7-4.7 4.4-5l1.6-.2zm-14 49c-1.6-.4-6.7-1.4-12.2-1.4-14.5 0-24 4.5-30.5 11.3-6 6.3-8.7 14.6-8.7 22.8 0 8.5 3.1 16.1 8.9 21.8 7.4 7.5 17.9 10.7 29.3 10.7 5.2 0 12.1-1.2 17.2-2.5 1.8-.5 3.6-.9 4.7-.9.4-.3.4-.9.1-1.2-1.7-.7-2.3-3-2.3-6.8v-5.4c0-4.9.1-7.6 4.1-8.1l1.5-.2c.7-.6.6-2-.1-2.4-3.2.2-6.4.3-10.2.3-5.7 0-11-.1-13.8-.3-.7.3-.8 2 0 2.4l4.2.5c6 .7 6.3 1.3 6.3 9.3v3.8c0 3.1-.5 4.8-1 5.5-1.1 1.6-4.6 2.9-10.6 2.9-19.3 0-28.9-14.5-28.9-33 0-14.4 8.2-27.7 26.8-27.7 9.8 0 17 3.3 19.7 13.7.6.6 2.3.5 2.6-.3-.9-5.8-1.4-10.8-1.4-13.9-.9.2-3.9-.5-5.7-.9zM487.2 2.2V2c-.1-.3-.6-.3-.7-.3-.1 0-.2 0-.4.1h-.1l-.1.1c-.5.9-.7 1-2.9 1h-16.6c-1.8 0-2.6-.1-2.8-1v-.1l-.1-.1c-.1-.1-.3-.2-.6-.2-.1 0-.4 0-.6.1l-.1.1v.1c-.3 1.6-.9 4.1-1.5 5.9v.1l.1.1c.2.5 1.1.7 1.5.4h.1v-.1c.4-.9.8-1.8 1.7-2.7.9-.8 2.9-.9 4.7-.9h2.2c.9 0 .9 0 .9 1v17.9c0 4.3-.2 4.5-2.2 4.7l-1.4.1h-.1c-.2.1-.4.4-.4.8 0 .3.1.6.4.7h.2c2.5-.1 3.9-.1 5.6-.1 1.6 0 2.9 0 5.2.1h.2c.3-.2.4-.6.4-.8 0-.3-.1-.6-.3-.8l-1.4-.2c-2-.2-2.1-.4-2.1-4.7v-18c0-.4 0-.8.1-.9.1-.1.5-.1.8-.1h2.8c2.1 0 3.6.3 4.5.9.4.3.7 1.3.9 2.7V8l.1.1c.1.2.4.3.7.3.4 0 .7-.2.8-.4v-.2c-.3-.7 0-4 .5-5.6zm-36.6 21.3V9.2c0-4.4.1-4.7 2.2-4.8l1.1-.1h.1c.2-.1.3-.4.3-.8 0-.1-.1-.6-.4-.8h-.2c-1.9.1-3.3.1-5 .1-1.7 0-3.1 0-5-.1h-.2c-.3.2-.4.6-.4.8 0 .3.1.6.3.8h.1l1.1.1c2 .2 2.2.4 2.2 4.8v14.3c0 4.3-.1 4.5-2.2 4.8l-1.1.1-.1.1c-.2.2-.3.6-.2.9 0 .3.2.5.4.6h.2c2-.1 3.4-.1 5-.1s2.9 0 5 .1h.2c.3-.2.4-.6.4-.8 0-.3-.1-.6-.3-.8l-1.1-.2c-2.3-.1-2.4-.4-2.4-4.7zm-6.6 91c-4.1-.5-5.4-1.9-8.2-10.2l-13.2-38.7c-1.4-4.2-3-8.7-4.2-12.9-.2-.7-.9-.9-1.4-.9-1.1 1.2-2.7 3-5 3.7.3 1.5-.3 3.4-1.6 6.8l-9.8 26c-4 10.8-6.7 17-8.5 21.5-1.3 3.5-3.5 4.5-5.8 4.7l-3.2.3c-.6.5-.4 2 .2 2.4 2.6-.1 6.1-.3 9.2-.3 4.5.1 7.5.1 10 .3.9-.4.9-1.9.2-2.4l-3.2-.3c-2.3-.2-2.8-.8-2.8-1.9 0-1.1.7-3.7 2.1-8l3.4-10.1c.7-2 1.2-2.3 3.7-2.3h14.5c2.9 0 3.3.3 3.9 2.4l4.2 13.1c.8 2.3 1.2 4 1.2 5.1 0 1-1.3 1.5-3.4 1.7l-2.8.3c-.7.5-.6 2 .2 2.4 2.8-.1 6.4-.3 11.1-.3 4.3 0 7.7.1 11.6.3.5-.4.7-1.9 0-2.4l-2.4-.3zm-24.8-26.2h-11.8c-2.7 0-2.8-.1-2-2.3l6.1-16.7c1.1-2.9 2-5.2 2.3-5.7h.2c.6 1.2 1.4 3.8 2.2 6.1l5.2 15.7c.8 2.5.6 2.9-2.2 2.9zm3.9-80.1c0-1.5.6-4.1 4.5-4.1 3.5 0 4.6 2.3 5.2 4.3l.1.1c.1.2.3.2.6.2s.7-.1.9-.4l.1-.1c0-1.6-.3-3.9-.7-5l-.3-.2h-.2c-.3 0-.8-.1-1.3-.2-1-.3-2.5-.5-3.8-.5-5.1 0-8.5 2.9-8.5 7.2 0 3.7 2.8 6.1 4.5 7.2L428 19c2.8 1.8 3.1 3.6 3.1 5.4 0 2.1-1.5 4.3-4.7 4.3-4.1 0-5.8-3.1-6.6-5.8v-.1c-.1-.2-.3-.3-.6-.3s-.6.1-.9.4l-.1.1v.1c.1 1.8.6 4.8 1.1 5.7v.1h.1c.8.5 3 1.5 6.4 1.5 5.3 0 8.8-3.1 8.8-7.7 0-3.2-1.7-5.8-5.2-8l-3.2-2c-1-.6-3.1-2.2-3.1-4.5zM413 30.1c.2-.1.3-.4.2-.6 0-.2-.2-.4-.4-.5h-.1c-1-.1-1.9-.5-2.6-1.1-2.8-2.3-5-5.7-8-10.6-.2-.3-.2-.5-.2-.6 1.3-.6 5.1-2.5 5.1-6.9 0-3.4-1.9-5.1-3.5-5.9-2-1.1-4.6-1.2-6.8-1.2-3.7 0-6.5.1-9 .3h-.1c-.2.1-.4.4-.4.7 0 .3.1.7.3.8h.1l1.4.2c1.3.2 1.5.4 1.5 4.4v14.4c0 4.2-.1 4.5-2.1 4.7l-1.1.1-.1.1c-.2.3-.2.6-.2.9.1.3.2.5.4.6h.2c1.8-.1 3.2-.1 5-.1 1.7 0 3 0 4.8.1h.2c.3-.1.4-.5.4-.7 0-.4-.1-.7-.2-.8l-.1-.1-.9-.1c-2.1-.3-2.1-.5-2.1-4.7v-5.1c0-.6 0-.6 1.6-.6 1.5 0 2.1.4 2.6 1.1.6.9 1.3 2 2 3.1s1.4 2.2 1.9 3c2.8 3.9 4.8 5.2 8.5 5.2.5.1 1.2.1 1.7-.1zm-12.1-14.9c-1.1.9-2.7 1-3.9 1-1.8 0-2.4-.1-2.5-.1V5.6c0-.9 0-1 2.3-1 4.5 0 6.1 3.2 6.1 5.9-.1 2.2-.7 3.7-2 4.7zm-20.7 9V24c-.2-.4-.6-.6-.9-.6-.2 0-.4.1-.5.2l-.1.1c-1.1 2.3-2.2 3.5-2.7 3.7-.9.4-2.1.6-5 .6-3.3 0-4.2-.4-4.6-.8-.6-.6-.7-1.9-.7-4v-5.7c0-.8 0-.8 1-.8h2.3c1.4 0 2.4 0 3 .2.6.1.8.5 1 1.3l.4 1.6.1.1c.2.2.4.3.8.3s.7-.1.8-.4v-.2c0-.4 0-.9-.1-1.5 0-.7-.1-1.6-.1-2.4 0-.8.1-1.7.1-2.5 0-.6.1-1.2.1-1.6v-.2c-.1-.2-.4-.4-.8-.4-.3 0-.6.1-.8.3l-.4 1.8c-.2.9-.4 1.1-.8 1.2-.4.1-1.6.2-3.3.2h-2.3c-1 0-1 0-1-.8V6c0-1.3 0-1.3.9-1.3h2.9c1.7 0 3 0 3.8.2 1.8.5 2.2 1.6 2.8 3.4l.1.2.1.1c.1.2.4.3.7.3.3 0 .7-.1.8-.4l.1-.1-.1-.6c-.2-2.3-.4-4.3-.6-4.9l-.1-.3-.3.1c-.4.1-2.9.1-5.3.1H364c-1.5 0-2.9 0-4.7-.1h-.2c-.3.2-.4.6-.4.8 0 .4.1.6.3.8l.8.1c2.1.2 2.2.5 2.2 4.7v14.4c0 4.3-.2 4.5-2.2 4.7l-1.4.1-.1.1c-.2.2-.3.6-.2.9 0 .3.2.5.4.6h.2c2.3-.1 3.7-.1 5.4-.1h3.6c3.5 0 7 0 10.7.1h.2l.1-.2c.2-1 1.3-4.1 1.5-5.5zm-27.5-20c.3-.2.3-.5.3-.8 0-.3-.2-.5-.4-.6h-.2c-1.3.1-2.6.1-3.9.1-1.6 0-3.1 0-4.1-.1h-.2c-.2.1-.4.4-.4.7 0 .3.1.6.3.8l.1.1.8.1c1.4.2 1.5.5 1.5.5 0 .3 0 .7-.3 1.5-.7 1.7-2.6 6.3-3.7 9-.3.7-.7 1.6-1.1 2.6-.8 1.8-1.7 4-2.5 5.7-1.9-4.4-3.6-8.7-5.4-13.2-1.2-2.9-1.8-5-2-5.5.1-.1.4-.3 1.6-.5l.7-.1.1-.1c.2-.2.3-.5.3-.8 0-.3-.2-.6-.4-.7h-.2c-1.8.1-3.2.1-4.8.1-1.7 0-3 0-4.1-.1h-.1l-.1.1c-.2.1-.4.4-.4.7 0 .3.1.6.3.8l.1.1.8.1c1.6.2 2.1.9 3 3.1l7.1 17.4c.8 2.1 1.5 3.9 1.8 5.3v.2l.1.1c.2.1.5.1.7.1.2 0 .4-.1.6-.2l.1-.1v-.1c.7-2.2 2.6-6.9 4.2-10.4l2.2-4.9c1.9-4.2 3.4-7.4 4.5-9.2.5-.8 1-1.2 1.8-1.3l1.3-.5zM326.6 60c-7.3 5.7-12.1 14.8-12.1 25.5 0 12.4 6 21.2 13.7 26.5 7 4.7 15.3 6.4 24 6.4 6.2 0 13.1-1.4 15.2-2.2 1.1-.4 2.2-.8 3.4-1 1.4-1.8 3.9-8.2 4.6-13.2-.4-.7-1.8-.9-2.5-.4-2.2 5.7-7.7 13.8-20.1 13.8-15.8 0-28.6-11.2-28.6-31.4 0-19.9 12.5-29.2 27.2-29.2 13.9 0 18.3 7.5 19.7 14 .7.6 2.1.5 2.6-.2-.8-5.9-1.2-11.9-1.3-14.1-.9.1-1.5-.1-2.7-.4-4.5-1.3-11.8-2.3-17-2.3-10.2.1-19.1 2.8-26.1 8.2zm-12.3-36.5V9.2c0-4.3.1-4.7 2.2-4.8l1.1-.1h.1c.2-.1.3-.4.3-.8 0-.1-.1-.6-.4-.8h-.2c-1.9.1-3.3.1-5 .1-1.7 0-3.1 0-5-.1h-.2c-.3.2-.4.6-.4.8 0 .4.1.6.3.8h.1l1.1.1c2 .2 2.2.5 2.2 4.8v14.3c0 4.3-.1 4.5-2.2 4.8l-1.1.1-.1.1c-.2.2-.3.6-.2.9 0 .3.2.5.4.6h.2c2-.1 3.4-.1 5-.1s3 0 5 .1h.2c.3-.2.4-.6.4-.8 0-.3-.1-.6-.3-.8l-1.1-.2c-2.3-.1-2.4-.4-2.4-4.7zm-20.2 78.8V68c0-10.2.2-11.8 5.9-12.3l2.4-.2c.6-.4.4-2.1-.2-2.4-4.8.2-8.1.3-11.9.3-4 0-7.3-.1-12.1-.3-.6.3-.8 2-.2 2.4l2.4.2c5.7.5 5.9 2.1 5.9 12.3v34.2c0 10.2-.2 11.5-5.9 12.2l-2.4.3c-.6.6-.4 2.1.2 2.4 4.8-.2 8.1-.3 12.1-.3 3.8 0 7.1.1 11.9.3.6-.3.8-2 .2-2.4l-2.4-.3c-5.7-.6-5.9-1.9-5.9-12.1zm5-98.1c.2-.2.3-.5.3-.8 0-.3-.2-.5-.4-.7l-.1-.1h-.1c-1.3.1-2.4.1-4.1.1-1.4 0-2.7 0-4.7-.1h-.2c-.2.1-.4.3-.5.6-.1.4 0 .7.3.9l.1.1.8.1c1.4.2 2.1.4 2.3.7.5.8.8 3.7.8 8.1v9.7c-1.4-1.4-2.8-3.1-4.7-5.1l-5.6-6.3c-4-4.4-6.2-7.4-6.7-8.7l-.1-.2h-.2c-.5.1-1.1.1-1.8.1s-2.8 0-4.5-.1h-.2c-.2.1-.4.3-.4.6-.1.3 0 .7.2.9l.1.1.8.1c1.1.1 1.9.4 2.3.9.8.8.8 1.6.8 2.7v11.9c0 1.9 0 6.5-.5 7.8-.1.2-.4.5-1.5.6l-1.2.1-.1.1c-.2.2-.3.5-.2.8s.2.6.4.7l.1.1h.1c1.4-.1 2.5-.1 4.2-.1 1.4 0 2.7 0 4.7.1h.1l.1-.1c.2-.1.3-.3.4-.6 0-.3 0-.6-.2-.8l-.1-.1-1.4-.1c-1-.1-1.6-.3-1.8-.6-.4-.8-.7-3.7-.7-8.1v-8.7c0-.7 0-1.5.1-2 .6.7 1.7 2 2.7 3.1.7.8 1.3 1.5 1.7 1.9l9.3 10.6c3.1 3.5 4.6 5.3 5.1 6l.1.1h.2c.5 0 .9-.2 1.1-.7v-.2c-.1-.5-.1-2.1-.1-7V12.5c0-2.1 0-6.3.6-7.6 0-.1.5-.4 2-.7h.3zm-35.9 0c.2-.2.3-.5.2-.8 0-.2-.2-.5-.4-.6h-.2c-1.4.1-2.5.1-4.2.1-1.5 0-3 0-4.6-.1h-.1l-.1.1c-.2.1-.3.4-.4.6 0 .3 0 .6.2.8l.1.1 1.1.1c.9.1 1.5.3 1.8.7.5.8.7 3.7.7 8.1v4.6c0 4.7-1.3 10.4-7.7 10.4-5.3 0-7.8-3.3-7.8-10.4V9.1c0-4.3.1-4.6 2.1-4.7l1-.1h.1c.2-.1.3-.4.3-.7 0-.3-.1-.6-.4-.8h-.2c-1.9.1-3.2.1-4.9.1-1.6 0-3.1 0-5-.1h-.2c-.3.1-.4.5-.4.8 0 .3.1.6.3.7h.1l1.1.1c2 .2 2.1.5 2.1 4.7v9.5c0 4.8 1 7.8 3.2 9.7 1.8 1.5 4.4 2.3 7.7 2.3 3.2 0 6.2-1.2 7.9-3 1.9-2.1 2.9-5.3 2.9-9.8v-4.5c0-2 0-6.8.5-8 .2-.4.9-.7 1.7-.8l1.1-.1.4-.2zm-46.1 51.3c.6-.4.4-2.1-.2-2.4-4.1.2-7.4.3-11.2.3-4.1 0-7.4-.2-12.1-.3-.6.3-.8 2-.2 2.4l2.5.2c5 .4 5.7 2 5.7 12.1v34.6c0 10.1-.2 11.1-5.6 12l-1.6.3c-.6.6-.4 2.1.2 2.4 3.8-.1 7-.3 11.2-.3 3.8 0 7 .1 12.2.3.6-.3.8-2 .2-2.4l-2.8-.3c-5.4-.6-5.9-1.9-5.9-12V88.9c0-2.9.2-3.1 4.8-3.1h27.5c4.6 0 4.8.2 4.8 3.1v13.6c0 10.1 0 11.1-5.9 12l-1.8.3c-.6.6-.4 2.1.2 2.4 4.2-.2 7.7-.3 11.6-.3 3.8 0 7 .1 11.6.3.6-.3.8-2 .2-2.4l-2.3-.3c-5.6-.7-5.8-1.9-5.8-12V67.8c0-10.1.2-11.5 5.8-12.1l2-.2c.6-.4.4-2.1-.2-2.4-4.3.2-7.6.3-11.4.3-3.9 0-7.2-.1-11.6-.3-.6.3-.8 2-.2 2.4l1.8.2c5.7.6 5.9 2 5.9 12.1v11.1c0 3-.2 3.1-4.8 3.1h-27.5c-4.6 0-4.8-.1-4.8-3.1V67.8c0-10.1.2-11.5 5.8-12.1l1.9-.2zm-3.9-31.3V24c-.2-.4-.6-.6-.9-.6-.2 0-.4.1-.5.2l-.1.1c-1.1 2.3-2.2 3.5-2.7 3.7-.9.4-2.1.6-5 .6-3.3 0-4.2-.4-4.6-.8-.6-.6-.7-1.9-.7-4v-5.7c0-.8 0-.8 1-.8h2.3c1.4 0 2.4 0 3 .2.6.1.8.5 1 1.3l.4 1.6.1.1c.1.2.4.3.8.3s.7-.1.8-.4v-.2c0-.4 0-.9-.1-1.5 0-.7-.1-1.6-.1-2.4 0-.8 0-1.7.1-2.5 0-.6.1-1.2.1-1.6v-.2c-.1-.2-.4-.4-.8-.4-.3 0-.6.1-.8.3l-.4 1.8c-.2.9-.4 1.1-.8 1.2-.4.1-1.6.2-3.3.2h-2.3c-1 0-1 0-1-.8V6c0-1.3 0-1.3.9-1.3h2.9c1.7 0 3 0 3.8.2 1.8.5 2.2 1.6 2.8 3.4l.1.2.1.1c.1.2.4.3.7.3.3 0 .7-.1.8-.4l.1-.1-.1-.6c-.2-2.3-.4-4.3-.6-4.9l-.1-.3-.3.1c-.4.1-2.9.1-5.3.1H197c-1.5 0-2.9 0-4.7-.1h-.2c-.3.2-.4.6-.4.8 0 .3.1.6.3.8l.8.1c2.1.2 2.2.5 2.2 4.7v14.4c0 4.3-.2 4.5-2.2 4.7l-1.4.1-.1.1c-.2.2-.3.6-.2.9 0 .3.2.5.4.6h.2c2.3-.1 3.7-.1 5.4-.1h3.6c3.5 0 7 0 10.7.1h.2l.1-.2c.2-1 1.2-4.1 1.5-5.5zm-33.5-.6V9.2c0-4.3.1-4.5 2.1-4.7l.8-.1h.1c.2-.1.3-.4.3-.8 0-.1-.1-.6-.4-.8h-.2c-1.9.1-3.3.1-4.7.1-1.7 0-3.1 0-4.8-.1h-.2c-.3.2-.4.6-.4.8 0 .4.1.6.3.8l.9.1c2 .2 2.2.5 2.2 4.7v4.6c0 1 0 1-1.7 1h-11.5c-1.7 0-1.7 0-1.7-1V9.2c0-4.3.1-4.5 2.1-4.7l.8-.1h.1c.2-.1.3-.4.3-.8 0-.1-.1-.6-.4-.8h-.2c-1.8.1-3.2.1-4.6.1-1 0-2 0-3-.1-.6 0-1.3 0-2.1-.1h-.2c-.3.2-.4.6-.4.8 0 .4.1.6.3.8h.1l1.1.1c1.8.1 2.1.5 2.1 4.7v14.4c0 4.2-.1 4.3-2.1 4.7l-.8.1-.1.1c-.2.2-.3.6-.2.9 0 .3.2.5.4.6h.2c.6 0 1.1 0 1.6-.1.9 0 1.9-.1 3-.1 1.5 0 2.8 0 5.1.1h.2c.3-.1.4-.5.4-.8 0-.3-.1-.6-.3-.8l-1.3-.2c-1.9-.2-2.2-.4-2.2-4.7v-5.7c0-1 0-1 1.7-1h11.5c1.7 0 1.7 0 1.7 1v5.7c0 4.3 0 4.4-2.2 4.7l-.9.1-.1.1c-.2.2-.3.6-.2.9 0 .3.2.5.4.6h.2c1.9-.1 3.3-.1 4.8-.1 1.6 0 3 0 4.8.1h.2c.3-.2.4-.6.4-.8 0-.3-.1-.6-.3-.8l-1.1-.2c-1.8.2-1.9-.1-1.9-4.3zM146.8 2.2v-.1l-.1-.1c-.2-.3-.6-.3-.7-.3-.1 0-.2 0-.4.1h-.1l-.1.1c-.5.9-.7 1-2.9 1h-16.6c-1.8 0-2.6-.1-2.8-1v-.1l-.1-.1c-.1-.1-.3-.2-.6-.2-.1 0-.4 0-.6.1l-.1.1v.1c-.3 1.6-.9 4.1-1.5 5.9v.1l.1.1c.2.5 1.1.7 1.5.4h.1v-.1c.4-.9.8-1.8 1.7-2.7.9-.8 2.9-.9 4.7-.9h2.2c.9 0 .9 0 .9 1v17.9c0 4.3-.2 4.5-2.2 4.7l-1.4.1h-.1c-.2.1-.4.4-.4.8 0 .3.1.6.4.7h.2c2.5-.1 3.9-.1 5.6-.1 1.6 0 2.9 0 5.2.1h.2c.3-.1.4-.5.4-.8 0-.3-.1-.6-.3-.8l-1.4-.2c-2-.2-2.1-.4-2.1-4.7v-18c0-.4 0-.8.1-.9.1-.1.5-.1.8-.1h2.8c2.1 0 3.6.3 4.5.9.4.3.7 1.3.9 2.7V8l.1.1c.1.2.4.3.7.3.4 0 .7-.2.8-.4v-.2c-.1-.7.1-4 .6-5.6zm-27.3 83.3c0 12.4 6 21.2 13.7 26.5 7 4.7 15.3 6.4 24 6.4 6.2 0 13.1-1.4 15.2-2.2 1.1-.4 2.2-.8 3.4-1 1.4-1.8 3.9-8.2 4.6-13.2-.4-.7-1.8-.9-2.5-.4-2.2 5.7-7.7 13.8-20.1 13.8-15.8 0-28.6-11.2-28.6-31.4 0-19.9 12.5-29.2 27.2-29.2 13.9 0 18.3 7.5 19.7 14 .7.6 2.1.5 2.6-.2-.8-5.9-1.2-11.9-1.3-14.1-.9.1-1.5-.1-2.7-.4-4.5-1.3-11.8-2.3-17-2.3-10 0-18.9 2.7-26 8.2-7.4 5.7-12.2 14.9-12.2 25.5zm-25-16.2v-67C40.6-2.9 0 2.3 0 2.3v67c4.3 45.4 46.8 50.8 47.2 50.7 7.6-1.4 43.3-8.5 47.3-50.7zM15.2 86c.9.6 1.9.8 2.8 1.2 1.1 3 0 6-.6 4.7-1.2-2-1.6-3.8-2.2-5.9zm0-32.9c-.2-.1-6 3.7-9.9 1.9 2.9-1.6 12.7-7.9 15.4-9.6 1.3.3 1.8-.2 2.2-.5-1 .1-4.5.6-2.7-2.5.7 2.7 5.5.2 7.2-.2 4.8-1.1 4.8 4 4.4 6.2-.2.8 1.5 1.4 2.3 1.2-1.4 3.4-3.7.2-4 1.5-.1.5-1.7.9-1.7 2.2 0 1.8.7.8.8 2.2.1 1.3-.6.3-.4 1.7.2 2.3 4-.3 5.6.3.8.3 1.3 1 2.1.9.2-.2.1-1.1.1-1.4-.1-.7-1.4-.8-2.1-1.8-.5-.9.6-3.5 1.3-4.2.9 4.3 4.9 3 5.6 7.5.4 1.3-1.4 2.7 0 4.8-1.1 1-2.3 5.9-.1 8.3-.4 1-.9 3.5 1.1 4.9-.7 1.4-.5 3.2 0 4.9-1.2 0-1-6.9-8.4-7.2-.2-.1-.2.8 0 1.2.9 1.6 2.1 1.5 1.8 5.1-.1 1.3-.8-.2-1.2-.6-.9-.8-1.6-.9-2-3.5-3 2.4-2.7 5.2-2.5 6.7 0 0-.7-1.8-1.4-3.7 0-.1 3.1-3.8 3.6-4.7 6.3-11.3-4 3.6-4.1 3.6-.6-1.3-1-2.4-1.4-2.7.1-.2 1.8-2.1 2.6-3.7 4.8-10.1-2.9 3.4-3.2 3.1-.6-.5-1.1-1.2-1.4-.9-.1 1.5-.5 1.3-.4 2.9-.8 1.1-2.5 2.8-3.7 3.6 0 0-.3-2.8-.2-2.9.6-.7 3-3.3 3.5-4.1 7.9-12.4-3.7 3-3.7 2.9-.1-.5-.7-1.3-1.4-2 0 0 2.6-3.5 3.2-4.8 4.8-9.9-3.9 4.4-4 4.3-.2-.1-.2-.1-.5-.2-.2-.1.3-2.9.6-4.5.7-3.3-1.1-.6-1.6 4.6-.4.1-1.5.2-1.9.6.3 1.4.6.3 1.2 1.7.7 1.6-1 4.2.5 6.2.6.7.6.6.5 1.1-.9-.1-1.4-.1-2 .7-1.1-5-1.1-7.4-.8-12.5.1-2.3.9-5.8.5-5.9-.3-.1-5.6 13.5-6.8 16.1-2.4-.8 1.2-12.5 5.7-18.2.5-1.7-2.4 1.9-4 3.3C8 68.3 6 70 3.9 69.4c2.7-2.9 9-8.3 9.7-9.7.6-1.2-4.3 3.6-9.4 1.8 3.2-1.7 11-5.6 11-8.4zm9.3 25.4c0 1.2-.1 2.1.3 3.4.6 1.9.3 1.3-.5.7-.6-.7-1.2-1.3-1.5-2.1-.1-.6.3-.6 1.7-2zm12.4-30.4c-.8-1.3.9-2.5.9-2.5 0 3.6 4.6 1.1 7 2.3.6.3 1 .8 1.2 1.3-2.6-1.8-7.4 1.8-9.1-1.1zm-27-28.8c-4.1 0-4-6.2 0-6.2 4 .1 4 6.2 0 6.2zm0 12.3c-4.2 0-4.2-6.2 0-6.2 4 .1 4 6.2 0 6.2zm7.7-13.3H14v-3.5h3.6v3.5zm0 12.3H14v-3.5h3.6v3.5zm29 6.1s-3.7-2-8.1-2.3c-4.3-.4-12.9 3-19.5 2.6V8s7.5 1 10.6-.2c10.5-4.1 17 .5 17 .5v28.4zm7.2 4.7c.2 1.1-.8 1.4-.8 1.4 1.6.4 2.3-.6 2.6-1.2.6 2.5-1.9 2.7-2.7 2.8 0 0 1.3.4 1.4 1.2.2 2.1 1.5 1.9 1.8 1.8 0 .3-.5 1.5-2 .4-.3.3.4.7.6 1.7.2 1.3.1 2.6 1.7 3.4-.9.8-2.1-1.2-2.2-1-.1.3 1.3 1-.3 4.7-.7-.4-.3-.3-1.1-1.3-.6-.5-.9-.7-.4.2.9 1.2 1.1 3.8.8 4.5-.8-.3-.6-.9-1.5-1.8-.1.4.3 2.1 1.2 2.9 1.6 1.4 2.2 3.2 2.2 3.5.1 1.3-.3 3.1-.4 4.8-.8-.1-1.4-2.3-1.6-2.2-.2.1.1 2.1 1.6 3.5.7 2.1.4 3.2.2 3.2-.2.1-1-2.1-1.5-1.7 2.1 5.3.6 7.1.1 8.7-.4-1.7-.6-2.9-1.2-4.8-1.1.9-1.4 2.2-2.8 3.4 0-2.1-1.2-7.3-2.2-8.5 0-.1-1.8 4.6-2.6 6.7-1 2.7-1.2 6.1 0 8.7-2.6-3.6-2.8-10.4-.6-11.3.2-.5-.1-2.1-.6-1.9-.1.8 0 1.4-.7 2.2-1.7-.5-.9-2.6-.8-3.2 2.2-2.6.8-3.2.7-3.2-.2.6-.4 1.3-1.1 1.6-1.4-2.4-.5-6.2 2.2-9.1.1-1.1-1.2.8-2 .7-.2-2 .5-5.6 4.3-5.7-.7-.2-1.1-.3-1.3-.9 1.1-.2 4.7-.4 4.1-3.3-.3.3-.4.8-1.4 1.4-.6.4-1.3.4-1.7-.1 1.7-.5 1.1-2.6-1.1-2-.7.2-1.6-.5-1.7-1.3.5.5 1.5.1 2-.2 2.4-1.6 3.9.7 4.3 1.2.1 0 1.1-2.3-2.4-2.9-.3-.8-1.1-2.2-3.4-2.1-.8-2.7-3.1-1.4-3-.1-2.5-1.8 0-4.1 1-4.5.7.1.5 2.3 1.8 1.9.3-.1-1-1.5-.5-2.2 1.1-.6 1.1.8 1.7.3.3-1 1.4-1.5 2.3-1.6 2.6-.2 4.6 2.6 7 1.3zm22.9-4.3c-5.5.4-17-2.8-19.9-2.8-6 0-8.9 2.3-8.9 2.3V8.3s7.9-3.7 13.7-1.6c7 2.6 15.2 1.4 15.2 1.4l-.1 29zM84 25.9c3-.4 3.5 3.2 3.5 3.2-.8-.6-2.3-.9-3.3-.2-3.4 2.2-6.5 2.2-6.5 2.2v-5.5c.1 0 .7 1.2 6.3.3zm3.6-7.5c0-.2-.1-.4-.1-.8-.1-.6-1.7-.9-2.8-.4-1.6.7-5.5 2.9-6.9 2.5v-5.5c3.5 1.5 4.9.1 6 .1 3.5 0 3.6 3.2 3.6 3.2.2.5.2.8.2.9zm-3.9 56.9c-1 .3-3.7 1.3-4.4 2.4.3-5.9-1.5-11.6-2.1-13-1.2-2.7.5 6.3.6 8.4 0 .1-9.7-12.5-3.8-2.8 1.5 2.5 3.9 4.2 3.9 4.2 0 1.7-.1 3-.4 4-.6.5-13.2-16.8-6.2-4.8.9 1.5 5.9 6 5.9 6.1-.3.7-.9 1.7-1.7 2.4-.1-.1-2.9-2.2-2.9-2.3-.2-1.3-.2-2.6-1.9-1.7 0 0-6.2-7.2-3.3-2.2 1.3 2.2 2.1 2.5 2.4 2.9 0 0-1 1.3-1.3 2.7-.1.6-5.4-5.8-3.3-1.8.7 1.3 3.1 2.7 3 2.8-.2.8-.5 1.6-.8 2.2-.3.7-5 4.4-5 4.4s.9-2.9 2.9-4.4c1.1-.8 1.1-.6 1.9-1.1 0-.4-.4-1.1-1-1.3-.7-.2-2.9.2-2.9.2.2-1.1-.8-3.5-.7-6.1-.8.1-2.3 1.4-2.6 2.1-.3 4.3-1.2 3-2.1 6.1-1-1.3.1-3.2-.9-4.4-1.3-1.7-1.5-2.8-1.7-4.9.3-.2 1.6-1.6.4-4.6-.2-4.8 1.9-6.6-1.9-9.9.3-.1.6-2.5.6-2.5 2.8 1.5 2.2-1.7 3.3-2.4 1.7-1 1.4-2.1.6-3.4 5 1.4-.2 4.8 2 4.9 1.6 0 2.7-.4 3.4-1.5.8-1.2-.1-1.9 2-3.7.2-.2.8-1.4-.9-1.8-.4-.1 0-1.5 0-1.5-1.3 1.1-1.8 2.7-3.9 1.7-1.1-.5-1.8 0-2.3.2 0 0-.2-.9.7-1.2 2.4-.8 2.9-1.7 2.8-2.2-.3-1.2-.4 0-.3-1.3 0-.5.6-1.2 1.1-1.8 1.6-1.9 2.7-1.2 3.1-1 .9-.7 1.1-.7 2-1 1.5-.6 4.7.4 6.5 1.2.9.4 1.9.6 2.9.4 0 .5-.4.8-.7.9-.6.2-1.2 0-1.2.4 0 .2.8.3 1.3.4 2.7.7 6.1 3.1 3.8 2.6-.3-.1 1.6 1.4 3.1 3.3l5.1 4.9c-.2.3-2 0-7.6-5.2-.8.7 6.8 6.5 10 12.6-.3.2-4.2-1.2-5.6-2.7-2.2-2.3-4.7-8-5.7-7.2-.1 0 4.1 6.7 6.3 10.6 1.1 2 1.9 4.9 2 7 .3 10.6-1.3 9.8-1.3 9.8-2.5-8.4-3.7-18.1-7.3-22.6-1.5-1.8 3.9 7.8 4.1 16.5zm-11 9.6c-1.1 1-1.9 1.3-1.6.8.3-.5.5-1 .6-1.4.1-.1 1 .6 1 .6zm-.8-1.3c.2-.9.2-1.5.4-2.3.1-.3.1-.3.1-.6 0-.1 2.4 2 2.6 2.1-.6.8-1.1 1-1.7 1.6-.5-.4-1.4-.8-1.4-.8zm7.9 2.7c-3.4 3.3-8.4 2.1-12.4 3.9-3.6 1.3-6.2 4.7-10 5.5-1.1.4-1.3.9-.6.9.4 0 2.7 2.4 6.4.5 1.2-.6 5.1-2.8 5.7-2.9-2.1 2-3.1 3.7-5 4.8-1.1.6-5.8 2.3-10.4 1.4-2-.4-3.6 1.5-3.1 1.4 1.1-.3 2.3-.1 3.1.8 1.3 1 3.3 2.4 4.9.4.6-.6 3.2-2 5.7.5-2.6-.1-2.4 4.6-7.4 4.1-1.9 0-6-4.3-7.1-2.9-2.1 2.3 4.4 4.5 1.6 7.5-2.6 2.6-5.6-2.1-5.6-2.1 1.6.7 4.5 1.1 3.2-1.5-.5-1-1.5-1.9-1.5-3.8-.2-.9-6.1 7.5-9.9 3.7-1.5-1.5-4.6-4.8-7.4-6 7.4-.6 8.5 2.3 8.8 2.8 2.4 3.2 4.5 0 5-.6.8-.9 1.9-2.1 1.5-2.3-2.9-1.4-6.1-1.6-8.6-.5 5.2-7.2 9.3-.5 9.3-.5.6.4-.1-4.3-5.3-4.5-3.2-.2-6.1 2.7-8.3 2.7-1.8 0-7.3-3.7-8.6-7 3.2 2.4 7.3 3.8 9.8 2.2 4.8-2.8 10.8 1.4 11.1.9-1.3-1-4.4-5.1-12.6-2.8-3.2 1.8-4.5-1.4-6.5-1.4 3.3-2.9 5.6-1.4 6.8-1.4.3 0-1.4-1.4-2.5-1.5-9.1-.9-14.8-3.4-14.8-3.4s.8-1.8 4.6-.5c0 0-3.5-2.1-3.5-4.9.1-1.7.9-3.5-.4-4.9 5.3-.2 1.5 7.1 5.2 9 .1 0-1.1-1.8.6-3.1.8 2.2 2.6 3.3 4 3.6.3-.2.7-.8.7-.8-1.4-2.3-1.6-5-1.2-8h.1c.3 0 .8 1.1 1.2 1.8.8 1.6.7 4 2.3 6 .8 1.1 1.4 2.2 2.1 2.7.3-.8.1-2.1 0-2.4-.2-1.2-1-3.4 1.2-5.3 1 2.9 2.3 2 2.5 3.4.3 1.9.2 1.6 0 3.1.1 2 2 2.6 3.6 3.9 3.7 2 6.2 3.1 7.8 5.7.8-4.4-11-5.2-9.5-13.7-.2-3.4.4-3.6-2-5.7 4.7.1 7.3 7.9 7.6 9.3.5 2.6 2.1 2.7 4.2 6.1.3.1-3.9-9 1.1-16.9 0 0 1.7 4.1.9 6.7-.5 1.6 0 3.4.1 4.4.1 1-.2-3.7 3.4-6.2.2 1.8 1.9 4.6.3 7.6-2 3.6-2.1 2.3-2.2 6.8.2-.1.7-3.1 2.1-4.8 2.9-3.6.8-5.5 3.6-8.6.2 1.6.6.9.8 2.3.4 3.1-2.9 6.5-2.2 6.4.8-.1 2.2-.8 2.6-3.2 0 0 1.2 2.2.1 2.9-2 1.3-2.4 2.7-2.1 4.3 1.6-1.9 3.8-4 3.4-6.7.2-1.6 1.9-2.3 2.3-6.1.1-.6.7-1.4 1.3-1.7-.3 2.1 1.4 4.3-.5 6.9.4.2 2-2 4.3-1.2-4.7.8-3.3 5.9-6.9 8.2-1.1.7-.9 1.5-1.2 1.6 3.2-.2 5.7-4 6.1-4.3 3.2-2.2 3.9-2.5 5.2-6 .5-1.3.1-1.9 1.9-3.7.8 1.8-.4 5.5-.6 6.3-.6 1.7-2.6 3.2-2.2 3.2 8.6-3.8 8.5-6.4 10.6-9.1.6-1 3.7-2.8 4.8-3 0 .5-1.2 1.4-1.2 2.5-.1 1.9-.7 3.1-1.7 4.6.5.7 1.6-1.3 2.6-.3-1.4.4-2 2-3.1 2.9zm1.5-.5c-.5 2.5-1.4 4.8-2.9 7-1.1 1.5-1.5-1.4-.6-4.3 1.3-.6 2.6-1.6 3.5-2.7zm-6.6-63.7c-.2-.1-.6-.2-.9-.2s-.4.4-.1.5c.2.1.6.1 1 .1.3.1.2-.3 0-.4zm-1 1.2c.2.1.6.1 1 .1.2 0 .2-.4 0-.5-.2-.1-.6-.1-.9-.2-.3.2-.4.5-.1.6zm0 5.5c-.2-.2-.7-.6-1.2-1-.3.2-.8.6-1.2.8-.3-.3-.6-.7-1.1-1.1-.3.2-1.2 1-1.6 1.3.6 0 1.4.2 1.4.7V33c.3.1.7 0 1.2 0v-3.7c.2-.1.4-.2.5-.3.2.1.8.8 1.1 1 .2-.2.8-.7 1.1-.9.4-.3.1-.5-.2-.3zm-1.5-4.3c.3-.6.8-1.5.7-2.2 0-.9-.6-2.1-1.8-2.6-1.6.6-2.6 1.8-2.6 3.3 0 .9.7 2.7 2.3 2.7.4-.4.9-.9 1.4-1.2zm-1 .3c-.3-.1-1.4-1-1.6-1.6-.3-.9-.3-1.8.6-2.4.7.3 1.6 1 1.6 1.6.1.9-.1 1.9-.6 2.4zm0-6.7l1.2-1.3s-.5-.4-.8-.8c0-.3 0-2.8.1-2.9-.9-.8-1.5-.9-1.9-.8-.7.1-1.4 1-1.6 1.3-.2.2-.1.5 0 .6.1.1.3.2.5.3 0 0-.1 0-.1-.1-.3.3-.8 1.2-.8 1.8 0 .6.6 1.5.9 1.8.4-.3 1-.8 1.9-1 .1.6.3.9.6 1.1zm-.7-2.9c-.6-.2-1.7-.7-2.1-1.1-.1-.1-.1-.1 0-.3.3-.4.6-.7.8-.7.2 0 1.3.6 1.3.9v1.2zm0 1.7c-.3 0-.6.1-.9.3-.3-.3-1.1-1.2-.5-2.3-.1 0-.2-.1-.2-.1.5.3 1.2.6 1.7.7v1c-.1.1-.1.3-.1.4zm-3.3-5.1c-.3 0-2.1 0-2.1-.1-.1-.4-.2-.9.1-1.5.2-.3-.1-.5-.3-.1-.1.3-1 1.6-2 2-.5.2.6.6.5.6 0 1.2.2 3 .4 3.8.2.4.7 1.1 1 .9.2-.1.7-1.1.8-1.2.3-.2 0-.6-.2-.4-.2.2-.4-.1-.5-.3-.1-.2-.3-2.9-.2-2.9 0 0 2.2-.3 2.4-.3.3-.1.3-.5.1-.5zm-5.9 4.9l.9-1.2c-.6-.1-.9-.2-1.4-.7v-2.9l-.9-.9h-.3l-1.4 1.3c-.1.2.2.2.4 0l1 .6v2.8c.1.3.4.7.8 1.1l.9-.1zm-.8-6.4l.5-.4v-.7l-.7-.7-.7.6v.8l.4.4h.5zm-2.3-.9c-.4 0-1.6.1-2.1.1-.5.1-.5.3-.1.3s.5.1.6.6c.2.5-.7 2.8-1 3.4-.3-.4-1.2-2.5-1.2-2.8 0-.2.4-.4.6-.5.4-.1.4-.4.1-.4-.8-.1-3.4-.3-3.9-.4-.3 0-.5.4-.1.4s.9-.1 1.3.6c.5.8 2.2 4.4 2.6 5.9.2-.3 1.9-5.2 2-5.7.1-.5.5-1 1-1.1.7-.1.6-.3.2-.4zm-8 11.8c0 2 .8 2.2 1.8 2.7.9.5 2.3.4 3.4.1.4-.1.6-.1.6.2 0 .2.3.2.3 0v-2.1c0-.2-.3-.2-.3 0 0 .3 0 .4-.3.8-.8 1.1-2.7 1.1-3.7-.3-.3-.5-.7-1.1-.3-1.2.4-.1 1.6.1 2.4.2.5 0 1.6.1 1.7.2.1.1.3.2.3 0v-1.3c0-.2-.2-.1-.3 0-.1.1-1.3.3-1.8.4-.5.1-2 .2-2.3.1-.4-.1-.3-.9.1-1.4 1-1.4 3.1-1.3 3.9-.1.3.4.3.5.3.8 0 .2.3.2.3 0v-2.4c0-.2-.3-.2-.3 0 0 .1-.3.2-.7.1-.6-.2-2.5.1-3.4.5-.5.5-1.7 1.5-1.7 2.7zm.4 3.6c0 .6.2 5.5.2 6.2 0 .4.5.8 1 1.1.2-.3.7-1 1.2-1.3.2-.2.1-.3-.1-.3-.4.2-.8 0-.8-.4v-5.3c-.4.1-1.2.1-1.5 0zm4.1 4.1c-.3.3-.9 1.1-.9 1.7 0 .6.3 1.2.7 1.5.6-.4 1-1 2-1.4.1.5.5.5.8.8.2-.3 1.1-1.3 1.3-1.5.2-.2.1-.4-.2-.2-.3.2-.5.1-.9-.4 0-.3 0-2.4.1-2.5-.4-.4-.8-1-1.3-1-.7.1-1.6 1.3-1.8 1.6-.2.2 0 1.1.1 1.2 0 .2.1.2.1.2zm.5.4c.4.2.6.1 1.2 0v.9c-.3.2-.6.4-1 .5-.3-.2-.7-.4-.2-1.4zm-.3-1.8c.3-.4.4-.5.6-.5.2 0 .9.5.9.8v1.1c-.5.1-.9.1-1.5-.4-.1 0-.1-.8 0-1zm4.3-.8c-.5.2.6.6.5.6 0 1.2-.3 3.2.2 3.8.3.4.8.6 1.2.5.4-.1.9-.9 1-1 .3-.2 0-.4-.2-.2s-.9.1-.9-.2c-.1-.2-.1-2.9 0-2.9h.9c.2 0 .2-.5 0-.5-.3 0-.9-.1-.9-.2-.1-.2 0-1 .2-1.4.2-.3-.1-.5-.3-.2-.1.5-.9 1.3-1.7 1.7zm.2-5.5c0 1.1-.5 2.3-1.2 2.9 1.1-.3 1.3-1 1.9-1.7.3.5 1 1.1 1.4 1.4.3-.2 1.2-1.2 1.4-1.4-.7-.2-1.9-.8-2.2-1.6-.2-.5-.2-.8.1-1.2.2.3 1.8 1 2.5-.2-.8-.3-1.4-.8-1.7-1.2-.2.2-.9.9-1.3 1.1-.1-.4-.7-.8-1.2-.9-.2.2-1.4 1.1-1.9 1.3-.2.1-.1.4.1.4.2-.1.6-.4 1-.6.5.2 1 .7 1.1 1.7zm5.3.2c.1-.7.6-1 .8-1.2.3.3.6.7 1.1.7.5 0 .9-.2 1.1-.4-.4-.3-1.2-1.2-1.4-1.4-.4.2-2.4 1.2-2.5 2.4-.2 1.7.3 2 1 3 .4.5 1.1.6 1.4.5.3-.2 1.6-1.4 1.7-1.6.1-.1-.1-.3-.2-.1-.2.1-.1.2-.3.2-.2 0-1.1.2-1.6-.1-.5-.3-1.3-1-1.1-2zm-.9 5.4c-.3.3-.8.6-1.2 1.1.4 0 .7.1.9.5.2.4 0 1.9.1 2.5 0 .6.4.7.8 1.2.5-.1 1.7-.6 2.1-.9 0 .5.6 1 .9 1.1.2-.3.5-.4.8-.7-.3-.2-.3-.3-.4-.7-.1-.4 0-2.1 0-2.8-.3-.4-.7-.9-1.2-1.2l-1.2 1.2c.4-.1 1.1.1 1.1.4 0 .4.1 1.3 0 2s-2 .4-2-.1.1-1.9.1-2.5c-.2-.5-.3-.7-.8-1.1zM51.4 43.6c-1.1-.2-1.9-1-2.9-1.4-1.4-.5-2.8.5-2.8.7 0 .4.4.6 1.5-.1-.9 1 .1 1.8.1 1.8-.4-.1-.9-.2-1.2-.4-.1.4.4.5.7.7 1.8.8 3-1 4.6-1.3zm-3.1 1s.5-.5.5-.9c0-.5-.5-.9-.5-.9.4.1 1.4.7 1.8.9l-1.8.9zm-10.1-14l.5-.6c-.6-.1-.3-.1-.6-.4v-2.4l-.8-1.1H37l-1.2 1.1c-.3.3 0 .4.3.1l.8.4v2.6c.1.3.3.4.7.8l.6-.5zm.3-8.3c.4 1.2 1.4 1.5 2.1 1.6.2-.4.6-1 .8-1.3.3-.4 0-.7-.2-.2-.2.4-1.1 0-1.4-.4-.5-.4-.7-1.5-.4-1.9.4-.4.9-.2 1.6-.2.4 0 .5-.4.6-.6-.2-.1-.5-.3-1-.5-.4.3-1.1.8-1.4 1.1-.4.2-1.1 1.2-.7 2.4zm1.7 6.3c-.4.5-.8.9-.8 1.6 0 .6.2 1.2.8 1.5.5-.4 1.2-.9 1.9-1 .3.4.8.7 1.1.9.2-.2.9-.8 1.1-1 .2-.2 0-.4-.2-.2-.1.2-.6.1-.7-.2 0-.3-.2-2.9-.1-3.1-.4-.4-1.1-1.4-1.5-1.4-.7.1-1.6 1-1.8 1.3-.2.4 0 1.5.2 1.6zm1.8.3c-.5 0-.9-.1-1.5-.6-.1-.1-.2-.7-.1-.9.2-.4.2-.5.4-.5s1.2.6 1.1.9c.1.2.1.6.1 1.1zm-1.3 0c.5.3.7.3 1.3.2v.7c0 .1.1.2.1.4-.3.1-.7.2-1 .3-.3-.2-1.3-.8-.4-1.6zm3.7-4.9l.5-.6c-.6-.1-.6-.1-.9-.4v-2.8l-.5-.8h-.3L42 20.6c-.3.3 0 .4.3.1l.6.4v2.6c.1.3.3.4.7.8l.8-.5zm-1-9.8c-.2 0-.6.4.8.6.3 0 .6-.5-.8-.6zm0-.9c-.2 0-.6.7.8.6.3 0 .5-.5-.8-.6zm.3 4.4l-.6-.6-.6.6v.8l.4.4h.4l.5-.4-.1-.8zm-1.3-6c-.4-.3-.9-1-1.9-1-1 0-2.2.9-2.6 1.5-.5.8.1 1.5.8 2-.4.4-1 .9-1.5 1.4.2.2 1.4.8 2.1.8 1 0 1.9-.5 2.5-1 1-.8.7-1.7-.4-2.3-.1-.1-.2-.1-.3-.1.6-.6 1.2-1.1 1.3-1.3zm-2.6 2.2c.3.2.7.3 1.1.5.6.3.3.9-.3 1.2-.6.3-1.7-.5-1.9-.8.2-.2.6-.5 1.1-.9zm1.1-1.5c-.1.1-.4.3-.6.5h-.5c-.5-.1-.8-.5-1-.8-.2-.3.4-.6.7-.6.3.2 1 .5 1.4.9zm-4.3 2.3c-1.5.4-2.2-.8-2.4-1.2.6-.6 1.7-1.7 2.3-2.2-.4-.4-.6-1-1.4-1.1-.7 0-2.2.8-2.5 2.7-.3 1.9 1.5 2.9 2.9 2.9.5 0 1-.6 1.3-.7.7-.3.5-.6-.2-.4zm-2.5-1.5c-.4-1.2-.2-1.7.5-2.3.2.4.6.7.9.9-.4.4-1.1 1.2-1.4 1.4zm-1.8-1.1c.3-.3 0-.4-.2-.2-.2-.2-.6-.7-.9-.9-.2.2-.8.6-1.2.7-.2-.3-.6-.3-1.1-.7-.3.2-.9.7-1.2 1.1.6.2 1 .2 1.1.7v3.4c.3.1.7 0 1.1 0v-3.9c.2-.1.3-.2.4-.3.2.1.6.7.8.8.4-.1 1-.5 1.2-.7zm-4.8 6.5c-.7.1-1.6.8-1.9 1.5-.1.3 0 1.2.2 1.3.1.1.2.1.2.2-.4.4-.8.8-.8 1.4 0 .6.5 1.1 1.1 1.4.3-.5.8-.8 1.4-.9 0 .5.2.8.5 1 .2-.2 1.1-1 1.3-1.2.2-.2 0-.4-.2-.2-.1.1-.4-.1-.5-.2 0-.3 0-2.9.1-3-.6-.5-1-1.4-1.4-1.3zm.1 2.7c-.7.5-1 .5-1.5-.1-.3-.3-.2-.8-.1-1.1.2-.4.6-.7.8-.7.2 0 .8.7.7 1.1 0 .1 0 .5.1.8zm0 1.3v.4c-.1 0-.3.1-.5.2-.3-.2-1.6-.7-.7-1.3.5.3.7.1 1.2-.2v.9zM27 17c-.1-.1-.3-.3-.3-.5v-2c0-.2-.4-.2-.4 0 0 .3 0 .8-.2 1.2-.7 1.1-2.1 1.5-3 .2-.3-.4-.4-1.1-.4-1.6-.1-.6.4-1.5.5-1.5 1.2-1.6 2.9-.4 3 .2.1.4.2 1 .2 1.2 0 .2.4.2.4 0v-2.8c0-.2-.3-.2-.3 0 0 .4-.2.4-.5.3-.6-.2-2-.5-2.7 0-.7.4-1.7 1.4-1.7 2.6 0 2 .8 2.1 1.6 2.7.8.5 1.9.2 2.9-.1.4-.1.5.1.7.4.1.3.4 0 .2-.3zm-5.5 2.8c-.7 1-1.1 2.7.1 3.7.6.5 1 .8 2.2.6.2-.5.3-.6.7-1.1-.8.1-1.4 0-2-.4-1.2-.9-.8-2.4-.5-2.9.6-.9 1.5.4 1.7.6.2-.3.6-.6.9-.9-.3-.5-.6-.9-.9-1.2-.6.2-1.7.9-2.2 1.6zm.5 9c-.3 1.9 1.5 3 2.4 3.4.2-.4.6-1.1 1.1-1.6.3-.4 0-.5-.3-.2-.4.4-1.6 0-1.9-.5.6-.4 2-1.7 2.7-2.2-.4-.4-1.1-1.4-1.2-1.9-.6.2-2.5 1-2.8 3zm1.8-2.1c.2.4.7 1.3 1 1.4-.4.4-1.5 1.1-1.8 1.3-.5-.6-.8-1.7.8-2.7zm3.9-.6c-.4.3-.7.7-1.2 1.1.2.3.7.6.7 1.1v3.4h1c-.1-.4 0-3.4 0-3.8.3-.2.3-.3.6-.5.2.2.7.3.7.6s.1 1.7 0 2.3c-.1.6-.1 1.1.3 1.7.3-.3 1.2-1 1.5-1.2.2-.2.1-.3-.2-.2-.3.1-.3.1-.3-.1 0-.3-.1-1.9-.2-2.9 0-1-.5-1.3-.8-1.4-.3.3-.9.7-1.3 1-.3-.2-.5-.6-.8-1.1zm4-2.5c.3-.3.6-.7.7-.8.3-.2 0-.4-.2-.2s-.6-.2-.7-.3c-.1-.2-.4-2.5-.3-2.5 0 0 1.5-.2 1.6-.2.1 0 .2-.5 0-.5s-1.3.2-1.4 0c-.1-.2-.2-1.1.2-1.8.2-.3 0-.6-.1-.3s-1 1.7-1.6 2c-.5.2-.4.3-.1.4.2 0 .5.3.5.3 0 1.2-.2 2.6.2 3.2.3.6.9 1 1.2.7zm5 .6c-.2.4-.5.7-1 .9.3.3.7.6 1 .8.3-.4.6-.7 1-1-.4-.1-.8-.3-1-.7zm-2.3-1.3c.5 0 1.2.2 2 .2 1-.1 1.8-1.6 1.3-2.8-.4-1.1-1.6-.9-2.5-1.2-.8-.2-1.1-.7-.2-1.3 1-.6 2.2.4 2.3.6.2.3.3.3.3-.1 0-.9-.1-.4-.2-1.3 0-.3-.3-.3-.3 0s-.4.2-.7.2c-.3 0-1.1-.1-1.8.3-.5.3-1.5 1.1-.9 2.1.3.6 2.3 1 2.8 1.4.5.3.6 1.2.1 1.6-.6.5-2.2.1-2.5-.2-.3-.4-.5-.7-.5-1.1-.1-.4-.4-.4-.4 0s.1 1.7.2 2.1c.1.3.4.2.4 0 .3-.4.4-.5.6-.5zm-2.1 4.2c-.4.3.4.7.4.7 0 1.2-.1 2.4.3 3 .3.4 1 .6 1.2.3.1-.4.7-1.1.9-1.2.2-.2 0-.4-.2-.2-.4.5-.7.2-1-.1-.2-.2-.2-1.8-.1-1.9 0 0 .8-.1 1-.1.1 0 .1-.5 0-.5-.2 0-.9 0-1-.1-.1-.2.1-1.3.2-1.8 0-.4-.2-.5-.3-.1-.2.2-.9 1.6-1.4 2z"/></svg>