<?xml version="1.0" encoding="utf-8"?>
<!-- Generator: Adobe Illustrator 24.1.2, SVG Export Plug-In . SVG Version: 6.00 Build 0)  -->
<!DOCTYPE svg PUBLIC "-//W3C//DTD SVG 1.1//EN" "http://www.w3.org/Graphics/SVG/1.1/DTD/svg11.dtd" [
	<!ENTITY ns_extend "http://ns.adobe.com/Extensibility/1.0/">
	<!ENTITY ns_ai "http://ns.adobe.com/AdobeIllustrator/10.0/">
	<!ENTITY ns_graphs "http://ns.adobe.com/Graphs/1.0/">
	<!ENTITY ns_vars "http://ns.adobe.com/Variables/1.0/">
	<!ENTITY ns_imrep "http://ns.adobe.com/ImageReplacement/1.0/">
	<!ENTITY ns_sfw "http://ns.adobe.com/SaveForWeb/1.0/">
	<!ENTITY ns_custom "http://ns.adobe.com/GenericCustomNamespace/1.0/">
	<!ENTITY ns_adobe_xpath "http://ns.adobe.com/XPath/1.0/">
]>
<svg version="1.1" id="Layer_1" xmlns:x="&ns_extend;" xmlns:i="&ns_ai;" xmlns:graph="&ns_graphs;"
	 xmlns="http://www.w3.org/2000/svg" xmlns:xlink="http://www.w3.org/1999/xlink" x="0px" y="0px" viewBox="0 0 684.7 417.6"
	 style="enable-background:new 0 0 684.7 417.6;" xml:space="preserve">
<style type="text/css">
	.st0{fill-rule:evenodd;clip-rule:evenodd;fill:#2D4CC8;}
	.st1{fill-rule:evenodd;clip-rule:evenodd;fill:#1C2540;}
</style>
<metadata>
	<sfw  xmlns="&ns_sfw;">
		<slices></slices>
		<sliceSourceBounds  bottomLeftOrigin="true" height="353" width="665.9" x="9.2" y="32.2"></sliceSourceBounds>
	</sfw>
</metadata>
<g>
	<polyline id="Accent" class="st0" points="130.4,248.1 132.2,270.8 166.4,278.9 192.6,290.7 213.4,308.8 223.3,300.6 235.9,272.6 
		250.3,269.8 302.7,275.3 320.7,280.7 314.4,311.5 308.1,334.1 412.7,327.8 409.1,275.3 387.5,227.3 301.8,185.7 237.7,193.8 
		192.6,243.6 172.8,254.5 137.6,252.6 	"/>
	<path id="Combined-Shape" class="st1" d="M561.9,40.1c7.1,8.6-3.3,20.7-9.2,26.7c-2.9,2.9-5.2,6.3-8,9.2c-2.8,2.9-6.2,5.3-8.7,8.1
		c-2.6,3-5.6,6.2-7.8,9.6c-1.4,2.1-3.4,4.5-4.1,7c-1,3.5-0.2,1.5,1.1,3.5s1.8,2.2,2.2,5s1.1,4.8,2.6,7.2c2.5,3.9,5.1,7.6,6.9,11.9
		c2.3,5.7,4,11.6,5.8,17.5c0.7,2.3,1.2,4.9,2.4,7.1c1.6,3,1.9,2.8,4.3,0.9c7.3-5.6,14.7-11.5,22.4-16.9c4.4-3.1,8.9-6.1,13.5-8.7
		c3.2-1.8,10-5.1,11.6-8.5c2.1-4.5-1.2-8.7,3.3-12.9c2.9-2.7,7.7-4.2,11.5-4.9c5.4-0.9,11.4,0.4,16.8,0.9c5.5,0.5,10.8,0,16.1-1.2
		c8.2-1.7,23.9-11.2,29.2,0.2c2.3,5,0.8,10.5,0.3,15.6c-0.4,4.4-1.7,9.2-4.4,12.8c-3.2,4.2-7.8,4.4-12.5,5.5
		c-5.7,1.3-11.4,1.8-17.1,3.1c-2.8,0.6-5.5,0.9-8.4,1.1c-2.5,0.1-6.2-0.9-8.5-0.6c-2.1,0.3-1.4,1.6-2.9,2.6
		c-0.6,0.4-1.8,0.1-2.2,0.4c-1,0.8-1.3,1.6-2.1,3.1c-2.4,4.8-6,9.5-9.1,13.8c-2.6,3.7-5.6,8.2-8.7,11.5c-6.5,7-12.8,14.7-19.1,22
		c-3.3,3.7-7.1,7.7-10.9,10.9c-1.2,1-3.5,1.9-4.1,3.3c-0.9,2,1.5,6.3,2,8.3c1.3,4.7,1.5,9.6,2.8,14.2c1.3,4.4,1.8,9.3,2.1,13.9
		c0.7,10.4,2.1,20.3,1.7,30.8c-0.3,9-0.6,17.6-3.7,26.5c-2.8,8-11.4,16.8-19.3,19.8c-4.7,1.8-9.1,3.4-13.9,4.3
		c-4.7,0.9-9.6,1.9-14.3,3.2c-8.6,2.5-17.8,4.2-26.7,5c-11.5,1.1-23.5,1.2-34.9,0.8c-5.2-0.2-10.6-0.2-15.8-0.2
		c-5.3,0-10.4,1.1-15.7,1.6c-18.9,2-38.8,0.4-57.6,2.3c-9.3,1-18.6,2.8-28.1,2.9c-8.5,0.1-17.1-0.5-25.4-0.5c-2.6,0-4.9,0.2-7.6-0.4
		c-1.4-0.3-3.3-1.6-4.7-0.8c-1.2,0.6-2.1,3.3-2.9,4.4c-1.7,2.4-3.7,4.4-5.8,6.4c-8.5,8.1-16.8,10.8-27.9,13.7
		c-5.1,1.4-7.6,2.1-11.9,5.2c-3.5,2.5-7,4.3-11,5.8c-7.9,2.9-17.1,0.7-24.5-1.9c-3.6-1.2-7.3-2.3-11-3.8c-5-2-9.1-5.3-14-7.3
		c0.6,5.2-5.1,7-6.8,10.5c-1.1,2.3-0.4,5.8-1.6,8.4c-1.1,2.4-2.8,4.6-5.5,5.3c-3.6,0.8-10.1-3.2-12.6-5.5c-1.4-1.3-2.7-4.8-4.4-5.4
		c-2.3-0.8-6.4,2.6-8.5,3.3c-10.2,3.6-20.6,5.3-31.5,3.9c-11.1-1.5-21.3-5.4-31.7-9.1c-20.4-7.3-38.2-19.4-54.1-33.9
		c-0.9-0.8-2.2-1.5-2.8-2.6c-0.5-0.9-0.5-3.1-0.8-3.6c-1-1.5-2.6-1.3-4.6-1.4c-6-0.5-10.8-1.9-15.5-6c-7.4-6.4-10.1-21.2,1.2-25.1
		c2.9-1,6.1-1.2,9-0.6c1.2,0.3,5.8,3,7,2.8c1.8-0.3,1.4-2.6,1.9-3.8c1.2-3.1,2.9-5.8,4.9-8.4c3.4-4.4,7.5-8.7,11.7-12.3
		c4.6-3.9,9.6-5.6,15-7.7c3.7-1.4,10.8-3.9,14.7-2.6c5.1,1.7,2.6,7.2-0.6,9.1c-4.6,2.8-10,3.9-14.6,6.7c-5.1,3.1-9.7,7.3-14.4,11
		c-3.7,3-7,6.7-10.8,9.5c-1,0.8-2.7,2.1-3,2.5c-0.1,0.1,0,1.3-0.5,1.8c-2.2,2.3-1.7,2.1-5,1.2c-3.9-1-13.3-3.1-16,1.7
		c-2.4,4.4,7.4,8.3,10.6,9.7c4.7,2,5.8,3.9,9.2,7.7c3.4,3.8,9.2,6.4,13.5,9.3c9.3,6.2,19.8,10.6,29.8,15.5
		c9.7,4.8,20.2,8.2,30.3,11.6c6.1,2,13.4,4.2,19.9,4.8c6.5,0.6,12.5-0.4,18.9-1.7c2.5-0.5,4.5-0.9,7.1-1.8c1.2-0.4,3.1-0.5,4-1.2
		c1.5-1.1,0.9-2,1.1-4c1.1-8.5,7,1,9.6,3.8c2,2.2,4,4.8,6.6,6.2c3.3,1.7,3.9,0.9,5-1.9c2-5.3,2.8-11.4,10.5-10.6
		c-6.1-5.2-11.8-9.6-17-15.8c-5.1-6.1-9.9-12.7-14.8-19.1c-4-5.2-7.5-12.3-12.7-16.4c-1.6-1.3-6.7-4.3-8.6-4.2
		c-2.9,0.1-5.4,4.8-8.5,5.1c-3.4,0.4-5-0.8-5.9-3.5c-1-2.9,1.4-6.2,0.6-8.2c-0.2-0.6-1.7-1.3-2.1-2.1c-0.7-1.3-0.7-2.9-0.5-4.3
		c0.3-2.1,1-2.9,0.9-5c-0.2-2.4-1.3-4.2-0.4-6.8c0.9-2.7,3.6-4.2,5.3-6.1c2.6-3,1.3-5.3,0.2-9.1c-2.2-8.2-4.8-16.4-7-24.6
		c-5.2,1.6-10.2,3.5-15.4,5c-5,1.5-11.1,2.8-15.8,5.1c-2.8,1.4-2,0.1-1.8,3.2c0.1,2,1,4.2,1.4,6.2c0.7,3.6,1,13,3.9,14.7
		c1.7,1.1,4.5-0.5,6.4,1.6c1.6,1.8,1.1,4.4,2.1,6.4c0.6,1.2,1.7,1.7,2.5,2.8c1.5,2.4,1.3,4.4,1.6,7c0.2,1.7-0.1,6.7,0.7,8
		c1.1,1.7,3.3,1.4,5.2,2c4.7,1.4,9,3.7,12.9,6.5c2.1,2.5,16.8,17.2,10.4,19.1c-3.1,0.9-8.5-6-10.8-7.9c-3.4-2.9-7.1-4.9-11.3-6.5
		c-10.2-3.9-19.5-7.5-30.7-5.9c-4.8,0.7-10.6,2.8-15.4,2.4c-4.8-0.5-3.6-4.8-0.6-7.2c2.7-2.2,6.5-1.5,7.7-5.2
		c1.2-3.6-0.1-8.3,1.8-11.9c1.6-3.1,5.5-6.4,8.5-8.2c1.3-0.8,3.5-1.3,4.2-2.5c0.6-1-1.7-6.4-2.1-7.5c-1.6-5.6-3.3-11.1-4.6-16.8
		c-1.2-5.2-1.5-7.9,3.9-9.8c8.4-2.9,17.2-4.2,25.5-6.9c-1.5-3.9-6.1-0.6-9.5-0.7c-4.1-0.2-8.8-1.5-12.7-2.8
		c-8.8-2.9-14.8-10-16.2-19.1c-0.3-2,0.6-6-0.1-7.8c-0.7-1.7-2.6-2.5-4.1-3.7c-3.7-3.1-6.9-7.3-8.9-11.7s-2.1-9.3-1-14
		c0.6-2.6,1-2.9,0.1-5.3c-1-2.8-2.7-5.3-3.7-8.1c-1.6-4.7-2.4-9.8-2.3-14.7c0.1-5.6,2.3-8.1,3.8-13c1.2-3.9-0.4-9.2-0.2-13.5
		c0.3-5.5,1.7-9.9,4.2-14.8C65,95.1,71,87,78.6,83.1c1.5-0.8,4-0.8,5.4-1.7c1.7-1.1,1.8-2.8,2.5-4.8c1.6-4.7,3.5-8.5,7-12.1
		c11.1-11.7,30.5-15.8,46-14.8c2.8,0.2,5.5,1.5,8.1,0.7c1.8-0.5,3.8-2.4,5.7-3.2c2.4-1,4.8-1.6,7.4-1.8c5.1-0.5,9.2,0,13.9,1.7
		c1.8,0.6,3.5,1.4,5.2,2.1c2.8,1.1,2.6,0.6,5.2,0.1c5.2-1,8.1-0.3,12.7,1.9c1.2,0.6,3.1,1,4.2,1.8c1.5,1.2,2.1,4.7,3.7,5.4
		c0.9,0.4,3.7-1,4.9-1.2c2.1-0.3,4.1,0,6.2-0.1c3.7,0,7.6,0.1,10.9,1.8c2.5,1.3,5.6,3.8,7.7,5.5c3,2.3,4.9,6.7,8.6,7.9
		c1.5,0.5,3.1,0,4.6,0.4c2,0.5,3.8,1.9,5.4,3.2c2.7,2.2,5,7.2,7.8,8c1.9,0.6,4.7,0,6.9,0.6c2.7,0.8,4.9,1.9,6.8,3.9
		c3.8,3.8,4.8,9.5,5,14.7c0,1.4-0.8,5.4,0,6.6c0.7,1.1,3.6,1.7,4.7,2.9c3.6,3.5,5.2,9.5,5.6,14.3c0.4,5.5-1,9.5-2,14.8
		c-0.6,3.3-1.4,1.2,1.4,3.1c1.9,1.3,3.2,2.3,4.5,4.4c2.6,4.4,3.3,9.6,2.8,14.6c-0.5,6.2-3.7,10.9-5.1,16.8c6.6,0,13.6,1.7,20,2.9
		c2.4,0.4,4.2,1.7,6.3,2.8c1.8,0.9,3.2,1,4.9,1.6c4.1,1.4,3.3,1.2,6.2-1.8c11.5-11.8,27.8-18.9,44.2-18.6c9.2,0.1,18.1,1.3,26.6,4.6
		c3.6,1.4,7.5,2.8,10.7,5c3.7,2.5,4.2,2.5,9,2.6c17.5,0.4,34.5,9.8,47.2,21.2c1.1-7.6,13.5-12.2,19.6-15.4c2.1-1.1,3.9-1.6,5-3.7
		c0.9-1.9,0.9-5.8,1.5-8c1.2-4.1,2.5-9.1,2.4-13.5c-0.3-12.5-3.2-25-3.6-37.6c-0.1-3.2-0.5-6.7,0-9.8c0.3-2.5,1.5-4.1-0.2-6.4
		c-3.1-4.4-8.9-5.5-10.9-11.3c-3.1-9.4,2.2-19,9.6-24.6c4.2-3.2,8.4-3.9,11.8-8.4c3.1-4.1,5.6-8.9,9.1-12.5c2.9-3.1,5.6-7.2,8.9-9.8
		c3.4-2.6,8.5-4.4,12.6-5.7C542.9,31,555,31.7,561.9,40.1z M254.6,275.8c-2.3,0.1-4.6,0.4-6.9,0.4c-1.4,0-4.6-0.8-5.9-0.2
		c-2.5,1.1-4.5,6.9-5.7,9.2c-3.8,7.5-6.8,15.4-10.5,22.9c-1.9,3.9-4.8,6.5-9.4,6.6c-5.1,0.1-7.5-3.2-10.7-6.5
		c-6.5-6.7-15.1-12.4-23.1-17.1c-8.6-5-19-9.9-28.8-11.7c-6.6-1.2-21.6-6.3-25.6,2c2-0.3,9.8-1.5,10.2,2c0.2,2.6-9.3,3-10.5,7.1
		c2.5-0.2,11.1-2.6,11.8,1.1c0.3,2-3.3,3-4.6,3.6c-2.5,1.3-4,2.7-6,4.7c3.1,0,6.1-2.6,9-2.3c1.2,0.1,2.6,1.9,3.7,2.4
		c1.5,0.8,3.2,1.2,4.9,1.4c3.7,0.5,6-0.6,8.9,1.8c2.7,2.2,5.4,5,7.9,7.4c5.2,5.2,9.5,11.7,14,17.5c5.5,7.2,11.3,12.8,18.6,18.2
		c6,4.4,12.1,7.2,18.8,10.4c6.7,3.1,15,6.8,22.6,7c6,0.1,13.6-1.8,19-4.4c3.2-1.5,4.3-1.5,7.5-2.1c5-0.9,10.7-3.6,15.3-5.7
		c14.4-6.5,23.5-20.8,30-34.8c3.7-8,6-15.7,7.5-24.3c0.8-4.7,1.6-5.8-3-7.7c-4.6-2-9.6-3.2-14.4-4.5
		C285.2,276.1,269.1,275.2,254.6,275.8z M289,191c-1.4,0.6-2.2,7.6-2.8,9.1c-2.9,6.9-8,11.1-15.5,11.9c-2.3,0.2-6.1-1.9-7.8-0.9
		c-2.2,1.3-2.6,7.7-5,9.8c-2.2,1.9-6.8,4-9.6,4.7c-2.2,0.6-4.4,0.4-6.5-0.1c-1.2-0.3-3.6-1.8-4.8-1.2c-2.1,1-3,6.2-5.4,8
		c-3.5,2.6-9,4.5-13.2,4.5c-4.4-0.1-9.6-3.5-13.5-2.7c-4.6,1-4,5.3-6,8.6c-4.3,7.1-9.1,13.3-16.8,16.7c-8.3,3.7-20.2,4.1-29,2.3
		c-4.7-1-9.5-2.5-13.5-5.2c-3.2-2.2-5.6-5.1-8.5-7.5l-0.5-0.4v0.1c0.1,0.2,0.1,0.5,0.2,0.7c1.4,4.5,2,12.4,4.8,16.1
		c2.5,3.3,11.2,3.5,15.4,3.9c11.2,1.2,20.8,3.8,30.7,9.4c9.5,5.4,18.1,11.9,26.3,18.9c1.7,1.4,3,3.8,5.1,4.7
		c3.3,1.5,3.1-0.3,3.9-3.2c1.8-6.1,3.7-12.1,6.5-17.8c1.2-2.5,3.9-5.5,4.4-8.1c0.5-2.5-0.6-5.2-0.2-7.9c1-6.8,4-12.6,7.9-18
		c2.7-3.8,10.6-10.3,9.6-0.7c-0.8,7.1-5.9,13.3-7.2,20.3c3.9-0.7,6.4-0.5,9.9-0.3c4.8,0.3,10.3-1.6,15.2-1.6
		c9.5,0,18.9,0.6,28.2,2.3c4.3,0.8,8.4,1.7,12.6,3.2c3.3,1.2,7.6,4.9,11.1,5.2c2.5,0.2,1.6,0.5,2.3-1.6c0.6-2,0-5.6-0.2-7.7
		c-0.3-4.8-1.4-9.4-2-14.1c-0.3-2-2.7-10.5-0.1-12.1c3.9-2.5,5.5,7.3,6,9.1c2.5,9,4.2,17.9,4.1,27.4c-0.1,8.2-0.6,16-2.1,24.1
		c-0.9,4.8-2.6,9.4-4.4,13.9c-1,2.4-6.7,11.4-5.9,12.9c0.6,1.3,10.4-0.9,11.9-1.1c5.3-0.5,10.7-0.1,16-0.5
		c7.9-0.5,15.9-0.4,23.4-1.8c4.5-0.8,9.3,0,13.8,0c5,0,9.8-0.4,14.8,0c3.8,0.4,9.5,2.4,13.2,1.5c3.8-0.9,2.6-3.4,2.7-7.2
		c0.1-9.2-0.8-19.9-2.8-28.8c-1.1-4.7-2.6-9.3-3.3-14.1c-0.8-4.8-0.7-10-2.2-14.7c-2.6-8.3-9.7-15.5-15.5-21.6
		c-6-6.3-12.8-10.9-20.2-15.4c-6.3-3.8-12.9-7.4-19.8-10.4c-8.2-3.6-17.5-5.8-25.1-10.6c-6.3-3.9-15.4-7.8-22.7-9.7
		C295.7,193.1,289.8,190.6,289,191z M513.8,114.6c-5.3,0.7-15.1-1.8-15.1,5.4c0,4,1.3,8.1,1.7,12.1c0.4,4.7,0.1,9.4,0.9,14.1
		c1.2,7.6,2.9,14.5,2.3,22.3c-0.6,8.4-2.4,16.6-2.2,25.1c0.2,8.2-0.3,16,3.6,23.5c1.6,3.2,3,6.9,4.8,9.8c2.1,3.5,3.9,4.5,7.7,5.9
		c2.4,0.9,8.2,2,9.7,4.4c2.2,3.4-0.7,4.8-3.6,4.7c-9-0.4-18.2-4.4-26.6-7.3c-4-1.4-7.8-3.1-11.6-4.6c-3.1-1.2-5.6-1.6-8.5-3.7
		c-6.9-5-12.2-11.9-19-17c-12.8-9.7-28.2-15.4-44.3-17.2c-4.1-0.4-7.4-0.2-11.5,0.1c-2.3,0.2-4.6,0.3-6.9,0.7
		c-1.3,0.2-6.3,2.6-7.3,2.1c-6.7-3.2,12.2-12.8,14.3-13.4c-2.7-1.9-8.3-1.6-11.5-2c-4.1-0.5-8.1-1.1-12.3-0.8
		c-5.8,0.3-12,0.1-17.7,1.4c-7.1,1.6-13.9,4-20.3,7.4c-2.2,1.1-5.2,2.5-5.2,5.6c0,3,1.2,2.5,4.1,3.1c7.7,1.8,14.9,6.9,21.8,10.8
		c7.3,4.2,14.7,8.8,21.5,13.8c13.1,9.6,20.5,23.3,26.3,38.2c3,7.7,5.2,16.8,6.1,25c1,9.2,0.2,18.4,0.9,27.5
		c0.2,2.2,0.5,10.8,2.1,12.1c1.2,1,7.4-0.8,9.1-0.9c7.2-0.5,14.5-0.4,21.6-0.9c15-0.9,30.4,0.3,45.6-0.5c7.6-0.4,15-1.5,22.5-3.1
		c6.9-1.4,15.6-1.6,21.9-4.9c12.2-6.4,19.6-21.7,20.2-34.7c0.6-14.1-0.4-29.4-3.3-43.4c-1.5-7.3-2.9-14.3-4.7-21.6
		c-2-8.1-4.3-16.2-6.6-24.3c-3.9-13.8-9.9-26.7-12.7-40.9c-1.6-7.8-3.8-15.9-6.2-23.5c-0.9-2.8-2.6-8.1-4.6-10.3
		C518.7,112.8,517,114.1,513.8,114.6z M85.7,282.9c-3.2,2-5.4,6.6-5.3,10.3c0,5,4.1,2.8,8,3c2.4,0.1,11.1,2.5,12.6,0.2
		c1.8-2.8-3.7-1.5-4.4-3c-1.4-3,5.1-4.3,4.3-6.9c-0.8-2.6-7.4,3.4-8.8,0.4c-1.3-2.8,5.3-5.3,4.3-7.2C95.6,278,86.9,282.1,85.7,282.9
		z M99.5,257.1c0,2.1-0.7,4.9-3.4,4.5c-3.3-0.5-4.3-6.8-4.6-9.2C93.6,244.5,99.5,252.3,99.5,257.1z M194.6,189.7
		c-3.8,0.6-4.2,2.3-6,4.9c-0.8-0.6-1.3-1.5-1.5-2.6c-9,4-18.3,7.2-28,8.7c-10.8,1.7-22.1-0.9-33.1-1.9c-1.4-0.1-5.8-1.9-7-1.2
		c-1,0.6-0.9,5.4-1,6.4c-0.5,6.4,0.7,12,1.6,18.3c0.3,1.7,0,5.3,1.3,6.7c0.9,1,2.6,0.6,3.7,2.1c3.2,4.1,4.1,12,5.6,17.2v0.1v-0.1
		c0.4-5.4,4.6-2.6,7.8-1.2c4.7,2.1,9.6,3.2,14.7,4c4.1,0.6,8.7,1.9,12.9,1.7c4.4-0.2,9.8-2,14.1-3.2c4-1.2,6.3-3.7,9.1-7
		c2.7-3.2,5.6-5.3,8.5-8.1c7.3-7.1,5.3-21.8-1-28.7c5.1-2.6,13.9-8.4,6.2-14.2C200.4,190.1,197,189.3,194.6,189.7z M130.3,248.5
		L130.3,248.5v0.1V248.5z M155.2,236.3c2,0.2,3.5,1.7,2.9,3.7c-0.7,2.6-5.2,4.3-7.5,4.4C144.5,245.2,150.3,236,155.2,236.3z
		 M136,226.2c0.2,1.5,0,2.5,1.3,3c1,0.4,2.9-0.4,4.2,0.1c1.2,0.5,1.3,0.8,2,2.1c-0.9,2.7-4.8,5.8-8,4.1c-4-2-4.3-10-3.2-13.4
		C134.2,216.4,135.7,223.9,136,226.2z M488,195.7c-1.7,0.6-3.1,2.3-4.6,3.2c-3.9,2.5-8.2,3.8-12,6.5c2.7,2.9,4.1,6.8,6.7,9.6
		c1.6,1.7,3.6,1.9,5.6,2.9c5.8,2.8,12.6,6.7,18.9,8c-3.7-4.4-6.1-8.3-8.3-13.6c-0.8-1.9-1.8-3.9-2.4-5.9c-0.9-2.8-0.4-5.8-1.1-8.6
		C490.1,194.8,491.2,194.6,488,195.7z M125.2,212.3c1.7,2,3,6.4,3.1,9c-1.8,8.5-7.7-3.2-7.5-7C120.9,210.7,122.8,209.4,125.2,212.3z
		 M141.2,207.6c2.9,2.5,3.8,6.6,4.1,9.9c0.3,3.7-0.5,5.2-4.2,2.9c-3.2-2.1-4.8-7.6-5-10.8C136.2,206,138.4,205.3,141.2,207.6z
		 M199.1,197.1c0.7,3.8-7.8,7.8-6.4,1.8C192.4,195.1,198.3,193.1,199.1,197.1z M599.5,127.8c-6.4,7.8-14.2,12.8-22.2,18.7
		c-7.1,5.2-13.9,10.9-21.5,15.2c-2.3,1.3-6,2-6.4,4.4c-0.4,2.2,3.8,8.2,4.7,10.6c3.2,8.2,5.6,16.5,8.1,24.9
		c7.5-11.7,15.1-23.6,24.3-34.3c8.1-9.4,16.5-19.1,23.6-29.2C605.9,135.6,602.3,132,599.5,127.8z M646.4,109.8
		c-7.1,2.2-15.4,3.5-22.8,2.7c-3.4-0.3-6.7-0.6-10.1-0.8c-2.5-0.2-6.9-1.4-9,0.6c-2.1,1.9-1.8,5.6-0.8,7.9c0.7,1.5,1.6,1.7,2.2,3
		c0.2,0.4-0.4,1.1,0.1,2c1.4,2.6,6.2,6.9,8.8,8.2c3.3,1.7,3.8-0.3,6.4-2c5.4-3.6,14.6-3.6,21-4.3c0.1,1.4,18.6-5.2,20.4-6.4
		c3.4-2.3,7.4-12.7,3.8-15.8C662.1,101.1,650.7,108.5,646.4,109.8z M522.2,60.2c-2.2,3.6-5.2,7.4-8.5,10.1c-3.7,3-8.6,4.2-12.9,6.3
		c-3.9,1.9-7.3,3.7-9.7,7.4c-1.7,2.5-4.7,6-3.3,9.2c1.4,3.3,7.1,5.6,9.5,8.5c3.4,3.9,3.4,3.2,8.4,2.1c2.5-0.5,4.9-0.7,7.5-0.6
		c1,0,4.6,1.1,5.5,0.4c1.2-0.9,0-4.5,0.2-6c0.2-2.2,1-4.4,1.7-6.4c2.9-8.1,8.4-13.4,13.7-19.6c5.7-6.6,13.6-11.2,19.2-17.8
		c3.1-3.7,1.7-6.2-2.6-7.9c-2.2-0.9-4.7-0.9-6.9-1.6c-2.3-0.7-4.4-2.1-6.8-2.2C526.6,41.6,526.3,53.7,522.2,60.2z"/>
</g>
</svg>
