<?xml version="1.0" encoding="utf-8"?>
<!-- Generator: Adobe Illustrator 24.1.2, SVG Export Plug-In . SVG Version: 6.00 Build 0)  -->
<!DOCTYPE svg PUBLIC "-//W3C//DTD SVG 1.1//EN" "http://www.w3.org/Graphics/SVG/1.1/DTD/svg11.dtd" [
	<!ENTITY ns_extend "http://ns.adobe.com/Extensibility/1.0/">
	<!ENTITY ns_ai "http://ns.adobe.com/AdobeIllustrator/10.0/">
	<!ENTITY ns_graphs "http://ns.adobe.com/Graphs/1.0/">
	<!ENTITY ns_vars "http://ns.adobe.com/Variables/1.0/">
	<!ENTITY ns_imrep "http://ns.adobe.com/ImageReplacement/1.0/">
	<!ENTITY ns_sfw "http://ns.adobe.com/SaveForWeb/1.0/">
	<!ENTITY ns_custom "http://ns.adobe.com/GenericCustomNamespace/1.0/">
	<!ENTITY ns_adobe_xpath "http://ns.adobe.com/XPath/1.0/">
]>
<svg version="1.1" id="Layer_1" xmlns:x="&ns_extend;" xmlns:i="&ns_ai;" xmlns:graph="&ns_graphs;"
	 xmlns="http://www.w3.org/2000/svg" xmlns:xlink="http://www.w3.org/1999/xlink" x="0px" y="0px" viewBox="0 0 909 720"
	 style="enable-background:new 0 0 909 720;" xml:space="preserve">
<style type="text/css">
	.st0{fill-rule:evenodd;clip-rule:evenodd;fill:#2D4CC8;}
	.st1{fill-rule:evenodd;clip-rule:evenodd;fill:#31344B;}
</style>
<metadata>
	<sfw  xmlns="&ns_sfw;">
		<slices></slices>
		<sliceSourceBounds  bottomLeftOrigin="true" height="703.2" width="888.2" x="67.9" y="31.3"></sliceSourceBounds>
	</sfw>
</metadata>
<desc>Created with Sketch.</desc>
<g id="Illustrations_x2F_sitting-reading">
	<path id="Accent" class="st0" d="M601,267c-7.6,14.9-15.7,29.5-23.8,44.1c-4.3,7.8-18.2,39.8-21.8,41.1
		c-3.9,1.3-27.6-12.6-34.4-15.3c-12.1-4.9-23.6-9.4-36.2-12.4c-14.1-3.3-28.4-5.8-43-4.6c-6.4,0.5-17,2.1-10.7-6.9
		c4.7-6.6,9.2-12.6,15.5-17.4c4.6-3.5,11.3-9.8,16.7-12.1c5.6-2.4,14-1.9,20.1-1.7c6.6,0.2,37.8,9.9,39.6-0.3c3.2,2.9,5,1.8,8.7,3.2
		c4.1,1.6,6.7,4.7,10.8,6.6c2.7,1.2,7.5,6,10.5,6.1c3.9,0,5-3.2,7.8-5.6c6.3-5.4,14.7-8.9,21.6-13.6C588.3,273.9,594,269.7,601,267z
		 M532.3,149c-0.5,6.8,1.3,13.1,1.3,20.2c0,3.1-0.2,6.1,0.8,9.1c0.8,2.6,0.3,7.4,0.7,10.2c-7.8-2.4-22.3-5.9-30.3-2.7
		c-7.6,3.1-8.6,17.2-8.8,24.1c-0.2,4.7,1.9,11.9,0.3,16.4c-0.7,2.1-0.7,2.8-0.7,3l0,0c-0.2-0.1-0.8-0.1-2.9,1.5
		c-2.1,1.5-4.7,2.4-6.8,4.1c-3.8,3.1-4.5,6.6-6.4,11.1c-1.8,4.4-6.8,8.2-12.2,8.1c4.4-8,10.5-15.4,7-24.8c-2.6-7.1,2-15.4,5.6-22.1
		c1.2-2.2,14.6-19.3,8.7-20.5c-3.9-0.8-12.7,17.3-14.4,20.5c-4.7-3.2-6.8-7.1-3.2-11.9c2.8-3.7,6.2-6.9,8.9-10.7
		c4.4-6.2,8.7-13.6,14-19.1C503,155.6,519,149.1,532.3,149z M495.5,229.2C495.6,229.3,495.5,229.3,495.5,229.2L495.5,229.2z
		 M656,138.4c5.9,5.6,13.3,10.3,19,16.2c5,5.2,11.7,13.9,14,20.8c-12.1,2.3-32.3,9.5-37.1,22.2C633,180.3,625.7,212,622,225.2
		c-11-4.8-8.8-20.7-8.7-30c0.1-7.4,4.6-16.1-6.1-16.7c-8-0.4-15.8,2.8-23,5.9c-9,3.8-18.4,9.5-25.7,16l-7.6-5.9
		c12.4-7,18.9-20.3,26.2-32.5c2.3-3.9,5.4-8.2,7.1-12.4c1.2-2.9,2-8.8,3.3-11.4c2-4.1,21.7-5.2,26.9-6.2
		C628.2,129.3,644.7,127.6,656,138.4z"/>
	<g id="Ink" transform="translate(67.995213, 33.042686)">
		<path id="ink-layer" class="st1" d="M584.8,195.7c5.1-0.3,10.2,0.9,15.2,0.4c-4.4-3.8-8.8-7.7-13.3-11.5
			C584.9,188,584.7,191.9,584.8,195.7L584.8,195.7z M464.1,116.6c-13.2,0.1-29.2,6.7-38.4,16.3c-4.8,5.1-8.9,12-13,17.7
			c-2.7,3.9-5.4,7.6-8.8,11c-4.9,4.9-3.5,6.1,2,9.8c1.7-3.3,10.9-20.6,14.8-19.9c5.9,1.2-5.5,19.6-6.7,21.8
			c-3.7,6.8-9.6,16.2-6.9,23.4c3.5,9.4-1.6,14.8-6,22.8c4.6,0.1,5.1-1.7,6.7-5.6c2.1-5.1,4.3-9.3,8.6-12.8c3.4-2.7,8.9-3.9,10.4-7.1
			c2-4.1,0.7-12.1,0.9-16.6c0.2-6.9,0.3-23.1,7.8-26.1c7.9-3.2,22.2-0.2,29.9,2.2c-1-6-4-10-4-16.7
			C461.6,129.7,463.6,123.5,464.1,116.6L464.1,116.6z M362.9,228.8c6.9-2.2,13.4-4.5,20.5-6c7.4-1.6,7.9-3.3,12.1-9.7
			c3.2-4.8,7-8.6,6.1-14.5c-0.6-3.8-2.6-5.6-2-9.9c0.4-2.6,1.6-5.5,2.5-8c1.1-3.1,3.4-6.6-1.9-6.7c-2.9-0.1-3,1.4-5,4
			c-3.6,4.8-7.8,9.1-11.7,13.6c-6.7,7.9-13.8,16.3-21.3,23.7c-8.2,8.1-15.4,17.8-20.7,28.1c-1,1.9-7,13.1-4.4,15.3
			c2.3,2,15.4-2.7,17.8-3.2c10.3-2.4,21.9-3.2,31.6-7.6c4.9-2.2,15.8-4.8,19.7-8.2c3.6-3.2,3.5-10.8,1.4-15.3
			C401.7,228.1,359.1,241.9,362.9,228.8L362.9,228.8z M491.1,165.8c6.9-6.2,15-11.2,23.5-14.9c7.6-3.3,17-7,25.5-6.4
			c10.5,0.7,6.1,9.2,6.1,16.4c0,9.6-4.2,23.4,7.2,28.3c3.7-13.3,11.6-44.6,30.5-27.2c4.8-12.8,22-17.1,34.1-19.4
			c-2.2-6.4-8.9-12.3-13.5-17.1c-5.8-6-10.3-13.1-16.1-19.1c-11.4-11.7-32.1-8-46.6-5c-4.8,1-18.8,2.2-21.2,5.7
			c-1.5,2.2-0.6,7.7-1.7,10.4c-1.5,3.7-4.1,7.2-6.1,10.7c-7.5,12.6-15.1,25.3-28,32.6L491.1,165.8z M533,233.9
			c-6.8,2.6-11.8,7-17.8,10.6c-7.3,4.4-15.9,8.6-22.4,14.1c-2.4,2-3.7,5.5-7.1,5.7c-2.9,0.2-7.3-3.1-9.8-4.3
			c-4.3-2-8.4-4.9-12.7-6.7c-3.5-1.4-5.1-1.1-8.2-3.9c-1.7,10.2-32.9,0.7-39.5,0.5c-6.1-0.1-14.4,0.6-20,3
			c-5.4,2.3-9.6,7.4-14.2,10.9c-6.3,4.8-12.3,9.6-17,16.2c-6.4,9.1,3.2,6.5,9.6,5.9c14.6-1.2,28.8,2.2,42.9,5.6
			c12.6,3,25,6.6,37.1,11.5c6.8,2.7,13.9,5.3,20.3,8.8c3.4,1.9,8.8,6.5,12.7,5.1c3.5-1.2,7.1-11.4,9.2-15.4
			c4.2-7.9,8.5-15.6,12.9-23.4C517.4,263.5,525.4,248.9,533,233.9L533,233.9z M449.5,428.6c4.2-2.4,11-1.8,15.6-2.8
			c5.2-1.1,10.5-3,15.5-4.9c5-2,9.8-4,14.4-6.4c2.1-1.1,4.9-2.2,6.9-3.8c1.6-1.3,2.1-3.6,3.6-4.7c3.8-3,4.9-1.1,5.4-6.8
			c0.5-6.2-2.9-9.7-7.3-14.4c-3.9-4.2-8.9-7.8-13.8-10.7c-2.2-1.3-4.5-2.7-6.7-4c-3.3-1.9-7.8-5-9.5-1c3.6,0.9,4.4,5.6,1.2,7.2
			c-1.8,0.9-4.5-0.4-6.6,0.5c-3.1,1.5-6.2,5.7-8.9,8c-8.8,7.4-17.3,10.2-28.8,10.8c-24.1,1.2-49.4-1.5-73.1-5.1
			c-6.1-0.9-12.2,0.1-18.3-0.1c-6-0.2-12.2-1.5-18.1-2.5c-11.3-1.9-23.3-3.5-34.4-6.4c-13.5-3.5-27-7.9-39.7-13.7
			c-12.1-5.6-25.9-14.8-39.5-15.5c5.8,5.7,14.5,7.9,21.6,11.7c5.7,3.1,14.7,5,18.3,10.1c2.4,3.3,3.5,9.3,5.3,13.2
			c2,4.3,3.8,8.6,5.6,12.9c1.8,4.4,3.7,8.7,5.2,13.2c0.9,2.8,1.3,8.6,3.5,10.5c3.5,3,15.1,4.4,19.7,5.4c8.7,1.9,18.7,1.6,27.6,1.8
			c3.7,0.1,7.4,0.6,10.9,0.6c4.9,0.1,4.5-0.8,4.4-5c0-2.6,0-7.2,3.4-5.1c2.3,1.4,0.7,7.8,0.3,10.1c19.6,2,40.1,2.9,59.6,2.3
			C412,433.3,430.5,430.8,449.5,428.6L449.5,428.6z M538.2,383.5c3.5-24.9,7.7-50.2,12.4-74.7c4.8-24.8,10.5-49.4,17-74.1
			c-4.3-1-8.5-2-12.8-3.1c-0.2,5.2-1.9,9.7-2.7,14.9c-1,7.2-3,14.1-4.2,21.2c-2.3,13.6-6.4,26.8-10.1,40c-3.7,13.5-5,27.4-8.4,40.9
			c-2.8,11.2-4.3,23.4-5.9,34.9c-3.8,27.8-9.3,55.7-13.5,83.5c-3.9,26.1-4.3,52.7-4.1,79.1c0.1,16.1,2.6,32.1,2.5,48.2
			c0,4,0.3,8,0.5,11.9c0.1,2.8-1.4,10.6-0.1,12.9c0.8,1.5,4.3,2.9,5.5,4.9c1.9,3.3,2.4,7.2,5.5,9.6c2.5-10.2,1.3-23.7,0.8-34.1
			c-0.5-10,0.5-20.4,0.7-30.6c0.4-20,1.5-39.7,2.5-59.7c1.1-22,4.3-44.4,7.4-66.2C534,423.4,535.9,403.2,538.2,383.5L538.2,383.5z
			 M445.5,71.6c-1.4-0.1-2.7-0.3-4.1-0.4c0.2,2.9-0.4,7.6,1.6,9.1c1.5,1.1,4.7,0.8,6.5,1.1c6.1,1.2,13.3,2.2,19.4,0
			c2.4-0.8,0.8-2.2,4.1-1.6c3.9,0.7,2.5,1.3,3.6,3.7c0.9,1.9,1.3,5.1,2.3,7.4c1.3,3,4,8.5,2.9,12c-1.1,3.4-5.3,4.4-7.1,8.3
			c-1.3,2.9-1,7-1.7,10.2c-0.9,4.2-2.1,8.4-2.6,12.7c-0.6,5.4-0.4,11.8,6.3,12.6c6.2,0.8,10.7-1.2,14.9-5.8
			c8-8.7,17.1-20.9,21.8-31.8c0.5-1.3,1.9-3.4,1.7-4.8c-0.4-2.7-0.5,0-1.4-1.8c-0.8-1.8-2.1-3.4-2.8-5.4c-2.7-7.1-4.6-14.6-5.7-22.2
			c-0.5-3.4-0.7-6.8-0.6-10.3c0-1.2,0.7-4.7,0.3-5.5s-2.7-1.2-3.4-2c-1.3-1.5-3.5-5.8-5-6.9c-1.8-1.4-5.7-0.3-6.4-3
			c-1.1-4.4,26-11.6,13.3-17.5c-9.5-4.4-24,17.8-27.3,0.3c-0.6-3,0.5-7.1-0.8-9.9c-1.5-3.1-5.5-4.2-8.2-5.7
			c-3.6-1.9-7.2-3.9-10.6-5.9c-2.4-1.4-5.8-5.2-8.3-5.6c1,5.1-0.9,10.2-0.9,15.4c5.5-1.5,9.2-1.5,14.6,1.1
			c2.6,1.3,12.3,8.4,7.3,11.8c-4-2.3-8.2-4.4-12.7-5.8c-1.7-0.5-3.9-1.3-5.8-1.3c-4.3-0.1-3.7,0.4-5.3,3.6
			c-1.6,3.1-1.2,11.3-4.7,13.3c-3.5,2.1-0.8-0.8-3.8-0.2c-1.7,0.4-3.6,1.7-5.2,2.4c2.2,2.4,6.5,4.5,8,7.1c2.1,3.8,1.4,11.7,1.7,15.8
			c2.7-1,5.6-1,8.4-1.8c2.6-0.7,6.2-3.7,6.5,0.7C456.6,70.4,448.9,71.6,445.5,71.6L445.5,71.6z M481.2,199.8
			c0.2-4.2,0.4-8.4,0.9-12.6c0.3-2.8,3-11,1.5-13.4c-1.6-2.7-7.1-2.9-9.8-3.5c-5.1-1.2-9.9-2.3-15.1-3.1c-4.7-0.8-9.2-0.9-14-1.1
			c-5.2-0.2-6.5-1.6-7.6,4.1c-0.9,4.5-2.1,9.2-2.3,13.8c-0.2,4.3,1.2,8.1-3.1,11c9.4,0,21.7-8.4,30.3-0.9
			c12.3,10.7-9.1,13.8-14.8,16.2c4.7,2.3,11.7,4.1,13.9,9.3c2.5,5.8-1.1,8.3-6.6,8.8c0.5,2.3,2.5,3.7,3.1,6.4c0.9,4-1.9,2.7,1.6,5.7
			c4.7,4,14.4,6.7,20.2,9.3c1.4,0.6,2.7,1.2,4.1,1.7c2.2,1.9,3.8,1.6,4.8-1.1c3-1.9,5.6-6.1,8.2-8.5c5.9-5.4,12.3-10.2,19.3-14.1
			c-2.9-1.2-6.3,1.5-9.1,0.2c-2.2-1.1-1.4-3-2.7-4.4c0.5-1.9,0-2.6-1.7-2.1c-0.8,0.1-1.6-0.1-2.3-0.4c-1.4-1.7-2-2.3-2.1-5
			c-0.1-2.8,1.5-3.8,2.2-6.1c2.1-1.4,2-2.8-0.1-4.1c-0.9-1.4-1.4-3-1.4-4.7c-0.4-6.3,5.3-8.8,9.7-12.1c-7.8-0.9-7.5-10-2.1-14
			c5.6-4.2,17.5-2.5,24.2-1.5c1.4,0.2,5.2,2,6.6,0.9c0.9-0.7,0.3-6.7,0.3-7.8c0.1-2.4,0.7-5.3,0.3-7.7c-0.8-5,0.9-2.5-2.7-2.6
			c-8.6-0.3-19.5,7.2-27.1,10.7c-8.5,4-13.9,4.6-14,14.4c-0.1,9.3-2.7,18.5-3.8,27.7c-0.5,4-0.9,24.7-8.2,17.1
			c-2.8-3-1-7.5-0.8-11.2C481.2,209.9,481,204.8,481.2,199.8L481.2,199.8z M8.8,510.7c4.2,0.7,11-1.7,15.5-1.9
			c8-0.4,16.2-1.2,24-2.9c6.1-1.3,13.1-2.4,16.4-8.4c2.9-5.3,4-11.9,5.6-17.7c0.8-3.1,3-7.5,3-10.7c0-4.1-0.6-3.3-4.9-5.6
			c-5.4-2.9-10.7-6.8-16.6-8.4c-1.8-0.3-3.6-0.7-5.3-1c-2.3-1.3-3.6-0.7-3.9,2c-2.2,2.4-3.6,6.7-5.4,9.5c-4.3,6.3-9.4,10.6-16,14.2
			c-12,6.5-23.1,11.6-36,15.9c-7.1,2.4-13.6,5.7-20.5,8.3c-5.5,2.1-13.2,2.7-17.4,7.4c-4.8,5.2,2.6,7.1,6.7,10.7
			c3.4,2.9,3.4,3.6,8,2.2c3.4-1,6.5-3.1,9.7-4.4C-17.1,515.1-3.5,512,8.8,510.7L8.8,510.7z M266.2,593.6c-4.2-0.9-8.4-1.8-12.6-2.7
			c4.1,7.7,12.8,19,6.6,27.9c-2.3,3.3-6.2,4.3-9.7,6c-4.2,2-8.1,4.7-12,7.1c-16.3,10.1-32.9,20.3-50.1,28.9
			c5.4,1.7,13.7,2.9,19.2,1.4c6.5-1.8,12.4-5.8,19.1-7.6c11.9-3.2,24.4-5.9,36.5-7.5c9.9-1.3,34.6,1.7,33.4-13.2
			c-1.1-14.1-9.6-27.6-12.1-41.5C278.4,593.8,272.5,593.5,266.2,593.6L266.2,593.6z M516.5,367.8c4.8-23.5,7.6-47.4,13.3-70.7
			c2.8-11.6,4.8-23.4,7.6-35.1c1.3-5.4,2.2-10.9,3.5-16.3c1.3-5.5,4-10.5,4.6-16.2c-4.6,1.1-5.6,11.6-7,15.5
			c-2.5,7.2-5.3,14.2-8.6,21.1c-5.2,11-10.7,21.6-16.6,32.3c-6.2,11.2-12.7,22.1-20.4,32.3c-2.5,3.4-6,6-7.6,9.7
			c-2.6,5.8-3.7,12.8-6.1,18.8c1.7,0.9,6.2,1.1,8.3,1.5c3.9,0.8,6.7,1.5,10.5,3.3c6.7,3.3,12.3,7.2,16.7,13.2
			C515.8,374.4,516,371,516.5,367.8L516.5,367.8z M330.5,547c-0.1-22.6-0.4-45.4,0-67.9c0.1-6.2,0.6-13,1.5-19.1
			c0.6-3.9,3.9-12.2,1.7-14c-1.9-1.6-11.8-0.5-14.2-0.6c-4.7-0.1-9.4-0.3-14.1-0.7c0,8.4,3.3,17.9,4.8,26.2
			c1.4,7.7,2.6,15.5,3.8,23.3c2.5,16.8,3.3,33.9,6,50.8c2.5,15.3,5.8,30.5,7.6,45.8c1,8.4,3,16.3,4.6,24.7
			c0.8,4.4,3.8,22.4,7.5,24.2c0.8-6.5-2.4-14.3-3-20.8c-0.6-6.7-1.1-13.5-2.2-20.3c-1.3-8-1.9-16.1-2.4-24.2
			c-0.3-4.9-0.4-9.9-0.8-14.8C330.8,555.9,329.5,550.5,330.5,547L330.5,547z M448.3,244.5c0.2-2.5-6.2-2.4-7.4-5.2
			c-2.4-5.7,3.1-4.7,6.5-5.3c-1.2-3.2-23.7-2-18.5-10.7c3.6-6,17.5,3.2,21.1-2.5c2.4-3.7-4.2-4.3-6.8-4.6
			c-3.9-0.6-13.2,1.3-12.9-3.9c0.4-6.4,18.4-10.9,23.5-12.7c-0.6-4.4-22.3,1.9-25.4,3.6c-7.1,4-12.6,11.3-13.6,19.3
			c-1.2,9.4,3.5,16.7,12.9,19c3.9,1,6.8,1.1,10.4,2.5c2.4,0.9,10.1,3.3,11.7,0.9C449.3,244.9,448.8,244.7,448.3,244.5L448.3,244.5z
			 M575.8,186.3c0.4-4,3.7-11.5-0.2-14.2c-5.4-3.7-7.7,2.4-8.9,6c-1.5,4.4-7.8,15.3-2.3,18.1c1.3,0.6,7.4-0.1,8.5-0.5
			c3,0.8,4-0.3,2.9-3.4V186.3z M443.4,509.2c-0.3-10.9,4.6-24.1,7.3-34.8c3.1-12.1,4.8-24.5,8.1-36.5c-3.7,0.4-7.4,0.8-11.1,1.6
			c-5,1-5.1,0.9-4.7,5.8c0.5,7.4-0.2,14.6-0.5,21.9c-0.8,14.7,1.1,29.7-0.1,44.3C443.4,511.8,443.8,511,443.4,509.2L443.4,509.2z
			 M581.7,222.8c12,1.8,23.5,5.6,34.4,10.8c6,2.8,12.6,5.8,19.4,7c7.5,1.3,15.4,0.7,23,1.1c2.7,0.2,9.8,1.5,12.4-0.1
			c2.6-1.6,2.4-4.2,2.5-7.4c0.3-8.1-3.4-16.1-6.7-23.4c-2.8-6.3-5-11.1-9.4-16.4c-5.7-6.9-10.6-14.4-15.9-21.6
			c-4-5.4-8-10.8-12.1-16.3c-2.9-3.9-2.8-5.2-7.2-4.8c-4.3,0.4-8.7,3-12.8,4.3c-6.1,2-13.4,3.1-18.9,6.3c-3.6,2.1-3.7,2.5-3.7,6.1
			c0,3.4,1.1,7.5,3.2,10.2c4.2,5.5,11.2,8.4,17.2,11.1c3.5,1.6,6.5,3.8,9.5,6c3.3,2.4,10,3.7,12.6,6.4c7.4,7.8-6.1,6.3-9.8,6
			c-8.1-0.5-16.2-0.4-24.4-0.4c-8.9,0-17.8-0.4-26.6-0.1c-5.2,0.2-11.1-2.4-14.4-6.8c-1.6-2.1-2.2-4.1-4.4-6.3
			c-2.8-2.9-5.2-5.9-8.6-8.1c-5.5-3.6-15.5-5.7-22.1-4.3c2.4,0.3,13.4,4.1,8.5,8.8c-0.6,0.6-7.7,1-9.2,1.7c-2.8,1.3-6.3,3.1-7.9,5.8
			c4.8-0.8,22.4-1.7,13.4,7.4c-2.2,2.2-8.6,4.5-3.2,6.9c1.2,0.5,3.7-0.2,5.3,0.3c2.4,0.7,4.3,2.7,6.5,3.8c6.3,3,15,4.8,21.6,4.2
			C563.1,220,572.6,221.6,581.7,222.8L581.7,222.8z M340,498.2c0.3,13.1-0.2,26.3,0.1,39.5c0.3,14.1,2.1,27.9,3,41.8
			c0.8,12.5,2.5,24.8,3.8,37.2c0.8,7.2,1.7,14,2.9,21.1c1.1,6.7,1.3,12.5-6.6,14.3c-15.2,3.4-17.6-18.5-20.5-27.7
			c-4.4-13.8-7.2-28.2-9.4-42.5c-4-26.6-9.4-52.8-11.5-79.5c-1.3-16.5-3.2-32.8-4.2-49.3c-0.2-3.2,0.6-8.2-2.2-9.6
			c-1.7-0.9-6.4-0.9-8.6-1.5c-6-1.7-11.5-4.3-17.4-7c4.2,21.7,5.5,43.3,8.6,65.2c1.7,11.6,4.8,23.7,7.6,35.1
			c2.8,11.9,3.5,24.6,6.7,36.2c1.4,5.1,2.7,7.2,0.6,12.4c-2.6,6.4-0.9,8,2.4,14.3c5.9,11.6,10.5,25.4,9.4,38.5
			c-0.8,10.7-8.9,16.3-18.9,19.2c-12.5,3.6-25.7,3.2-38.3,7.3c-11,3.6-22.2,6.2-32.8,10.9c-4.3,1.9-8.4,4.2-13.2,4.5
			c-6.6,0.5-11-3.3-17.2-4.1c-3.9-0.5-9.5,1.4-11.8-2.7c-1.8-3.2,0.2-10.2,2.5-12.8c6.2-7.3,18.7-13.6,27.1-17.9
			c9.7-4.9,19.1-11.1,28-17.5c5.4-3.9,11-7.6,16.4-11.5c3.6-2.6,5-2.6,4.6-6.7c-0.3-3.3-1.8-6.4-2-9.7c-0.2-2.6,0.7-6-0.5-7.7
			c-0.9-1.2-4.2-2.1-5.5-3c-4.8-3.4-5.9-7.6-8.1-12.8c-4.9-11.7-10.6-23.1-15.4-34.9c-10.2-25.4-16.5-52.1-25-78
			c-8.7-26.5-16.4-54.2-21.2-81.7c-6.4,1.9-12.4,10.6-17.5,14.8c-6.9,5.8-13.9,11.3-20.7,17.2c-11.1,9.7-22.2,19.1-31.4,30.7
			c-4.4,5.6-8,11.6-12,17.5c-2.3,3.4-4.4,7.2-6.9,10.5c-0.4,0.5-0.4,1.6-0.8,2c-0.9,1-2.8-0.3-3.4,0.3c-3.8,3.9-3.7,15.1-4.9,20.3
			c-1.6,7.1-3.4,15.4-9,20.3c-8.6,7.6-24.5,8.8-35.4,9.2c-14,0.5-27.6,4.4-40.8,8.6c-6.2,2-12.2,4.2-18.4,6.1
			c-3.6,1.1-7.7,3.3-11.5,2.8c-4.6-0.5-8.2-4.4-11.6-7.3c-5.4-4.6-10.4-9.1-10.2-16.7c0.2-8,4.5-14,11.4-18
			c13.2-7.7,28-12.6,42.2-17.9c5.5-2,10.1-4.3,15.3-7c7.4-3.9,15.8-7,22.4-12.1c1.9-1.5,9-6.1,9.6-8.5c0.1-0.3-1.7-3.9-1.7-4.5
			c0-1.5,0.9-3.1,1.4-4.4c3.4-8,9.1-15.7,13.5-23.2c8-13.8,16-27.7,25.3-40.7c18.5-25.9,39.2-51.3,61.6-73.9
			c10.9-11,20.4-23.5,31.4-34.4c4.4-4.3,9-7.8,14.4-10.6c6-3.1,12.8-3.7,19.7-4.7c16.7-2.3,30.7,2.6,46.4,7
			c14.9,4.1,29.7,7.5,44.7,11.8c16.4,4.7,32.6,9.1,49,14.2c8.7,2.7,17.7,4.4,26.5,7c4.2,1.3,20.2,9.1,23.7,6.5
			c-11.1-5.2-22.5-10-34.4-13.1c-3.5-0.9-5.7,0.1-5.6-3.9c0.1-2.2,2.5-5.1,3.4-7c2.1-4.3,4.5-8.5,6.6-12.9
			c-7.5,2.1-27.8,9.5-33.5,1.9c-5.9-8-1-23.7,2.7-31.6c9.7-20.5,26.2-37.6,42.3-53c3.5-3.3,11-7.7,12.8-11.9
			c0.6-1.3-0.7-3.2,0.6-4.9c0.8-1,3.8-1.7,5-2.8c4.4-3.9,8-12.2,11-17.3c3.2-5.4,6.1-11.2,10.1-16c6.6-7.9,13.4-16.3,24.1-18.1
			c5.2-0.9,10.8-0.4,15.8-2.2c6.1-2.2,11.8-5.6,17.9-7.9c-1.5-3.1-2.8-8.1-5.7-8.4c-2.8-0.3-7,2.1-10.2,2.1c-4.7,0-8.8-0.8-13.4-1.7
			c-5.1-1-6.7-0.8-8.6-6.3c-1.9-5.8-1.4-12.4-1.4-18.4c0-2.9,0.6-6.5,0.3-9.4c-0.4-4.3-1.2-4.5-4.6-7.2c-4.2-3.4-9.4-8-4.3-13.9
			c2.8-3.2,8.6-0.7,11-4.2c2.5-3.5,2.4-12.4,3.2-16.5c-7.8,3.8-4.9-10.5-4.9-13.9c0-5-3.4-14,1.5-18.2c2.2-1.9,3.9-0.3,6.5-1.4
			c2.9-1.3,4.8-4.6,7.9-5.9c6.2-2.6,12.5,0.5,18.9,0c7.3-0.6,14.5-1.7,21.8-0.5c3.5,0.6,4.9,1.9,7.9,3.4c2.8,1.4,5.7,1.8,8.8,2.7
			c2.7,0.8,5.1,1.2,7,3.6c1.5,1.9,0.9,5.1,2.3,6.7c1.5,1.6,4.3,1.4,6.1,3.3c1.7,1.8,2.7,4.8,3.5,7.1c1.2,3.1,1.3,4.2,3.4,6.7
			c1.8,2.1,4.4,3.9,5.9,6.3c3.5,5.7,3.6,14.1,2.5,20.5c-0.4,2.2-3.6,7.9-3.1,9.8c0.5,1.8,3.5,1.3,4.8,2.4c1.2,1,2.2,5.3,3.1,5.6
			c2,0.6,4.5-3.4,6-4c2.6-1,3.7-2.1,5.2,1.8c1.1,2.9-0.4,6.8-1.2,9.5c-1,3.5-2.1,7.7-4.8,10.3c-3.1,3.1-5.6,1.4-9.1,3.1
			c-5.2,2.5-3.7,10.3-10,12.6c-6.1,2.1-12.8-4.6-17.4-7.7c1,7.5,4.5,14.7,2.8,22.4c14-5.5,27.8-13.2,43-15
			c7.8-0.9,15.6-1.9,22.9,1.3c8.6,3.8,13.8,12.1,19.6,19c10.9,13,22.1,25.6,32.6,39.1c9.6,12.3,17.7,26.6,28.3,38.1
			c10.7,11.7,18.8,30.7,17.6,46.8c-0.1,1.5-1.2,4.8-1.1,6.4c0.1,1.2,1.2,2.7,1.2,3.7c-0.1,3.3-1.1,5.2-4.3,7
			c-5.4,3.2-13.5,4.7-19.6,5.5c-8.1,1-18.1,1.2-26.2,0c-8.4-1.1-15.8-5.8-23.5-8.7c-6.8-2.5-13.6-4-20.7-5.6
			c-3.9-0.9-8.3-3.3-10.7-1c-2.2,2.2-2.7,13.2-3.2,16.2c-5.6,31.9-12.3,62.7-18.2,94.5c-6.7,36-11.3,71.9-16,108.2
			c-4.2,33-5.6,66.3-6.6,99.3c-0.5,15.7-0.5,31.3-0.4,47c0.1,8.8,4.5,38.2-8.6,39.3c-7.7,0.7-13.8-10.3-15.9-16.3
			c-3.1-9-4.7-18.7-5.2-28.2c-1-19.2-2.3-38.4-3.1-57.5c-0.8-20.8,0.2-41.9,1.9-62.6c1.7-20.8,6.1-41.4,7.4-62.3
			c-4,5.7-5.3,6.8-11.9,9.2c-6.9,2.6-13.6,5.7-20.6,8.1c-2.4,0.8-6.1,1.3-8.1,2.7c-3.6,2.5-1.2-0.3-2.4,4.5
			c-1.2,5.2-1.5,11.4-1.8,16.7c-1.5,24.9-8.4,49.6-11.6,74.4c-0.8,6,0.3,31.4-10,23.4c-7.9-6.2-7.8-25.5-8.9-34.6
			c-1.5-12.1-0.7-24.5-0.4-36.7c0.3-13.9,0.5-28.4,3.8-41.9c-5.9-1-14.1,1.7-20.1,2.2c-5.2,0.4-10.3,0.7-15.4,0.9
			c-12.2,0.7-24.8,1.2-37.2,1c-2.3,0-17-2.1-18.9-0.4c-0.6,0.5-0.8,8-0.9,8.9c-0.4,3.4-1,6.8-1.5,10.3
			C340.9,475.7,339.6,487.3,340,498.2L340,498.2z"/>
		<path id="ink-layer_1_" class="st1" d="M559.6,601.7c9.3,3.6,19.2,5,28.6,8.3c8.4,3,16.2,7,24.5,10c0.5-3.8,0.7-10.3-0.7-14
			c-2-5.1-7.3-5.3-12.5-7.1c-12.7-4.4-26-5.4-38.6-10.6C563.1,592.5,562.1,598,559.6,601.7 M720.6,588.3
			c-20.1,0.6-39.4,5.3-59.2,8.2c-9.7,1.4-19.3,2.7-29,4c-3.7,0.5-10.5-0.1-13.2,3.1c-2.2,2.7,0.2,11.8-0.8,15.7
			c4.1,0.3,11.3-3.5,15.7-4.1c6.9-1,13.7-2.3,20.6-2.8c11-0.7,21.8-1.3,32.8-2.5c11.2-1.2,22-3.6,33.3-4.4c5.5-0.4,7.7,0.6,8-5.2
			c0.1-2.3,0.4-6-0.2-8.3c1-2.7,0.1-4.1-2.7-4C724.1,587.8,722.3,587.9,720.6,588.3 M681.6,569.8c5.4-0.5,10.9-1.2,16.4-1.6
			c1.1-0.1,6.7,0.3,7.6-0.8c1.3-1.5-0.1-6.8-0.4-8.4c-0.8-5.6-1.7-8.9-7.8-8.9c-5.2,0-10.5,1.1-15.6,1.6
			c-23.3,2.3-46.5,3.3-69.6,7.6c1.4,6,3,12.2,1.3,18.3c11.1,0.6,23.2-1.6,34-3.7C658.6,571.7,670.3,570.6,681.6,569.8 M644.7,513.5
			c-8.3,0-17.1,3.7-25.4,2.9c-0.1,1.5,2.5,0.3,3.2,1.7c1.6,0,2.1,0.5,1.6,1.5c0,0.7-0.3,1.1-1.1,1.2c-0.4,0-0.7,0.1-1.1,0.1
			c-1.6,0.1-1.9,1.1-0.8,3.2c-0.5,2.6,0.2,5.9,0.3,8.5c14.8-2,29.1-4.1,44-5c7-0.4,14.1-0.4,21.1-1c7.7-0.6,16.2,0.7,23.7-0.7
			c4-0.8,3.6-0.7,3.3-6c-0.2-3.2-0.1-7-2.7-9.3c-4.3-3.9-14.2-1.6-19.4-1.5C676,509.6,660.1,511,644.7,513.5 M653.2,588.5
			c22.3-2,44.5-6.5,67-6.5c-1.6-1.6-5-2-7-2.9c-2.3-1-4.4-3.1-6.6-3.9c-4.4-1.7-8.9,0.7-13.5,1.7c-10.9,2.5-22.2,2.6-33.1,5.1
			c-11.3,2.5-22.8,4.9-34.4,6.2c-5.5,0.6-11.4,1.9-16.8,0.4c-0.4-0.3-0.9-0.6-1.3-0.9c-0.5-2-1.8-2.6-4-1.6c-2.7-0.5-6.2,0.2-9,0.2
			c-0.1,1.1,10.1,4.6,12,5.4c4.7,2.1,7.9,3.6,12.9,2.7C630.7,592.3,641.8,589.9,653.2,588.5 M574.6,523.2c0.9,3.4,4.5,1.9,7.7,2.2
			c4.2,0.5,8.4,2,12.5,3.1c7.4,2,14.9,4,22.3,6.1c-0.3-3,0.4-9.8-1.2-12.5c-1.7-2.8-9.5-4-13.2-4.9c-9.2-2.1-19.1-0.9-28.5-0.5
			C574.4,518.9,574.6,521,574.6,523.2 M663.4,544.4c8.8-0.7,17.6-1.3,26.3-1.6c10.1-0.4,2.7-2,2.5-8.1c-13.2,2.1-26.6,2.5-39.7,4.3
			c-10.9,1.5-23.9,5.4-35.1,3.3c-5.3-1-10.6-1.4-16.2-1.9c-5.3-0.5-10.2-3-15.5-3.6c-5.8-0.7-11.8,2.6-17.6,3.5
			c-2.5,0.4-3,2-4.2-0.9c-1.2-3.1,2.2-5.6,3.6-7.4c1.6-2.1,0.9,1.3,1.8-2c0.2-0.9-0.4-3.3-0.5-4.3c-0.3-2.6-1.1-5.3-1.2-7.9
			c-0.1-2.3-0.1-5.9,2.4-7.3c1.6-0.8,2.7,0.4,4,0.1c10.6-1.8,23-2,33.8-0.2c11.6,1.9,21.7-3.2,33.1-5.2c13.5-2.4,27.1-2.8,40.6-3.8
			c11.6-0.9,32.8-5.4,37.2,9.4c1.3,4.2,3.1,15.8-0.3,19.3c-4.4,4.7-14.7,3.2-20.4,4.4c0.9,2.4,3.4,4.1,2.5,7c8,0.4,9.4,7.9,10.7,15
			c1.3,7.3-1.2,10.2,5.7,14c9.7,5.3,20,10.7,19.9,23.3c-0.1,6.3-0.8,15.9-7.3,19.2c-6.4,3.2-16.8,2.7-23.8,3.8
			c-13.6,2.3-27.3,4.9-41,6.3c-14.6,1.4-29.4,2.6-44,3.3c-8,0.4-14.8,1.6-22.5-1.1c-7.6-2.6-14.9-4.6-22.7-6.5
			c-7.7-1.9-31.3-4.5-24.4-17.7c1.1-2.1,4.9-3.8,5.5-5.8c1-3.2-2.3-5.7-2.2-8.6c0.3-5.3,6.2-6,10.4-6c-7.1-4.4,2.4-9.7,2.3-13.5
			c-0.1-6.6-8.4-10.9-8.8-16.5c-1.1-13.5,41.8,0.6,48.4,3.5c-5.1,7.5-28.7,1-35.7-0.1c1,2.5,1.9,4.8,2.2,7.4
			c0.2,2.1-0.6,4.5,0.2,6.6c1.2,3.3,1.1,2.7,5.2,3.6c3,0.7,6,1.5,9.1,2.2c4.7,1.1,12,4,16.6,3.9c4-0.1,3.2,1.1,4-3.4
			c0.4-2.4-0.3-5-0.7-7.3c-0.8-5-2.1-9.6,2.2-13.2c4.1-3.4,12.8-5,17.9-6.2C639,545,651.9,544.3,663.4,544.4"/>
		<path id="ink-layer_2_" class="st1" d="M716.9,459.9c-12.2-2-24.6-2.5-36.9-1.9c0.7,3.1,1.3,6.1,2,9.2
			C693.5,464.1,705.2,462.4,716.9,459.9L716.9,459.9z M617.7,483.6c-4.9-0.4-1.5,1.8-0.3,5c1.5,3.9,1.2,8.9,1.5,13
			c14.3-5.5,31-8.7,46.2-10.5c7.2-0.9,14.5-1.1,21.8-1.5c2.1-0.1,9.9,0.8,11.5-0.7c1.2-1.1,0.3-7-0.8-8.3c-6.1-7.1-29.6-1-38.1-0.3
			C645.5,481.4,631.8,483.9,617.7,483.6L617.7,483.6z M638,464.6c12.7,1.2,24.9,1.1,37.6,3c-1-8.1,0.2-10.1-9-10.5
			c-8.1-0.4-16.3-0.7-24.4-0.7c-18.2,0-36.4-0.3-54.7-0.3v8.2C604.5,462.5,621.1,465.6,638,464.6L638,464.6z M577.1,494.7
			c8,0,15.6,3,23.6,3.8c4.8,0.5,3.3,1.1,6.6,3.5c5.2,3.7,6.7,1.7,6-3.3c-2.2-17.2-24-13.4-36.5-14.3c0.8,4.1-1.1,7.6-3.9,10.4h4.2
			V494.7z M663.5,472.6c-11.5,0.2-23,0.8-34.4,0.6c-5.1-0.1-11.7-1.1-16.7-0.2c-3.7,0.6-6.7,2.5-10.8,3.2c5.9,3.2,8.9,1,15.1,0.3
			c6.2-0.7,12.5-0.7,18.8-1.1c10.2-0.6,21.2-3.1,31.3-2.4C666.9,471.5,665.8,471.4,663.5,472.6L663.5,472.6z M572.3,509.8
			c-5.3,0,2-6,2.9-6.6c-5.8,0-7.3-3.5-5.6-9.1c1.6-5.3,2.8-3.7-1.2-8.1c-3-3.3-3.5-5.8,0.1-9.5c3.6-3.8,11-2.7,14.2-5.8
			c5.5-5.3-1.6-15.9,6-20c5.1-2.8,13.4-2.4,19-3c5.5-0.6,11.1-0.7,16.6-0.7c12-0.2,24.4,1.8,36.4,3c4.4,0.4,9.2,2.2,13.5,2.2
			c4.4,0,9-1,13.5-0.9c5.2,0.1,10.3-0.3,15.7,0.6c4.1,0.7,13.8,1,17,4.1c10.6,10.3-14.5,15-18.8,16.1c4.4,4.8,4.2,11.2,3.5,17.2
			c2.1,0,5.7-0.9,6.8,1.4c1.3,2.9-3.6,3.7-4.8,4c-6.8,2-14.7,1.4-21.6,2.1c-13.9,1.4-27.7,2.2-41.5,4.9c-6.7,1.3-13.4,2.9-20.1,4.1
			c-1.2,0.2-2.3,0.4-3.5,0.5c-1.8-0.2-2.4,1-1.7,3.4c-1.9,0.9-8.8-1.4-11-1.7C595.5,506,584.5,506.9,572.3,509.8L572.3,509.8z"/>
		<path id="ink-layer_3_" class="st1" d="M820.5,629.2c-7.9,6.2-15.3,12.1-23.9,17.5C802.7,646.6,822.9,636.9,820.5,629.2
			 M817.4,619c-4.3-3.7-8.6-3.3-14-4.5c-4.9-1-9.7-2.8-14.6-4c-3.9-0.9-7.7-2.2-11.5-3.1c-5.4-1.2-6,0.1-11,3
			c-17.7,10.1-37.6,17.1-56.2,25.3c5.5,4.8,17.8,5,24.7,6.6c5,1.1,9.8,2.7,14.6,4.4c4.5,1.7,11.6,5.5,16.4,5.6
			c4,0.1,7.2-3.8,10.6-5.9c4.5-2.8,9-5.5,13.5-8.2C799.3,632.5,808.3,625.5,817.4,619 M737.3,660c-2-2-8.2-1.9-10.8-2.5
			c-5.1-1.2-10-2.4-15.2-3.3c-8.3-1.4-21.4-2.1-22.3-12.9c-0.8-9,10.1-11.1,16.4-14.1c9.5-4.6,19.2-8.8,29-12.8
			c9.2-3.8,18.4-7,27.8-10.2c1.8-0.6,3.3-0.5,4.8-2c1.2-1.1,0.8-3.4,2.1-4.6c2.9-2.7,6.8-1.3,10.3-0.6c8,1.6,16.3,3.7,24,6.7
			c7.9,3.1,15.1,3.7,17,12.7c4.1-1.9,7.1-2.2,6.6,3.4c-0.1,1.6-1.3,3.4-1.6,5.1c-0.4,2.5,0.3,5.1-0.1,7.6
			c-1.5,9.1-13.8,15.9-21.4,19.5c-9.4,4.4-21.5,10.9-32,11.8C760.6,664.8,748.4,660.4,737.3,660"/>
		<path id="ink-layer_4_" class="st1" d="M595,508.6c-3.3,0-6.7,0-10,0.1C588.3,508.1,591.7,508.1,595,508.6"/>
		<path id="ink-layer_5_" class="st1" d="M400,156c-1,1.7-2,3.3-3,5C397.3,158.8,398.1,157,400,156"/>
		<path id="ink-layer_6_" class="st1" d="M595,556.4c2,0,4,0,6,0.1C599,556.5,597,556.4,595,556.4"/>
		<path id="ink-layer_7_" class="st1" d="M641,447.6c-2.3-0.1-4.7-0.3-7-0.4C636.3,447.4,638.7,447.5,641,447.6"/>
		<path id="ink-layer_8_" class="st1" d="M601,508.7c-2,0-4,0-6-0.1C597,508.1,599,508.1,601,508.7"/>
		<path id="ink-layer_9_" class="st1" d="M680.6,225c-0.1-2-0.1-4-0.2-6C680.5,221,680.5,223,680.6,225"/>
		<path id="ink-layer_10_" class="st1" d="M340.6,527c0-1.7-0.1-3.3-0.1-5C340.5,523.6,340.5,525.3,340.6,527"/>
		<path id="ink-layer_11_" class="st1" d="M395,445.5c1.3,0,2.7,0,4,0C397.7,445.5,396.3,445.5,395,445.5"/>
		<path id="ink-layer_12_" class="st1" d="M574,86.3c-1.7,0.1-3.3,0.2-5,0.4C570.7,86.5,572.3,86.4,574,86.3"/>
		<path id="ink-layer_13_" class="st1" d="M700,451.5c-2,0-4,0-6,0C696,451.5,698,451.5,700,451.5"/>
		<path id="ink-layer_14_" class="st1" d="M531.6,575c0-1.3-0.1-2.7-0.1-4C531.5,572.3,531.5,573.6,531.6,575"/>
		<path id="ink-layer_15_" class="st1" d="M533.6,524c0-1.3-0.1-2.7-0.1-4C533.5,521.3,533.5,522.6,533.6,524"/>
		<path id="ink-layer_16_" class="st1" d="M499.4,547c0,1.3,0.1,2.7,0.1,4C499.5,549.6,499.5,548.3,499.4,547"/>
		<path id="ink-layer_17_" class="st1" d="M403,444.5c1,0,2,0,3,0C405,444.5,404,444.5,403,444.5"/>
		<path id="ink-layer_18_" class="st1" d="M693,496.5c1,0,2-0.1,3-0.1C695,496.4,694,496.5,693,496.5"/>
		<path id="ink-layer_19_" class="st1" d="M501.4,579c0.1,1.3,0.1,2.7,0.2,4C501.5,581.6,501.5,580.3,501.4,579"/>
		<path id="ink-layer_20_" class="st1" d="M608.6,572c-0.1,1.3-0.1,2.7-0.2,4C608.5,574.6,608.5,573.3,608.6,572"/>
		<path id="ink-layer_21_" class="st1" d="M493.3-23.9c-1.4-0.2-2.8-0.4-4.2-0.5C490.5-24.1,492-25.3,493.3-23.9"/>
		<path id="ink-layer_22_" class="st1" d="M432.6,489c0,1.3-0.1,2.7-0.1,4C432.5,491.6,432.5,490.3,432.6,489"/>
		<path id="ink-layer_23_" class="st1" d="M346.6,611c-0.1-1.3-0.1-2.7-0.2-4C346.5,608.3,346.5,609.6,346.6,611"/>
		<path id="ink-layer_24_" class="st1" d="M670,498.5c1,0,2,0,3-0.1C672,498.4,671,498.5,670,498.5"/>
		<path id="ink-layer_25_" class="st1" d="M330.5,256c0,1.3,0,2.7,0,4C330.5,258.6,330.5,257.3,330.5,256"/>
		<path id="ink-layer_26_" class="st1" d="M309.5,556c0,1.3,0,2.7,0,4C309.5,558.6,309.5,557.3,309.5,556"/>
		<path id="ink-layer_27_" class="st1" d="M558.7,548c0,1.3-0.1,2.7-0.1,4C558.1,550.6,558.2,549.3,558.7,548"/>
		<path id="ink-layer_28_" class="st1" d="M372,446.5c1,0,2,0,3,0C374,446.5,373,446.5,372,446.5"/>
		<path id="ink-layer_29_" class="st1" d="M532.5,542c0-1.3,0-2.7,0-4C532.5,539.3,532.5,540.6,532.5,542"/>
		<path id="ink-layer_30_" class="st1" d="M737,660.4c1,0,2,0.1,3,0.1C739,660.5,738,660.4,737,660.4"/>
		<path id="ink-layer_31_" class="st1" d="M701,533.5c0.7,0,1.3,0,2,0C702.3,533.5,701.7,533.5,701,533.5"/>
		<path id="ink-layer_32_" class="st1" d="M676,536.5c0.7,0,1.3,0,2,0C677.3,536.5,676.7,536.5,676,536.5"/>
		<path id="ink-layer_33_" class="st1" d="M286.6,543c0-1-0.1-2-0.1-3C286.5,541,286.5,542,286.6,543"/>
		<path id="ink-layer_34_" class="st1" d="M696,542.2c-0.9,0.9-2,0.4-3,0.4C694,542.5,695,542.3,696,542.2"/>
		<path id="ink-layer_35_" class="st1" d="M577,510.2c-1.3,0.6-2.7,0.7-4,0C574.3,510.2,575.7,510.2,577,510.2"/>
		<path id="ink-layer_36_" class="st1" d="M664,544.5c-1.3,0-2.7,0-4,0C661.3,544.5,662.7,544.5,664,544.5"/>
		<path id="ink-layer_37_" class="st1" d="M608,509.6c-1.3-0.1-2.7-0.2-4-0.4C605.3,509.4,606.7,509.5,608,509.6"/>
		<path id="ink-layer_38_" class="st1" d="M302.5,505c0,1-0.1,2-0.1,3C302.5,507,302.5,506,302.5,505"/>
		<path id="ink-layer_39_" class="st1" d="M532.4,559c0.1-1,0.1-2,0.2-3C532.5,557,532.5,558,532.4,559"/>
		<path id="ink-layer_40_" class="st1" d="M670,501.3c-1.3,0.1-2.7,0.2-4,0.3C667.3,501.5,668.7,501.4,670,501.3"/>
		<path id="ink-layer_41_" class="st1" d="M340.5,498c0-1-0.1-2-0.1-3C340.5,496,340.5,497,340.5,498"/>
		<path id="ink-layer_42_" class="st1" d="M507.6,421c-0.1,1-0.2,2-0.2,3C507.5,423,507.5,422,507.6,421"/>
		<path id="ink-layer_43_" class="st1" d="M690,451.2c-1.3,0.7-2.7,0.6-4,0C687.3,451.2,688.7,451.2,690,451.2"/>
		<path id="ink-layer_44_" class="st1" d="M531.6,590c-0.1-1-0.1-2-0.2-3C531.5,588,531.5,589,531.6,590"/>
		<path id="ink-layer_45_" class="st1" d="M531.6,598c0-1-0.1-2-0.1-3C531.5,596,531.5,597,531.6,598"/>
		<path id="ink-layer_46_" class="st1" d="M342.5,466c0-1,0-2,0-3C342.5,464,342.5,465,342.5,466"/>
		<path id="ink-layer_47_" class="st1" d="M627,625.5c0.7,0,1.3,0,2-0.1C628.3,625.4,627.7,625.5,627,625.5"/>
		<path id="ink-layer_48_" class="st1" d="M304.6,634c-0.1-1-0.1-2-0.2-3C304.5,632,304.5,633,304.6,634"/>
		<path id="ink-layer_49_" class="st1" d="M521,642.4c0.7,0,1.3,0,2,0C522.3,642.5,521.7,642.5,521,642.4"/>
		<path id="ink-layer_50_" class="st1" d="M666,450.6c-1.3-0.1-2.7-0.2-4-0.3C663.3,450.4,664.7,450.5,666,450.6"/>
		<path id="ink-layer_51_" class="st1" d="M673,451.7l-3-0.4L673,451.7z"/>
		<path id="ink-layer_52_" class="st1" d="M521.4,557c0.1-3,0.1-6,0.2-9C521.5,551,521.5,554,521.4,557"/>
		<path id="ink-layer_53_" class="st1" d="M443.5,447c0,2.3,0.1,4.7,0.1,7C443.5,451.6,443.5,449.3,443.5,447"/>
		<path id="ink-layer_54_" class="st1" d="M271,593.4c-1.7,0-3.3,0-5,0.1C267.7,593.5,269.3,593.4,271,593.4"/>
		<path id="ink-layer_55_" class="st1" d="M408,394.5c-1.7,0-3.3-0.1-5-0.1C404.7,394.4,406.3,394.5,408,394.5"/>
		<path id="ink-layer_56_" class="st1" d="M365,433.5c1.7,0,3.3,0,5,0C368.3,433.5,366.7,433.5,365,433.5"/>
		<path id="ink-layer_57_" class="st1" d="M387,393.4c-1.3,0-2.7,0-4,0.1C384.3,393.5,385.7,393.4,387,393.4"/>
		<path id="ink-layer_58_" class="st1" d="M279,593.5c-1.3,0-2.7,0-4,0C276.3,593.5,277.7,593.5,279,593.5"/>
		<path id="ink-layer_59_" class="st1" d="M459,82.6c1.7-0.1,3.3-0.2,5-0.3C462.3,82.4,460.7,82.5,459,82.6"/>
		<path id="ink-layer_60_" class="st1" d="M481.4,200c0.1-1.7,0.1-3.3,0.2-5C481.5,196.6,481.5,198.3,481.4,200"/>
		<path id="ink-layer_61_" class="st1" d="M441,215.5c-1,0-2,0-3,0C439,215.5,440,215.5,441,215.5"/>
		<path id="ink-layer_62_" class="st1" d="M356,390.4c-1,0-2,0-3,0C354,390.5,355,390.5,356,390.4"/>
		<path id="ink-layer_63_" class="st1" d="M333,431.3c1.3,0.1,2.7,0.2,4,0.3C335.7,431.5,334.3,431.4,333,431.3"/>
		<path id="ink-layer_64_" class="st1" d="M330.5,482c0-1.3,0-2.7,0.1-4C330.5,479.3,330.5,480.6,330.5,482"/>
		<path id="ink-layer_65_" class="st1" d="M445,428.7c1.3-0.1,2.7-0.3,4-0.4C447.7,428.4,446.3,428.5,445,428.7"/>
		<path id="ink-layer_66_" class="st1" d="M536.4,405c0.1-1.3,0.2-2.7,0.2-4C536.5,402.3,536.5,403.6,536.4,405"/>
		<path id="ink-layer_67_" class="st1" d="M554,220.6c1.3-0.1,2.7-0.2,4-0.3C556.7,220.4,555.3,220.5,554,220.6"/>
		<path id="ink-layer_68_" class="st1" d="M418,395.5c-1,0-2,0-3,0C416,395.5,417,395.5,418,395.5"/>
		<path id="ink-layer_69_" class="st1" d="M330.6,557c0-1-0.1-2-0.1-3C330.5,555,330.5,556,330.6,557"/>
		<path id="ink-layer_70_" class="st1" d="M442.7,506c2.2,5.4,1,1.6,1,2.8C441.8,509,441.5,508.1,442.7,506"/>
		<path id="ink-layer_71_" class="st1" d="M351,390.5c-1,0-2-0.1-3-0.1C349,390.4,350,390.5,351,390.5"/>
		<path id="ink-layer_72_" class="st1" d="M555.4,289c0.1-1.3,0.1-2.7,0.2-4C555.5,286.3,555.5,287.6,555.4,289"/>
		<path id="ink-layer_73_" class="st1" d="M330.5,547c0-1.3,0-2.7,0-4C330.5,544.3,330.5,545.6,330.5,547"/>
		<path id="ink-layer_74_" class="st1" d="M330.4,517c0.1-1,0.1-2,0.2-3C330.5,515,330.5,516,330.4,517"/>
		<path id="ink-layer_75_" class="st1" d="M538.4,386c0.1-1,0.2-2,0.3-3C538.6,384,538.5,385,538.4,386"/>
		<path id="ink-layer_76_" class="st1" d="M317.4,520c0.1,1,0.2,2,0.3,3C317.5,522,317.5,521,317.4,520"/>
		<path id="ink-layer_77_" class="st1" d="M315.4,512c0.1,1,0.2,2,0.3,3C315.6,514,315.5,513,315.4,512"/>
		<path id="ink-layer_78_" class="st1" d="M515.4,375c0.1-1,0.1-2,0.2-3C515.5,373,515.5,374,515.4,375"/>
		<path id="ink-layer_79_" class="st1" d="M5,510.6c1.3-0.1,2.7-0.2,4-0.3C7.7,510.4,6.3,510.5,5,510.6"/>
		<path id="ink-layer_80_" class="st1" d="M506.6,535c0,1-0.1,2-0.1,3C506.5,537,506.5,536,506.6,535"/>
		<path id="ink-layer_81_" class="st1" d="M522.4,538c0.1-1,0.1-2,0.2-3C522.5,536,522.5,537,522.4,538"/>
		<path id="ink-layer_82_" class="st1" d="M516.3,371c0.1-1,0.2-2,0.3-3C516.6,369,516.5,370,516.3,371"/>
		<path id="ink-layer_83_" class="st1" d="M13,509.7c1.3-0.1,2.7-0.3,4-0.4C15.7,509.4,14.3,509.5,13,509.7"/>
		<path id="ink-layer_84_" class="st1" d="M437,394.4c-0.7,0-1.3,0-2,0C435.7,394.5,436.3,394.5,437,394.4"/>
		<path id="ink-layer_85_" class="st1" d="M330.5,508c0-1,0-2,0-3C330.5,506,330.5,507,330.5,508"/>
		<path id="ink-layer_86_" class="st1" d="M524.6,506c-0.4-1-0.5-2.1,0.2-3C524.7,504,524.6,505,524.6,506"/>
		<path id="ink-layer_87_" class="st1" d="M507.5,487c0,1-0.1,2-0.1,3C507.5,489,507.5,488,507.5,487"/>
		<path id="ink-layer_88_" class="st1" d="M508.4,586c0.1,1,0.1,2,0.2,3C508.5,588,508.5,587,508.4,586"/>
		<path id="ink-layer_89_" class="st1" d="M582,222.2c1,0.1,2,0.3,3,0.4C584,222.5,583,222.4,582,222.2"/>
		<path id="ink-layer_90_" class="st1" d="M578,222.3c1.3,0.1,2.8-0.6,4,0.4L578,222.3z"/>
		<path id="ink-layer_91_" class="st1" d="M407,433.5c1.3,0,2.7,0,4,0C409.7,433.5,408.3,433.5,407,433.5"/>
		<path id="ink-layer_92_" class="st1" d="M437,221.3l4,0.3C439.7,221.5,438.3,221.4,437,221.3"/>
		<path id="ink-layer_93_" class="st1" d="M371,433.2c1.3,0,2.7,0,4,0C373.7,433.9,372.3,433.9,371,433.2"/>
		<path id="ink-layer_94_" class="st1" d="M334.6,601c-0.1-1-0.2-2-0.2-3C334.5,599,334.5,600,334.6,601"/>
		<path id="ink-layer_95_" class="st1" d="M480.5,223c0-1,0-2,0-3C480.5,221,480.5,222,480.5,223"/>
		<path id="ink-layer_96_" class="st1" d="M396,433.6c1.3-0.1,2.7-0.2,4-0.3C398.7,433.4,397.3,433.5,396,433.6"/>
		<path id="ink-layer_97_" class="st1" d="M509.5,610c0,1,0,2,0.1,3C509.5,612,509.5,611,509.5,610"/>
		<path id="ink-layer_98_" class="st1" d="M513,197.6c1.3-0.1,2.7-0.3,4-0.4C515.7,197.4,514.3,197.5,513,197.6"/>
		<path id="ink-layer_99_" class="st1" d="M530.4,453c0.1-1,0.2-2,0.3-3C530.6,451,530.5,452,530.4,453"/>
		<path id="ink-layer_100_" class="st1" d="M576.4,186c0.1-1,0.2-2,0.2-3C576.5,184,576.5,185,576.4,186"/>
		<path id="ink-layer_101_" class="st1" d="M481.5,100c0,1,0,2,0.1,3C481.5,102,481.5,101,481.5,100"/>
		<path id="ink-layer_102_" class="st1" d="M446,81.3c1.3,0.1,2.7,0.2,4,0.3C448.7,81.5,447.3,81.4,446,81.3"/>
		<path id="ink-layer_103_" class="st1" d="M246,649.7c1.3-0.1,2.7-0.3,4-0.4C248.7,649.4,247.3,649.5,246,649.7"/>
		<path id="ink-layer_104_" class="st1" d="M448,71.5c-0.7,0-1.3,0-2,0C446.7,71.5,447.3,71.5,448,71.5"/>
		<path id="ink-layer_105_" class="st1" d="M202,662.7c1.3-0.7,2.7-0.5,4,0C204.7,662.7,203.3,662.7,202,662.7"/>
		<path id="ink-layer_106_" class="st1" d="M721,604.6c2.3-0.1,4.7-0.2,7-0.4C725.7,604.4,723.3,604.5,721,604.6"/>
		<path id="ink-layer_107_" class="st1" d="M721,587.4c-1.3,0-2.7,0.1-4,0.1C718.3,587.5,719.7,587.4,721,587.4"/>
		<path id="ink-layer_108_" class="st1" d="M701,567.6c1.7-0.1,3.3-0.3,5-0.4C704.5,568.2,702.7,567.5,701,567.6"/>
		<path id="ink-layer_109_" class="st1" d="M682,569.6c1.7-0.1,3.3-0.2,5-0.4C685.3,569.4,683.7,569.5,682,569.6"/>
		<path id="ink-layer_110_" class="st1" d="M654,587.6c1.3-0.1,2.7-0.2,4-0.3C656.7,587.4,655.3,587.5,654,587.6"/>
		<path id="ink-layer_111_" class="st1" d="M661,587.6c1.3-0.1,2.7-0.2,4-0.3C663.7,587.4,662.3,587.5,661,587.6"/>
		<path id="ink-layer_112_" class="st1" d="M666,586.6c1.3-0.1,2.7-0.2,4-0.4C668.7,586.4,667.3,586.5,666,586.6"/>
		<path id="ink-layer_113_" class="st1" d="M673,552.4c-1,0-2,0-3,0C671,552.5,672,552.5,673,552.4"/>
		<path id="ink-layer_114_" class="st1" d="M698,607.5c1.3-0.1,2.7-0.2,4-0.3C700.8,608.1,699.4,607.6,698,607.5"/>
		<path id="ink-layer_115_" class="st1" d="M660,527.6c1.3-0.1,2.7-0.3,4-0.4C662.7,527.4,661.3,527.5,660,527.6"/>
		<path id="ink-layer_116_" class="st1" d="M655,511.5c-1,0-2,0-3,0C653,511.5,654,511.5,655,511.5"/>
		<path id="ink-layer_117_" class="st1" d="M645,513.5c-0.7,0-1.3,0-2,0C643.7,513.5,644.3,513.5,645,513.5"/>
		<path id="ink-layer_118_" class="st1" d="M621,516.2c-0.3,0.8-2.1,0.7-2-0.1C619.7,516.2,620.3,516.2,621,516.2"/>
		<path id="ink-layer_119_" class="st1" d="M574.4,520c0,1,0.1,2,0.1,3C574.5,522,574.5,521,574.4,520"/>
		<path id="ink-layer_120_" class="st1" d="M711,525.3c1,0,2,0,3-0.1C713,525.9,712,525.8,711,525.3"/>
		<path id="ink-layer_121_" class="st1" d="M673,510.4c-0.7,0-1.3,0-2,0C671.7,510.5,672.3,510.5,673,510.4"/>
		<path id="ink-layer_122_" class="st1" d="M647,573.6c1.3-0.1,2.7-0.2,4-0.4C649.7,573.4,648.3,573.5,647,573.6"/>
		<path id="ink-layer_123_" class="st1" d="M631,575.6l4-0.3L631,575.6z"/>
		<path id="ink-layer_124_" class="st1" d="M709,605.6c1.3-0.1,2.7-0.3,4-0.4C711.7,605.4,710.3,605.5,709,605.6"/>
		<path id="ink-layer_125_" class="st1" d="M661,611.7c1.3-0.5,2.7-0.7,4,0C663.7,611.7,662.3,611.7,661,611.7"/>
		<path id="ink-layer_126_" class="st1" d="M658.9,473.8l-1.9-0.6c2.3,0,4.7-0.1,7-0.1C664,473.1,659.2,473.8,658.9,473.8"/>
		<path id="ink-layer_127_" class="st1" d="M641,456.5c-1.7,0-3.3,0-5,0C637.7,456.5,639.3,456.5,641,456.5"/>
		<path id="ink-layer_128_" class="st1" d="M578,494.7c1.7-0.7,3.3-0.5,5,0C581.3,494.7,579.7,494.7,578,494.7"/>
		<path id="ink-layer_129_" class="st1" d="M679,478.4c-1,0-2,0-3,0C677,478.5,678,478.5,679,478.4"/>
		<path id="ink-layer_130_" class="st1" d="M658,465.3c1.7,0.1,3.3,0.2,5,0.3C661.3,465.5,659.7,465.4,658,465.3"/>
		<path id="ink-layer_131_" class="st1" d="M637,475.6c1.7-0.1,3.3-0.2,5-0.4C640.3,475.4,638.7,475.5,637,475.6"/>
		<path id="ink-layer_132_" class="st1" d="M650,473.6c1.3-0.1,2.7-0.2,4-0.3C652.7,473.4,651.3,473.5,650,473.6"/>
		<path id="ink-layer_133_" class="st1" d="M639,464.3c1.3,0.1,2.7,0.2,4,0.3C641.7,464.5,640.3,464.4,639,464.3"/>
		<path id="ink-layer_134_" class="st1" d="M620,483.5c-0.7,0-1.3,0-2,0C618.7,483.5,619.3,483.5,620,483.5"/>
		<path id="ink-layer_135_" class="st1" d="M641,473.5c-0.7,0-1.3-0.1-2-0.1C639.7,473.4,640.3,473.5,641,473.5"/>
		<path id="ink-layer_136_" class="st1" d="M628,473.5c-0.7,0-1.3,0-2-0.1C626.7,473.4,627.3,473.5,628,473.5"/>
		<path id="ink-layer_137_" class="st1" d="M664,472.6c0,0.3,3-1.1,3,0.2L664,472.6z"/>
		<path id="ink-layer_138_" class="st1" d="M653,456.5c-0.7,0-1.3,0-2,0C651.7,456.5,652.3,456.5,653,456.5"/>
		<path id="ink-layer_139_" class="st1" d="M298,409c1.1-4.4,0.8-7.9,4.6-5.1c2.1,1.6,5.6,9.4,5.3,12.1c-0.3,3.3-1.8,4.6-4.9,3.5
			C299.5,418.4,298.1,412.3,298,409"/>
		<path id="ink-layer_140_" class="st1" d="M492.8,382.2c9,0,5,9.5-2.4,9.7c-3.4,0.1-8.4-0.6-7.3-5.2
			C483.8,384.3,492.5,381,492.8,382.2"/>
		<path id="ink-layer_141_" class="st1" d="M396.8,401c6.5,3.1-2.6,16.9-8.5,13.5C380.8,410.1,394.1,402.9,396.8,401"/>
		<path id="ink-layer_142_" class="st1" d="M381,414c2.1,2.3,11.7,10.1,6.4,13.3C381,431.1,376.1,418.3,381,414"/>
		<path id="ink-layer_143_" class="st1" d="M272.7,408c-2.1-4.1,0.8-14.7,7.2-12.8C286.4,397.2,276.2,406.9,272.7,408"/>
		<path id="ink-layer_144_" class="st1" d="M415.3,410.3c4.2-1.7,3.4,3.3,4,4.9c0.7,1.8,4.4,6.3,3.5,8.2c-1.4,2.9-4.7,1-6.4-0.8
			C413.3,419.3,413.5,414.1,415.3,410.3"/>
		<path id="ink-layer_145_" class="st1" d="M351.4,414.9c-3.5,0-11.8-10.1-6.9-11.8C350.6,401.1,355.7,415.7,351.4,414.9"/>
		<path id="ink-layer_146_" class="st1" d="M472.2,399c3.2,0.8,7.4,9.9,2.6,10.9C469.5,411,468.5,401.5,472.2,399"/>
		<path id="ink-layer_147_" class="st1" d="M452.8,416c-2.5-4.8-3.1-15.2,3-6.9c1.3,1.8,2.7,1.1,2,4
			C457.2,415.7,454.8,416,452.8,416"/>
		<path id="ink-layer_148_" class="st1" d="M320.6,391c2.6,3.9,1.8,15.9-3.5,8.8C314.8,396.7,316.3,391.1,320.6,391"/>
		<path id="ink-layer_149_" class="st1" d="M449.2,28.1c5-1.3,6.2,10.4,3.3,11.7C448.4,41.6,448.9,30,449.2,28.1"/>
		<path id="ink-layer_150_" class="st1" d="M763.2,622.6c-4.6-0.3-11.1-1.5-4.1-4.8c4.4-2.1,11-2.2,15.7-1.4
			c3.2,0.6,8.1,3.3,3.1,6.7C775,625.2,766.7,622.7,763.2,622.6"/>
		<path id="ink-layer_151_" class="st1" d="M758,631c-1.3-0.2-2.7-0.3-4-0.4C755.1,628.6,758.2,628.2,758,631"/>
		<path id="ink-layer_152_" class="st1" d="M764,622.4c1.3,0,2.7,0.1,4,0.1C766.7,622.5,765.3,622.4,764,622.4"/>
	</g>
</g>
</svg>
