<?xml version="1.0" encoding="utf-8"?>
<!-- Generator: Adobe Illustrator 24.1.2, SVG Export Plug-In . SVG Version: 6.00 Build 0)  -->
<!DOCTYPE svg PUBLIC "-//W3C//DTD SVG 1.1//EN" "http://www.w3.org/Graphics/SVG/1.1/DTD/svg11.dtd" [
	<!ENTITY ns_extend "http://ns.adobe.com/Extensibility/1.0/">
	<!ENTITY ns_ai "http://ns.adobe.com/AdobeIllustrator/10.0/">
	<!ENTITY ns_graphs "http://ns.adobe.com/Graphs/1.0/">
	<!ENTITY ns_vars "http://ns.adobe.com/Variables/1.0/">
	<!ENTITY ns_imrep "http://ns.adobe.com/ImageReplacement/1.0/">
	<!ENTITY ns_sfw "http://ns.adobe.com/SaveForWeb/1.0/">
	<!ENTITY ns_custom "http://ns.adobe.com/GenericCustomNamespace/1.0/">
	<!ENTITY ns_adobe_xpath "http://ns.adobe.com/XPath/1.0/">
]>
<svg version="1.1" id="Layer_1" xmlns:x="&ns_extend;" xmlns:i="&ns_ai;" xmlns:graph="&ns_graphs;"
	 xmlns="http://www.w3.org/2000/svg" xmlns:xlink="http://www.w3.org/1999/xlink" x="0px" y="0px" viewBox="0 0 743 711"
	 style="enable-background:new 0 0 743 711;" xml:space="preserve">
<style type="text/css">
	.st0{fill-rule:evenodd;clip-rule:evenodd;fill:#2D4CC8;}
	.st1{fill-rule:evenodd;clip-rule:evenodd;fill:#242E4C;}
</style>
<metadata>
	<sfw  xmlns="&ns_sfw;">
		<slices></slices>
		<sliceSourceBounds  bottomLeftOrigin="true" height="660.1" width="702.7" x="22" y="22.9"></sliceSourceBounds>
	</sfw>
</metadata>
<g id="react-group-221">
	<g id="react-group-222">
		<path id="react-path-225" class="st0" d="M386.3,68.8c-3.1,8.2-6.2,16.4-9.3,24.6c-2,5.2-4,10.5-5.9,15.7
			c-0.7,1.9-1.1,3.8-2.5,5.1c-3.2,3-9,5-12.8,7.1c-2.6,1.4-5.2,2.9-7.7,4.3c-1.3,0.7-4.3,1.7-5.2,2.9c-1,1.4-0.5,3.8-0.5,5.7v16.2
			v30.4c13.3-1.7,26.7-3.3,40-5c-17.8,20.5-35.5,41-53.3,61.5c-4.4,5.1-9.7,9.9-13,15.8c-6.9,12.5-13.7,25.1-20.6,37.7
			c-6.4,11.7-12.8,23.4-19.2,35.1l57.5-2.4c14.9-0.6,30.2,0.3,44.5-3.9c11.8-3.5,23.6-7,35.5-10.4c1.6-0.5,6.5-1,7.6-2.3
			c1-1.2,1-5.7,1.3-7.2c5.6-28.7,12.7-60.3,29-84.9c11.7-17.7,27.4-33.2,41.8-48.6c5.6-6,11.4-12,16.8-18.2c1.4-1.6,3.4-3.4,4.3-5.3
			c0.6-1.2,1.4-3.6,1.1-4.7c-0.2-0.5-3.9-2.2-4.4-2.5c-3.8-2.4-7.5-4.9-11.2-7.3c-10.5-6.9-21-13.8-31.5-20.6
			c-8.2-5.3-16.4-10.9-25.1-15.5c-9-4.7-18.9-8.1-28.3-11.8C405.4,76.2,395.9,72.5,386.3,68.8"/>
		<g id="react-group-223" transform="translate(160.999594, 54.000301)">
			<path id="react-path-226" class="st1" d="M548.9,452.3c-4.6,4.3-12.9,10.1-19.5,7.5c-3.3-1.3-6.1-4.2-9.2-6.1
				c-3.5-2.2-6.9-4.4-9.9-7.3c-6-5.9-10.5-14.4-17.6-19c-2.4-1.5-7-1.9-8.7-4.3c-0.7-1.1-0.8-2.8-0.7-4.1c0.3-2.7,1.8-2.6-0.7-4.6
				h3.8c0.1-1.5-1.4-1.6-2.5-1.4c0.5-2.4,1-11.6-3.3-7.4c-3.7,3.6-1.9,9.6-4.5,13.6c-2,3-7.4,0.6-8.1-2.7c-0.3-1.5,1.3-3.8,1.5-5.3
				c0.4-3.2-1-6-3.1-8.5c-4.6,3.1-2,9.4-4.6,13.4c-2.4,3.6-7.6,1.9-11.3,1.3c-4.3-0.8-9.2,0-13.3-1c-6.2-1.5-3.9-8.9-4.5-13.6
				c-0.7-5.1-5.8-12.1-4.2-17.2c1.7-5.5,11.3-6.7,15.9-8c10.6-3,25.6-3.6,33.5-12.2c6.2,7,11.3,14.9,17.8,21.6
				c7.1,7.2,14.6,13.9,21.4,21.5c7.1,7.8,14.4,15.5,21.2,23.6c3,3.5,5.6,7.3,8.7,10.7C549.9,445.9,552.8,448.7,548.9,452.3
				 M234.9,316.9c3.2-1.7,3.7-0.6,3.7,2.9C237.7,318.1,236.7,317.6,234.9,316.9 M207.4,386v-6.3C210.6,379.6,208.6,385,207.4,386
				 M206.7,395.3c0-2.8-0.1-5.4,0.7-8.1C207.8,390.1,208.6,392.7,206.7,395.3 M220.1,585.9c2.9,0.3,7.3-1.7,9.7,0.5
				c2.5,2.3,2.3,9.1,2.9,12.2c1,5.2,1.8,10.4,2.7,15.6c0.5,3.4,1.2,6.9-2.7,8.2c-5.7,1.9-13.8-0.8-19.8-1.1
				c-11.7-0.5-23.4-1.2-35.2-1.4c-11.4-0.2-22.8,0-34.1,1.1c-5.1,0.5-10.1,1.5-15.2,2.3c-2.7,0.5-9.8,2.3-12.2,0.1
				c-4.5-4.2,3-14.1,6.2-16.9c6-5.2,14.6-8.9,22.1-11.2c4-1.2,10.8-4.6,13.9-0.8c2.4,2.9,2.3,6.8,5.8,9c8.1,5.1,3.4-9.5-1.7-11.3
				c3.4-7.9,9.9,3.3,12.5,6c1,1,4.1,4.1,5.4,2.5c1-1.2-1-5.5-1.4-6.6c-0.6-1.8-2-4.4-1.6-6.4c0.7-3.5,5.6-4.4,8.5-4.7
				c4.5-0.4,8.9,1,13.4,1.5C206.4,585.3,213.3,585.3,220.1,585.9 M174.9,260.2c-8.9,0.7-17.8-0.7-26.7,0.5c-8.4,1.1-16.3,4.1-24.2,7
				c11.8-27.6,27-52.7,45.5-76.2c9.2-11.7,19.2-23.4,29.2-34.4c4.6-5.2,9.4-10.1,14.2-15.2c4.3-4.5,7.3-12.1,12.5-15.4
				c4.4-2.9,12-0.8,16.9-0.6c5.5,0.2,12.2,0.7,17.5-1.1c3.9-1.3,4.9-4.9,0.1-5c-5.7-0.1-11.4,0.5-17.2-0.1
				c-15-1.4-29.5-3.7-44.7-2.4c-3.5,0.3-8,1.8-11.4,1.3c-2.4-0.3-0.8,0.9-2.5-1.1c-0.7-0.8-1.4-2.5-1.6-3.5
				c-1.1-5.6,2-13.6,2.7-19.3c0.7-5.2,0.1-11,1.4-16.1c1.2-4.6,4.7-5.3,9.1-5.7c11.9-1.4,24.1-2.1,36.1-3.1
				c27.4-2.3,55.6-5.8,82.8-0.1c9.8,2.1,21.8,5.3,30.5,10.4c2.7,1.6,5.5,3.5,4.5,6.8c-1,3.5-6.1,7.1-8.6,9.4
				c-18.6,16.8-36.5,34-49.5,55.7c-16.6,27.6-26.2,57.3-31.8,88.9c-1.2,6.8-2.3,10.4-9.3,12.3c-7.5,2.1-14.8,3.5-22.5,4.1
				C210.1,258.8,192.5,258.8,174.9,260.2 M180.8,77.7c-1.3,10-3.2,20-3.4,30.2c-0.1,3.8-0.4,5.7-4.5,6.6c-4.8,1-9.7,1.8-14.5,2.8
				c-23.2,5-46,11.2-68.7,18.2c-22.1,6.8-43.8,14.4-66.4,19.4c-9.7,2.2-21.1,3.6-29.9,8.4c-9.5,5.1-8.3,13.6-9.1,22.8
				c-1.1,12.4-4.8,24.3-6.1,36.7c-0.6,5.9-1.2,11.8-1.1,17.8c0.1,5.1,0.8,10.7-2.6,14.9c-6.8-9.1-10.1-20.6-11.4-31.8
				c-0.7-5.4-0.4-10.9-0.6-16.4c-0.2-4.4-0.1-11.4-2.9-15.1c-6.2-8-14.3,24-15.1,27.4c-1.3,5.7-2.4,11.5-3.7,17.3
				c-0.6,2.5-1.3,11.8-4.7,12.7c-7.1,1.9-5.5-18-5.6-21c-0.2-6.1-0.4-12.2-0.2-18.3c0.1-4.4,1-9.2,0.5-13.6
				c-1.2-10.8-7.3,0.6-9.1,4.6c-4.3,10.2-6.3,21.1-10.2,31.4c-0.6,1.7-2.2,7.5-4.6,7.6c-2.7,0.1-2.7-5.9-2.8-7.6
				c-0.9-10.1-3.9-20.2-3-30.5s4.5-21,9.7-30c10.8-19,30.4-29.9,49.2-39.9c21.5-11.4,44.1-20.4,67.3-27.7
				c27.8-8.8,56.4-15.9,85.2-21c14.6-2.6,29.5-4.4,44.3-5.9c5.2-0.5,10.4-0.8,15.5-1.8C174.4,75.5,181.4,73.7,180.8,77.7
				 M195.8,45.2c-7.3,0.1-14.8-3.5-22-5c-8.5-1.8-16.8-4.3-25.3-6.1c-16.6-3.6-33.3-7.1-49.9-10.7c-7.2-1.6-14.5-3-21.7-4.7
				c-7.7-1.8-16-3.9-23.9-1.9c-11.9,3-17,16-21.3,26.2c-3.1,7.2-5.5,15.2-10.3,21.5c-1.7,2.2-4.2,4.9-7.3,4.2
				c-5.8-1.3-4.9-9-4.1-13.2c1.1-6.1,2.6-12.2,3.8-18.3c0.5-2.5,4.3-18.6-2.5-16.1c-5,1.9-7.7,14.1-9.6,18.4
				c-1.4,3.2-2.9,6.5-4.5,9.6c-2.1,4.2-8.1,18.3-14.8,16.5c-9.5-2.6-0.4-27.7,1.2-33C-15.5,29.7-5.8,7.7-14,9.5
				c-3.5,0.8-6.9,7.2-8.7,9.9C-25.9,24.2-29,29-32,33.8c-3.1,5-4.6,10.7-7.6,15.7c-1.6,2.6-4.8,6.1-8,3.7c-4.9-3.8-2-16.8-1.1-21.7
				C-47,22.2-43,12.8-37.5,5.3C-29.2-5.9-13.7-9.6-0.6-11.8c16.9-2.8,34-2.1,51-0.4c19.1,1.9,37.9,3.9,56.7,7.7
				c19,3.9,37.9,7.7,56.6,12.8c8.8,2.4,17.7,4.6,26.4,7.4c9.2,3,18.2,6.8,27.7,8.9c-3.3,8.3-6.7,16.6-10,24.9
				C204.6,46.6,200.2,45.1,195.8,45.2 M359.1,68.1c2.9-1.6,6.1-2.4,7.2-5.9c0.9-3.1-0.7-6.7-1.4-9.7c-2.2-8.4-2.7-17.1-0.8-25.6
				c1.8,2.8,8.6,13.5,12.8,7c2.5-3.9-4.2-9.5-6.2-12.3c4.3-2.7,10.4-9.8,15.4-5.5c3.2,2.8,4.6,5.4,8.9,6.8
				c5.2,1.6,10.2,1.3,15.5,0.8c3.7-0.3,4.6-0.8,6.1,2.1c1.1,2.3,1.7,5.1,2.4,7.5c1.3,4.8,4.4,14.2,0.8,18.7
				c-3.2,3.9-15.5,0.6-17.2,5.6c-0.9,2.8,3.5,2.9,5.2,4.2c2.1,1.7,3.8,4.4,5,6.8c0.8,1.8,2.1,4.7,0.7,6.6c-2,2.5-5.7,0.6-7.3-1.2
				c-2.1-2.4-2.8-5.8-4.6-8.4c-3.3-4.9-3.5-1-4.3,2.5c-0.9,3.6-3.1,3.4-6.5,3.8c-5.9,0.8-11.8,2-17.5,3.5c-2.9,0.8-5.8,1.8-8.6,3
				c-1.8,0.8-4.9,3.1-6.9,3.1c-3.6,0-6.1-6-8-8.5C352.9,71.5,356,69.8,359.1,68.1 M553.2,438.1c-9-10.8-16.8-22.6-25.7-33.5
				c-8.8-10.8-18.9-20.2-28.8-30c-4.7-4.6-9.1-9.7-14.2-13.7c-3.8-3-6.8-3.1-11.4-1.7c-13.1,3.8-26.4,8.4-38.8,14.2
				c-11.5,5.3-22,12.2-34.6,15.1c-12.8,3-26,4-39.1,3.3c-13.4-0.8-26.1-3.6-38.9-7.7c-12.1-3.9-24.7-7.3-35-15
				c-10.8-8.1-19.2-19.7-27-30.6c-3.9-5.5-7.8-11.3-10.5-17.6c-2.3-5.4-3.8-11.9-7.9-16.3c-1,1.4-2.3,2.7-2.8,4.3
				c-0.2,0.8,1.1,0.7,1,1.3c-0.3,1.1-1.8,2.3-2.7,2.9c-3.2,2.2-3.2,0.5-2.4,4.6c0.5,2.4-0.4,8-4.4,6.2c1.5,1.8-0.9,4-1.6,5.4
				c-0.5-0.6-1.2-0.8-2-0.6c1.5,2.9,0.6,3-0.8,5.3c-0.3,0.4-1.2,2.6-1,2.4c-1.4,2.1-3.1,2.6-3.9,5.1c-0.7,2.1-0.5,4.4-1.3,6.5
				c-0.9-1.3-1.9-2.6-2.8-3.9c0.2,1,0.6,2.5,1,3.4c0.3,0.6,1.5,1.9,1.5,2.2c-0.1,1.2-1.5,0.9-1.9,1.9c-0.8,1.9,0.3,2.2-0.1,4
				c-0.5,2.1-1.8,1.3-2.4,3.1c-0.1,0.3,0.8,1.7,0.7,2.4c-0.2,1-1.2,1.6-1.5,2.6c-0.9,2.4-0.5,4.1-1.7,6.4c-0.5,0.9-1.1,1.5-1.4,2.5
				c-0.3,0.9,0.3,2.8-0.2,3.5c-2.6,3.8-2.3-2.7-2.1-4.4c1.7-13.6,7.1-27.7,12-40.4c2.5-6.3,4.8-12.9,7.9-18.9c1.2-2.4,2.7-5,4.7-6.8
				c2.6-2.4,6.2-3.3,8.6-5.9c-0.4,0.4,2.5-2.3,2.1-1.4c0.4-0.8-0.3-1.9-0.1-2.7c0.3-1,0.9-1.2,1.6-2c1.2-1.5,2.7-2.3,0.8-4.2
				c2.8-0.6,4.2-1.5,4.8-4.6c0.4-2.2-0.4-2.1,1-3.6c1.5-1.5,2.2-0.3,3.1-2.9c1.1-3.1,1.8-7.3,2.5-10.5c0.6-2.8-0.8-6.9,1.5-8.9
				c3-2.5,5.7-1.4,5.2-6.5c-0.5-4.9,1-7.9,2.5-12.6c3.1-9.3,4.3-19.2,7-28.6c5.8-20.1,15.9-38.3,26.8-56
				c10.1-16.4,24.2-30.3,37.8-43.7c3.7-3.7,7.4-7.4,10.8-11.4c2.9-3.5,4.2-8.2,7-11.5c1.7-2,4.8-2.9,7.2-3.9c3.9-1.8,8.6-4.1,13-3.7
				c-1.8,5.9-2.3,12.9,2.9,17.3c6.3,5.4,12-0.2,17.8-3.3c10.5-5.6,25.6-0.5,34.8-8.9c2.2-2,2.8-5.2,5.1-7.1c1.7-1.4,4-1.7,5.9-2.7
				c5.7-3.1,8.5-8.8,6.3-15.1c-2-5.7-5.2-7.7,1.8-10.6c5.7-2.4,7.9-5.9,5.3-12.2c-2.5-6-7-6.7-11.2-10.7c-4.1-3.8,0.6-8.3,3.7-11.2
				c4-3.7,4.8-7,0.1-10.9c-4.8-4-11.8-3.9-17.4-1.9c-6.4,2.3-10.6,6-13.3,12.1c-2.8,6.2-9.6,4.5-15.1,2.7c-5.3-1.6-6.7-5.2-10.1-9
				c-3.9-4.3-11.7-0.6-16.3,1.3c-11.2,4.8-22.3,12.4-22.8,25.7c-0.3,8,3.1,14.8,4.9,22.3c1.6,6.9-9.4,6.3-11.3,12.9
				c-20.3-10.8-43-14.1-65.7-14.8c-24.2-0.8-48.7-1.4-72.6,2.4c5.6-9.7,8.5-20.3,13.3-30.3c1.4-2.9,2-2.6,5.1-1.8
				c5.9,1.7,11.8,3.5,17.7,5.2c21.5,6.3,42.6,13.8,63.4,22.1c2,0.8,6.5,3,8.3,0.6c2-2.8-2.7-6.2-4.6-7.6
				c-8.4-6.1-18.8-9.9-28.2-14.2c-20.5-9.4-43.2-13.9-64.7-20.9C172.8-2.5,125-14,77-21.6c-11.7-1.9-23.6-2.1-35.3-3.5
				c-10.4-1.2-20.9-1.2-31.3,0.1c-19.3,2.3-41.6,7.3-52.5,25C-52,15.8-58.5,33.7-56,52.6c0.8,5.7,3.2,12.4,10.2,10.9
				c4.9-1,7.4-5.1,9.7-9.2c3.4-6.1,6.8-12.2,10.5-18.1c1.4,8.9-3.6,17.6-2.8,26.6c0.5,6.1,3.9,15.8,11.9,14.1
				C-5.8,74.7-1.3,57.6,4,49.4c0.3,6.3-2,12.5-1.3,18.9c0.7,6.2,5.5,12.1,12.4,11.3c6.5-0.8,10.7-7.7,13.4-12.9
				c3.8-7.2,6.6-15,10.3-22.3c3.5-6.8,7.6-15,16-16.3c7.4-1.1,16,1.5,23.3,2.6c20.4,3,40.4,8.2,60.6,12.4
				c21.6,4.5,43.8,7.2,64.7,14.4c-7.4,10-26.7,7.9-37.6,8.9c-16.6,1.6-33.4,2.9-49.9,5.3c-16.3,2.4-32.3,6.6-48.4,9.6
				s-32.1,6.1-47.7,11.3c-28.9,9.6-58.3,21.8-83.7,38.6c-11.8,7.8-22.4,16.8-29.7,29.1c-7.4,12.4-10.9,26.5-12.3,40.7
				c-0.8,8.9,0.6,16.6,2.3,25.2c1.2,6.3,1.7,16.8,6.7,21.3c9.6,8.8,17.6-26.8,19.3-31.1c1.3,7-0.8,46.6,14.6,43.4
				c6.9-1.4,8.4-10.9,9.6-16.5c2.1-10.4,3.9-20.9,7.5-30.9c2.3,13.4,3.2,27.4,8.1,40.3c3.3,8.5,12.6,23.6,19.1,9.1
				c4.9-10.9,3.2-23.5,3.8-35.1c0.6-12.9,4.3-25.3,5.7-38c0.5-4.9,0-10.5,5-13.2c4.3-2.3,10.5-3.1,15.1-4.4
				c13.8-3.8,27.6-7.3,41.3-11.4c13.7-4.1,27.2-8.8,40.8-13.4c12.9-4.4,26.2-6.9,39.3-10.7c7.4-2.2,14.8-4.4,22.4-6.2
				c3.5-0.8,7.1-1.5,10.6-2.4c2.6-0.6,6-3.1,8.7-3c2.8,0,3.8,2.4,6.9,2.6c3.4,0.2,6.8-0.6,10.2-0.8c8.2-0.6,17-1.7,25.2-0.5
				c-4.9,5.9-11.6,9.9-17.4,14.7c-6.7,5.6-13.2,11.6-19,18.2c-11.6,13.3-22.5,27.3-32.7,41.7c-10,14.2-18.1,29.7-25.1,45.6
				c-3.5,7.9-6.9,16-9.3,24.3c-1,3.4-1.8,6.8-3.6,9.9c-1.6,2.8-4,5.3-2,8.7c1.3-0.8,2.5-1.9,3.7-2.9c-1.4,9.8-4.4,19.4-6,29.2
				c-1.5,9.7-1.5,19.6-1.4,29.4c0.2,20.4,1.7,40.4,5.9,60.5c4.2,20.3,9.6,40.4,16.4,60c6.5,18.8,13.1,38.6,22.2,56.3
				c9.8,19,21.3,38.9,35.5,54.9c-9.2,3.8-21,3.1-30.7,4.6c-10.2,1.6-19,4.6-27.7,10.2c-8.8,5.7-13.6,13.1-14.8,23.5
				c-0.9,7.4-3.4,17.7,6.3,19.6c7,1.4,14.8-0.9,21.8-1.5c12.3-1,24.5-1.6,36.8-2.2c12.3-0.5,24.5-1,36.8-1.4
				c5.8-0.2,11.5-0.3,17.3-0.5c2.6-0.1,4.2-0.1,6.5,0.6c1.8,0.6,1.7,1.8,3.7,0.3c3.3-2.4,2.6-10.2,2.5-13.6
				c-0.1-5.2-0.6-10.5-1.7-15.7c-0.6-3.1-8-22.7-2.2-23.6c-6.6-7.3-9.3-17.7-12.3-26.9c-3.7-11.5-7-22.9-9.6-34.7
				c-5.5-25.2-7.9-50.7-7.9-76.4c25.5,15.7,52.5,24.2,82.6,25.2c29.9,0.9,62.7-1.5,91.1-11.5c13.1-4.6,24.9-10.6,36.2-18.8
				c4-2.9,8.4-9.5,13.7-9.4c6.3,0.1,13.4,2.5,19.7,3.6c12,2,27.7,3.1,37.9,10.5c5.5,4,9.5,9.7,14.4,14.3c3.8,3.5,8.7,5.5,12.4,9
				c4,3.8,2.4,8.8,9.1,9.1c5.7,0.3,11.9-2,16.8-4.7C551.8,460.4,562.2,449,553.2,438.1"/>
			<path id="react-path-227" class="st1" d="M459,183c14.3,10.2,30.8,17.1,45.8,26.3c3.7,2.3,15.4,7.1,15.3,11.3
				c-0.1,2.5-3.6,5.6-5.1,7.3c-2.6,3-5.1,5.9-7.5,9.1c-11.1,14.3-21.6,28.8-33.6,42.4c-1.8,2-7.3,11.8-9,7c-0.8-2.2-0.1-4.7-2.2-6.7
				c-1.1-1.1-5.2-1.6-4-3.9c0.8,0.4,1.6,0.7,2.4,1.1c-0.6-1.8-0.6-3.8-1.5-5.5c-0.6-1.1-1.7-1.6-2.1-2.8c-0.5-1.7,0.4-3.6,0.2-5.3
				c-0.2-1.7-1-3.3-1.6-4.9c-3.1-9.5-4.2-19.1-5.8-28.9c-1.6-9.7-4-19.1-5-28.9c-1-10.4-2.3-20.7-3.9-31c3,0.4,5.3,3.7,7.4,5.5
				C451.8,177.9,455.4,180.5,459,183 M447.8,283.4c-0.7-0.5-1.2-1.2-1.6-2C453.2,277.9,449,283.9,447.8,283.4 M443.5,276
				c-3.1,0.8-5.3,1-7.6-0.2c-0.2-0.1,0-1-0.4-1.2s-0.9,0-1.2-0.1c-1-0.5-2.8,0.6-3-1.4c3.9-1.2,7.8-3.4,11.9-3.8
				C448.9,268.7,448.7,274.6,443.5,276 M430.1,264.4c-4.2,1-7.6,3.3-12.1,2.7c-4.2-0.6-7.8-2.7-11.1-5.2c8.2-2.3,16.8-2.7,25.1-5
				c2.7-0.7,6.2-2.7,9.1-1.9c3.2,0.9,3.4,3.9,4.4,6.6C440.3,262.5,435.2,263.3,430.1,264.4 M404,252.9c-4,1-8.1,3.1-11.5-0.6
				c-0.5-0.6-1,0-1-1.8c0.1-1.9,1.8-3.1,3.3-3.8c3.5-1.6,8.4-0.6,12.1-0.8c5.9-0.4,11.9-1.6,17.7-2.5c4-0.7,8.2-2.1,12.3-1.8
				c3.2,0.2,7,2.9,2.4,4.9c-4.2,1.8-10.6,1.5-15.2,2.3C417.4,249.9,410.6,251.3,404,252.9 M400,234c0.3,0.3,0.5,0.5,0.8,0.8
				c0,0,1.5-1.3,2-1.3c2-0.2,4.1,0,6.1-0.2c4.7-0.3,9.4-1.1,14-2c3.8-0.7,7.6-2,11.5-1.7c3.3,0.3,3.7,1,3.9,4.2
				c-8.5,0-17.3-0.2-25.7,1.6c-5.5,1.2-11.5,4.7-14.2-1.6C398.9,233.9,399.5,233.9,400,234 M405.4,220.3c2.1,1.6,7.9-1.1,10.4-1.3
				c2.8-0.3,5.4-0.6,8-1.3c2.4-0.6,10.2-3.7,12-0.7c2.8,4.5-8.5,5.3-10.3,5.5c-7.5,0.9-15.3,1.7-22.6,3.7
				C403.8,224.2,404.6,222.2,405.4,220.3 M415.7,205.1c0.5,2.1,17.5-5.5,17.8,0c0.2,4.2-16.8,6.4-19.8,6
				C414.4,209.1,416.3,207.4,415.7,205.1 M421.4,192.2c0.4-4.2,0.9-4.1,4.3-4.5c2.5-0.3,6-1.8,5.4,2.7
				C430.4,194.3,421,196.4,421.4,192.2 M427.4,177.8c0.8-2.2,2.6,0.8,2.6,1.9c0.1,3-2.2,2.4-4.4,2.4
				C426.3,180.7,426.9,179.3,427.4,177.8 M455.4,161.1c-0.5-0.5-3-0.7-3.7-1c-1.8-0.6-1.5-2-3.8-0.7c-0.1-0.1,0.1-1.1,0-1.2
				c-0.1,0-1.6-0.6-2.2-1c-1.2-0.8-2.4-1.6-3.5-2.6c-1.2-1.1-2.4-2.6-3.8-3.4c-0.6-0.4-1.1-0.9-1.8-1c-1.8-0.3-1.3,1-2.9,1.2
				c-1,0.2-1.7-1-3-0.5c-1.1,0.4-1.8,2-2.3,2.9c-1.8,3.4-3.2,7-5,10.4c-9,17.5-19.3,34.3-28,51.9c-4.2,8.5-8.6,17.1-11.6,26.1
				c-2.1,6.5-7,16-2.8,22.5c3,4.7,9.1,6.8,13.9,9.1c7.3,3.4,13.9,7.9,21.3,11.3c8.7,4,17.2,8.1,25.8,12.6c3.6,1.9,6.9,4.6,10.5,6.4
				c2.2,1.1,5.6-0.8,6.4,1.7c2.8-3.4,7.3-1.1,10.5-3.5c1.9-1.4,3.3-4.1,4.8-5.9c2.4-2.6,4.9-5,7.3-7.5c9.6-10,18.4-20.5,27.1-31.3
				c8.3-10.3,18.1-20,25.1-31.3c2.8-4.5,3.3-9.2,1.5-14.1c-1.3-3.6-4.6-9.1-9.2-6.7c1.8-2.9-5-6-7.1-6.6c0,0-0.4,2.2-1,2.2
				c0.2,0-1.7-5-2.6-5.6c-2.5-1.9-5.6-4.1-8.3-5.7c-2.5-1.4-5.2-2.1-7.6-3.8c-3-1.9-5.7-4.3-8.6-6.2s-6-4.1-9.2-5.4
				c-2.7-1.1-5.2-1.3-7.7-3.2c-3.1-2.3-5.7-3.8-9.2-5.3C461.8,164.9,457.5,163.7,455.4,161.1"/>
			<path id="react-path-228" class="st1" d="M39.7,431.3c0.6-1.3,1.1-2.6,1.7-3.9C42.1,429.7,42.3,430.8,39.7,431.3 M40.5,437.4
				c-1.2,0.2-0.7-3.6-0.7-4.3C41.8,434.3,40.1,435.8,40.5,437.4 M38.6,426.4c1-0.6,2.1-1.2,3.1-1.8c-1.4,2.7-0.9,1-0.3,2.8
				C40.3,427.7,39.2,427.3,38.6,426.4 M32.4,447.3c-3.9,14.1-16.2,25.2-29.2,30.9c-7.5,3.3-14.8,4.1-22.9,3.8
				c-3.1-0.1-6.8-1.2-9.8-1c-2.3,0.1-2.2,0.2-4.1,2.2c-0.8-1.6-0.2-2.6-1.9-3.6c-2.1-1.1-3,0.2-4,1.8c-1.4-1.4-1.9-2.2-3.7-3
				c0.1,0-1.7,0-1.6,0c-0.3-0.1-2.2-1.3-2.8-1.6c-2.5-0.9-5.3-1.3-7.6-2.6c-2-1.2-3.6-4.4-5.9-1.9c0-4.2-5.6-5.9-8.2-8.1
				c-4.1-3.4-7.4-8.5-9.4-13.3c-2.2-5.2-2.9-10.2-3.9-15.6c-0.7-3.7-5.4-9.2-2.6-12.9c0.7,1.6,0.4,3.2,1.5,4.6c1-1.9,1.5-4.1,2-6.2
				c0.2-1,1.5-4.1,1.4-5c-0.3-1.8-2.6-1.9-1.3-4.2c2.6,2.9,4.7-2.2,2.8-4.2c-1,1.1-1.3,2.4-1.8,3.7c-2.6-5.2,4.6-3.5,3-8.2
				c2.6-0.5,4.1-1.2,5.1-3.7c1.1-2.9,0.3-3.5,2.8-5.4c0.9-0.6,3.3-1.6,3.7-2.7c0.9-2.1-1.3-2.7,0.6-4.6c0.6,1.1,3.2,3.4,4.6,1.2
				c0.3-0.4-0.9-0.7,0-1.7c1.3-1.5,2.7-2.9,4.8-2.6c-1.7-4.2,9-4.5,11.8-5.5s5.1-1.6,8-1.9c2.9-0.2,3.1-1.1,5.5-2.8
				c0.2,2.5,0.8,2,2.6,2.4c0.4-0.7,0.9-0.8,1.3-0.2c0.4,0.4,1,0.6,1.6,0.6c1,0.1,2.1-0.1,3.1-0.1c2.4,0,4.9-0.2,7.3-0.1
				c0.6-0.1,1.2-0.3,1.7-0.6c0.2,0.4,0.4,0.8,0.7,1.3c1.3,0.2,1.3,1.7,2.9,0c0.5,2.2,1.8,1,3.2,1.6c1.3,0.5,1.5,1.4,2.6,2
				c0.8,0.6,1.6,0.7,2.5,0.2c0.8,0.6,1.7,1.2,2.5,1.8c1.6,0.9,3.5,1.4,5.1,2.1c1.1,0.5,2.2,0.9,3.3,1.4c0,1.3,0.6,1.8,1.8,1.4
				c1,0.9,1.3,0.8,2.3,2.3c2.3,3.4,4.3,6,7.2,9C33.3,411.6,37.2,430,32.4,447.3 M36.3,391.7c-5.7-7.6-13.7-16.3-20.9-21.1
				c-3.7-2.4-8.8-6.8-13.3-8.1c-1.1-0.3-2.2-0.3-3.2-0.6c-0.8-0.2-1.2-1.1-2.2-1.2c-0.6-0.1-0.7,1.3-1.4,1.2
				c-1.4-0.3-2.3-1.7-3.3-2.6c-2.2,3.7-3.3-2.5-6.5,1.7c-3.8-5.9-12.7-4.6-18.7-4.3c-1.8,0.1-2.6,0.7-4.2,1.2
				c-1.5,0.4-1.6,0.3-3.2,0.3c-4,0-7.6,0.5-11.3,2.2c-6.2,3-12,7.6-17.9,11.2c-6.6,4-12.6,9.1-17.7,14.9
				c-18.3,21.1-23.2,51.9-8.6,76.4c23.2,38.9,83,43,116.9,16.6C47,459.1,57,419.5,36.3,391.7"/>
			<path id="react-path-229" class="st1" d="M323.4,282.4c-0.7,1.6-6.7,1-6.9-0.8C316.3,278.8,324.5,279.7,323.4,282.4 M329.8,281.4
				c3.4,0.3,9.1,2.6,12.4,1.2c5.1-2.2-0.3-5.5-3-6.5c-2.8-1-6.9-0.5-8.3-3.4c-1.1-2.2,1.6-8.2-1.7-7.3c-3.4,1-2.4,9.7-7.8,6.8
				c-2.6-1.4-1.5-9.9-5.8-5.6c-1.2,1.2-1.3,3.4-2.8,4.3c-1.6,0.9-3.6,0-5.3,0c-4.5,0.2-5.9,4.4-1.4,6c1.7,0.6,8,1.4,4.2,4.1
				c-2.4,1.7-7.8-1.9-9.8,1.1c-2.8,4.1,4.8,4.2,6.8,5.4c3.5,2.1,0.6,7,0.9,10.4c0.4,5.3,3.5,4.2,4.6-0.3c0.9-3.8-0.2-9.3,5.5-7.8
				c9.3,2.5-5.2,14.3,1.6,17.4c4.4,1.9,5-8.5,5.3-10.3c1.3-6.7,5-5.1,10.7-4.9c6.6,0.2,8.2-4.7,1.2-6.1c-2.2-0.4-5.3,0.1-7.2-1.3
				C328.7,284,327.1,281.1,329.8,281.4"/>
			<path id="react-path-230" class="st1" d="M85.7,498.7c-5.4-1.9-14.3-1.5-15.6,5.4c-0.6,2.9,0.5,6,2.5,8.1c2.3,2.4,6,2.7,5.8-1.6
				c-0.1-2.9-2.9-5.5,2-6.1c3.1-0.4,7.6,1.9,7.7,5.3c0.3,7.6-12.8,8.2-17.7,6.9c-9.6-2.6-7-12.7-0.4-17.3c1.7-1.2,6.6-3,6.8-5.5
				c0.3-3.3-3.8-2.6-5.7-2.2c-14.6,3.2-17.8,27.7-2.5,32.3c6.9,2.1,16.7-0.1,20.9-6.3C93.4,511.7,93.5,501.4,85.7,498.7"/>
			<path id="react-path-231" class="st1" d="M-108,325.4c-4.6,2.2-9.1,4.4-13.7,6.6c-1.5-3.2-4.1-12.1-7.9-13.2
				c-6.2-1.8-2.3,7.8-1.2,10c0.9,1.8,2.9,4.6,2.4,6.8c-0.7,2.9-4.8,3.9-6.9,5.4c-5.3,3.7-5.3,11.5,2.4,8.2c4.3-1.9,9.7-7,13.1-1.2
				c1.5,2.7,5.2,17.9,9,8c2.4-6.1-9-12.5-3.4-17.7c1.8-1.7,3.9-1.8,5.7-2.8C-104.2,333.1-106.6,328.9-108,325.4"/>
			<path id="react-path-232" class="st1" d="M561.6,105.8c-2.7-1-6.1-2.9-9.1-2.3c-3.2,0.7-4.5,3.9-6.9,5.9
				c-6.4,5.3-10.1-2.6-13.6-6.9c-3.3-4.1-7.3-5-12-2.6c-1.9,1-9.7,5.6-8.3,8.5c1,2.1,4.8,0.2,6.2-0.2c2.9-1,5.5-1.9,8.4-0.4
				c5.5,2.7,6.9,10.2,13.5,11.3c6.9,1.2,7.1-5.3,12-7.8c3.3-1.6,5.6,1.3,8.7,0.7C563.7,111.5,565.1,107.1,561.6,105.8"/>
			<path id="react-path-233" class="st1" d="M506.2,132.1c2.4,0.5,4-4.2,5.5-5.4c2.5-2,6.9-2.4,9.5-0.4c5,3.9,3.3,12.3,10.4,14.5
				c6.4,2,9.4-6.4,14.7-8.5c3.1-1.2,6.5-2,5.3-6.4c-0.8-3-3.3-3.8-6-2.6c-4.6,2-6.2,10.1-11.7,10.2c-5.7,0.1-6.3-8-8.7-11.6
				c-3.7-5.4-11.4-6.7-15.7-1.6C508.3,122,501.6,131.1,506.2,132.1"/>
			<path id="react-path-234" class="st1" d="M394,39.3c3.4,2.3,10.1,2.2,13.2-0.6c3.2-2.9-1.1-3.4-3.6-3.3c-2,0.1-5.7,1.1-4.6-2.4
				c1-3,6.5-1.5,7-4.8c-4.1-0.7-8.7-0.5-11.8,2.8C392,33.4,390.8,37.2,394,39.3"/>
		</g>
	</g>
</g>
</svg>
