<?xml version="1.0" encoding="utf-8"?>
<!-- Generator: Adobe Illustrator 24.1.2, SVG Export Plug-In . SVG Version: 6.00 Build 0)  -->
<!DOCTYPE svg PUBLIC "-//W3C//DTD SVG 1.1//EN" "http://www.w3.org/Graphics/SVG/1.1/DTD/svg11.dtd" [
	<!ENTITY ns_extend "http://ns.adobe.com/Extensibility/1.0/">
	<!ENTITY ns_ai "http://ns.adobe.com/AdobeIllustrator/10.0/">
	<!ENTITY ns_graphs "http://ns.adobe.com/Graphs/1.0/">
	<!ENTITY ns_vars "http://ns.adobe.com/Variables/1.0/">
	<!ENTITY ns_imrep "http://ns.adobe.com/ImageReplacement/1.0/">
	<!ENTITY ns_sfw "http://ns.adobe.com/SaveForWeb/1.0/">
	<!ENTITY ns_custom "http://ns.adobe.com/GenericCustomNamespace/1.0/">
	<!ENTITY ns_adobe_xpath "http://ns.adobe.com/XPath/1.0/">
]>
<svg version="1.1" id="Layer_1" xmlns:x="&ns_extend;" xmlns:i="&ns_ai;" xmlns:graph="&ns_graphs;"
	 xmlns="http://www.w3.org/2000/svg" xmlns:xlink="http://www.w3.org/1999/xlink" x="0px" y="0px" viewBox="0 0 1024 768"
	 style="enable-background:new 0 0 1024 768;" xml:space="preserve">
<style type="text/css">
	.st0{fill-rule:evenodd;clip-rule:evenodd;fill:#2D4CC8;}
	.st1{fill-rule:evenodd;clip-rule:evenodd;fill:#1C2540;}
</style>
<metadata>
	<sfw  xmlns="&ns_sfw;">
		<slices></slices>
		<sliceSourceBounds  bottomLeftOrigin="true" height="687.8" width="594.2" x="215.2" y="40"></sliceSourceBounds>
	</sfw>
</metadata>
<desc>Created with Sketch.</desc>
<g>
	<path id="Accent" class="st0" d="M372.1,194.5c-0.7,11.5-1.4,23.1-2.1,34.6c4.5-1.3,33.4-9.8,31.6-1.2c-1.3,6.2-9.4,12.9-13.5,17.2
		c-3.8,4-7.7,7.8-11.7,11.6c7.4-2.8,14.8-5.5,22.3-8c5.7-1.9,11.4-3.7,17.2-5.2c2.2-0.5,8-2.7,10-1.2c5.4,3.9-23.7,32.3-27.7,36.3
		c5.6-2.6,11.4-5,17.3-7c4.2-1.5,17.3-7.1,21.1-2.3c4,5.1-5.9,17-8.7,20.7c-3.9,5.4-8.2,10.5-12.7,15.4c18.7,16.8,40.6,31.7,63.9,41
		c17.1,6.8,33.9,8.5,52,4.8c18.6-3.8,36.3-11.2,53.3-19.6c9.9-4.9,19.7-10.3,29.1-16.3c-3.8-4.7-7.6-9.5-11.2-14.3
		c-5.2-6.9-11.6-14.5-14.5-22.8c-2.9-8.1,8-6.5,13.2-6.1c7.5,0.6,15.1,2,22.4,3.6c-5.2-3.6-10.4-7.4-15.4-11.3
		c-6.6-5.1-15.3-10.8-19.6-18.1c-3.8-6.4,4.5-4.8,8.3-4c9.1,2,18,5.4,26.7,8.8c6.4,2.4,12.7,5,19,7.7c-3.9-3.4-7.7-6.9-11.3-10.6
		c-4.9-4.9-11.4-11-13.6-17.8c-4.4-13.9,25.4-3.4,30.5-1.3c-0.9-14.4-1.9-28.7-2.8-43.1c-39.5,10.5-79,21-118.6,31.6
		c-4.3,1.1-9.6,3.6-14.1,3.7c-4,0.1-8.9-1.7-12.8-2.4l-71.5-13.7C409.5,201.6,390.8,198,372.1,194.5"/>
	<g id="Ink" transform="translate(215.000019, 39.623399)">
		<path id="ink" class="st1" d="M581.9,648.6c-4.3,2.4-9.3,4.3-14,5.6c-2.8,0.7-7.4,3-9.8,0.9c-1.2-1-1.4-3.3-2.1-4.6
			c-1.1-2.1-2.7-3.9-4.1-5.8c-3.5-4.5-7.2-8.9-11.1-13.1c-1.8-2-5.2-6.7-8.4-6.4c-4,0.4-3.9,5.9-2.9,8.8c3.2,9,12.9,16.9,19.2,23.7
			c-1.6,2.5-10.4,2.2-12.9,1.6c-3.7-0.9-4.1-3.6-5.8-6.6c-4-7.1-12.1-11.1-18.8-15.3c-2.4-1.5-7.6-5.8-10.8-4.7
			c-3,1-2.9,4.8-1.9,7.3c1.4,3.8,5.6,6.4,8.6,8.8c4.1,3.2,7.8,6.7,11.1,10.6c-4.9,0.4-9.7,1.1-14.6,1.5c-5.9,0.5-10.8-2.7-16.2-4.6
			c-5-1.7-10-3.1-15-5.1c-5.5-2.2-11.4-3-16.9-4.9c-21.9-7.6-43.5-17.1-64.6-26.7c-10.1-4.6-19.9-9.1-30.5-12.7
			c-7.7-2.6-19.7-7.8-21.5-16.9c-1-4.8,2.6-10,3.1-14.8c0.6-5.7,0.1-11.9-1.6-17.3c-1.5-4.8-4-9.2-6-13.8c-2.3-5.4-0.2-5.3,4.3-5.9
			c5.4-0.7,11.7-3.8,16.7-5.7c5.8-2.3,11.6-5.4,16.9-8.7c4.8-3,9-6.8,12.9-10.9c3.9-4.2,6.4-9.2,10.2-13.5
			c13.9,17.1,27.2,34.5,42,50.9c7,7.7,14.6,14.1,23.2,20c3.6,2.5,7.2,5.3,11.1,7.2c4.9,2.4,10.4,3.9,15.4,6.2
			c19.3,8.5,37.7,17.8,55.8,28.8c8.7,5.3,16,11.4,23.7,18.1C569,632.7,588.5,644.8,581.9,648.6 M355.3,508.2
			c-3.1,1.4-6.1,3.3-9.4,4.2c0.9-5.7,6.3-14.4,13.2-13.5c2.6,0.4,4.6,2.4,3.5,5.2C361.5,506.6,357.6,507.1,355.3,508.2 M138.1,352.4
			c-3.5,2-6.8,3.1-8.9-1.1C130.7,350.9,137.7,350,138.1,352.4 M132.2,340.5c-2.7-0.8-0.5-1.7,0.4-2.7c0.7-0.8,3.2-3.5,4-4
			c3.8-2,6.6,5.4,8.4,7.8C140.8,341.3,136.3,341.8,132.2,340.5 M161.4,366.1c-5.2,0.9-4.6-5.6-4.5-8.9
			C158.1,358.5,165.5,365.4,161.4,366.1 M178.6,354.9c-6.3,1.1-10.5-9.9-9.4-14.6c1-4.2,5.9-6.6,9.8-7.2c3.8-0.6,9,0.2,10.2,4.6
			C190.2,341.5,182.8,354.2,178.6,354.9 M328.2,519.7c-4.5,1.4-9,1.6-13.6,2.9c-5.2,1.6-10,1.4-15.2,2.5c-2.1,0.4-7.8,3.5-9.9,2.8
			c-2-0.7-5-7-6.2-8.7c9.2-3.8,17-8.7,23.1-16.8c4.8-6.4,10-16,6.9-24.2c-3.4-9.3-15.2-11.3-23-7.4c-3.7,1.8-7.4,4.1-10.5,6.9
			c-3.5,3.2-4.9,6.7-7.1,10.6c-2.3,4-3.9,1.8-6.2-1.6c-2-2.9-1.7-5.8-4.1-8.7c-1.2-1.5-3.2-2.9-3.8-4.8c-0.4-1.2,0.5-3.3-0.3-4.3
			c-1.1-1.3-2.4,0.2-3.4-0.9c-0.7-0.9-0.5-2.8-1.1-3.9c-0.6-0.6-1.3-1.1-2-1.6c-0.9-0.4-1.1-1-0.5-1.7c-0.7-1.3,0-1.8-1.6-3.4
			c-2.4-2.5-4.5-4.9-6.2-7.8c-0.8-1.4-0.7-3.4-1.7-4.5c-1.3-1.6-3.5-1.4-4.6-3.4c-1-1.8-0.3-4.9-2-6.5c-0.9-0.3-1.8-0.5-2.6-0.7
			c-0.7-0.6-1-1.4-1.2-2.3c-0.9-1.4-1.1-3.1-2.3-4.6c-2.2-2.9-5.2-5.5-7.2-8.6c-2.1-3.2-1-3.7,2.6-4.9c3.3-1,6.2-2,9.2-3.7
			c13.9-8.1,27.2-29.6,5-36.2c-8.2-2.4-15-9-24.1-6.4c-3.9,1.1-7.7,3.5-10.6,6.3c-2,2-3.9,7.2-6.4,8.2c-4.5,1.8-2.6-2.7-3.9-4.8
			c-0.6-1-3.1-2.1-4-3c-1.1-1.1-2.1-2.4-2.8-3.7c-1.4-2.4-2.2-3.8-4.2-5.7c-0.7-0.7-4.5-4.6-1.1-4.1c-1.4-4.1,0.6-4.8,3.4-7.8
			c3.2-3.6,6.6-8.5,6.6-13.5c0-9.6-11.3-13.9-18.4-8.2c-1.4,1.2-10,12.3-8.3,5.2c0.9-3.8,9.7-13.9,13.8-11.3
			c-4.6-6.6-15,9.5-17.4,12.8c-2.1-3.8-2.2-6.8-5.7-9.8c-2.8,4.5-1.3-0.4-1.9-1.4c-1.3-2.2-0.6,0.3-1.3-0.5c-0.9-1-2.3-1.7-3.3-3
			c-1.6,2.2-1-0.2-1.5-1c-1.2-1.9-0.7-3.1-2.7-4.8c-1.5-1.2-4.4-3.1-6.3-3.3c-2.3-0.2-2.9,0.7-5.2,0c-2.9-0.8-6.7-2.1-5.2,2.9
			c1,3.6,5.3,5.6,6.2,9.3c0.9,3.7-2.7,7.4-4.5,10.4c-2.3,3.9-4.1,3.6-8.2,4.4c-2.6,0.6-6.1,1.8-3.9,4.9c1.6,2.3,5.4,1.8,7.5,3.1
			c3,1.9,2.9,6.6,6.7,7.4c4.2,0.9,6.6-3.8,10.1-4.9c2.5-0.8,10.3-0.7,12.3,1.2c2.7,2.6,0.4,7.5,1,10.7c1,4.7,4.2,5,8.3,5.2
			c5,0.2,6.7,5,9.4,8.8c6.3,8.9,11.7,18.4,18.2,27.2c2.8,3.9,7,7.3,9.3,11.6c2.9,5.2-1.1,8.2-4.6,12c-4.5,4.9-7.9,10.4-11.8,15.8
			c-3.5,4.7-7.8,3.6-13.3,3.6c1.2-2.6,2.7-4.1,5.8-3.8c-3.2-3.9-5.7,0.6-7.8,3c-3,3.6-6.9,4.4-10.7,6.8c-1.4,0.8-8.8,6.2-6.5,8
			c0.3,0.2,12.5-7.8,13.9-8.6c0,3-0.7,6.1-0.2,9c0.3,2.2,1.8,4.4,1.5,6.7c-0.6,4.3-6.1,7.6-8.5,10.9c-1.8,2.5-1.3,4.5-2.3,7.1
			c-0.8,2.4-0.4,1.7-2.4,2.5c-4.2,1.5-11.2,0.7-15-1.5c-2.4-1.4-4.2-3.5-6.1-5.4c-1.4-1.4-5.1-3.9-5.5-5.9
			c-0.7-3.4,6.1-9.8,7.5-13.3c3.8-10-2.7-17.8-12.9-18.3c3.1-2.4,7-0.6,10.3,0.3c-5.6-7.8-15.3-1.4-20.1,3.9
			c-3.3-8.3-4.8-17-6.8-25.6c-1.4-5.9-6.5-16.3-4.2-22.4c1.1-2.9,4.3-4.6,6.5-6.6c2.5-2.3,4.6-5.1,6.4-7.9
			c4.3-6.7,6.7-15.2,0.9-21.8c1.8-0.3,3.6-0.6,5.4-0.9c-2.9-2.7-7.5-1.4-11.3-2.2c-2.4-0.5-9.3-0.2-10.9-1.5
			c-1.9-1.6-0.7-9.1-0.6-11.3c0.2-5.2,0.6-10.2,1.2-15.3c0.5-4.9,0.4-10.1,1.4-14.9c0.8-3.9,3.4-5.1,6.4-7.3
			c7.2-5.5,13.1-12.1,10.6-21.5c0.9-0.1,1.7-0.3,2.6-0.4c-2.8-2-6.5-1.3-9.6-2.4c2.9-8.1,9.2-22.3,19.6-23.1
			c0.4,3.6,0.1,7.9,2.6,10.9c2.8,3.4,7.7,3.8,11.4,1.9c3.4-1.6,6.6-5.1,8.2-8.5c1.1-2.3,0.9-6.2,2.7-8.1c2.5-2.5,19.8-1,19.3,3.2
			c-0.3,2.4-4.9,6.6-6.2,8.7c-2.4,4-4.3,8.3-5.1,12.8c-1.3,6.9-0.6,16.1,6.5,19.7c8,4.1,17.7-1.1,24.3-5.7c3.6-2.5,7.1-5.3,10.4-8.2
			c1.8-1.5,3.5-3.1,5.1-4.9c1.1-1.3,2.1-3.4,3.5-4.3c3.3-2.3,6.6,1.6,9.4,3.6c4.6,3.2,9.1,6.2,14,8.9c10,5.4,19.1,12.5,27.9,19.6
			c8.9,7.1,18,14.5,25.2,23.4c-4.3,2.7-3.6,3.4-5.5,8.1c-1.4,3.4-3.3,6.3-3.5,10c-0.4,6.5,3.8,12,10.1,13.5
			c3.5,0.8,6.9,0.2,10.2-1.3c2.5-1.1,5.1-3.9,7.7-4.6c4.9-1.3,8.9,8.1,11.7,11.4c12.3,14.6,25.3,28.6,36.9,43.9
			c1.3,1.7,5.1,5,5.4,7.2c0.4,3.2-4.6,6.3-6.7,8.1c-1.1,1-12.7,11.9-8.8,13.6c1.1,0.5,4.4-6.2,5.2-6.8c3.1-2.2,0.7,2.1,0.6,4.2
			c-0.5,5.3,3.2,8.2,8.3,7.5c5.5-0.7,10.3-5,13.7-9.1c4.2,4.9,10.8,12.3,12.1,18.9c0.8,4.2-2.8,14.4,3.9,15.3c1,0.1,4.8-2.6,5.5-1.1
			c0.6,1.3-3.5,3.6-4,4c-2.5,1.9-4,3.8-6,6.1c-2.4,2.6-5.6,4.9-8.2,7.4c-2.8,2.7-8.3,9.9-12,6.4c-1.9-1.8-1.4-4.1-4.3-5.1
			c-2.7-0.9-6.1,0.3-8.6,1.3c-2.8,1.2-12.1,5.4-13.2,9c-1.4,4.9,6.3-1,7.6-1.8c-1.6,4-2.4,9.7-6.4,12
			C336.5,517.5,331.8,518.6,328.2,519.7 M275.4,489.8c2.6-8.5,18.2-23.6,28.1-18.9C292,473.3,282.9,481.1,275.4,489.8 M281.2,514.1
			c-3.8-2.1-3.6-8.4-5-12c-0.8-2.1-2.3-3.6-1.9-5.9c0.5-2.7,4-5.7,5.8-7.7c5.8-6.2,16-14.6,25.3-13.2c11.9,1.8,3.8,17.8-0.2,23.2
			C301.9,503.2,288.6,518.2,281.2,514.1 M253.5,503.7c-12.9-0.9-25.7-2-38.3-4.4c-4.5-0.8-8.3-0.7-5.7-5.9c0.8-1.7,6-12.4,7.1-12.1
			c0.7,0.2,0.5,7.5,0.7,8.4c0.9,3.8,3.5,7.3,7.8,7.1c7-0.4,11.6-9.5,15.3-14.4c3,4,5.1,8.4,8.1,12.3
			C249.9,496.6,254.8,501,253.5,503.7 M178.2,453.2c-2.2,4.9-6.5,9.7-9.5,14.1c-1.7-3.6-2.9-11.9,1.1-14.6
			C171.3,451.8,179.5,450.1,178.2,453.2 M222.7,468c0.6-1.9,1.3-3.8,2-5.6C226,466.3,226.6,466.4,222.7,468 M233.7,472
			c1.6,2.6,4.2,5.2,3.8,8.6c-0.3,2.5-2.6,5.1-4.2,6.8c-2.7,2.9-8.6,8.5-12.5,4.6c-3.3-3.2-2.1-12.1-0.6-15.7
			C222.3,471.2,230,465.7,233.7,472 M226.1,466.6c0.9-0.4-1-6.1,0.8-6.7C228.4,463.4,229.8,464.3,226.1,466.6 M201.5,388.9
			c-0.6-2.1-1.9-2-1.4-4.7c0.3-1.7,1.7-3.6,2.7-4.9c2.1-2.7,4.8-5,7.8-6.7c6.2-3.6,14.8-5.1,20.4,0.5c-5.2,0.8-21.2,6-21.3,13.1
			c5.8-1.1,10.4-6.9,16.2-8.8c4.8-1.5,10-1.4,14.7,0.2c13,4.4,7.6,15.6,0.3,22.9c-4.4,4.3-9.6,7.6-15.3,9.8c-2.6,1-4.3,1.1-6.9,0.6
			c-0.5-0.1-1.1-1-1.6-1.2c-1.5-0.5-1,1.1-2.2,0.4c-1-0.6-3.3-4.8-4-5.9c-1.1-1.9-1.7-3.7-3-5.4c-1.4-1.7-2.1-4-3.3-5.6
			c-0.6-0.7-2.3-0.7-2.8-1.4C201,390.9,201.9,390.1,201.5,388.9 M181.6,472.8c3-5.1,8-9.5,11.9-14
			C193.7,466.2,188.4,471.3,181.6,472.8 M185.6,475.2c6.1-2.1,9.5-7.3,10.1-13.5c0.8-7.9,5.7-12,8.7-19.1c1.1-2.7,2.5-11.7,6.9-9.1
			c1.5,0.9,2.4,4.2,3.2,5.7c1.9,3.6,4.1,7.1,6.1,10.7c1.7,2.9,4.1,5.8,3.4,9.3c-0.6,3-2.7,6.3-3.9,9.1c-2.8,6.7-6.6,13-9.7,19.6
			c-1.3,2.7-2.7,9-6.6,8.9c-3,0-2.7-3.3-4.7-4.5c-2.5-1.4-5.4,1.3-7.5,2.4c2.4-4,6.6-6.3,11.2-5.6c-5.6-5.6-9.4,2-14.2,3.6
			c-4.6,1.6-12.7-5.9-16.5-8c1.5-2.5,2.8-5.5,5.3-7.2C180,475.9,182.9,476.1,185.6,475.2 M135.9,526.3c0.7-3.2,2.6-5.1,3.8-8
			C141,521.8,137.8,523.9,135.9,526.3 M232.9,546.1c-0.3,10.8-1.2,21.7-1.5,32.5c-0.1,5-1,9.8-1.6,14.7c-0.5,4.2-0.2,8.3-2.9,11.9
			c-4.2,5.6-12.2,7.3-18.5,9.3c-4.6,1.5-9.3,2.9-13.8,4.6c-4.1,1.5-7.4,3.9-11.3,5.7c-3.5,1.6-7.2,2.6-10.7,4.3
			c-3.6,1.8-6.4,4-10.1,5.6c-4.4,1.9-8,5.3-11.9,8c-3.4,2.4-7.1,4.2-10.1,7.2c-2.8,2.8-6.3,4-9.4,6.5c-3.3,2.6-6.8,4.4-10.5,6.4
			c-7.5,4.2-17.7,11.5-26.8,7.4c2.6-3.3,7.9-6.5,8.3-11.1c0.5-5.9-4.7-3.8-7.6-1.9c-4.5,2.9-7.1,6.3-10.5,10.2
			c-4,4.5-9.1,1.5-14.1,0.2c3.4-3,6.7-6.1,10.1-9.2c2.8-2.6,7.2-5.4,8.9-8.9c1.2-2.5,1.2-6-1.8-7.4c-3.3-1.5-7.1,1.6-9.6,3.5
			c-6.6,4.9-10.9,11.2-15.2,18c-2.3,3.6-3.4,3.4-7.6,2.6c-4.5-0.8-9-1.6-13.5-2.1c6-6.1,12.7-12.8,17.4-20c1.5-2.3,3.5-8.5-1.1-9
			c-1.9-0.2-5.8,3.7-7.2,4.8c-6.5,4.6-12.7,10.5-17,17.2c-1.4,2.2-1.9,4.7-4.6,4.9c-3.6,0.2-10.3-3.2-13.7-4.2
			c6.6-8.3,13.2-16.8,20.9-24.1C43,627,50,622.1,58.4,616.9c8.9-5.6,17.2-12,25.4-18.5c7.8-6.3,16-12.2,23.2-19.2
			c14.4-14,27.2-30.2,37.8-47.2c2.5-4,4.8-8.1,6.8-12.3c1.9-4,2.8-8.8,5.3-12.4c0.9-1.3,2.1-2.2,2.9-3.5c0.7-1.2,0.5-2.7,1.6-3.8
			c2.6-2.5,7.4-1,9.9,0.8c3.9,2.8,7.1,6.3,11.5,8.7c4.4,2.4,9.1,4.1,13.9,5.3c11.3,2.7,22.5,5,34,6.7c-1.2,4.4,1.7,5.1,2.7,9
			C234.6,535.2,233.1,541.2,232.9,546.1 M124.2,472.9c-2.6-3.8-4.8-7.8-7.4-11.6c-1.5-2.3-3.4-4.8-2.1-7.7c2.2-4.8,10-5.7,14.2-3.6
			C138.6,454.8,129.7,468.4,124.2,472.9 M98.8,385.9c-0.9-7.4,2-12.7,8.7-16.6c4.8-2.8,8.7,1,8,6.1c-1,7.7-9.2,16.3-15.5,20.3
			C99.6,392.5,99.2,389.2,98.8,385.9 M97.8,364.7c2-1.6,7.3,0.4,9.6,0.6c-3.2,2.8-6.3,5.5-9.5,8.3C97.7,371.6,96,366.1,97.8,364.7
			 M108.5,292.9c16-2.1-2.4,15.1-7.1,17.8C102.2,307,104,293.5,108.5,292.9 M151.1,262.8c-2.1,8.8-18.8,18.4-19,4
			c-0.1-5.4,3-4.9,7.4-5.4C141.9,261.1,152.3,257.8,151.1,262.8 M93.4,276.5c-1.9,4.9-3.4,10-5.2,14.9c-0.8,2.2-1.8,3.7-3.3,5.4
			c-1.3,1.4-2.8,1.8-2.7,4.1c1.6-0.3,2.8-1.3,4.1-2.2c-0.3,4.5-1.9,9.4-2.7,13.9c-0.9,5.4-1.7,10.8-2,16.3
			c-0.6,11.9-0.6,23.8-0.4,35.8c0.1,6.1,0.2,12.2,0.5,18.2c0.2,3,0.3,6.1,0.7,9.1c0.2,1.2,1,3.8,0.5,4.9c-2.1,4.5-11.6-7.8-15.7-6
			c0.6-3.4-0.8-2.7-3-4.3c-1.1-0.8-1.8-2.2-3-2.9c-0.3-0.4-0.7-0.7-1.1-1c-0.5-0.6-1-0.6-1.5,0.2c-4.6-2.8-5.8-8.7-8.3-12.6
			c-1.3-2-2.5-2.4-2.7-5.2c-0.2-2.5,0.2-5,0.1-7.4c-0.1-2.8-0.3-5.9-1.1-8.5c-0.9-3.1-2.2-2.9-4.6-4.5c0.7-0.3,1.2-0.9,1.5-1.6
			c-0.8,0.1-3.1,1.1-3.7,0.4c-1.2-1.4,1.6-1.5,2.3-2.1c-3-1.4-2.4-2.5-1.3-4.9c0.3-0.7,0.6-1.8,0.9-2.3c0.6-1.3,0.9-0.5,1.1-2.1
			c0.2-1.5-1.2-4.5-1.6-6.2c-0.7-2.7-1-5.1-0.4-8c0.5-2.3,1.8-4.4,1.9-6.8c0-0.7-1-0.9-1-1.5c0-0.9,0.9-1.4,1.1-2.2
			c0.6-2.2,0.3-4.6,1.3-6.7c0.9-1.9,2.7-4.3,4-6c0.9-1.1,3.1-2.4,3.3-4c0.2-1-1.4-0.9-1.3-1.6c0.1-1,1-1.4,1.2-2.1
			c0.6-2.1,0.8-4.1,2.5-5.7c2.1-2,3-1.2,3.1-4.5c0-1.6-1.3-1.9-0.6-3.7c0.4-1,1.5-1.6,2.2-2.3c2.1-2.1,3.5-4,5-6.7
			c1.3-2.3,3.5-3.7,4.8-5.7c1.8-2.6-0.9-3.9,2.7-4.7c-0.5-1.6-1.1-2.9,0.3-4.3c0.8-0.9,3-0.3,3.8-1.3c0.9-1.2-0.4-3.9,0.9-4.6
			c1.1-0.6,2.6,1.3,4.3,0.3c1.3-0.7,3.2-4.6,2.8-6c3.3,1.8,2.5,0.6,4-1.8c0.4-0.5,1.4-0.6,1.7-1.2c0.6-1.1,0.5-2.2,1.3-3
			c1.5-1.4,3.8-1.1,5.4-2.1c1.3-0.9,1.2-1.8,2.3-2.6c0.9-0.7,2.4-0.8,3.3-1.5c1.7-1.4,1.7-2.9,3.9-4.1c2.5-1.4,4.8-2.6,7.1-4.5
			c1.5-1.2,2.9-3.4,4.7-4.2c2.4-1.1,4.3-1.2,6.7-2.8c1.7-1.2,3.3-3.1,5-4c1.3-0.7,2.2-0.6,3.8-1c2.9-0.8,3.6-3.5,6-4.7
			c1.6-0.8,4-0.1,5.8-0.5c5.5-1.2,11-3.9,16.5-5.4c6.8-1.8,13.6-3.4,20.4-5c-6.3,8.5-14.3,16.2-22.4,22.9
			c-2.7,2.2-17.2,12.3-9.4,16.6c3.2,1.7,10-3.9,12.6-5.2c5.1-2.8,10.4-5,15.8-7.2c8.7-3.6,20-10,29.7-9.5
			c-5.9,7.2-13.2,13-19.9,19.4c-6.2,5.9-15.5,11.3-12.6,20.9c-8.7-2.2-16.5-4.8-25.5-4.2c-4,0.3-8.1-0.2-12.1,0.3
			c-4.4,0.6-8.5,2.1-12.7,3.4c-3.3,1-7,1.1-10.1,2.8c-1.5,0.8-3.3,2-4.6,3c-1.8,1.4-2.2,2.2-3.6,4
			C101.1,262.8,96.3,268.7,93.4,276.5 M66.3,396.7c-0.3-1.1-0.5-2.1-0.8-3.4C68.2,395,68.2,395,66.3,396.7 M45.4,361.7
			c-0.3,0.5-1.8,0.6-2.2,0.2c-0.5-0.5,0.8-2.5,1.1-2.9C44.8,359.4,46,360.8,45.4,361.7 M39.5,348.9c0.4-1.3,0.7-2.7,1.1-4
			c0.4,1.2,2.5,2.6,2.5,3.8C43.1,349.5,39.9,349.1,39.5,348.9 M40.7,350.8c3.2,2.1,3.5,4.5,3.6,8.1C40.5,357.6,41,354,40.7,350.8
			 M95.7,208.7c-0.3,0.9-1.7,3.6-2.7,1.7C92.8,209.8,95.1,208.9,95.7,208.7 M94.8,205.8c0.8-0.7,2.4,0.2,3.2-0.4
			c0.6-0.4,0.4-0.8,0.7-1c0.1,0,0.9-1.8,1.2-2.1c0.6-0.7,1.9-1.1,2.7-1.7c2.1-1.7,3.2-4,4.6-6.3c1.6-2.7,2.1-3.1,4.6-4.3
			c1.7-0.9,3.1-1.9,4.5-3.4c1.6-1.7,1.5-2.9,2.8-4.8c0.7-0.9,1.6-1,2.4-1.8c0.9-0.9,1.4-2.1,2.2-3c0.4-0.4,1.5-0.4,1.8-0.7
			c0.3-0.4,0.5-2.1,0.8-2.4c0.5,0.7,1,1.4,1.5,2.1c2-3.5,3.5-6.4,6.8-8.8c3.5-2.5,6.6-6.1,10.2-8.3c0.8-0.5,2.5-0.7,3.1-1.4
			c1.1-1.2,0.1-2.3,0.9-3.4c0.9-1.2,2.6-0.2,3.7-0.7c1.4-0.6,1.8-2.5,3.6-2.3c-5.9,7-5.9,18-6.2,26.8c-0.1,3.8,2.2,5.7-1.3,8.5
			c-3,2.4-7.2,1.7-10.8,3.2c-4.4,2-9.2,3-13.7,4.7c-4.7,1.8-8.5,4.8-13,6.9c-4,1.8-6.7,4.4-10.3,6.6c-1.4,0.8-3.5,2-5.1,1
			C94.8,208,93.5,206.9,94.8,205.8 M162,146.8c0.3-1,5.3-3.6,6.6-4.5c1.9-1.3,4.6-4.4,6.7-3.2c0.7-2.9,3.6-6.1,6.1-6.7
			c2.8-0.7,7.5-3.1,10.3-5.1c0.8-0.6,1.1-1.5,2-2.1c1.6-1,3.3-0.4,4.8-1.8c0.2-0.2,2.4-3.8,2.5-3.8c0.1,0.4,0.2,0.8,0.3,1.2
			c1.7-0.9,3.1-1.6,4.2-2.8c0.2-0.3-1.3-1-0.8-1.5c0.6-0.6,1.9,0.1,2.5-0.5c-1.8,9.1-0.5,20.9,8.8,25.5c-11,1.2-21.8-2.1-32.9-0.1
			c-5.3,1-10.8,2.6-15.6,5c-3,1.5-6.8,6.9-9.7,4.3C158.8,149.1,160.6,148.1,162,146.8 M215.4,120.5c4.1-5,10.4-7,16.6-5.2
			c7.4,2.1,4.3,7.3,3.1,13c-2.1-3.1-6.7-6.2-10.6-6.3c-5.6-0.1-3.5,4.5-0.1,6.2c3,1.5,8.2,1.9,10.4,4.7c2.1,2.7,1.3,7,1.6,10.2
			c-1.6-0.2-3.3-0.5-4.9-0.7c1.4-7.3-4.7-7.7-10.3-9.8C215.5,130.4,210.7,126.2,215.4,120.5 M233.9,102.4v6.8
			c-2.3-1.3-4.6-2.6-6.9-3.9C229.3,104.4,231.6,103.4,233.9,102.4 M252.3,156.9c7.6,2.1,15.2,4.3,22.6,7.1c2.7,1,5.6,1.4,8.2,2.6
			c2.5,1.1,2.9,1,2,3.2c-2.5,6.1-8.4,5.1-13.5,4.1c-8.1-1.5-16-3.5-23.9-5.4c-7.8-1.9-15.7-3.1-23.4-5.4c-7.9-2.4-15.5-4.7-23.6-6.3
			c-2.4-0.5-21-2.2-20.9-4.1c11.8-1.5,23.9,0,35.7,0.1C227.7,153,240.4,153.6,252.3,156.9 M241.9,133.2c0.1-4.2,0.2-8.4,0.7-12.6
			c3.5,4.3,6.7,5.6,11.1,1.6c4.2-3.9,5.2-5.9,10.5-2.3c4.6,3.2,9,3,14,0.2c3-1.7,7.8-8.6,11-7.2c1.5,0.7,2.6,3.4,4.1,4.4
			c1.9,1.3,4.8,2.1,7.1,2.6c5.3,1.2,8.4-2.2,11.7-5.8c4.8-5.2,4.6-2.2,9.1,1.4c4.9,4.1,9.1,2.1,13.6-1.4c2.7,8,3.7,16.7,4.5,25.1
			c0.3,2.8,1.2,6.8-1.3,8.8c-1.8,1.4-5.6,1.5-7.7,2.2c-7.7,2.8-15.1,6.7-21.6,11.8c-2.5,2-4.7,4.4-8.1,3.9c-3.3-0.4-6.4-3.2-9.1-5
			c-2.9-2-5.7-4.2-9.1-5.3c-2-0.6-5.1-0.4-6.8-1.6c-3.2-2.2,0.6-7.9-0.2-11.7c-0.6-2.9-2.3-9-6.3-7.3c-6,2.5-2.5,12.5,0.8,15.6
			c-6.7-1.2-14.2-2.9-20.7-5.2C244.1,144,241.7,138.3,241.9,133.2 M354.7,153.7c13.8-3.9,26.7-6.5,41.1-7.2
			c6.4-0.3,12.5-0.1,18.8-0.1c3.6,0,6.4-2.9,3.5-6.2c-4-4.6-16.2-2.9-21.6-3.1c-14.5-0.6-27.8,1.1-41.5,5.9c1.5-2.7,4.9-3,7.3-4.4
			c2.9-1.7,4.9-4.5,6.2-7.6c3.3-8.1,0-15.7-3.4-23.1c6.7,1.8,13.6,5.7,20.4,6.7c1.4,0.2,2.3,0.1,3.6,0.6c0.8,0.3,1,1.4,2,1.6
			c0.5,0.1,1.6-0.9,2.1-0.8c2.1,0.6,0.4,0.7,1.7,1.6c1,0.7,0.9,1.5,2.8,1.2c0.8-0.1,1.7-1.4,2.2-1.5c0.6,0,0.4-0.7,1.3-0.5
			c1.6,0.4,1.4,2.4,1.9,3.4c0.6,1.1-0.2,2.5,1.5,3c1.3,0.4,1.6-0.9,2.7-0.8c0.7,0.1,2,1,2.6,1.6c1.9,1.8,4.4,3.9,6.9,5.1
			c-0.2-0.2,1.2-0.8,0.8-1c-0.2-0.1,1.3,0.3,1.2,0.3c1.4,0.3,2.2,2.5,2.9,3.3c1.3,1.5,3.4,3,5.3,3.7c3.2,1.1,3.1-0.2,4.3,3.6
			c2.3-3.6,3.2,2.4,6,3.1c1.5,0.3,1.3-0.3,2.7,0.5c0.9,0.5,1.5,2.2,2.2,2.9c0.3-1.1,0.6-2.3,0.9-3.4c2.1,3.9,6.5,10.1,11.4,9
			c0,1.1-0.4,2.3,0.4,3.2c0.6,0.6,1.5-0.1,2,0.3c0.4,0.3,1.3,1.6,1.6,1.8c0.6,0.4,1.7,0.7,2.2,1.1c0.5,0.4,0.7,2.1,1.2,2.7
			c0.9,1.2,2.6,1.4,3.4,2.8c0.2-1.4,0.4-2.8,0.5-4.2c1.5,1.2,1.7,2.1,2,3.8c0.5,2.5-0.2,1.9,1.5,2.9s2.5,0.9,4.1,2.7
			c1.5,1.7,1.5,2.8,3.7,1c0.4,1.3,0.5,3.1,1.6,4.1c0.8,0.8,4.2,0.8,4.5,2.6c-6.3-5.3-2.2,2.8,0,0c0.5,3,2.6,3.9,5.1,6
			c2.3,2,2.7,1.8,3.5,5.1c0-0.1,1.2,0.7,1.2,0.8c-2.2,0.3,1.2,2.8,1.8,3.3c0.4,0.3,1-0.5,1.7,0.1c0.8,0.6,1.5,2,2.1,2.9
			c1.8,2.3,3.1,4.3,5,6.2c2,2,3,4.6,5,6.9c2.2,2.6,3.4,5.6,5.2,8.5c1.7,2.7,4,4.9,6,7.4c3.2,3.9,4.3,12.6,10.2,12.9
			c-0.3,0.4,0.1,3.1,0.2,3.5c0.3,2.4,0.1,4.8,1.5,7c0.3-2.5,1.7-1.6,2.8-0.2c1.9,2.2,0.2,1.7,0.3,3.9c0.1,2.7,0.4,0.6,1.5,3
			c0.8,1.9,1.3,3.1,1.7,5.1c-3.4,0.3-4.9-2.5-6.1-5.1c-0.5-1.1-0.7-2.9-1.6-3.8c-1-0.9-2.3-1-3.3-2c-1.9-2-2.8-5.1-5-7
			c-2.6-2.2-3.1-3.2-5.3-5.8c-2.3-2.9-5.6-4.9-8.1-7.7s-2.3-1.3-5.4-2.3c-3.3-1.1-8.6-11.4-12.8-7.5c0.2-2.6-3.7-5.1-5.7-6
			c-0.9-0.4-1.8,0-2.7-0.7c-0.9-0.7-1-1.9-1.9-2.7c0,0-1.4,0.3-1.7,0.2c-0.6-0.3-0.6-1.4-1.1-1.7c-1.4-1-3.2-2-4.7-2.8
			c-3.7-2-7-4.5-10.6-6.9c-3.1-2.1-6.8-5.8-10.4-6.9c-3.1-1-5.1-0.5-7.6-2.4c-1.4-1-1-1.4-3.2-2c-2.1-0.6-3.3-0.3-4.4-2.6
			c-2-3.9-0.7-11.6-1.1-16.1c-0.4-4.7-0.9-9.5-2.1-14.1c-1.4-5.4-3.4-8.2-9.2-6.9c-11.5,2.5-22.8,4.9-34.3,7.1
			c-23,4.4-45.5,11.6-68,18c-1.7,0.5-11.3,2.7-9.3-2.3c0.9-2.3,6.9-3.1,9-3.8C332.2,160.9,343.3,156.9,354.7,153.7 M350.8,143.6
			c-1.7,0.6-3.4,1.3-5,1.9v-4.7C347.4,141.8,349.1,142.7,350.8,143.6 M343.8,119c1.5,1.2,4.4-1.7,5.7-2.3c2.1-1,4.8-1.8,7.2-1.6
			c4.4,0.4,7.5,4.7,6.8,9c-1.4,7.4-11.8,10.8-17.6,13.7c-0.2-2.6-1-5.7,0.8-8c1.6-2,4.7-1.8,6.1-3.9c3.7-5.2-6.3-5.7-8.5-1.5
			c-0.9-2.7-1.8-5.3-2.6-8C343.7,116,342.7,118.1,343.8,119 M354.2,104.6c-2.1,1.3-4.2,2.7-6.2,4C346.9,104,350.4,103.3,354.2,104.6
			 M543.8,266.7c-2.7,1.3-3.4-1.8-5.4-1.9C540.8,263.4,540.8,263.4,543.8,266.7 M554.9,334.6c0.3,4.5,0.1,9,0.7,13.4
			c0.5,3.4,1.8,6.5,2,10c0.3,7.5-2.2,15.1-7.3,20.6c-4.8,5.2-11.8,9.7-18.3,11.9c-2.9,1-6,3.2-8.9,4c-3.2,0.9-6.2-1-8.8,2.4
			c-1.7-14.9-0.5-30.6-0.6-45.6c-0.1-15.1,0-30.1-2.5-45c-2.3-13.3-6.7-28.2-15-39.1c-3.4-4.4-7.5-8-11.8-11.4c-2.3-1.8-4.5-3.6-7-5
			c-3.9-2.1-7.2-1.8-11.4-2.4c-6-0.9-11.6-1.6-17.7,0.1c-5.6,1.6-11.8,3.4-16.9,6.1c-5,2.7-10.9,3.9-16.1,6.3
			c-3.5,1.7-10.9,7.2-14.8,6.2c-3.8-1-9.4-7.4-11.9-10.3c-3.1-3.7-5.7-8-8.4-12c-1-1.4-2.9-3.6-3.2-5.4c-0.4-3.1,0.8-2.1,3.8-1.7
			c7.7,0.9,14.9,2.3,22.2,4.7c3.6,1.2,10.8,6,14.4,3.1c5.6-4.4-2.9-12.1-6-14.6c-5.3-4.4-11.4-7.6-17.1-11.5
			c-6-4.1-13.9-8.5-17.7-14.9c11.2,3.3,22.5,7.1,33.4,11.4c5,2,9.9,4,14.6,6.6c2.6,1.5,8,5.4,11.1,3.5c6.9-4.1-8.9-16.1-11.2-18.5
			c-3.6-3.8-7-7.6-10.9-11c-2.6-2.3-6.8-4-8-7.4c4.4,1.6,7.9,4.7,12,6.8c2.1,1.1,4.1,1.7,6.5,2.1c2.5,0.4,2.8,0.8,4.8,1.8
			c1.5,0.8,3.1,1.8,4.9,2.4c1.2,0.4,3.4,0.4,4.5,1.1c0.6,0.8,1.1,1.6,1.7,2.3c0.7,0.2,1.3,0.4,2,0.7c1,0.9,1.5,2,2.5,2.9
			c6.8,6.4,15.9,11,23.5,16.4c7.2,5.1,14.8,9.7,21.7,15.2c7.9,6.4,16.2,13.2,23,20.9c3.8,4.3,7,9.2,10.2,14c2.3,3.5,5.7,6.3,7.7,9.9
			c4.4,7.8,8,16.2,12.7,23.9C547.9,317.3,554.2,325.1,554.9,334.6 M490.3,379.7c1.3-5.4,8.7-11.7,13.4-14.1
			C501.4,371.5,495,375.6,490.3,379.7 M502.5,398.6c-4,8.4-21.7,9.3-19.3-3.1c1.2-6.1,6.2-9.8,10.5-13.7c2-1.8,6.8-8.4,9.9-7.3
			c-0.1,4.7-0.4,9.4-0.4,14.2C503.1,391.8,503.9,395.6,502.5,398.6 M497.4,302.3c1.6,3.7,3.3,6.7,0.2,10c-1.4,1.5-5.8,4.7-7.8,4
			C483.3,314,495.6,303.9,497.4,302.3 M458.2,269.6c1.6-0.1,3.1,0.1,4.6,0.1c1.5-0.1,1.7-0.4,3.1-0.2c0.2,0.2,0.3,0.4,0.5,0.7
			c0.2,1.5,1,1.6,2.3,0.5c1.9,0.4,3.1,0.7,4.9,1.7c-4.8,3.5-10.7,7.5-16.6,8.7C447.6,282.9,450.2,270.1,458.2,269.6 M315,347.8
			c-1,1.9-3.8-2.9-4.4-3.8C311.8,344,316,345.8,315,347.8 M390.1,296.5c7.3-4.2,15.9-8,23.7-11.1c1.4,6.6-5.3,15.1-9.4,19.6
			c-3.3,3.7-7.3,7.4-11.9,9.5c-4.9,2.3-10.2,1.3-10-5.1c0.1-2.3,0.6-6.1,1.6-8.2C385.3,298.5,387.6,297.9,390.1,296.5 M292,176.4
			c1.1-0.1,12.8-1.6,12.8-0.1C304.5,180.6,293.1,177.2,292,176.4 M209,261.1c6.2-7.6,16.2-15.9,16.4-26.6c0.2-15.7-17.2-7.9-26-7.2
			c4.6-4.6,28-23.7,14.2-30.5c-4-2-9.6,0-13.6,1c-7.1,1.8-13.6,5-20.6,7.1c5-5.3,13.5-11.3,13.2-19.3c-0.3-9.7-8.3-7.4-15.2-5.9
			c-2.7,0.5-14.5,5.3-16.7,2.1c-0.8-1.2,0.5-2.7,0.8-3.7c0.5-1.8,0.3-2.5,0.4-4.4c0-3.8,2.6-8.7,0.5-12.2c-0.5,0.8-0.9,1.6-1.2,2.5
			c-0.7-2.1-0.2-4.2-0.9-6.3c17.2,4.4,34.8,6.8,52.1,10.6c8.8,1.9,17,5.2,25.9,6.7c9,1.5,17.8,3.8,26.8,5.2
			c8.2,1.3,16.1,3.4,24.2,5.1c7.9,1.6,16-1.9,23.8-3.7c17.3-4,34.6-8.1,51.9-12c20-4.5,40.8-8.3,59.9-15.8c0.4,10,1.2,19.9,2.4,29.8
			c-8.5-4-21-9.2-29.5-2.1c-3.4,2.9-4.5,7.8-3.1,12c1.5,4.6,6,6.7,9,10.1c-9.1-2.3-32.4-18.7-36.6-2.1
			c-2.9,11.7,11.4,19.2,18.4,25.8c-7-1.4-16.3-6.9-20.3,2c-3.5,7.7,0.7,16.1,5.1,22.5c2.4,3.5,5,6.7,7.5,10c1.3,1.8,2.6,3.6,4,5.3
			c1.4,1.7,4,3.5,5,5.4c2,3.7-2,4-5.1,5.3c-3.9,1.7-7.2,4.5-10.7,6.8c-8.1,5.2-15.2,10-24.7,11.6c-9.8,1.7-19.3,3.5-29,5.8
			c-9.7,2.4-17.6,4.6-27.5,1.6c-4.5-1.4-8.2-2.6-13-2.4c-5,0.3-8,0-12.1-3.1C246.6,284.7,227.3,273.8,209,261.1 M176.9,247.7
			c6.9-3.4,13.8-6.9,20.9-9.9c5.9-2.5,14.8-5.3,21.2-4.2c-1.8,4.7-5.1,8.5-8.7,11.9c-3.1,3-7.1,7.6-10.9,9.7
			c-3.5,1.9-7.5-1.1-10.9-2.4C184.9,251.4,179.8,250.7,176.9,247.7 M178.6,265.1c3.4-1.4,10.8,3.4,13.9,4.6c6.1,2.4,12.3,5,17.7,8.8
			c-6.6,7.6-14.1,14.6-22.9,19.5c-5.8,3.2-15.7,6.9-21.2,1.1c-6.9-7.3,1.4-22.3,6.3-28.6c0.2,1.1,0.3,2.2,0.5,3.2
			C174.5,271.2,175.7,266.3,178.6,265.1 M304.4,330.2c-4.3,0.9-5.7,0.1-8.5-3.2c-1.9-2.2-3.8-4.5-5.9-6.5c-2.2-2-7.6-6.9-0.7-4.1
			c6.3,2.6,11.7,3.9,18.6,2.9c7.9-1.2,15.3-4.5,23.1-6.2c-4.3,3.7-8.5,7.5-12.8,11.3C313.6,328.3,310.2,329,304.4,330.2
			 M305.4,360.4c-9.4,7-28.2,6.3-21.9-9.2c1-2.4,2.3-4.6,3.9-6.6c0.5-0.7,1.4-2.1,2.2-2.5c2.1-1.3,1.5-1.4,3.5,0.7
			C294.8,344.5,308.2,359.3,305.4,360.4 M302.6,333.4c0.9-0.3,4.5-2.4,5.3-1.2C308.7,333.4,301.7,337.4,302.6,333.4 M370.8,440.9
			c-2.1,5-19,12.3-15.8,2.2c1.4-4.5,2.7-7.9,7.9-8.2C366,434.6,372.7,436.5,370.8,440.9 M401,372.6c2.8-4,11.9-9.5,15.9-3.5
			c1.9,2.9-2.7,4.4-5.5,3.6c-1.5-0.4-2.7-1.3-4.3-1.4C405,371.3,403,373,401,372.6 M408.4,376.6c-1.9,1.9-13.3,11.5-15.1,10
			C397,381.3,401.3,375.4,408.4,376.6 M389.8,473.5c-4,0.2-2-5.7-1.6-8.1C389.2,467.1,394.2,473.3,389.8,473.5 M399.8,462.9
			c-1.3-2.3-4.7-5.7-3.9-8.6c0.6-2.2,6-5.2,8.2-4C407.1,452,402.8,463.2,399.8,462.9 M493.6,439c-1.7,5.8-3.4,4.3-8.7,5.4
			c-5.3,1.1-9,5.6-13.7,8.1c1.6-3.4,2.6-7.6,5.4-10.4c0.6-0.6,4.5-1.9,2.3-3.4c-1.9-1.3-4.7,2.9-5.5,4.1c-4.1,5.7-6.9,12.6-9.2,19.1
			c-1.2,3.2-2.1,6.5-2.6,9.8c-0.5,3,0,6.1-0.5,9.1c-0.8,4.7-7.2,4.7-11,5.9c-3.5,1.1-6.9,2.3-10.6,2.9c-3.1,0.5-6.4-0.4-9.4,0.2
			c-3.3,0.7-4.8,2.6-8.5,2.2c-3-0.4-5.9-1.8-9-1.9c-2.9-0.1-5.8,0.9-8.6,0.1c-2.9-0.8-2.8-1.1-2.1-4c0.4,0.8,0.8,1.5,1.2,2.3
			c1.2-0.9,2-3.7,2.7-5c1.1-2,2-2.7,1.6-5.2c-0.6-3.7-3.9-6.3-4.7-9.8c-0.8-3.7,1.9-6.7,3.5-9.7c2.2-4.2,2.2-7.3,0.3-11.6
			c1.4,0.4,2.8,0.7,4.2,1.1c-1.9-4.1-8.3-2.5-11.6-1.2c-1.6,0.6-4.2,3-5.9,3c-2.4-0.1-3.7-3.2-4.7-5c-3-5-6.4-10-9.9-14.7
			c-1-1.3-2.2-2.1-1.9-3.6c0.3-1.2,3.1-3,4-3.8c3.4-2.9,7.7-4.4,10.9-7.5c4.8-4.6,10.3-7.8,15.3-12.3c5.1-4.7,10.4-8.9,15.7-13.3
			c5.4-4.5,10.1-9.7,15.4-14.2c1.4,2.5,4.1,11.5,7.2,12.2c3.6,0.8,3.5-3.4,3.3-6c-0.3-3.6-2.3-7.2-2.5-10.7c-0.2-3.7,3.3-5.4,6-7.5
			c4.2-3.3,13.4-10.9,8.4-17.1c-4.3-5.4-18.2,4.9-22,8c-3.3,2.6-5.8,5-9.4,7.1c-2.6,1.5-6.9,7.1-10,6.5c-3.6-0.6-5.1-4.6-9.5-4.5
			c-4.3,0.1-8,3.3-10.7,6.4c-6.1,7.1-8.2,16.6-13.7,24c-2.7,3.7-6.3,6.7-9.3,10.1c-3.3,3.8-4,8.2-7.2,11.9
			c-9.2-12.3-19.2-23.9-28.9-35.7c-4.8-5.9-9.6-11.9-14.3-17.9c-1.8-2.2-3.8-4.4-5.4-6.7c-2.2-3.2-1.8-5.8-2.7-9.4
			c-0.4-1.6-2.2-3.5-1.7-5c0.7-2.1,5.2-3.7,6.9-4.5c6.8-3.4,12.9-7.7,19.2-11.9c11.7-7.8,23.5-15,35.9-21.7
			c-0.2,2.9-2.1,5.8-0.8,8.7c0.6-1.6,1.5-9,3.7-9.3c-0.4,0.1-0.1,9.4,0.3,10.8c1,4,4,6.7,8.2,6.7c8-0.1,15.2-8.8,19.7-14.6
			c3-3.9,5.9-8.5,7-13.4c1-4.4-0.1-7.5,4.5-9.7c9.4-4.6,18.9-8.3,28.9-10.8c-0.5,4.3-1.7,9.7,2.2,12.8c4.3,3.4,10,0.4,14.1-1.9
			s10.3-8.4,15.1-6.6c4.7,1.8,7.9,7.6,10.6,11.5c2.3,3.4,4.8,5.9,2.1,9.7c-3,4.3-4.9,8.5-7.4,13.1c-0.9,1.8-1.8,3-1.2,4.8
			c0.2,0.6,2.6,4.1,3.3,4.7c4.2,3.2,9.8-2.9,12.8-5.3c1,10.1,1.3,20.1,1.7,30.3c0.3,7.4,3.2,14.7-2.9,20.1s-11.2,11-14.9,18.3
			c-2,3.9-3.8,7.9-5.9,11.8c-1.4,2.6-4.4,6.3-2.6,9.3c1.9-1.8,2.5-4.7,4.2-6.7c1,4.3,2,9.1,6.5,11c5.3,2.1,10.5-1.5,15.2-3.6
			C500.1,416.6,496.9,427.8,493.6,439 M488.2,452.3c-3.6,7.7-6.9,17-13.6,22.7c-1.5,1.2-7.7,6.1-10.1,5.3c-2-0.7-0.9-4.8-0.6-6.5
			c1.8-8.8,4.9-14.4,12-20c3-2.3,6.8-5.3,10.6-5.9C490.8,447.3,489.6,449.3,488.2,452.3 M590.2,635.7c-9.4-12.7-22.6-22.7-35.1-32.2
			c-5.7-4.3-11.9-7.6-17.6-11.9c-6.5-4.9-13.1-9.6-20.3-13.3c-13.8-7-28.8-11.9-41.7-20.2c-6.3-4-13.3-7.9-19.2-12.5
			c-2.6-2-4.9-4.5-7.3-6.8c-2.2-2.1-6.9-5.2-7.8-8.3c3.7-0.6,5.7-4.1,9-4.5c1.1-0.1,7.8,1.7,6.9-1.6c2.4-0.1,2.7-0.1,4.8-0.6
			c0.8-0.2,1.9,0.1,2.7-0.2c1.3-0.5,2.2-1.8,3.5-2.3c0.9-0.4,4.4,0,5-0.4c1.4-1.2-0.1-1.1-1-2.7c2.8-0.1,4.7,1.3,7.6-0.2
			c0.9-0.5,1.6-1.5,2.4-2.1c1.5-1,2,0.5,3-1.5c0.9,2.8,0.9,2,3.2,1.2c2.3-0.8,3.9-1.4,6.5-1.6c6.2-0.5,12.4,0.3,18.5-0.2
			c2.2-0.2,4.2-0.7,6.4-0.4c2,0.3,1.4,1.6,3-0.2c0.4-0.4-0.8-1.6-0.3-2.2c0.3-0.3,1.1-0.1,1.4-0.2c2.9-1.3,2.9,0.5,3.4,2.8
			c1.7-0.4,3.4-0.8,4.9-1.7c-0.7-0.7-2-1.4-1.3-2.6c2.4,0.9,4,0.5,2.8,3.2c2.4,0.8,2.9-0.2,5.1-0.5c1.3-0.1,3.1,0.7,4.2-0.4
			c1.2-1.1-0.7-2.4,1.5-3.3c0.4,0.2,0.8,0.6,1,1c1.2,0.4,1,0.8-0.6,1.4c4.3,2.2,3.3-0.3,5.1-2.9c0.4-0.6,2.3-2.5,3.1-1.6
			c1.3,1.4-1.3,1.8-0.8,3.2c1,2.4,4.4-0.7,5.4-1.9c0.8-0.9,1.1-2.6,2-3.3c1.2-0.9,2.9,0.5,4.4,0.3c6.7-1.2,13.1-10.3,8-16.3
			c-1.4-1.6-2.5-1.3-4.1-2.3s-2.5-2.8-3.8-4.2c-2.9-3.3-6.6-5.8-10.7-7.4c-9.6-3.7-19.9-6.4-29.9-8.4c-4.6-0.9-9.6-2.3-14.4-2.3
			c-2.8,0-7,2.2-9.6,1.1c-5.1-2,2.4-12.4,3.6-15.8c3.6-9.9,6.4-20.4,8.2-30.7c0.4-2,0.2-4.7,0.9-6.6c0.8-2.2,1-1.9,2.8-2.1
			c3.2-0.3,6.8,1.4,10.2,0.8c3.7-0.7,7.8-0.3,11.6-1.5c1.7-0.5,3.3-1.1,4.5-2.6c0.4-0.5,0-0.9,0.2-1.2c0.1-0.1,1.4-1.5,1.4-1.6
			c0-0.7,0-1.4,0.2-2.1c1.3,1.1,0.7,3.4,2.9,3.4c0.4-2.4,0.4-2.9,2-4.3c-0.1,0.1,1.2-1,1-0.9c0.1-0.4,0.2-0.8,0.5-1.2
			c0.7-0.4,1.5-0.6,2.4-0.6c1.7-1.8,1-2.7,1-5.1c1.4,0.7,2.8,1.4,4.2,2.2c0.3-7.1,4.6-10.9,7.5-16.7c1.2-2.4,2.5-4.3,2.7-7.3
			c0.2-1.7-0.3-3.2,0.4-4.8c0.6-1.5,2.1-2.2,2.7-3.8c1.2-3.1,0.3-7.1,0.4-10.3c0.1-4.5,0.5-8.9,0.7-13.4c0.3-8.8-0.6-17.8-1.9-26.5
			c-0.6-4.2-1.7-8.2-2.5-12.3c-0.7-3.4-2.3-6.6-2.9-9.7c-0.2-1.3,0.1-2.5-0.3-3.9c-0.5-1.9-1.4-3.8-2-5.6c-1.5-4.4-3-8.7-4.7-13
			c-3.3-8.3-7.1-16.4-10.8-24.5c-3.5-7.8-6.4-15.9-11-23.3c-4.5-7.2-9.3-14.3-14.3-21.2c-5.1-7.2-11.7-13.4-16.7-20.6
			c-9.4-13.6-22.5-24.9-36.1-34.1c-28.2-19.1-58.7-38.2-92.6-44.8c-5.1-1-10.3-1.7-15.5-1.8c-3.2-0.1-8.6,1.5-11.6,0.4
			c-3.4-1.2-3.1-5.1-4-8.1c-1.1-3.9-3.6-6.4-6.4-9.2c-3-2.9-5.7-6.3-9.4-8.2c-3.8-2-8.2-2.7-12.3-3.3c-3.7-0.5-9.3,0-12.7-1.7
			c-3.1-1.5-1.6-3,1.3-1.7c0.2-1.3,0.4-2.1,1.2-3.1c0.4-0.5,2.3-1.2,2.4-1.7s-1.6-2.1-1.8-2.8c-0.5-1.5-0.2-3.6,0.4-5
			c2.9,2.6,3.8,3.7,7,1.3c1.4-1,1.8-1.5,3.4-2c0.4-0.1,1.4,0.3,1.8,0.1c1.4-0.9,0.1-0.7,0.8-1.8c-0.2,0.3,1-2.7,1-2.1
			c0.1-1.6,0.6-1.1-0.3-3c-1.9-3.8-6.7-4-4.2-8.3c1-1.7,1.8-1.5,2.1-4c0.1-1.3,0-2.9,0-4.2c0-2.8,0.5-4.7-2.1-6.1
			c-2.5-1.4-4.8,0.1-5.8-3.2c-1.1-3.5,0-8.1-3.8-10.5c-2.8-1.8-6.8-0.3-9.9-1.1c-3.1-0.9-6-4-9.1-1.6c-2.2,1.7-3.4,6-7.6,3.7
			c-1.9-1-2.9-4.5-4.1-6.5c-1.9-3.1-3.4-4.2-6.4-1.2c-1.8,1.9-5.6,6.4-5.9,9c-0.3,2.9,2.2,4.1-0.9,5.7c-3.1,1.7-4.9,0.4-7.4,3.9
			c-2.5,3.4-0.6,5.3-3.5,8.5c-3.6,4.1-5.6,5.8-5.5,11.3c0,3.7-3.3,7-1.3,10.5c2.2,4,8.5,5.6,12.3,7.3c-1.3,2.4-3,3.9-1.5,6.3
			c1.4,2.2,5.2,2.7,7.5,2.3c1.6-0.3,1.6,0,2.9-1.1c0.8-0.7-0.3-1.6,1.4-2.1c1.8-0.4,4.7,3.1,5.8,4c-2.6,3.4-9.8,4-13.6,5.7
			c-2.3,1-4.4,2.6-6.8,3.5c-2.1,0.9-4.7,0.7-6.7,2c-3.3,2.3-4.7,7.9-6.8,11.2c-2.3,3.7-4.6,5.5-9,6.3c-5.6,1-10,1.4-15.2,3.8
			c-6.3,3-12.6,6.1-18.8,9.3c-10,5.1-19.3,10.4-28.7,16.6c-9.7,6.5-19.2,13.3-28.6,20.1c-9.3,6.7-17.1,15-25.2,23.1
			c-6.5,6.6-12.3,13.7-18.8,20.2c-7.7,7.8-13.3,17.5-20.4,25.8c-3.9,4.5-7.6,8.9-10.1,14.2c-2,4.3-5.4,8.5-7.7,13
			c-2.9,5.8-5.7,11.4-9,17c-1.4,2.3-3,4.3-4.4,6.4c-1.8,2.8-1.7,5.5-2.2,8.7c-0.5-0.8-1-1.6-1.5-2.4c-0.9,2-2.1,4-2.9,6.1
			c-0.5,1.3-0.4,3.2-1,4.4c-0.6,1.5-1.4,1.3-2.2,2.5c-0.9,1.3-1.1,3-2.1,4.4c-3.9,6-5.5,13.7-7.5,20.6c-2.7,9.2-2.3,19.8-2.1,29.3
			c0.2,10,0.7,20.1,2.2,30c1.4,9,4.3,17.6,8.9,25.5c4,6.9,9.5,10.9,16.5,14.4c3.2,1.6,6.2,1.1,9.6,1.4c3.7,0.3,6.3,1.3,10.2,0.4
			c1.9-0.4,2.8-1.8,4.3-2.3c0.9-0.3,1.4,0.2,2.3,0.1c1.3-0.2,3.9-0.8,5.3-0.6c4.3,0.5,3.6,7,4,10.3c0.7,5.1,1.1,10.3,2,15.4
			c1.8,10.7,5.8,20.7,8.2,31.2c-10.9,1.3-20.3,3.4-30.6,7.5c-10.3,4.2-20.7,5.6-31.5,7.6c-10.1,1.9-19.9,5.5-28,12.1
			c-3.8,3.1-7.7,6.6-5,11.7c1.8,3.2,5,4,7.8,5.9c0.6-0.7-1.1-2.2-1.4-2.6c2.3,0.5,2.3,1.6,4,2.5c1.5,0.8,2.7,0.8,4.3,1.4
			c4,1.4,5.9,5,9.9,6c1.2,0.3,2.9,1.1,4.1,1.3c1.5,0.3,2.7-0.4,4.2-0.1c0.8,0.5,1.7,0.9,2.7,1.2c0.6-0.3,1.3-0.6,1.9-0.9
			c2.2,0.2,3.6,1.6,5.4,2.8c0.1-1.4-0.1-2.9,1.3-3.9c0.5,1.4-0.3,2.3,1.1,3.3c1.8,1.2,4.3-0.3,5.9-1.1c0.5,4.7,11.3,4.4,14.7,4.3
			c4.7-0.1,9.5-2,14.2-0.9c2.4,0.5,5,1.1,7.5,1.8c2.9,0.8,6.5,1.6,9.3,2.6c1.1,0.4,2.5,1.8,3.8,1.7c1-0.1,1.2-1.5,2.4-1.5
			c1.3,0,1.7,1.5,2.8,1.9c1.7,0.6,3.2-0.6,4.7,0c0.6,0.2,1.3,1.2,2.1,1.5c1.1,0.5,3.3,0.5,4.5,0.7c1.7,0.3,3.3,0.1,4.8,0.2
			c1.2,0.1,1.2,0.9,1.7,0.9c0.7,0.1,1.8-2.2,2.7-2.5c1.3-0.5,3.6,0.7,4.9,0.9c-9.5,12.9-20.9,24.2-33.3,34.2
			c-13.4,10.7-27.1,21.5-41.4,30.9c-13,8.6-25.6,15.9-35.7,28C13.5,635.1-0.1,646,2,660.7C3.8,675,19.8,681,32.6,683.8
			c16.1,3.5,32.7,2.1,48.9,4.1c6.9,0.8,14.6,0.4,21.5-0.3c8.2-0.9,15.2-6.2,22.3-10.1c12.7-7,23.5-16.3,36-23.5
			c15.6-9,31.1-18.5,48.3-24.5c8-2.8,16.2-6,22.6-11.8c1-0.9,1.7-2.2,2.8-2.9c1.8-1.2,2.3,0,3.4-0.3c0.8-0.3,1.6-1.2,2.3-1.4
			c1.8-0.7,2.6-0.4,4.6-0.4c-1.7-1-3.3-3.6-1.5-5.7c3.1-3.6,3.6,2.1,4.8,3.5c1-1.3,0.6-2.4,0.4-3.8c0.8,0.5,1.7,1.1,2.5,1.6
			c-0.6-2.8,0-5.3,1.4-7.7c1.4-2.2,1.7-1.9,2.1-5c4.2,3.8,5-5.5,5.4-8.9c0.4-3.3,0-5.6,2.2-8.5c2.3-3.1,5.9-5,8.8-7.4
			c4.7-3.8,9.8-8.6,16.2-4.9c5.1,2.9,7.8,9.9,12.6,13.5c2.9,2.2,5.9,2.4,7.8,5.8c1.5,2.7,2,6,3.4,8.9c3.4,6.8,8.3,14.7,13.9,19.9
			c5.2,4.9,11.9,4.9,18,7.9c6,3,12.3,6.2,18.7,8.4c7,2.4,14.5,3.4,21.3,6.3c3.5,1.5,6.6,3.7,10.1,5.1c3.8,1.5,7.8,2.6,11.7,4
			c15.3,5.5,30.2,12.3,46.2,15.4c7.1,1.4,13.7,5.1,20.9,5.8c3.1,0.3,5.6,0.8,8.6,1.5c4.7,1.2,3.7,1.8,5.5,5.8
			c2.9,6.5,9.8,2.6,15.2,2.8c8.6,0.3,17.1-1.1,25.7-1.2c15-0.1,29.5-1.8,44.1-6.7C585.7,664.2,602.3,652.2,590.2,635.7"/>
		<path class="st1" d="M416.3,129.8C416.5,130,417,130.1,416.3,129.8"/>
		<path class="st1" d="M151.4,405.6c3.3-3.3,17.2-2.6,18.2,3.3c1.2,6.6-11.2,16.6-15.8,19.4c-5.8,3.6-13,4.3-12-4.8
			C142.6,416.6,146.7,410.3,151.4,405.6 M162.8,398.8c0.4,1.8-2.7,1.2-3.6,0.8C158.9,398.7,162.4,396.9,162.8,398.8 M138.9,410.9
			c2.8,0.2,5.9-4.2,8-5.7c0.9,1.4-5.2,9.3-5.8,11.1c-1.7,4.5-2.6,10.1-0.3,14.6c6.7,13.1,23.8-5.6,28-12.1c3-4.6,5.1-10.2,0.8-14.7
			c-1.5-1.6-4-2-5.4-3.5c-1.8-2-0.4-4.6-4.1-4.1c-2.5,0.3-5.6,2.6-8.1,3.4c-3,1-5.7,2-8.3,3.9C143.2,404.2,135.4,410.6,138.9,410.9"
			/>
		<path class="st1" d="M334.8,415.3c-1.7,9-10.6,18.2-20,18.5c-9.3,0.4-12.3-9.4-10.7-17.2c1.4-6.6,7.1-18.2,15.3-16.9
			C325.9,400.7,336.3,407.6,334.8,415.3 M328.9,400.3c-5.9-4.6-14.1-6.7-20.9-3.1c-2.2,1.2-11.2,6.4-8.5,10
			c3.7-2.8,6.8-6.8,11.6-7.7c-0.8,3.7-5.4,7-7,10.6c-1.9,4.2-2.9,9-2.6,13.7c0.6,8.2,6.1,14.6,14.6,13.5c7.8-1,14.7-7,18.4-13.8
			C339.5,414.5,336.7,406.3,328.9,400.3"/>
		<path class="st1" d="M274.1,435.6c-4.2,6.2-10.6,12.1-18,14c-9.6,2.5-6.9-5.4-4-11.1c2.5-5,6.9-13.7,13.5-13.6
			c2.2,0,6.4,1.1,8.4,2.3C277.8,429.6,276.3,432.4,274.1,435.6 M265.1,422c1.5-1.7,8.2-8.9,9.1-3.3c1.9-2.2,0.4-4.1-2.1-4.3
			c-3-0.3-6.2,3-8.3,4.7c-4.4,3.4-7.8,6.8-10.7,11.6c-3.2,5.2-11.4,17-4.2,22.2c7.8,5.6,19-4.7,23.9-10.1c3.1-3.4,7.2-8.4,6-13.4
			C277.3,423.2,270.2,422.5,265.1,422"/>
		<path class="st1" d="M232,321.7c-4.3,5-13.2,12.2-20.4,11.3c-6.6-0.8-4-8.2-1.7-11.8c3.5-5.4,8.2-10.5,15.1-10.8
			c2.9-0.1,6.8-0.1,9,2.2C237.1,315.6,234.3,319,232,321.7 M231.6,307.9c-5.1-1.8-7.1-2.4-12,0.4c-4,2.2-7.5,5.4-10.2,9
			c-4.1,5.4-8.2,17.5,2.3,19C223.1,338,250.4,314.4,231.6,307.9"/>
		<path class="st1" d="M247.2,338.8c-3.3,3.4-7.4,6.1-12.1,7.1c2-4.4,6.4-14.1,11.7-15.5c2.4-0.6,5.2,0.2,5,3
			C251.6,335.3,248.5,337.5,247.2,338.8 M251.4,327.1c-2.7-1.4-1.9-2.3-5.1-1.2c-2.5,0.8-5.7,2.3-7.8,4c-1.1,0.9-4.7,4.2-4.2,5.9
			c0.8,3,3.4-1.6,4.1-2.5c1.2,1-4.9,9.7-5.3,11.1c-1.4,5.3,2.8,5.9,7,4.2C245.8,346.1,262.2,332.4,251.4,327.1"/>
		<path class="st1" d="M332.7,470.8c0.4-3.5,1-7.3,4.2-9.3c2.9-1.8,6-1.5,6.4,2.1c0.4,3.4-2.9,9.5-5.6,11.3
			C333.9,477.6,333.2,474.4,332.7,470.8 M337.5,478.9c7.7-4.5,12.6-25.3-1.6-19.5C327.8,462.7,330.8,482.8,337.5,478.9"/>
		<path class="st1" d="M271.5,392.8c1.2-2.5,2.6-3.3,5.1-4.4C274.9,389.9,273.2,391.4,271.5,392.8 M273.3,386.6
			c-1.8,1.8-5.8,4.4-5.2,7.5c0.5,2.8,2.6,2.6,4.5,1.7c4-1.8,6.2-9.7,10.4-10.4C278.4,382.5,277.3,382.6,273.3,386.6"/>
		<path class="st1" d="M273.9,230.1c0.2,8.4,0.4,16.8,0.6,25.2c0.1,2.9-0.6,7.2,0.2,10c0.4,1.2,3.9,6.6,5.2,7
			c4.4,1.2,2.8-9.8,2.9-12.5c0.1-9.1,0-18.3-0.1-27.4c0-4.7,1.3-44.2-4.8-44c-1.1,0-3.6,4.5-4,5.5c-1.2,2.8-0.8,7.1-0.7,10.1
			C273.2,212.7,273.6,221.4,273.9,230.1"/>
		<path class="st1" d="M310.9,254.6c0.3,2.3,0.2,6.2,2.8,7.4c2.3,1,3.1-0.2,4-2.1c2-4.5,1.2-11.3,1.2-15.9
			c-0.1-9.2-1.1-18.3-1.8-27.4c-0.3-4,0.3-8-0.2-12.2c-0.2-1.8-0.4-9.2-3.8-8.9c-3.1,0.3-2.8,8.1-3,10.1
			C308.6,222.1,308.4,238,310.9,254.6"/>
		<path class="st1" d="M456.4,445.6c-1.3,6.7-22.6,29.9-28,16.9c-3.2-7.7,3.7-16.1,9.1-20.6c3.3-2.8,7.5-5.5,12-4.6
			C453.4,438,457.2,441.4,456.4,445.6 M445.4,433.6c-1.5,0.4-14.1,9.2-14.2,9.1c-1.1-1.1,6.8-12.9,7.7-14c6.7-8.5,11.2-2.1,15.4,4.6
			c-0.9-4-3.4-9.8-7.5-11.5c-5.2-2.1-9.3,3.1-11.8,6.9c-3.5,5.4-5.5,11.2-7.5,17.2c-0.9,2.9-2,5.5-3.6,8.1s-4.3,5.4-3.9,8.6
			c2.2-1.2,3.4-3.7,4.8-5.7c1.6,0.6,1,5.6,1.3,6.9c0.8,3.2,3,5.7,6.4,6.2c6.3,1,13.1-4.8,17.3-8.7c4.4-4.2,9.2-9.9,9.2-16.3
			C459,438.5,452.4,432,445.4,433.6"/>
		<path class="st1" d="M462.4,326.3c-3.6,5.5-9.8,12-16.5,13.3c-4.9,0.9-8.1-2.7-6.1-7.5c1.7-4.1,7.3-6.7,11-8.5
			C453.7,322.1,467.4,318.7,462.4,326.3 M459.8,317.4c-7.3-0.3-13.2,5-18.7,9.2c1.2-4.8,4-10.1,7.9-13.3c5.3-4.3,10.4-1.6,16,0.5
			c-1.4-4.4-7.6-5.9-11.6-5.3c-5,0.8-8.6,5.1-11.1,9.2c-3,4.9-4.1,10.8-7.6,15.4c-1.6,2.1-11.7,10-9.4,13.3c3.8-4,7.5-8,11.3-12
			c1,4.7,2.1,10.1,8.1,9.6c4.8-0.4,10.3-4.5,13.8-7.6C463.1,332.4,472.1,317.8,459.8,317.4"/>
		<path class="st1" d="M357.4,364c-3.1,1.4-9.9,3.4-11.6-0.9c-2.4-5.9,5.3-16.4,9-20.3c2.3-2.4,3.8-3.7,7-2.1
			c2.5,1.3,6.2,4.8,7.2,7.6C371,354.1,362.3,361.8,357.4,364 M364.5,335.5c2.5,0.6,2.8,3.8-0.3,2.5
			C361.8,337.1,361.3,334.7,364.5,335.5 M367.7,340c-0.9-2.9,1-7.4-3.7-7.6c-2.6-0.1-7.4,2.6-9.7,3.6c-3.2,1.5-6.2,3.8-7.8,7
			c-1.5,3-0.4,3.8,1.9,1.3c0.3,0.2-5.3,14.6-5.4,16.1c-0.2,6.6,4.5,10.9,11,9.8c6-1.1,11.5-6,14.8-11c1.7-2.5,3.1-5.4,3.2-8.5
			C372.2,346,369,344.1,367.7,340"/>
		<path class="st1" d="M396.6,337.5c-2.5-4.9,3.4-13.1,8.6-10.7C416.2,331.8,399.9,344,396.6,337.5z M406.5,331.1
			c-1.2,0-8.6,2.9-7.5,4.9C400.5,338.7,405.9,332.2,406.5,331.1z"/>
		<path class="st1" d="M45.9,322.1c-0.3-2.1-5,0.9-4.9,2.3C41.8,322.8,46.6,326.4,45.9,322.1"/>
		<path class="st1" d="M301.8,164.4c6-0.4-1.6-30.5-6-27.8C291.1,139.4,296.3,164.8,301.8,164.4"/>
		<path class="st1" d="M312.9,150.3c5.6,0.8,4.7-12,1.7-14.3C309.1,131.8,306.2,149.4,312.9,150.3"/>
	</g>
</g>
</svg>
