<?xml version="1.0" encoding="utf-8"?>
<!-- Generator: Adobe Illustrator 24.1.2, SVG Export Plug-In . SVG Version: 6.00 Build 0)  -->
<!DOCTYPE svg PUBLIC "-//W3C//DTD SVG 1.1//EN" "http://www.w3.org/Graphics/SVG/1.1/DTD/svg11.dtd" [
	<!ENTITY ns_extend "http://ns.adobe.com/Extensibility/1.0/">
	<!ENTITY ns_ai "http://ns.adobe.com/AdobeIllustrator/10.0/">
	<!ENTITY ns_graphs "http://ns.adobe.com/Graphs/1.0/">
	<!ENTITY ns_vars "http://ns.adobe.com/Variables/1.0/">
	<!ENTITY ns_imrep "http://ns.adobe.com/ImageReplacement/1.0/">
	<!ENTITY ns_sfw "http://ns.adobe.com/SaveForWeb/1.0/">
	<!ENTITY ns_custom "http://ns.adobe.com/GenericCustomNamespace/1.0/">
	<!ENTITY ns_adobe_xpath "http://ns.adobe.com/XPath/1.0/">
]>
<svg version="1.1" id="Layer_1" xmlns:x="&ns_extend;" xmlns:i="&ns_ai;" xmlns:graph="&ns_graphs;"
	 xmlns="http://www.w3.org/2000/svg" xmlns:xlink="http://www.w3.org/1999/xlink" x="0px" y="0px" viewBox="0 0 712.1 564.2"
	 style="enable-background:new 0 0 712.1 564.2;" xml:space="preserve">
<style type="text/css">
	.st0{fill-rule:evenodd;clip-rule:evenodd;fill:#2D4CC8;}
	.st1{fill-rule:evenodd;clip-rule:evenodd;fill:#242E4C;}
	.st2{fill-rule:evenodd;clip-rule:evenodd;fill:#24262B;}
	.st3{fill-rule:evenodd;clip-rule:evenodd;fill:#1A2235;}
</style>
<metadata>
	<sfw  xmlns="&ns_sfw;">
		<slices></slices>
		<sliceSourceBounds  bottomLeftOrigin="true" height="544" width="685.1" x="13.7" y="9.5"></sliceSourceBounds>
	</sfw>
</metadata>
<g transform="translate(-28.000000, 0.000000)">
	<g transform="translate(256.999643, 190.499706)">
		<path class="st0" d="M158.2,59.2c-0.8-1.2-2.2-1.8-3.4-2.5c0.5,1.2,0.6,1.5,0,2.6c-0.4,0.9-0.7,1.8-1,2.6
			c-0.3,0.6-0.7,1.2-0.8,1.8c-0.2,0.7-0.1,1.4-0.4,2.1c3.1-0.8,5.9-2.8,8.5-4.6c-0.5-0.1-1.8,0-2.2-0.4
			C158.5,60.6,158.5,59.6,158.2,59.2"/>
		<path class="st0" d="M232.8,48.7c1.4,1.1,1.4,1.1,1.4,2.9C233.1,51,232.7,50.1,232.8,48.7 M167.3,53.5c-0.6,0.1-0.8-1.8-0.9-2.3
			c0.2,0,0.4-0.1,0.6-0.1C167.2,51.5,168.4,53.5,167.3,53.5 M261.3,72c0.9-4.9,2-9.8,3.4-14.6c0.7-2.3,1.5-4.7,2.3-6.9
			c0.7-2,2.1-4.1,2.4-6.2c-2.2,2-4.1,4.6-6,6.9c-1.8,2.2-3.8,4.4-5.5,6.7c-0.7,0.9-1.3,2-1.4,3.2c0,1.3,0.7,2.1,1.2,3.2
			c0.6,1.2,0.9,2.6,1.2,3.8c0.3,1.4-0.2,2-0.6,3.3c-1-0.5-1.9-0.8-2.6-1.7c-0.8-1-1.4-2-2.2-3c-1.6-2.2-3.2-4.3-4.8-6.5
			c-3.2-4.3-6-8.7-8.4-13.5c-2.4-4.9-4.6-9.9-7-14.8c-0.5-1-0.7-2.2-2-2.2c-1,0-1.8,0.6-2.7,0.9c-0.2,0.1-0.5,0.1-0.7,0.1
			c0,0.2,0,0.5-0.1,0.7c-0.2,0.3-0.3,0.2-0.7,0.2s-0.7-0.3-1.1-0.2c-0.6,0-1.2,0.4-1.7,0.6v-1.4c-1.8,0.9-6.1,4-7,0.5
			c-0.1,0.6,0.1,1.8-0.5,2.2c-0.4,0.3-0.9,0-1.4,0c-0.6,0.1-1,0.5-1.6,0.7c0-0.9-0.7-0.8-1.4-1c-0.9-0.2-1.7-0.7-2.6-0.5
			c-0.9,0.2-1.6,0.6-2.5,0.1c-0.6-0.3-1.2-0.8-1.8-1.1c-0.6-0.4-0.7-0.6-1-1.2c-0.3-0.7-0.2-0.5-1-0.3c-1.5,0.4-2.1-1.4-2.4-2.7
			c-0.7-3.1,0.1-6.4,2.1-8.8c2.6-3.1,5.3-6.1,8.7-8.3c3.1-2,6.5-4.6,10.1-5.6c-3-6.5-7.1-12.6-10.9-18.7c-1.1,0.2-1.7,0.8-2.8,0.6
			c-0.9-0.1-0.9-0.1-1.2,0.9c-0.3,0.8-0.5,1-1.3,1.2c-0.8,0.3-0.2-0.2-0.8,0.4c-0.3,0.3-0.4,0.6-0.8,0.8c-1.2,0.9-2.9,0.4-4.2,0.9
			c-0.9,0.4-0.5,0.9-1,1.5c-0.5,0.7-1.4,0.3-2.1,0.2c-1.5-0.2-1.9,0.3-2.2,1.6c-0.2,1-0.4,1.6-1.5,1.8c-0.6,0.1-1.6-0.4-2,0
			C191-4,191.1-3.6,191-3.4c-0.1,0.4-0.4,0.7-0.6,0.9c-0.5,0.6-1.2,1-1.9,1.3s-1.4,0.1-2,0.4c-1,0.4-0.8,1.5-0.7,2.3
			c-0.6-0.1-0.7-0.1-1-0.5c-0.2-0.2-0.1-0.5-0.4-0.6c-0.3-0.1-1.7,0.8-1.9,1.1c-0.6,0.7,0,1.8-0.1,2.6s-0.8,1.5-1.4,2.1
			c-0.2-0.5-0.4-1-0.5-1.5c-0.3,0.3-0.6,0.6-0.8,1c-0.1,0.2,0.1,0.5,0,0.8c-0.3,0.6-0.6,0.2-1.1,0.3c-0.5,0-1.7,0.4-1.5,1.1
			c0.2,0.5,1.1,0.4,1,1.1c-0.1,0.8-1.2,0.3-1.6,0.5c-0.6,0.2-0.3,0.7-0.5,1.2c-0.3,0.9-1,0.9-1.7,1.4c-0.7,0.4-1,0.9-1.3,1.6
			c-0.4,0.9-0.4,0.7-1.2,0.6c-0.5,0-0.8,0.1-1,0.6c-0.2,0.4,0.1,0.9,0,1.3c-0.2,0.5-1.1,1-1.5,1.4c-0.9,1.3-1.3,2.8-2,4.2
			c-0.3,0.6-0.7,1.2-1.1,1.7c-0.5,0.7-0.9,0.6-1.6,1c-1.2,0.6-0.8,2.3-1,3.4c-0.1,0.6-0.2,1.1-0.6,1.5c-0.2,0.3-1.1,0.6-0.9,1.1
			c0.2,0.6,0.9,0,0.8,0.9c-0.1,0.8-1,1.4-1.2,2.2c-0.1,0.5,0,1-0.1,1.6c-0.2,0.6-0.6,1-0.8,1.6s0.1,1.3-0.1,1.7
			c-0.2,0.5-1,0.4-1.3,1c-0.2,0.7,0.3,1.8,0.4,2.5c0.1,0.5,0.3,0.9-0.1,1.3c-0.3,0.3-1.1,0.3-0.8,1c0.2,0.4,0.7,0.3,0.8,0.8
			c0,0.4-0.4,1.1-0.7,1.4c-0.7,0.8-2,1.4-1.1,2.4c0.2,0.2,0.4,0.1,0.5,0.3c0.2,0.3,0.2,0.7,0.3,1c0.3,0.7,0.6,1.4,1.1,2
			c1.7,2.4,4.5,3.5,6.4,5.7c2.3-2.3,4.6-4.5,6.8-6.9c1.8-2,3.6-4.1,5.7-5.9c1.1-0.9,2.3-1.7,3.2-2.8s1.2-2.4,1.8-3.6
			c1.3-2.3,3.1-4.3,4.5-6.5c2.7,1.7,1.6,6.2,0.8,8.7c-0.5,1.5-1.1,3-1.9,4.4c-0.7,1.2-1.6,2.4-1.9,3.7c-0.3,1.1,0.1,2,0.8,2.9
			c0.9,1.3,2,2.5,2.9,3.7c2.3,3,4.6,6,7,9c0.8-1.2,2.2-0.4,3.3-0.2c1.6,0.3,3.3,0.2,5,0.4c1.7,0.2,3.5,0.5,5.2,0.7
			c1.5,0.2,0.5,1,1.3,1.8c1.6-2.8,4.6-1,7-0.8c1.5,0.2,3.2,0.1,4.7,0.3c1.5,0.2,3,0.7,4.6,0.9c3,0.3,5.7,1.3,8.6,1.8
			c1.5,0.3,3.1,0.5,4.7,0.8c0.5,0.1,1.5,0.2,1.8,0.7c0.4,0.7-0.4,2.1-0.6,2.7c-0.3,0.9-0.5,2.3-1.1,3c-0.5,0.6-0.6,0.2-1.2,0.2
			c-0.7,0-0.4,0.1-0.9,0.7c-0.6,0.7-1.4,0.7-2.3,0.7c-0.4,0-1.1,0-1.4,0.2c-0.4,0.4-0.1,0.4-0.1,1c-0.1,1-1.4,1.7-2.2,2.1
			c-0.5,0.2-1.1,0.5-1.6,0.4c-0.4,0-0.8-0.4-1.2-0.2c-0.5,0.2-0.5,1.2-0.8,1.6c-0.6,0.8-1.3,0.2-2,0.6c-0.9,0.5-1.4,1.6-2.2,2.1
			c-1.6,1.1-3.5,1.2-4.4-0.8c-0.3,0.7-1.1,1.7-0.8,2.4c0.3,0.6,1.1,1.1,1.6,1.4c1.6,0.9,3.2,1.7,4.7,2.7c3.5,2.3,6.9,4.8,10.7,6.7
			c3.7,1.8,7.6,3.8,11.7,4.7c4.2,0.8,8.5,0.3,12.4-1.4c-0.6-1.2-0.7-1.9-0.7-3.3c0-1.3-0.1-2.5-0.1-3.8c0-2.5,0-5,0.1-7.5
			C259.8,82,260.4,77,261.3,72"/>
		<path class="st0" d="M305.8,68.4c-0.4-1.4-0.8-2.8-0.9-4.2c-0.1-1,0.3-2.5-0.3-3.4c-0.3-0.4-0.7-0.5-0.9-1c-0.1-0.4,0.1-1.1,0-1.5
			c-0.1-1-0.5-2-0.9-3c-0.9-2.2-0.9-4.5-1.6-6.7c-0.4-1.2-1.1-2.3-1.6-3.4c-0.4-1.1-0.6-2.2-0.7-3.4s-0.1-2.4-0.4-3.6
			c-0.3-1.1-0.6-2.2-0.9-3.3c-0.6-2.7-1.3-5.3-2.2-7.9c-0.4-1-0.6-2.6-1.5-3.3c-0.6-0.5-1.5-0.4-2.2-0.3c-0.8,0.1-1.5,0.1-2.1,0.8
			c-0.7,0.9-1.2,1.9-2,2.7c-0.8,0.8-1.9,1.6-2.6,2.5c-0.6,0.7-0.3,1,0.4,1.6c-0.8,0.1-1.5-0.1-2.1,0.5c-0.6,0.6-1.1,1.7-1.5,2.5
			c-0.9,1.7-1,3.3-1.2,5.2c-0.2-0.4-0.5-0.7-0.7-1.1c-0.3,0.8-0.7,1.6-1.6,2c-1,0.4-1,0.3-1,1.4c0,1.7-1.4,2.7-2.3,4
			c-0.5,0.7-1,1.5-1.3,2.3c-0.4,1-0.2,1.7-0.1,2.7c0.1,1.6-1.4,2.8-2.3,3.9c-0.3,0.3-0.4,0.5-0.6,0.9c-0.1,0.3,0,0.5-0.2,0.8
			c-0.4,0.6-1.3,0.4-1.7,1.2c-0.3,0.7,0.1,1.4,0.2,2.1c0.1,1.1-0.5,2.1-0.9,3.1c-0.4,1.1-0.7,2.2-0.8,3.4c-0.1,0.7-0.1,1.3-0.1,2
			c0,0.3,0.2,1.1,0,1.4c-0.3,0.4-0.8-0.1-1.1,0.3c-0.5,0.8,1.3,1.1,1.7,1.2c-0.4,0.3-1,0.5-1.3,0.8c-0.5,0.5-0.2,0.8-0.4,1.4
			c-0.2,0.6-0.9,0.8-1.2,1.3c-0.2,0.6,0.2,0.7,0.5,1.1c0.6,1.1,0.1,2.8-0.2,4c-0.1,0.5,0,1.7-0.3,2c-0.2,0.2-0.6,0.1-0.8,0.3
			c-0.3,0.4,0,0.6,0.2,1.1c0.2,0.6,0.1,1.3,0,1.9c-0.2,0.6-0.5,1.1-0.6,1.7s0.2,0.9,0.4,1.5c0.5,1.3,0.1,3,0,4.3
			c-0.2,1.6,0.4,3.1-0.1,4.5c-0.4-0.2-0.9-0.4-1.3-0.6c0.1,0.7,0.3,1.4,0.4,2.1c0.1,0.3,0.1,0.7,0.2,1c-0.1,0.4,0.1,0.6,0.4,0.5
			c0.8,0.2,1.9-1,2.5-1.3c1.9-1.1,3.9-1.8,5.8-2.7c2-1,3.7-2.2,5.6-3.4c1.9-1.2,3.9-2.3,5.8-3.6c8.1-5.7,16.8-10.5,25.2-15.7
			C306.7,73.2,306.3,70.1,305.8,68.4"/>
		<path class="st0" d="M315.8,3.4c1.3,0.4,1,1.4,0.5,2.4c-0.5-0.5-1.3-1-1.6-1.6C314.4,3.3,315,3.2,315.8,3.4 M351,35
			c-0.1,0.3-0.1,1.6-0.4,1.9c-0.2,0.2-1.4-0.1-1.7-0.1c-1-0.1-1.7,0.1-2.6,0.4c-1.6,0.4-1.9-0.6-1.9-2.1c-1.2,2.4-3.2,3.6-5.8,4.1
			c-1.2,0.2-2.4,0.5-3.6,0.5c-0.9,0-1.9,0-2.7-0.2c-0.5-0.1-1.1-0.4-1.6-0.5c-1.1-0.2-0.1,0.6-0.9,0.8c-0.2,0.1-1-0.3-1.3-0.3
			c-0.5,0-1,0.1-1.5,0c-1.1-0.1-1.5-0.7-2.4-1.2c-0.5-0.3-0.8-0.2-1.3-0.1c-0.6,0.1-0.1,0.3-0.8,0.1c-0.2,0-0.6-0.3-0.8-0.3
			c-1.2-0.6-2.2-1-3.1-2c-0.7-0.7-1.6-1.2-2.3-1.9c-0.3-0.3-0.4-0.6-0.6-0.8c-0.3-0.3-0.3-0.3-0.7-0.5c-0.4-0.3-0.7-0.4-1-0.9
			c-0.4-0.8-0.4-1.8-0.5-2.7c-0.2-2.9,0.3-5.5,1.7-8.1c1.5-2.8,2.7-5.7,4.5-8.4c1.6-2.4,3.6-4.6,5.5-6.7c0.6-0.6,1.2-1.3,1.8-1.7
			c0.4-0.3,1-0.4,1.4-0.8c1-0.8,0.5-2.2,0.5-3.3c0.3,0.5,0.8,1.4,1.5,1.2c0.5-0.1,0.5-0.7,0.9-0.9c0.3-0.2,0.6-0.1,0.9-0.1
			c-1.2-5.8-2.7-11.7-4.6-17.3c-5.2,5.1-10.4,10.3-15.5,15.5c-2.6,2.7-5,5.6-7.6,8.3c-2.7,2.9-5.5,5.7-8.3,8.5
			c0.8,0.7,1.6,1.2,2.1,2.2c0.5,0.9,1,1.5,1.7,2.2c1.5,1.7,2.2,4.1,3.1,6.1c0.2,0.4,0.2,0.5,0.2,0.9c0,0.2-0.3,0.4-0.3,0.7
			c0,0.3,0.2,0.6,0.4,0.8c0.2,0.2,0.7,0.5,0.8,0.8c0.1,0.4-0.3,0.6-0.5,1c-0.6,1.5,1.3,2.6,1.9,3.8c0.3,0.7,0.5,1.3,0.1,2
			c-0.4,0.5-1.2,0.7-0.7,1.6c0.3,0.5,1,0.2,0.9,0.9c-0.1,0.4-0.8,0.7-0.1,1.2c0.6,0.3,1.2-0.3,1,0.8c-0.1,0.5-0.7,0.9-0.6,1.5
			c0.2,0.5,1.1,0.6,1.5,1c0.5,0.5,0.7,1.3,0.8,2c0.3,2.2,0.8,4.3,1.3,6.5c0.3,1.5-0.5,1.5-1.9,1.5c0.9,1.2,1.8,2.5,2.7,3.7
			c0.9,1.2,1.2,3,1.6,4.4c0.5,1.7,1,3.4,1.5,5.1c0.2,0.8,0.4,1.5,0.1,2.3c-0.4,0.9-0.3,0.9-0.2,1.8c4.1-2.3,7.9-4.9,11.8-7.6
			c1.9-1.3,3.7-2.6,5.6-3.9c1.4-1,2.9-2.2,3.8-3.7c2.2-3.6,5.3-6.4,8.2-9.4c1.5-1.5,2.8-3.4,4.6-4.6c1.7-1.1,3.6-2.1,5.3-3.3
			C352.3,36.8,351.6,35.9,351,35"/>
		<path class="st0" d="M221.7,83.1c1.7-0.8,3.2-1.9,4.8-2.7c1.4-0.8,2.7-1.1,3.9-2.2c0.5-0.4,1-0.6,1.6-0.9c0.8-0.4,1.3-1,2-1.5
			c-1.7-0.7-3.4-1.7-5.3-1.7c-0.8,0-1.6,0.3-2.4,0.1c-0.8-0.2-1.5-0.6-2.2-1.1c-1.2-0.9-1.8-0.8-3.1,0c-0.3,0.2-0.8,0.6-1.1,0.6
			c-0.6,0-0.5-0.4-0.8-0.8c-0.2-0.4,0.1-0.4-0.4-0.4c-0.3,0-0.4,0.4-0.7,0.4c-0.6,0.1-1.7-0.5-2.2-0.6c-1-0.2-1.7,0-2.7,0.1
			s-2-0.2-2.9-0.5s-1.7-0.7-2.5-1c-1.1-0.3-1.3,0.1-2.4,0.3c-1.6,0.4-3.1-1.9-4.5-0.7c2.1,3.1,5,5.7,7.7,8.3c1.4,1.4,2.9,2.8,4.5,4
			c0.7,0.6,1.4,1.1,2.2,1.7c0.3,0.3,0.7,0.5,1,0.8c0.6,0.5,0.5,0.6,1.1,0.3c0.8-0.4,1.3-1.1,2.2-1.5
			C220.1,83.8,220.9,83.5,221.7,83.1"/>
		<path class="st0" d="M222.8,15.5c0.1,1.4,0.9,2.5-0.3,3.7c0-0.7-0.1-1.4-0.1-2.1C222.3,16.5,222,15.7,222.8,15.5 M221.4,9.5
			c-0.2,0.6-0.5,1-1,1.3c-0.8,0.4-2-0.3-2.5,0.4c-0.6,0.6-0.5,2.1-1.3,2.6c-0.2,0.2-0.5,0-0.8,0.3c-0.2,0.2-0.3,0.6-0.5,0.8
			c-0.4,0.3-0.8,0-1.1,0.2c-0.4,0.2-0.5,0.7-0.6,1.1s-0.1,1-0.4,1.3c-0.4,0.4-1.3,0.7-1.7,1c-1.7,1-3.3,2.1-5,3.1
			c0.5,0.5,1.6,1.1,1.7,1.8c0.1,0.5-0.3,0.6,0.2,1c0.2,0.2,0.9,0.4,1.1,0.5c0.9,0.5,1.9,0.9,2.9,1.1c1.2,0.3,2.5,0.1,3.7,0.4
			c1.3,0.3,2.6,0.5,3.9,0.5c1.1,0,2.2-0.3,3.3-0.4c2.1-0.2,4.8,0,6.6-1.5c-0.2-1.5-0.3-2.7-0.9-4.1c-0.5-1.3-1.1-2.7-1.6-4
			c-1.1-2.7-2.2-5.3-3.6-7.8c-0.3,1.8-1-0.6-1.6-0.6C221.6,8.5,221.6,9.1,221.4,9.5"/>
		<path class="st0" d="M338.1,28.7c0.9,0.2,1.7,0.3,2.5,0.7c0.6,0.3,0.9,0.5,1.4-0.1c0.3-0.3,0.4-0.7,0.8-0.9
			c0.4-0.2,0.9-0.1,1.3-0.2c1-0.1,2.1-0.1,3.1-0.1c-1.2-1.2-2.4-2.3-3.6-3.5c-0.2,0.3-0.7,1.5-1.1,1.6c-0.1,0-0.5-0.3-0.6-0.4
			c-0.2,0-0.3,0.1-0.5,0.2c-0.4,0.2-0.6,0.7-1.1,0.8c-0.5,0.1-1-0.1-1.5-0.1C338.6,27.3,338.3,28.1,338.1,28.7"/>
		<path class="st0" d="M336.6,13.7c0.2-0.9-0.2-1.8-0.1-2.6c-0.1-0.1-0.2-0.3-0.3-0.4c-0.2,0.5-0.4,1-0.7,1.5
			c-0.3,0.4-0.7,0.7-0.9,1.2c-0.3,0.8,0.1,1.5,0.5,2.2C335.7,15,336.4,14.6,336.6,13.7"/>
		<path class="st0" d="M329.4,15.6c-0.7,0-0.5,0.4-0.6,0.9c-0.1,0.3-0.2,0.7-0.4,0.9c-0.4,0.6-1.3,1.2-0.8,2
			c0.4,0.7,0.5-0.2,0.8,0.2c0.4,0.3-2.1,2.9-2.5,3.1c-0.2,0.1-0.4-0.2-0.6,0c-0.2,0.1,0.1,1.6,0.1,1.9c0,0.8-0.1,1.6,0.6,2.2
			c0.8,0.7,2,0.7,2.9,1.1c0.6,0.3,1.2,0.6,1.8,0.8c0.7,0.2,1.3-0.2,1.8-0.1c0.4,0.1,1.3,0.8,1.7,1c0.6,0.3,0.7,0.3,1.3,0.1
			c0.3-0.1,0.9-0.4,1.2-0.6c0.3-0.4,0.1-0.4,0.1-1c0.1-1,1.2-0.9,1.9-1.2c-1.5-0.4-2.3-2-3-3.3c-0.3-0.6-1-1.3-1.1-1.9
			c-0.2-0.8,0.4-1.3,0.7-2c-0.5,0.2-2.4,1.1-1.5,0c0.3-0.3,2.1-0.9,1.3-1.7c-0.4-0.5-1,0.5-1.5,0.4c-0.6-0.1-1.3-1.1-1.8-1.4
			C331.3,16.5,330.2,15.6,329.4,15.6"/>
		<path class="st0" d="M151.7,45.4c0-2.5,0.4-4.9,1.2-7.3c1.5-4.9,4.6-9.1,5.6-14.2c0.5-2.4,0.3-4.9,0.8-7.3
			c0.5-2.6,0.5-5.2,0.6-7.8s0.2-5.1,0.2-7.7c0-0.9-0.3-2.2,0-3.1c0.2-0.7,0.5-0.5,1.1-0.7c-0.4-0.3-1.3-0.4-1.4-1
			c-0.1-0.4,0.3-0.8,0.3-1.2c0-0.3-0.2-0.7-0.3-1c-0.6-1.8-1.3-4.5-0.3-6.3c-0.6-0.1-0.9-0.3-1.4,0c-0.6,0.3-1.2,0.9-1.8,1.3
			c-1.1,0.8-2.1,1.7-3.1,2.6c-1.8,1.8-3.3,3.9-4.8,5.9s-3.2,4-4.7,5.9c-1.2,1.5-3.2,3.8-4.9,1.8C138.3,6,138,6.7,137.1,7
			c-1,0.4-1.5,0.8-2.2,1.7c-0.2,0.2-0.6,0.9-0.8,1c-0.4,0.1-0.2-0.1-0.5-0.3c-0.5-0.3-0.7-0.5-0.9,0.3c-0.1,0.4,0.1,0.7-0.1,1.1
			c-0.2,0.4-0.7,0.7-1,0.9c-0.8,0.4-1.6,0.4-2.4,0.7c-1.3,0.5-2.2,2.5-3.7,1.5c-0.5-0.4-1-0.9-1.7-0.5c-0.5,0.3-0.6,1-1.4,0.7
			c-0.4-0.1-0.7-0.7-1.2-0.8c-0.3-0.1-0.7-0.2-1-0.2c-0.8-0.1-1.5-0.1-2.2-0.3c-1.6-0.5-2.7-1.9-3.8-3.1c-0.8-0.9-0.6-1.4-0.3-2.6
			c0.2-1,0.4-1.9,0.6-2.9c0.5-1.9,1.1-3.7,2-5.4c1-2,2.6-3.7,4-5.4c2.9-3.6,5.7-7.5,8.8-10.9c0.6-0.6,1.6-1.3,1.5-2.3
			c-0.1-1.1-1.3-0.6-2.1-0.4c-2,0.5-3.9,1.5-5.8,2.2c-1.1,0.4-2.5,1.2-3.6,0.7s-2.8-1.9-2.2-3.1c0.5-1,1-1.6,1.2-2.7
			c0.2-1,0.4-1.9,0.6-2.9c0.5-2.3,1.1-4.6,1.8-6.8c1.3-4.3,2.9-8.4,4.3-12.7c-5.9,0.5-11.2,2.2-16.7,4.2c0.3,0.5,0.8,1.3,0.6,1.9
			c-0.2,0.8-1.3,0.5-1.5,1c-0.3,0.6,0.6,1,0.3,1.8c-0.2,0.7-0.9,1.5-1.3,2.1c1.8,1.2,1.1-1.3,2.4-1.4c0.4,1.9-0.5,2.8-1.2,4.5
			c-0.7,1.4,0.9,1.3,1.2,2.4c-0.9,0.1-1.5-0.3-1.9,0.8c-0.2,0.4,0.1,2.1-0.4,2.1c-0.4,0-0.3-0.7-0.6-0.7c-0.4-0.1-1.4,1.3-1.6,1.6
			c1.1,0,1.7,0.1,2.7,0.5c-0.7,0.6-1.3,1.3-2,1.9c0.6,0.3,1.7,0.3,2,1c0.3,0.6-0.2,1.8-0.2,2.5c0.3-0.4,0.7-1.3,1.1-1.6
			c0.5-0.3,0.7,0,0.7,0.7c-0.1,1.4-1.8,1.3-2.1,2.4c-0.2,1.1,1.3,0.3,1.3,1.4c0,0.6-0.7,1.1-0.3,1.8c-0.8-0.4-0.9-0.7-1.3-1.6
			c-0.3,1.1-1,2.8-0.6,4c0.3,0.9,0.9,0.7,0.2,1.6c-0.3,0.3-0.6,0.6-0.6,1c0,1,1.5,1.9,0.3,2.8c-0.5,0.4-0.9,0.4-1.2,1
			c-0.2,0.5,0,1.3-0.2,1.9c-0.3,1.2-1.2,2-2,2.9c-0.8,0.7-1.5,1.6-2.3,2.2c-0.5,0.3-0.6,0.5-0.9,1c-0.1,0.2,0,0.4-0.1,0.6
			C98.6,3,98.1,3,97.8,3c-0.9,0.2-2,0.5-2.3,1.6c-1.1-0.8-2.2,0.2-3.3,0.5c-0.5,0.2-1,0.2-1.5-0.1c-0.8-0.4-0.8-0.5-1.7-0.4
			c-2.7,0.4-4.9-2.4-6.4-4.3c-1.1-1.4-1.7-3.1-2-4.8c-0.3-2-0.7-4-0.9-6.1c-0.4-4.3-0.2-8.5-0.1-12.8c-5,2.6-9.6,6-14.1,9.5
			c-4.4,3.4-8.2,7.7-12.2,11.6c1,0.1,2,0.4,3,0.4c0.5,0,1-0.1,1.5-0.3c0.3-0.1,0.5-0.3,0.7-0.4C58.7-3,58.9-3,59.3-2.8
			c1-0.1,1.9-0.3,2.9-0.4c1.3-0.2,2.6,0.2,3.9,0.4c2.3,0.4,4.8,0.1,7.1,0.9c2,0.6,4,1.5,5.9,2.4c1.8,0.8,3.4,2.5,5,3.8
			C85,5,86,5.3,86.9,5.9s1.6,1.8,2.2,2.6c1.6,2,3.3,3.9,4.8,5.9c0.7,0.9,1.3,1.9,1.7,2.9c0.2,0.5,0.2,1.2,0.4,1.7
			c0.2,0.5,0.5,0.7,0.8,1.2c1-2.6,1.9-5.1,2.9-7.7c0.4-1,2.1-5.7,3.4-3.9c1.1,1.6,0.5,4.7,0.1,6.5c-0.5,2.3-1,4.6-1.5,6.9
			c-1,4.6-2,9.2-3.3,13.7c-0.1,0.3-0.3,0.6-0.3,1c0,0.5-0.2,0.2,0.1,0.6c0.2,0.2,0.6,0.1,0.8,0.4c0.3,0.4,0.2,1.8,0.2,2.3
			c0,0.9-0.6,1.4-0.8,2.2C97.7,43,98,43.7,98,44.5c0,1.8-0.9,3.8-1.3,5.6c-0.2,1.2,0.5,3-1.2,3.2c0.4,0.7-0.1,1-0.4,1.5
			c-0.4,0.6-0.5,1.2-0.7,2c-0.2,0.6-0.6,1.1-0.7,1.7c-0.1,0.6,0.2,1.1,0,1.7c-0.2,0.7-0.7,0.8-1.2,1.1c-0.6,0.3-0.4,0-0.6,0.5
			c-0.1,0.2,0,0.8,0,1.1c-0.3,1.3-1.3,2.2-2.2,3.2c-0.3,0.4-0.8,1.2-1.2,1.4c-0.6,0.3-1.5-0.2-2,0.1c-0.5,0.3-1,2.4-1.2,2.9
			c-0.4,1.1-0.8,2.2-1.1,3.4c-1.4,4.1-2.7,8.2-4.1,12.3c0.7,0,1.7-0.7,2.4-0.4c0.7,0.3,0.3,1.3,0.5,1.9c0.2,0.4,1.3,0.3,1.9,0.4
			c0.9,0,1.3-0.2,2.1-0.4c1.4-0.4,3.1-0.3,4.5-0.4c3.2-0.3,6.4-0.4,9.5-1.1c3-0.7,5.8-1.8,8.8-2.6c-1.4-0.7-1.6-2.5-2-3.8
			c-0.2-0.7-0.3-1.3-0.7-2c-0.5-0.8-0.9-1.6-1.2-2.5c-1.2-3.4-1.2-7.6-0.8-11.1c0.8-7.2,3.4-14,7.4-20c1.9-2.9,4.1-5.6,6.5-8
			c2.5-2.5,5-5.3,7.9-7.3c1.3-0.9,2.9-1.2,4-2.3c0.9-0.8,2.3-1,3.4-1.6c1.5-0.8,2.8-1.5,4.5-1.8c1.3-0.3,2.7-0.9,4-0.7
			c0.9,0.1,0.6,0.5,1.1,0.9c0.7,0.5,0.4-0.2,1-0.4c0.4-0.2,0.7,0.3,1.1,0.4c0.2,0.1,0.9,0,0.9,0c0.4,0.2,0.3,1.1,0.6,1.5
			c0.2,0.4,0.6,0.7,0.8,1.2c0.2,0.7,0.1,1.2-0.2,1.7c-0.3,0.6-0.8,0.9,0,1.5c-1.8,1.2-0.7,3.6-2.1,5.1c-0.5,0.5-1.5,1.2-1.5,2
			s1.5,1.2,0.7,2c-0.7,0.8-2.2,0.4-3,1.1c-0.8,0.7-0.5,1.8-0.6,2.8c-0.1,0.7-0.8,1.6-0.5,2.3c0.2,0.5,0.5,0.4,0.5,0.9
			c0,0.4-0.3,0.9-0.4,1.3l-0.9-0.4c-0.1,0.5-0.4,1.1-0.5,1.6c-0.1,0.7,0.2,1,0.3,1.6s-0.2,1.6-0.2,2.3c-0.1,0.8-0.1,1.6-0.7,2.3
			c-0.3,0.4-0.8,0.4-1.2,0.7c-0.3,0.3-0.4,0.6-0.7,1c0.5-0.2,1.1-0.3,1.6-0.5c-0.2,1-0.6,1.4-1.3,2.2c-0.1-0.6-0.2-1.2-0.3-1.7
			c-0.2,0.6-0.5,1.1-0.5,1.8c0,0.6,0.3,1.1,0.3,1.7c0,1.1-0.8,1.9-0.5,3c0.4,1.3,0.5,2,0.1,3.4c-0.4,1.2-0.9,2.4-0.9,3.6
			c-0.1,1.4,0.5,2.6,0.4,4c-0.1,0.7-0.3,1.1,0.4,1.2s1.4-0.5,1.9-0.7c2.8-1.3,5.6-2.7,8.4-4c-0.5-0.7-0.4-0.7-0.1-1.6
			c0.2-0.7,0.5-1.3,0.7-2c0.5-1.4,1-2.9,1.6-4.3c1-2.6,2.3-5.3,2.8-8.1C151.9,50.4,151.7,47.9,151.7,45.4"/>
		<path class="st0" d="M-19.2,249c-0.9-0.6-1.8-1.2-2.8-1.7c0.5-0.4,1.1-0.8,1.6-1.2c0.6-0.4,0.8-0.9,1.2,0
			C-18.8,246.9-19.3,248-19.2,249 M-20.4,242.2c1.3,1.5-1.1,2-2.1,2.2C-22.3,243.7-21.8,240.6-20.4,242.2 M8.1,236.9
			C7.7,235.6,7,232,5,232.3c-0.5,0.1-0.9,0.5-1.4,0.6c-0.5,0-0.9-0.1-1.4-0.1c-1-0.1-2.1,0-3.1,0.3c-1.1,0.4-2,0.9-3.2,1
			c-0.9,0.1-1.8,0-2.7,0.2c-1.5,0.4-1.4,1.7-1.2,3.1c-0.3-0.3-0.5-0.5-0.7-0.8c-0.2-0.4-0.2-0.8-0.5-1.1c-0.6-0.7-1.4-0.3-2.1-0.3
			c-0.9,0.1-2-0.5-2.9-0.2c-0.4,0.1-0.6,0.6-1,0.7c-0.3,0.2-0.7,0.2-1.1,0.2c-0.8,0.1-1.7,0.4-2.4,0.4c-1.1,0-2-0.1-3,0.2
			s-1.9,0.7-2.9,0.9c-1.1,0.3-2.2,0.3-3.4,0.5c-2.2,0.4-4.4,1.4-6.7,1.6c-1.2,0.1-2.3,0.1-3.5,0.3c-0.4,0.1-1.2,0-1.5,0.2
			s-0.6,1.2-0.7,1.6c-2,4.2-3.5,8.7-5.2,13.1c-1.7,4.6-3.4,9.1-5.1,13.7c-0.8,2.1-1.8,4.3-2.5,6.5c-0.6,2,1.8,3.4,3,4.7
			c3.1,3.1,6.2,6.2,9.8,8.8c3.6,2.7,7.6,4.5,11.6,6.2c4.1,1.8,8.5,2.9,13,3.5c2.3,0.3,4.6,0.5,6.9,0.7s4.3-0.1,6.6-0.4
			c-0.2-0.5-1-1.5-0.9-2c0-0.2,0.4-0.4,0.4-0.6c0.1-0.3,0.1-0.5,0.1-0.8c0-1.3-0.5-2.6,1.2-3.1c0.1,0.7,0.1,1.5,0.2,2.2
			c0.8-1.2,0.3-2.6-0.2-3.8c-0.6,0.5-1.2,1-1.7,1.5c0.1-0.4,1.1-2.6,0.8-2.8c-0.3-0.2-0.8,0.4-1,0.1c-0.2-0.2,0-0.7,0-1
			c-0.1-0.5-0.6-0.8-0.6-1.3c0-0.7,0.9-1.2,1.3-1.6c0.6-0.6,0.8-1.1,0.8-1.9c0-1.2,0.5-1.1,1.4-1.9c1.4-1.3,1.5-3,0.8-4.7
			c0.6,0,1.2-0.1,1.8-0.1c-0.6-1.4-1.2-2.9-1.7-4.3c-0.6-1.4,0.2-2.2,0.6-3.5c0.8,0.8,1.7,1.7,2.5,2.5c0.2-2.7,1-5.4,0.6-8.1
			c-0.1-0.8-0.3-0.8,0.1-1.4c0.3-0.5,0.7-0.8,0.9-1.3c0.5-1,0.6-2,0.7-3.1c0.1-1,0-2.1,0.3-3c0.2-0.7,0.9-1.1,1.1-1.9
			c0.3-1.4-1.9-3.8-0.6-4.8c0.7-0.5,1.5,0,1.9-0.9c0.4-0.7,0.6-1.7,0.8-2.5c0.4-1.3,0.6-2.3,0.1-3.5C8.9,239.1,8.5,238,8.1,236.9"/>
		<path class="st0" d="M28.5,171.9c-0.3-0.7-0.8-0.9-1.6-1c-3.3-0.6-6.6-0.6-10-0.9c-0.9-0.1-1.9-0.2-2.8-0.5
			c-0.8-0.2-1.5-0.6-2.3-0.8c-1.5-0.4-3,0.6-4.5,0.6c-0.8,0-1.4-0.5-2.2-0.7c-0.6-0.2-1.2,0-1.8,0c-1.2,0.1-2.4,0-3.6-0.1
			c-1.5-0.2-2.9-0.4-4.3-0.8c-0.9-0.3-2.4-0.5-3.1-1.2c-1.6,2.4-2.9,5-4.1,7.6c-1.1,2.6-2.6,5-4,7.5c-2.8,5-4.8,10.4-6.6,15.8
			c1-0.5,1.8-1,2.6,0.1c0.7,1,1.6,0.7,2.8,0.9c1.9,0.3,2.1,2.4,2.5,4c0.6-0.8,1.2-1.5,1.8-2.3c0.5,0.5,1.3,0.8,1.7,1.5
			c0.3,0.4,0.1,0.8,0.3,1.2c0.1,0.4,0.5,0.5,0.8,0.8c1.9-2.4,3.7,2.1,3.9,3.7c0.2-0.6,0.5-1.2,0.7-1.8c0.3,0.4,0.8,0.7,1.1,1.1
			c0.2,0.3,0.2,0.7,0.3,1c0.3,0.3,0.4,0.2,0.8,0.3c0.6,0.1,0.5,0.1,0.8,0.6c1,1.4,2.6,2.5,3.5,4c1.1,1.9,2.6,3.8,3.3,5.9
			c0.4,1.2,0.5,2.3,1.2,3.4c0.3,0.6,0.9,1.1,1.2,1.7c0.4,0.7-0.3,1-0.2,1.6c0.1,0.6,1.1,1.3,1.7,1.5c0.8,0.3,1.8,0.2,2.7,0.2
			c1.1,0,2.5,0,3.6-0.3c1-0.3,0.9-0.8,1.1-1.6c0.3-1,0.9-2,1.3-2.9c0.6-1.4,1-2.4-1-2.8c1.1-0.2,2.9-0.5,2.6-2
			c-0.2-0.7-0.8-1.2-0.7-2c0.1-0.8,0.7-1.1,1.3-1.5c1.1-0.8,1.9-2.3,2.3-3.5c0.2-0.7,0.3-1.3,0-2c-0.4-1.1-0.6-2-0.7-3.2
			c0.5,0.1,1,0.1,1.5,0.2c-0.1-0.5-0.1-0.8-0.3-1.2c-0.1-0.1-0.4-0.2-0.4-0.4c0-0.3,0.5-0.3,0.7-0.6c0.5-0.6,0.7-2,0.9-2.7
			c0.2-0.7,0.3-1.5,0.7-2.1c0.7-1.2,1.6,0.5,1.4-1.2c-0.1-0.8-0.2-2.1-1.2-2.2c-1.2-0.1-1.6,0.3-1.5-1.1c0.1-1-0.2-3.3,0.9-3.8
			c0.5-0.3,1.4-0.2,2-0.3c0.7-0.1,1.3,0.3,1.9,0.3c1.1,0,1-1.6,1.2-2.4c0.6-3.5,0.8-7.1,0.5-10.7C29.1,175,29,173.2,28.5,171.9"/>
		<path class="st0" d="M57.1,32.3c-0.1-2.6-0.1-2.6,1.4-3.6C58.8,30.4,57.8,31.2,57.1,32.3 M83.1,38.9c0.3-0.6,1.6-0.4,2.1-0.4
			c-0.3,0.5-1.1,1.8-1.4,2.8C83.5,40.6,82.8,39.5,83.1,38.9 M79.7,57.2c0.6-0.4,0.4-0.4,0.7-1c0.2-0.4,0.2-0.6,0.6-0.9
			c0.9-0.6,1-0.6,1.3-1.7c0.2-1,0.1-2.5,0.6-3.5c0.3-0.7,1.4-0.8,1.4-1.6c0-1.7-3-2.5-2.4-4.2c0.2-0.5,0.7-0.7,1-1.1
			c0.1-0.3,0-0.6,0.1-0.9c0.1-0.6,0.3-0.8,0.9-0.9c-0.1,0.3-0.1,0.5,0,0.7c0.4,0.7,1.9-0.1,2.3-0.7c0.7-1.1,0.1-2.8-0.2-3.9
			c-0.3-1.5-0.3-2.6-0.2-4.1c0.6,0.7,1.3,1.4,1.9,2.1c0.4-1.1,0.4-1.7,1.4-2.3c0.9-0.6,1.3-1,1.9-2c0.2-0.4,0.4-0.7,0.8-0.9
			c0.4-0.1,1.1,0.3,1.5,0.2c0.2-0.1,0.5-1.3,0.5-1.5c0.2-0.7,0.5-1.3,0.7-2c-1.4-3.5-2.5-7.2-4.6-10.4c-1.9-2.9-4.7-5.3-7.4-7.4
			c-1.4-1-2.8-2.1-4.2-3c-1.5-0.9-3-1.3-4.6-2s-3.4-1.4-5.1-1.5c-0.9,0-1.7,0.2-2.6,0c-1-0.1-1.9-0.5-2.9-0.6c0,5.1-1.9,10.2-3.6,15
			c-0.8,2.2-1.9,4.1-2.7,6.3c-0.8,2.1-1.7,4.3-2.6,6.4c-1.9,4.4-3.6,8.9-6,13c-0.2,0.4-0.5,0.6-0.3,0.9c0,0.1,0.3,0.3,0.4,0.4
			c0.2,0.2,0.4,0.5,0.6,0.8c0.4,0.7,0.6,1.5,0.9,2.3c0.7,1.7,1.9,3.4,2.8,5.1c1.1,1.9,2.5,3.5,4,5c0.7,0.7,1.8,1.3,2.2,2.2
			c0.3,0.7,0.4,1.6,0.6,2.3c0.1-0.6,0.2-1.2,0.3-1.8c0.6,1.4,2.3,1.5,3.5,2.2c1.5,0.9,2.8,1.9,4.4,2.6s3.3,1.3,5,1.5
			c0.9,0.1,1.8,0.2,2.7,0.2c0.9,0,1.5-0.5,2.4-0.8c-2.6-2.2-1.6-6-0.2-8.6c0.4,1,0.9,2,1.3,3c0.3-0.7,1.3-1.4,0.9-2.2
			c-0.3-0.5-0.6-0.4-0.7-0.9c-0.1-0.4,0.2-1,0.4-1.4C79.6,56.1,79.7,56.6,79.7,57.2"/>
		<path class="st0" d="M72.3,73.6c-0.6-1.3-2.9-1.6-4.1-1.8c-2-0.4-3.8-1.6-5.6-2.5c-1.7-0.9-3.1-1.7-4.5-3c-0.6-0.6-1.2-0.7-2-1.1
			c-0.8-0.3-1.3-0.9-1.8-1.5c-1.1-1.3-2.6-2.2-3.5-3.7s-2.1-2.5-3.2-3.8c-1.3-1.6-2.2-3.4-3.3-5.1c-2,2.1-2.5,5.4-3.7,8
			c-1.5,3.2-2.9,6.5-4.3,9.7c-2.5,5.8-4.9,11.7-7.1,17.7c-0.1,0.2-0.5,0.9-0.4,1.2c0.1,0.2,0.6,0.5,0.8,0.7c0.5,0.5,0.8,1.1,1.1,1.7
			c0.7,1,1.5,2,2.3,2.9c1.9,2,4.1,3.9,6.5,5.3c1,0.6,2.5,1.8,3.7,1.7c1.5-0.1,2.7-0.2,4.3,0.1c1.5,0.3,2.8,0.6,4.4,0.6
			c0.6,0,1.2-0.1,1.8,0.1c0.4,0.2,0.7,0.6,1.2,0.7c0.6,0,0.9-0.5,1.5-0.7c0.5-0.2,1-0.2,1.5-0.2c0.7,0,2.4,0.7,3,0.1
			s0.4-2.4,1.6-2.6c0.9-0.2,2.7,1.4,3.4,1.9c-0.4-1.2-1.5-3-0.9-4c0.3-0.4,0.6-0.5,1.1-0.4c0.6,0.1,0.6,0.5,1.1,0.8
			c2.5,1.4,2.3-5.3,2.2-6.4c-0.6,0-1.3-0.1-1.9-0.1c0,0.6,0.2,1.9-0.2,2.2c-0.3,0.2-1.5,0-1.9,0c0.9,0.8,1.3,1.6,0,2.3
			c-0.9,0.5-2-0.1-2.1-1.2c-0.1-1.2,1.7-1.3,1.4-2.5c-0.4-1.5-1.8,1.1-2.1,1.5c-0.4-1.3-0.1-2.6,0.8-3.6c1.1-1.3,2.3-1.3,3.8-0.9
			c0.1-0.6,0.5-1.1,0.6-1.6c0.2-0.7-0.1-0.5-0.4-1.1c-0.5-1,0.5-1.3,0.7-2.2c0.1-0.5-0.1-0.9-0.3-1.4c-0.3-0.5-0.8-0.8,0-1
			c0.6-0.2,1.3,0.4,1.8-0.1c0.6-0.5,0.4-1.7,0.7-2.3c0.5-1,1-0.4,1.8-0.1c0.6,0.2,0.8,0.2,0.8-0.5c0-0.3,0-0.6-0.3-0.9
			c-0.4-0.4-1-0.1-1.4-0.2c-0.6-0.2-0.7-0.6-0.9-1.1c1.1-0.1,1.1,0.3,2.1,0.7c0.8,0.3,1.6,0.3,2.4,0c-0.5-0.2-1.2-0.2-1.7-0.6
			C72.4,74.7,72.5,74.2,72.3,73.6"/>
		<path class="st0" d="M140,36.8c1.1-2,2-4,3-6.1c0.6-1.2,1.9-3,0.3-4c-1-0.7-2.9-1.7-4.2-1.1c-1.1,0.4-1.7,3-3.2,1.3
			c-0.3,0.8-1.2,0.7-1.8,1.1c-0.4,0.3-0.4,0.6-0.6,1c-0.3,0.4-0.7,0.7-1,1.1c-0.3-0.6-0.6-1-1-1.5c-0.3,0.6-0.3,0.9-0.5,1.5
			c-0.1,0.3-0.2,0.6-0.6,0.7c-0.8,0.3-1.6-0.7-2-1.2c0.2,0.8,0.4,1.8-0.2,2.6c-0.4,0.6-1.2,0.7-1.6,1.3c-0.5,0.7-0.5,1.2-1.4,1.5
			c-0.2,0.1-0.7,0.2-0.9,0.2c-0.2,0-0.3-0.3-0.4-0.3c-0.3,0-0.7,0.3-0.9,0.4c0.5,0.7,0.3,0.9-0.2,1.4c-0.7,0.5-0.7,0.6-1,1.4
			c-0.2,0.4-0.4,0.7-0.7,0.9c-0.4,0.2-0.9,0-1.2,0.3c-0.6,0.4-0.6,1.6-1.1,2.2c-0.7,0.8-1.5,1.3-2.2,2.1c-0.6,0.9-1.1,1.8-1.6,2.7
			c-0.9,1.8-2.2,3.5-2.3,5.6c-0.1,0.9,0,2-0.4,2.8s-1.3,1.1-1.6,2.1c-0.3,0.8-0.5,1.8-0.6,2.6c-0.1,1,0.5,1.8,0.1,2.7
			s-0.5,1.6-0.6,2.6s-0.8,1.6-0.4,2.4s0.9,1.4,1,2.3c0.1,1,0,1.4-0.9,1.8c0.5,0.9,1.1,1.6,1.4,2.7c0.3,1,0.7,1.9,1.3,2.7
			c1.3,1.6,2.8,2.5,2.8,4.8c5.7-1.9,11.4-3.8,17-5.7c-2.2-0.4-1.1-4.3-0.9-5.7c0.3-2.6,0.5-5.3,0.9-7.9c0.3-2.2,1-4.4,1.3-6.7
			c0.2-1.2,0.4-2.3,0.7-3.5c0.3-1,0.8-1.9,1-2.9c0.5-2.2,0.8-4.3,1.7-6.4C137.9,40.7,139,38.8,140,36.8"/>
		<path class="st0" d="M-25.4,232.7c0.4-0.3,0.9-0.3,1.4-0.3c1.3-0.1,2.5-0.4,3.8-0.8c1.6-0.5,3.2-0.7,4.9-1
			c1.5-0.3,3.1-0.2,4.6-0.7S-8,229-6.4,229c1.7-0.1,2.8-0.9,4.2,0.6c1.3-1.8,3.1-1.8,5.1-2c0.7-0.1,1.6,0,1.7-0.9
			c0.2-0.8-0.5-1.9-0.8-2.5c-1.9-3.5-3.4-7.2-5.9-10.3c-2.4-3-5.6-6.4-9-8.3c-1.9-1-4-1.6-6-2.4c-2.1-0.8-4.2-1.8-6.3-2.7
			c-1.1,1.2-1.2,2.6-1.7,4.1c-0.5,1.4-1.4,2.6-1.9,4c-0.9,2.8-1.7,5.6-2.9,8.4c-2.5,5.8-4.9,11.6-7.1,17.5c3.5-0.5,7-0.9,10.6-1.1
			C-25.9,233.2-25.9,233-25.4,232.7"/>
		<path class="st0" d="M161.8,15.8c1,0.1,2.2,0.4,2.9,1.2c2.7-4,6-7.5,9.5-10.9c3.3-3.3,6.7-6.6,10.4-9.5c7.4-6,15.6-10.7,24-15
			c-2.7-3.1-5.3-6.2-8-9.3c-2.5-2.9-5.5-5.3-8.4-7.7c-0.2,2.4-0.7,4.8-0.6,7.2c0,2.4,0.4,4.8,0.4,7.2c0,2,0,4.1-0.5,6
			c-0.4,1.5-1.3,3.6-2.9,4.1c-2.2,0.6-5.9-0.4-7.6-2c-1.4-1.3-2.2-3.3-3.3-4.9c-0.8-1.1-1.6-1.5-2.9-1.1c-1.9,0.6-3.8,1.8-5.6,2.7
			c-2.1,1-4.1,2.1-6.2,3.1c0.1,0.1,1,0.5,1,0.7c0,0.1-0.5,1.1-0.5,1.3c-0.1,0.8,0.3,1.5,0.6,2.2c0.2,0.8,0.4,1.6,0.4,2.4
			c0,0.9-0.5,1.4-0.7,2.2s0.4,1.1,0.7,1.8s0.3,1.5,0.2,2.3c-0.1,0.6-0.5,1.3-0.5,1.9c0,0.3,0.3,0.7,0.2,1.1s-0.5,0.6-0.8,0.8
			c1.1,0.7,1.3,0.6,0.9,1.8c-0.3,0.9-0.2,1.7-0.1,2.6c0.1,0.5,0.6,1.8,0.2,2.2c-0.3,0.4-1.3,0.1-1.8,0.1c0.2,0.9,0.4,0.8,0.8,1.5
			c0.3,0.5,0.2,1.1,0.2,1.6C163.8,15.2,162.9,15.3,161.8,15.8"/>
		<path class="st0" d="M-2,163.3c1.5,0.4,2.9,0.8,4.5,0.9c1.3,0.1,2.7,0.1,4,0.7c0.5,0.2,1,0.8,1.5,0.8c0.6,0,0.4-0.4,0.8-0.7
			c0.4-0.3,0.7,0,1.1,0.1c0.6,0.2,1.2,0.2,1.8,0.2c1.7,0.1,3.4,0.1,5,0.1c1.5,0,3,0.3,4.5,0.3c1.6,0,3.2,0,4.8,0
			c-1.2-2.4-2.3-4.9-4.2-6.8c-1-1-1.8-2.1-2.8-3.1c-0.9-1-2.1-1.7-3.1-2.6c-1.1-0.9-2-1.9-3.2-2.6c-0.5-0.3-1.1-0.7-1.7-0.9
			c-0.5-0.1-0.9-0.1-1.4-0.3C9,149,8.5,148.4,8,148s-1.1-0.7-1.6-1c-1.1-0.6-2.3-1.2-3.4-1.8c-3.3,6.1-6.3,12.4-9,18.8
			C-4.8,163-3.5,162.9-2,163.3"/>
		<path class="st0" d="M84.9-24.8c0.3,0.4,0.7,0.7,0.9,1.2c0.2,0.5,0.1,1,0.2,1.5c0.2,0.6,0.9,0.9,0.4,1.6c-0.3,0.5-1,0.6-1.2,1.2
			c-0.4,1.1,0.9,2.1,1.4,2.9c0.3,0.5,0.5,1,0.4,1.6c-0.1,0.4-0.4,0.6-0.5,0.9c-0.1,0.6,0,0,0.1,0.6s0.3,1.2,0.3,1.8
			s-0.2,1.3-0.1,1.9c0.3,1.3,1.2,3.2,2,4.3c0.7,1,1.2,1.3,2.4,0.9c5.9-2.3,7.1-8.8,8.4-14.3c0.7-3.3,1.1-6.4,1.2-9.7
			c0-3.5,0.3-7,0.1-10.5c-1,0.3-2.2,0.4-2.9,1.2c-0.4,0.5-0.4,1-0.7,1.4c-0.5,0.6-1.5,1-2.1,1.5c-3.1,2.3-6.2,4.7-9.3,7
			c-0.4,0.3-0.9,0.7-1.3,1S84-26.5,84.1-26C84-25.6,84.6-25.1,84.9-24.8"/>
		<path class="st0" d="M126.6-5.4c-0.6,0.7-1.6,0.9-2.3,1.6c-0.7,0.7-1,1.5-1.4,2.3c-0.4,1.1-0.9,1.9-0.9,3.2c0,1.1-0.4,2.2-0.6,3.3
			c-0.1,0.8-0.1,1,0.7,1.2c1.1,0.3,2.3,0.3,3.4,0.2c5.2-0.5,9.3-4.6,12.4-8.3c3.6-4.3,6.5-9.1,9.6-13.8c-1.5-0.8-3.1-1.5-4.5-2.4
			c-1.3-0.9-2.5-2-3.8-3c-0.2,0.5-0.2,1.2-0.4,1.7c-0.3,0.6-0.6,0.7-1.2,1c-1,0.6-1.8,1.5-2.4,2.4c-0.6,0.9-0.9,2-1.6,2.8
			c-0.7,0.7-1.6,1-2.3,1.6c-1.1,0.9-2,2.4-2.9,3.5C127.8-7.3,127.3-6.3,126.6-5.4"/>
		<path class="st0" d="M29.7,41.9c0.2,0.5,0.6,1.3,0.3,1.9c-0.6,1.1-1.1-0.5-1.7-0.8c0.1,0.9,0.2,1.8,0.5,2.7
			c0.2,0.6,0.4,1.2,0.3,1.8c-0.1,0.7-0.7,1-0.7,1.7c0,0.6,0.3,1.3,0.4,1.9c-1-0.1-1.3-0.3-1.9,0.5c0.3,0.1,0.9,0.1,1.1,0.3
			c0.3,0.2,0.1,0.1,0.2,0.6c0.1,0.6,0,1.6,0,2.3c0,0.8-0.5,0.6-0.8,1.1c-0.2,0.4-0.2,1.1-0.1,1.5c0.1,0.6,0.5,1.2,0.5,1.7
			c-0.1,0.7-0.7,0.7-1,1.2c-0.4,0.7,0,1.1,0.1,1.8c0.3,0.9,0.2,1.9,0.3,2.9c4.6-9.2,8.1-18.8,13.2-27.7c0.1-0.2,0.2-0.4,0.4-0.7
			c-0.2-0.1-0.3-0.2-0.5-0.3c-0.1-0.4,0-1-0.1-1.5c-0.1-1.1-0.4-2.1-0.5-3.2c-0.2-1.2,0.1-2.3,0-3.5c0-0.4-0.1-0.8-0.1-1.2
			c0-0.6,0.3-1.1,0.4-1.6c0-0.6-0.3-1.3-0.3-1.9c0-0.5,0-0.9,0.1-1.4c0.2-1.3,0.6-2.5,0.7-3.7c0.4-2.6,0.4-5.2,0.9-7.8
			c-0.7,1-1.5,2-2.1,3c-0.7,1-1.1,2.1-1.7,3.2c-0.5,0.9-1.2,1.7-1.8,2.5c-0.6,0.6-0.6,0.6-0.3,1.4c0.1,0.3,0.2,0.7,0.2,1.1
			c-0.2,1.6-2.6,1-2.2,2.7c0.2,0.9,0.8,1.6,0.5,2.6c-0.3,0.8-1.3,1.2-1.6,2.1c-0.4,0.9,0.1,1.5,0.2,2.4c0,0.8-0.3,1.4-0.8,1.9
			c-0.7,0.7-0.7,1.2-0.9,2.2c-0.2,0.9-0.5,1.8-0.9,2.5c-0.5,0.8-1,1-0.8,1.9C29.1,40.7,29.5,41.3,29.7,41.9"/>
		<path class="st0" d="M18.9,56c0.8,3,2,5.9,3.6,8.5c0.3-1.5,0.7-3,0.8-4.5c0.1-1.5,0.1-3.1,0.3-4.6c0.3-2.9,0.8-5.7,1.4-8.5
			c1.2-5.9,2.4-11.8,3.6-17.8C26.8,32,25,35,23.2,37.9c-0.9,1.4-1.8,2.9-2.7,4.3c-0.7,1.2-2.1,2.7-2.3,4.1c-0.2,1.6-0.1,3.5,0,5.1
			C18.2,53,18.5,54.5,18.9,56"/>
		<path class="st0" d="M45,20.5c0,0.4,0.3,0.9,0.4,1.3c0.1,0.5,0.1,1,0.1,1.5c0,1.2,0.1,2.4,0.1,3.6c2.4-3.4,3.8-7.4,6-10.9
			c1-1.5,2-3,2.7-4.7s1.5-3.5,2.3-5.3c0.5-1,1-1.9,1.5-2.9c0.2-0.5,0.5-0.7,0.2-1.1c-0.1-0.2-0.4-0.4-0.6-0.5
			c-0.6-0.1-1,0.6-1.5,0.9c-0.7,0.3-1.5,0.2-2.3,0.5c-1.7,0.6-3.2,1.6-4.9,2.3c-0.5,0.2-0.9,0.3-0.8,0.9c0,0.6,0.6,0.4,0,0.9
			c-0.3,0.3-0.7,0.1-1.1,0.1c0,1.2,0.2,1.9-0.3,3c-0.5,0.8-0.3,1.5-0.3,2.4c-0.1,1-0.5,2.1-0.8,3c-0.4,0.9-0.9,1.6-0.4,2.5
			c0.3,0.5,0.9,0.9,0.5,1.5C45.4,19.9,44.9,19.7,45,20.5"/>
		<path class="st0" d="M37.9,178c-1.8-1-0.1-2.1,0-3.1V178z M35.3,172.1c-0.3,0-1.2,0.1-1.3,0.4c-0.1,0.1,0.1,1.3,0.1,1.4
			c0,0.9-0.1,1.7,0,2.6c0,0.9,0.5,1.7,0.5,2.6c0,0.8-0.5,1.2-0.7,1.9c-0.3,0.9,0.1,3.5,1.2,3.8c0-0.2,0.1-1.9,0.2-2
			c0.5-0.2,0.7,1.1,0.9,1.4c1.4-1.4,1.8-3.3,2.5-5.1c0.8-2.1,1.5-4.3,2.3-6.4c-0.9-0.1-1.8-0.1-2.8-0.3
			C37.1,172.3,36.2,172,35.3,172.1L35.3,172.1z"/>
		<path class="st0" d="M10.9,232.4c-0.8,0.3-0.6,1.3-0.5,2.1c0,1.1,0.4,2.1,1.4,2.7c0.4-1,1.7-3.1,1.3-4.2
			C12.8,232.2,11.6,232.1,10.9,232.4"/>
		<path class="st0" d="M161.8-3.5c0.5-0.5,1.3-0.8,1.4-1.5c0.1-0.8-0.6-2-0.8-2.7C162.2-6.3,162-4.9,161.8-3.5"/>
		<path class="st0" d="M47.5,142c-1.3,0,0.1-2.8,0.3-3.4C48.3,139.3,49.3,142,47.5,142 M58.7,106.8c0.5-0.3,1.5-0.7,1.8-1.3
			c0.3-0.7-0.3-0.7-0.9-0.7c-0.7,0-1.6-0.1-2.3,0s-1,0.3-1.7-0.1c-0.4-0.2-0.7-0.8-1.2-0.9s-1,0.4-1.4,0.6c-1.4,0.6-2.8,0.2-4.2,0.3
			c-0.5,0-1,0.2-1.5-0.1c-0.6-0.3-0.8-0.7-1.6-0.6c-1.3,0.1-2.3,0.5-3.6,0.1c-0.8-0.2-1.9-1.1-2.8-0.8c-0.8,0.2-1.2,1.5-1.9,2.1
			c-0.2-1.1-0.3-2.4-1.2-3.2c-1-0.9-2.5-1.3-3.6-2.1c-2.5-1.7-4.3-4.3-6.3-6.6c-1.2,1.8-2.1,3.5-2.9,5.6c-0.8,2-1.5,3.9-2.3,5.9
			c-1.6,4-3.2,7.9-4.9,11.8c-3.5,7.9-7.4,15.6-10.8,23.6c2.3,0.1,4.6,1.2,6.6,2.3c0.5,0.3,0.6,0.4,0.9,0.9c0.2,0.2,0.4,0.8,0.7,0.8
			c0.2,0,0.7-0.3,1-0.2c0.4,0.1,0.7,0.3,1,0.6c2,1.6,3.9,3.2,5.8,4.9c0.9,0.8,1.4,1.5,2,2.5c0.6,1.1,1.3,1.8,2.3,2.6
			c1.6,1.3,2.5,3.5,3.6,5.3c0.6,1,1.3,2,1.7,3.1c0.4,1,0.6,2.1,1.4,2.9c1.7,1.6,4.3,0.7,6.4,0.9c0.8,0.1,1,0.3,1.7,0
			c0-0.3,0.1-0.4,0.3-0.3c0.2,0.1,0.5,0.2,0.7,0.3c0.5,0.3,1,0.6,1.6,1c0.3-0.7,0.6-1.5,0.9-2.2c-0.3,0-1.6,0.1-1.8-0.4
			c-0.2-0.4,0.5-0.5,0.8-0.8s0.4-1.3,1-1.2c0.4,0,0.4,0.4,0.4,0.8c1,0,1-0.8,1.1-1.5c0.1-0.5,0.3-1,0.4-1.4c0.1-0.3,0.6-1.6,0.5-1.9
			c-0.3-0.7-2.6-0.6-1.1-1.5c0.4-0.3,1.5-0.2,1.9-0.6c0.3-0.3,0.3-1.5,0.4-2c-0.7,0-1.4,0.4-1.8-0.1c-0.6-0.8,0.3-2.1,0.7-2.8
			c0.6,0.4,0.9,0.9,1.5,0.4c0.7-0.5,1.3-1.6,1.6-2.3c-0.7,0-0.6,0.1-1-0.4c-0.2-0.3-0.3-0.9-0.4-1.3c-0.2-0.8-0.7-1.3,0.3-1.5
			c0.6-0.1,0.7,0,0.9,0.5c0.2,0.7,0.1,1.9,0.2,2.7c0.9-1.1,1.8-2.3,1.5-3.8c-0.6,0.6-0.6,0.4-1.3,0s-1.4-0.9-2-1.3
			c0.9-0.8,2.2,0,3-0.7c0.6-0.4,0.3-1.8,0.3-2.4c0-0.8,0.4-1.5,0.3-2.3c0-0.8-1-1.2-0.5-1.9c0.3-0.5,1.2-0.4,1.3-1.2
			c0.2-0.8-0.6-1.3-1.2-1.6c0.9-0.3,2.6-0.6,1.8-1.8c-0.4-0.6-0.8-0.6-0.8-1.4c0-0.6,0.4-1.2,0.6-1.7c0.3,0.7,0.8,2.5,1.8,2.4
			c0.8-0.1,1.6-0.8,1.4-1.6c-0.8-2.4-2.9-2.5-5-3c0.4-1.4,1.4-1.3,2.4-0.6c0.6,0.4,1,0.8,1.8,0.3c0.8-0.5,0.4-0.6,0.1-1.3
			c-0.7-1.3,0.3-2.1,1.3-2.9c0.6-0.5,0.8-1,1.3-1.5s1.3-0.6,1.9-0.9c-0.8-0.4-1.4-0.8-2.3-0.5c-0.6,0.2-1,0.6-1.6,0.2
			c-1.4-0.7,0.4-0.9,0.6-1.5c0.1-0.3-0.3-1-0.1-1.5c0.1-0.5,0.4-0.9,0.7-1.3c0.6-0.9,1.2-1.8,0.9-2.9c0.7,0.8,0.9,1,1,2.1
			c0,1,0.1,2,0.3,3c0-1.5,1.4-2.4,1.6-3.8c0.1-0.4-0.3-1.5,0.1-1.7c0.3-0.2,1,0.3,1.3,0.3c-0.2-1.3-0.3-2.7-0.7-4
			C60.8,108.1,59.7,107.6,58.7,106.8"/>
	</g>
	<g transform="translate(27.999643, -0.500294)">
		<path class="st1" d="M654.6,156c-1.8,0.4-3.5,0.9-5.3,1.3c-2.1,0.4-4.2,0.8-6.4,1.1c-1.4,0.2-2.7,0.5-3.7,1.7
			c-1.8,2.2-3.5,6.1-1.1,8.4c1.1,1.1,3.1,0.8,4.6,1.2c1.6,0.5,3.1,1.1,4.8,1.3c7.9,1,15.8,3,23.6,4.9c3.5,0.9,7.1,2.1,10.5,3.4
			c1.7,0.7,3.4,1.5,5,2.6c1.3,0.9,2.8,1.8,3.9,3c-4.3,0.7-9,0.8-13.3,0.1c-2.1-0.4-4.3-0.3-6.4-0.4c-2.2-0.2-4.3-0.3-6.5-0.5
			c-2.1-0.2-4.2-0.4-6.2-0.7c-0.8-0.1-1.5-0.2-2.3-0.1c-0.5,0.1-0.7,0.2-1.1,0.1c-0.3-0.1-0.7-0.3-1.1-0.5c-1.6-0.5-3.3-0.4-4.9-0.5
			c-1.2-0.1-2.6-0.4-3.8-0.2c-2.2,0.5-3.2,3.5-3.7,5.4c-0.3,1.2-0.1,2.6,0.3,3.8c0.4,1.3,1.2,1.3,2.3,1.9c1.5,0.9,2.9,1.8,4.6,2.5
			c1.4,0.6,2.8,1.1,4.2,1.7c3,1.3,6.3,2.5,9.2,4.2c1.5,0.9,3,1.8,4.6,2.6c1.5,0.7,2.9,1.5,4.2,2.4c2.7,1.9,5.1,4.2,7.1,6.9
			c-0.9,0-1.7,0.1-2.6-0.2c-1.1-0.4-2.1-1-3.3-1.3c-2.1-0.7-4.2-1.3-6.3-2.1s-4.3-1.5-6.4-2.2c-1.1-0.3-2.2-0.5-3.3-0.7
			c-1-0.2-1.9-0.7-2.8-1c-4.5-1.8-9.2-2.7-13.9-4c-4.5-1.3-8.9-2.6-13.5-3.5c-2.1-0.4-4.3-0.8-6.4-1.1c-2.1-0.3-4,0-6,0.5
			c-2.1,0.6-4.1,1.1-6.2,2c-1.5,0.6-3.6,1.2-4.8,2.3c-0.7,0.7-1.1,1.3-2,1.8c-0.7,0.4-1.4,0.6-2.1,0.9c-1.6,0.6-3.1,1.4-4.7,2
			c-1,0.4-2.1,0.7-3.1,0.7c-1,0.1-1.4,0.3-2.3,0.8c-1.4,0.7-3,1-4.6,1.5c-1.5,0.5-3.2,1.7-4.9,1.2c-1.6-0.6-2.6-2.6-3.6-3.9
			c-2.5-3.4-4.7-6.7-6.1-10.7c-1.5-4.2-2.9-8.5-4.3-12.7c-0.7-2.2-1.5-4.4-2.3-6.6c-0.4-1.2-1.3-2.5-0.3-3.7
			c1.1-1.3,1.5-3.4,2.6-4.8c1.1-1.5,2.4-2.8,3.6-4.2c0.7-0.8,1.4-1.6,2-2.5c0.5-0.7,0.9-1.6,1.5-2.3c0.5-0.6,1.3-1,1.8-1.5
			c0.6-0.6,1.2-1.3,1.7-2c1.5-1.7,2.9-3.6,4.5-5.2c1.3-1.3,2.8-2.5,4.2-3.9c2.9-2.9,6-5.6,9-8.3c2.9-2.7,5.9-5.3,8.8-8
			c2.7-2.6,5.9-4.7,8.9-6.8c3.3-2.4,6.5-4.9,10-6.9c3.4-1.9,6.8-2.5,10.6-3.1c-0.4,0.7-0.6,1.5-1.1,2.2c-0.7,1-1.7,1.9-2.5,2.8
			c-1.7,1.8-3.4,3.7-5.1,5.5c-3.3,3.5-6.8,6.9-10,10.6c-2.6,2.9-4.6,5.9-5.6,9.6c-0.6,2-0.8,4.1,0.4,5.9c0.9,1.4,2.4,1.3,4,1.1
			c3.9-0.4,7.8-1.7,11.7-2.4c4.3-0.8,8.8-1,13.1-1.4c2.2-0.2,4.4-0.8,6.6-1c1-0.1,2,0.1,3,0s2-0.3,2.9-0.5c2-0.4,3.9-0.6,6-0.3
			s4,0.1,6.1-0.1c4.3-0.4,8.8,0.1,13.1,0.6c4.1,0.4,8.2,0.9,12.2,1.9c-4.2,1.1-8.4,2.2-12.7,3.2s-8.8,1.7-13.1,3
			C658.4,155.5,656.5,155.6,654.6,156L654.6,156z M320.6,245.4c0.5-1.7,0.9-3.5,1.5-5.2c0.1-0.4,0.3-0.7,0.6-1
			c-0.4,0.7-0.7,1.3-0.9,2.2C321.4,242.8,321,244.1,320.6,245.4L320.6,245.4z M319.7,247.1c0.1-0.2,0.2-0.4,0.3-0.6
			C319.9,246.7,319.8,246.9,319.7,247.1L319.7,247.1z M319.4,248c0.1-0.2,0.2-0.4,0.2-0.6C319.5,247.5,319.4,247.7,319.4,248
			L319.4,248z M320.5,245.7c-0.2,0.2-0.3,0.4-0.4,0.6C320.2,246.1,320.4,245.9,320.5,245.7L320.5,245.7z M578.8,230.1
			c-1.7,1.1-3.3,1.7-4.7,3.2c-3.1,3.3-6.5,6.5-9.4,10c-1.2,1.4-1.8,3.1-3.2,4.4c-1.5,1.5-3.4,2.6-5.1,3.8c-3.8,2.7-7.6,5.6-11.7,7.9
			c-0.9,0.5-1.8,1.1-2.8,1.5c-0.6,0.3-1.4,0.5-1.9,0.9s-0.7,1-1.3,1.4c-0.4,0.3-0.9,0.5-1.3,0.8c-3.5,2.2-7.1,4.5-10.7,6.6
			c-3.5,2.1-7,4.3-10.5,6.5c-1.8,1.2-3.6,2.5-5.4,3.7c-1.5,1-3.1,1.8-4.5,2.8c-1.6,1.1-3,2.2-4.7,3c-1.6,0.8-3.4,1.5-5,2.3
			c-1,0.5-1.8,1.1-2.8,1.6c-0.6,0.4-1.1,0.3-1.8,0.5c-1.9,0.7-3.6,1.8-5.6,2.4c-8.1,2.5-15.9-1.1-23-4.9c-3.6-1.9-6.8-4.4-10.2-6.5
			c-1.5-0.9-3.3-1.6-4.7-2.7c-0.7-0.6-0.9-1.1-1.8-1.6c-0.7-0.4-1.4-0.8-2-1.3c-3.2-2.5-6.2-5.1-9.1-8c-1.6-1.6-3.1-3.2-4.7-4.8
			c-1.2-1.3-2.1-2.8-3.2-4.2c-2.7-3.3-5.3-6.6-7.8-10c-1.2-1.6-2.5-3.3-3.7-4.9c-0.8-1.1-2.1-2.2-2.4-3.6c-0.3-1.3,0.5-2.5,1.1-3.6
			c0.9-1.6,1.8-3.2,2.5-5c0.9-2.6,2.4-7.7-0.5-9.6c-1.1,1.8-2.4,3.3-3.6,5.1c-1.2,1.7-1.7,3.9-3,5.4c-1.5,1.6-3.4,2.8-4.9,4.4
			c-1.5,1.6-2.9,3.3-4.4,4.9c-1.5,1.7-3.2,3.3-4.8,4.9c-1.5,1.5-3.3,2.7-5,4c-1.8,1.3-3.7,2.5-5.6,3.7c-0.8,0.5-1.7,1.1-2.6,1.4
			c-1,0.3-1.8,0.6-2.8,1c-3.8,2-7.7,3.9-11.6,5.7c-1,0.5-2.1,1.2-3.3,1.5c-0.4,0.1-0.7,0-1.1,0.2c-0.5,0.2-1,0.4-1.5,0.6
			c-2,0.9-4,1.6-6.1,2.2c-4.3,1.4-8.6,2.7-12.9,4.3c-4,1.5-7.8,3.1-11.9,4.2c-4,1.1-8.3,1.3-12.4,1.7c-1.1,0.1-2.4,0-3.5,0.3
			c-1,0.3-1.5,0.5-2.5,0.4c-1.9-0.1-3.6,0.2-5.4,0.5c2.8-5.5,4.3-11.8,6.3-17.6c0.5-1.5,1.2-3,1.6-4.6c0.4-1.4,1-2.8,1.7-4
			c0.8-1.6,1.1-3.4,1.7-5c-0.4,1.3-0.7,2.7-1.1,4c0.6-1.1,1.2-2.2,1.8-3.3c0.6-1.2,0.6-1.9,0.6-3.1c1.5,0.2,1.6-1.4,1.8-2.5
			c0.4-1.7,0.7-3.4,1.1-5c0.2-0.4,0.1-1,0.2-1.4c0.1-0.5,0.3-1,0.5-1.5c1.3-3.7,2.8-7.4,3.7-11.2c1.1-4.2,2-8.5,2.9-12.8
			c0.5-2.3,1.2-4.6,1.4-6.9c0.1-1.1,0.7-4.7-0.9-5.2c-1.2-0.4-2.5,3.3-2.8,4.1c-0.8,2-1.5,4-2.2,5.9c-0.7,1.8-1.2,3.6-1.9,5.3
			c-0.7,1.8-1,3.6-1.6,5.4c-0.4,1.1-1,1.8-1.4,2.8c-0.3,0.7-0.4,1.5-0.7,2.3c-0.5,1.6-1.3,3.1-1.9,4.7c-0.8,2-1.7,3.9-2.5,5.9
			c-0.8,1.8-1.2,3.7-1.9,5.5c-0.7,1.7-1.7,3.3-2.4,5c-0.7,1.9-1.4,3.9-2.2,5.8c-1.5,4-3.1,7.9-4.3,12c-0.3,1-0.8,2-1.1,2.9
			c-0.2,0.8-0.6,1.5-1,2.3c-0.6,1.5-0.8,3.1-1.1,4.7l0,0l0.1-0.5c-0.6,0-1.3,0.2-1.7-0.4c-0.5-0.6-0.3-1.8-0.4-2.6
			c-0.7,0.1-0.4,0.4-0.4,1.1c0,0.3,0.1,0.7,0.1,1l0.3,2.5c0.2-0.1,0.7-0.9,0.9-0.9c0.3,0,0.6,0.8,0.8,1.2c-0.1,0.1-0.1,0.3-0.2,0.4
			c-0.2,0.4-0.4,0.6-0.5,1c-0.3,0.8-0.5,1.5-0.9,2.2c-0.2,0.3-0.4,0.7-0.7,1c-0.2,0.2-0.8,0.6-0.9,0.8c-0.3,0.6,0.1,2.1,0.1,2.7
			c0,0.9-0.2,1.8-0.6,2.7c-0.2,0.3-0.5,0.5-0.6,0.8c-0.2,0.4-0.2,0.6-0.3,1.2c-0.2,1.9-0.9,3.7-1.6,5.5c-0.7,2-1.3,4.1-2,6.1
			c-0.6,1.9-1.5,3.8-2.1,5.7c-0.8,2.2-1.5,4.5-2.2,6.7c-0.6,1.7-1.4,3.2-2,4.8c-0.6,1.7-1.5,3.2-1.8,5c-0.3,1.9-1.4,3.9-2.1,5.7
			c-0.6,1.5-1.9,3.1-2.1,4.8c-0.1,0.8,0.1,1.5-0.2,2.2c-0.2,0.7-0.6,1.2-0.9,1.8c-0.4,0.9-0.1,1.7-0.4,2.5c-0.2,0.8-0.7,1.3-1.2,2
			c-0.7,1.2-0.5,2.5-1.2,3.7c-1.1,1.7-1.4,3.6-2,5.5c-0.3,0.9-0.5,1.9-0.7,2.9c-0.1,0.4-0.2,1.1-0.4,1.5c-0.3,0.4-0.7,0.3-0.9,0.5
			c-0.2,0.2-0.2,0.9-0.3,1.2c-0.3,0.9-0.6,1.8-1,2.6c-0.8,1.9-1.7,3.7-2.4,5.6c-0.7,2-1.4,4-2.1,6c-0.3,0.9-0.7,1.9-1,2.8
			c-0.4,0.9-0.7,1.2-1.3,1.9c-0.6,0.7-0.8,1.7-1.4,2.4c-0.5,0.7-0.9,1.2-1.1,2c-0.4,1.6-0.7,3.2-1.4,4.8c-1.7,3.9-3.8,7.6-5.5,11.5
			c-1.8,4.1-3.5,8.2-5,12.4c-1.4,3.9-2.4,8-3.9,11.9s-2.7,7.8-4.2,11.6c-1.5,4-3,8-4.4,12.1c-0.5,1.5-0.8,2.9-1.1,4.4
			c0.1-0.7,0.2-1.3,0.3-1.9c-1.4,2.4-2.7,5-2.1,7.9c0.4-0.6,0.7-1.2,0.9-1.8c-0.1,0.3-0.2,0.7-0.3,1c-0.4,0.9-0.8,1.5-1.1,2.4
			c-0.6,2.1-1.2,4.2-1.8,6.3c-0.3,1-0.6,2-0.9,3c-0.3,0.9-0.9,1.6-1.2,2.5c-0.3,1-0.2,2.1-0.4,3.1c-0.2,0.9-0.5,1.7-1,2.5
			c-0.4,0.6-0.9,1.1-1.1,1.8c-0.3,0.8-0.1,1.6-0.2,2.4c-0.1,1-0.5,2-0.6,3.1c-0.1,1,0.3,1.6,0.5,2.6s-0.2,1.7-0.5,2.6
			c-0.3,0.8-0.4,1.6-0.6,2.4c-0.1,0.3-0.1,1.4-0.4,1.6c-0.2,0.2-1.2,0.2-1.4,0.2c-1,0.2-1.9,0.4-2.9,0.4c-2,0-4.1-0.3-6.2-0.5
			c-4.1-0.4-8.2-1.1-12.2-2.4c-3.7-1.2-7.5-3-10.9-4.8c-3.5-1.9-6.6-4.4-9.5-7c-1.6-1.4-3.1-3-4.6-4.5c-0.7-0.7-1.4-1.5-2.2-2.2
			c-0.6-0.6-1.3-1.1-1.4-2c-0.1-1,0.7-2.1,1-3c0.3-0.8,0.6-1.6,0.9-2.4c0.7-2,1.5-4,2.2-5.9c1.5-4.1,3-8.2,4.6-12.3
			c1.5-4.1,3.1-8.2,5-12.2c1.8-3.8,3.4-7.7,4.9-11.6c1.4-3.7,3.1-7.3,4.6-11c0.8-2,1.7-3.9,2.3-6c0.5-1.7,0.9-3.3,1.8-4.9
			c0.5-1,1-2,1.3-3.2c0.3-1,0.4-1.8,1.1-2.6c1.3-1.6,2.1-3.5,2.7-5.5c1.3-3.9,2.9-7.8,4.7-11.4c1.9-3.7,3.9-7.2,5.7-11
			c1.7-3.8,4.1-7.2,5.7-11.1c3.3-8,7.9-15.3,11.3-23.2c3.3-7.8,7.3-15.3,10.6-23.1c1.8-4.1,3.5-8.2,5.1-12.3c0.8-2,1.5-4,2.3-5.9
			c0.7-1.8,2-3.1,2.5-5c0.5-1.9,1.4-3.3,2.2-5c0.9-1.7,1.4-3.8,2.1-5.7c1.6-4,3.2-8,4.9-12c1.7-4.1,3.6-8.1,5.4-12.1
			c0.7-1.5,1.1-3.2,1.8-4.7c0.3-0.8,1.1-1.4,1.4-2.1c0.1-0.3,0.1-0.8,0.2-1.2c0.2-0.5,0.5-1,0.7-1.4c1.8-3.7,3.8-7.3,5.5-11.1
			c1.7-3.9,3.4-7.7,4.9-11.7c1.5-3.9,3.3-7.6,4.6-11.6c0.6-1.9,1.2-3.8,1.7-5.8c0.4-1.7,1.2-4.2,0.8-5.9c-0.2-1.1-1.5-3.3-2.7-2.3
			c-1.2,0.9-1.9,2.7-2.5,4c-1,1.9-2,3.8-2.8,5.8c-0.7,1.6-1.2,3.1-2.1,4.6c-2.2,3.5-3.9,7.2-5.9,10.9c-0.4,0.8-1,1.5-1.6,2.2
			s-0.4,1-0.7,1.9c-0.4,1.6-1.7,2.8-2.4,4.3c-0.9,2-1.6,3.8-2.7,5.7c-0.9,1.6-1.8,3.2-2.6,4.9c-1.8,3.9-3.5,7.8-5.2,11.7
			c-0.9,2.1-1.8,4.1-2.8,6.2c-0.4,0.9-0.9,1.8-1.4,2.7c-0.3,0.6-0.9,1-1.1,1.6c-0.3,0.7,0,1.2-0.2,1.8c-0.3,0.7-0.6,1-1.3,0.6
			c-1.4-1-1.7-3-2.5-4.5c-1.8-3.5-3.6-6.7-4.2-10.6c-0.4-2.2-0.2-4.4-0.2-6.6c0-1.9,1.2-3.3,2.2-4.9c2.4-3.8,4.8-7.6,7.2-11.3
			c1.1-1.7,2-3.4,3.1-5s2.5-2.7,3.6-4.2c0.6-0.8,1.1-1.7,1.8-2.5c0.6-0.7,1.1-1.3,1.6-2.1c0.9-1.4,1.5-2.9,2.5-4.3
			c2.3-3.2,4.7-6.5,7.2-9.6c1.3-1.7,2.9-2.7,4.5-4.1c1.6-1.3,3-2.8,4.5-4.2c2.8-2.8,5.5-5.7,8.7-8.1c3.2-2.5,6.6-4.8,10-7.1
			c1.7-1.1,3.8-1.9,5.1-3.4c0.6-0.6,1.1-1.2,1.9-1.6c0.7-0.4,1.5-0.5,2.2-0.9c1.9-1.1,3.6-2.8,5.3-4.1c1.7-1.3,3.4-2.6,5.1-3.9
			c0.7-0.6,2.1-1.2,2.6-1.9c0.3-0.4,0.3-1,0.6-1.4c0.8-0.9,2.3-1,3.3-1.4c2-0.8,4.1-1.2,6.3-1.6c1.9-0.4,3.7-1.2,5.5-1.8
			c4-1.4,8.1-2.2,12.2-2.6c-1.9,5.5-4,11-5.4,16.7c-0.6,2.3-0.7,5-1.6,7.2c-0.3,0.8-1.3,1.5-0.8,2.4c0.3,0.7,1.3,1.4,1.9,1.8
			c1.3,0.8,2.9-0.1,4.1-0.6c2.1-0.9,4.2-1.9,6.5-2.3c2.4-0.4,4.4-2.7,6.8-2.6c1,0,1.9,0.5,2.6,1.1c0.8,0.7,1.7,1.2,2.5,1.9
			c1.7,1.5,3.7,2.8,5.8,3.7c0.7,0.3,1.4,0.1,2.1,0.7c0.5,0.4,0.9,1,1.6,1.2c-3.3,3.5-6.4,6.9-9.2,10.8c-1.3,1.9-2.4,3.8-3.1,6
			c-0.3,1.1-0.7,1.9,0,2.9c0.4,0.6,1,1,1.7,0.9c1.7-0.3,3.2-2.5,4.1-3.8c1.1-1.4,2.3-2.8,3.4-4.2c2.3-2.9,4.4-6,7.3-8.4
			c0.9-0.7,1.7-1.5,2.7-2.1c0.8-0.5,1.3-0.1,2.1-0.3c2.1-0.4,4-1.5,5.9-2.4c2-1,4.1-2.1,6.2-3.1c1.1-0.5,2.7-1.6,3.9-1.1
			c1.4,0.6,2.2,2.8,3,4c0.7,1.1,1.4,2.1,2.6,2.8c2,1.1,5.9,2.4,7.7,0.3c2.5-2.9,2.2-7.7,2-11.2c-0.1-2.2-0.4-4.4-0.2-6.6
			c0.1-1.9,0.4-3.8,0.6-5.8c3.5,2.9,6.9,5.9,9.8,9.4c1.6,1.9,3.2,3.7,4.8,5.5c0.8,0.9,1.5,1.7,2.1,2.8c0.5,0.9,1.2,1.7,1.9,2.5
			c1.5,1.6,2.5,3.7,3.6,5.6c1.1,1.8,2.2,3.6,3.2,5.4c2.1,3.6,4,7.1,5.6,10.9c0.8,2,1.9,3.8,2.8,5.7c0.8,2,1.6,3.9,2.4,5.9
			c0.5,1.1,1,2.3,1.4,3.5c0.2,0.8,0,1.8,0.3,2.6c0.3,0.7,1,1.4,1.3,2.1c0.3,0.8,0.5,1.6,0.8,2.4c1.5,3.9,3.6,7.5,5.4,11.3
			c1.8,3.9,3.6,7.9,5.7,11.6c2.2,3.8,4.9,7.3,7.5,10.8c1.4,1.8,2.8,3.6,4.1,5.5c0.5,0.7,0.9,1.4,1.5,2c0.6,0.5,1.4,0.7,2,1.1
			c0.4-1,0.9-1.7,0.7-2.8c-0.1-1-0.5-1.9-0.8-2.8c-0.6-1.8-2.1-3.4-1.7-5.3c0.4-1.8,1.9-3.3,3-4.7c1.5-1.8,3-3.7,4.5-5.5
			c5.1-6.1,10.5-12,15.8-18c2.7-3,5.3-6.1,8.1-9.1c1.2-1.3,2.7-2.4,4-3.7c1.1-1,1.8-2.3,2.8-3.4c0.8-0.8,1.7-1.4,2.4-2.1
			c0.6-0.6,1.3-1.3,1.9-1.9c1.4-1.4,2.8-2.8,4.1-4.3c2.7-2.9,5.3-5.9,8-8.8c5.2-5.6,10.7-10.9,16.2-16.3c1.6,4.6,2.9,9.5,4,14.2
			c0.3,1.2,0.4,2.4,0.8,3.5c0.4,1.1,0.9,2.2,1.4,3.3c1,2.4,1.7,5.1,2.9,7.4c2.3,4.4,4.2,9.6,7.5,13.4c1.6,1.9,3.8,3.5,5.7,5.2
			c2,1.8,4.1,3.5,6.1,5.3C582.6,227.4,580.7,228.8,578.8,230.1L578.8,230.1z M410.5,259.5c-0.2-0.4-0.3-0.6-0.5-0.7
			c0.1,0.1,0.3,0.2,0.4,0.5c0.3,0.7,0.6,1.4,0.8,2.2C411,260.8,410.8,260.1,410.5,259.5L410.5,259.5z M361.4,294.6
			c1.4,1.6,2.9,3.1,4.3,4.6c1.3,1.4,2.4,3,3.5,4.5c2.5,3.3,5.2,6.6,7.9,9.7c2.7,3,5.5,5.9,8,9s4.4,6.5,6.3,10
			c0.9,1.6,1.9,3.2,3.1,4.6c0.6,0.7,1.3,1.3,1.6,2.1c0.4,0.9,0.5,2,0.7,2.9c2,8.4,4,16.8,5.9,25.3c0.9,4.1,1.5,8.2,2.4,12.3
			c0.9,4.1,2.3,8.2,3.1,12.3c1.7,8.4,2.9,17,4.8,25.4c1.8,8.2,4.9,15.9,6.6,24.2c0.2,1.2,0.6,2.2,0.3,3.4c-0.2,1-0.4,1.8-0.4,2.8
			c0,1.7-0.2,3.1-1.2,4.6c-2,2.9-4.7,5.4-7.9,6.9c-1.7,0.8-3.3,1.8-5.2,2.3c-0.9,0.2-1.8,0.1-2.6,0.2c-0.9,0.1-1.6,0.8-2.5,1.1
			c-3.3,1.4-7.5,0.9-11,1c-3.9,0-7.7-0.3-11.3-1.9c-0.3-0.1-0.6-0.3-0.9-0.4c-0.5-0.1-0.6-0.3-0.3-0.6c0-0.4,0.2-0.8,0.2-1.2
			c0-0.9-0.2-1.7-0.4-2.6c-0.5-2-1-4-1.5-6c-1.9-8.3-2.8-16.8-3.9-25.2c-0.6-4.4-1.5-8.7-2.2-13c-0.7-4.2-1.2-8.3-1.7-12.5
			s-1.1-8.3-1.7-12.5c-0.3-2.3-1-4.5-1.3-6.8c-0.2-1.7,0.2-3.3-0.2-5.1c-0.9-4.1-1-8.3-2-12.3c-1.1-4.2-2.6-8.2-4-12.3
			c-0.7-2.1-1.5-4.2-2.2-6.3c-0.4-1.2-0.9-2.6-2.2-3.2c-0.7-0.3-1.4-0.3-2-0.8c-0.8-0.6-1.4-1.4-2.1-2.1c-1.5-1.5-3-3-4.5-4.5
			c-5.8-5.8-11.5-11.9-17.9-17.1c-3-2.4-5.8-5.1-9.1-7c-3.5-2.1-7-4.3-10.6-6.3c-1.8-1-3.5-1.9-5.4-2.7c-1.7-0.7-0.6-2.3-0.2-3.5
			c0.7-2,1.4-4,2-6c0.5-1.5,0.7-3.5,2.3-4.4c1-0.5,1.5,0.1,2.5,0.4c0.7,0.2,1.4,0.3,2.2,0.2c1.6-0.1,3.5-0.8,5.2-0.6
			c1.1,0.2,1.6,0.2,2.7,0c1-0.2,2-0.2,3-0.3c1.8-0.1,3.7-0.2,5.5-0.5c4-0.7,8-1.6,11.8-2.9c4.1-1.4,7.9-3.4,11.8-5.2
			c0.3,1.8,0.5,3.6,1.2,5.3c0.5,1.4,1.4,3.2,2.7,3.9C357.8,289.6,359.3,292.3,361.4,294.6L361.4,294.6z M420.8,465.6
			c1.2-0.7,1.5,0.3,2.2,1.3c2,2.8,4,5.5,6,8.3c2,2.7,3.9,5.4,5.9,8c1.8,2.5,3.9,4.9,5.6,7.5c1.7,2.7,3.1,5.6,4.5,8.5
			c1.1,2.5,2.8,5,1.6,7.8c-1.1,2.6-4.3,3.6-6.6,4.8c-2.9,1.5-5.2,2.6-8.5,1.5c-6.2-2.2-12.3-5.1-18.3-8.1c-5.4-2.7-9.5-6.7-14-10.7
			c-2.4-2.1-4.8-4-7-6.2c-2.3-2.3-4.5-4.8-6.8-7.1c-3.6-3.6-7.4-6.8-6.7-12.4c3.4,1.1,6.8,2.6,10.4,3.3c3.8,0.7,7.6,1.2,11.4,1
			c1.6-0.1,3.2-0.5,4.8-0.9c1.6-0.3,3.2,0,4.6-0.8c1.3-0.7,2.1-1.5,3.6-1.8c1.5-0.4,2.8-0.9,4.1-1.8
			C418.7,467.1,419.7,466.2,420.8,465.6L420.8,465.6z M312.7,317h0.1C312.7,317,312.7,317,312.7,317L312.7,317z M308.7,314.7
			l0.1,0.1C308.7,314.8,308.7,314.8,308.7,314.7L308.7,314.7z M235.2,512.5c1.6,2.9,3.2,5.8,4.7,8.7c0.8,1.5,1.5,2.9,2.2,4.4
			c0.7,1.4,1.3,2.4,1.3,3.9c-3.2-0.4-6.5-2.3-9.2-3.9c-2.9-1.8-5.3-3.9-7.7-6.2c-2.4-2.2-4.8-4.5-7.3-6.5c-1.2-0.9-2.4-1.8-3.7-2.5
			c-0.4-0.2-0.8-0.5-1.1-0.8c-0.4-0.4-0.5-1.1-1-1.4c-1-0.6-2.5,0.3-3.4,0.7c-1.2,0.6-2.3,1.2-3.2,2.1c-1.1,1-1.9,2.2-2.8,3.3
			c-0.9,1-1.8,2-2.6,3.2c-1.8,2.5-3.8,5.2-6.2,7.3c-1.1,1-2.4,1.7-3.3,2.8c-0.9,1-1.8,1.9-2.8,2.8c-2.3,1.9-4.3,3.8-6.3,6
			c-2.2,2.5-4.7,4.7-7,7c-0.4-1.5,0.3-2.7,0.9-3.9c0.7-1.5,1.3-3.1,1.9-4.6c1.4-3.3,2.9-6.6,4.6-9.7c1.6-2.9,3.2-5.9,4.7-8.8
			c1.3-2.5,3.2-5.5,2.6-8.4c-0.2-1.1-0.8-2.8-2.1-3.2c-1.2-0.4-2.4,0.7-3.4,1.3c-2.9,1.7-5.8,3-8.9,4.3c-3.1,1.3-6.1,2.5-9.1,4
			c-2.9,1.5-5.5,3.2-8.4,4.7c-1.4,0.7-2.9,1.3-4.3,2c-1.3,0.7-2.6,1.5-4,2.3c-2.6,1.5-5.4,2.5-8.4,2.9c2.1-2.8,5-4.8,7.7-6.9
			c3.2-2.5,6.3-5,9.6-7.3c3-2.1,6-4.1,8.9-6.3c1.4-1,2.7-2.1,4-3.2c1.1-0.9,2.3-1.8,2.5-3.3c0.2-1.3-0.4-2.9-1.5-3.7
			c-1.1-0.8-2.6-0.6-3.8-0.4c-3.6,0.5-7.1,1.6-10.5,2.6c-0.8,0.2-1.6,0.6-2.4,0.8c-0.8,0.2-1.8,0.1-2.6,0.1
			c-1.5,0.1-3.1,0.2-4.6,0.4c-1.6,0.2-3.2,0.1-4.8,0.4c-1.4,0.2-2.5,1-3.9,1c-6.6-0.2-12.7,3.5-19.2,3.5c3.9-2.3,7.8-4.5,11.7-6.8
			c1.8-1,3.7-1.9,5.4-3.1c1.9-1.3,3.7-2.7,5.6-3.8c7.1-4.2,14.9-7.2,21.4-12.4c1.6-1.3,3.1-2.6,4.6-3.9c0.3-0.3,0.8-0.9,1.2-1
			c0.6-0.3,0.4-0.4,1,0.2s1.1,1.4,1.6,2.1c2.1,2.9,4.6,5.4,7.4,7.5c3.3,2.4,7.1,3.9,10.8,5.6s7.4,3.6,11.3,4.9
			c3.9,1.3,8.1,2,12.2,2.5c4.4,0.5,8.4,0.2,12.8-0.3c0.3,3.3,0.6,6,2.1,9C231.8,507.2,233.7,509.8,235.2,512.5L235.2,512.5z
			 M251.6,264.4c0.3,0.1,0.7,0.1,1,0.2c-0.3-0.1-0.6-0.1-0.8-0.1C251.8,264.4,251.7,264.4,251.6,264.4L251.6,264.4z M252.8,266.3
			c0.1-0.3,0.3-0.7,0.3-1C253.1,265.6,252.9,266,252.8,266.3L252.8,266.3z M215.5,321.4c-4.9,2.9-9.2,6.5-13.9,9.6
			c-2.3,1.6-4.8,3-7.3,4.2c-1.2,0.6-2.4,1.2-3.7,1.7c-1.1,0.4-2.1,1.1-3.3,1.5s-2.5,0.1-3.7,0c-1.1-0.1-2.1-0.1-3-0.8
			c-1.6-1.3-2.6-3.8-3.6-5.6c-1.4-2.5-2.9-5.1-3.9-7.7c-0.9-2.5-2.1-4.8-2.6-7.4c0.8-1.4,0.8-2.8,0.1-4.2c-0.3-0.6-0.7-1.2-1.1-1.9
			c-0.4-0.7-0.4-0.9-1.2-0.9c0.7,2.3,1.5,4.6,2.2,6.9c-0.7-2.3-1.7-4.6-2.2-6.9c-0.4-2-0.6-4-1.3-6c-0.4-1-1-2-1.2-3
			c-0.2-0.8-0.2-1.7-0.3-2.6c-0.3-2.4-0.9-4.8-1.3-7.2c-0.7-4.6-1.2-9.3-2.1-13.9c-0.9-4.7-2.1-9.4-3.1-14.1
			c-0.4-1.8-1.1-3.3,0.7-4.6c1.7-1.2,3.5-2.1,5.3-3.2c1.7-1,3.4-1.9,5.1-2.7c1.5-0.6,3-1.2,4.4-2.2c0.9-0.6,1.7-0.6,2.7-0.9
			c1-0.3,2-0.7,3-1c1.8-0.6,3.6-1.3,5.5-1.9c1-0.4,3-1.7,4-0.7c0.5,0.5,0.5,1.6,0.7,2.2c0.2,1.1,0.4,2.1,0.6,3.2
			c0.8,4.1,1.6,8.2,2.2,12.3c0.6,4,1,8.1,1.6,12.1c0.2,1,0.7,2.2,0.6,3.2c-0.1,0.7-0.6,1.1-1.1,1.6c-1.3,1.2-2.5,2.5-3.6,3.8
			c-1.3,1.5-2.5,3-3.8,4.4s-2.5,2.6-3.4,4.2c-0.8,1.4-1.9,2.7-1.5,4.4c0.3,1.3,0.7,2.6,2.2,2.1c1.8-0.6,3.3-2.4,4.7-3.6
			s2.7-2.4,4.1-3.6c1.5-1.3,3.3-2.4,4.7-3.7c1.3-1.2,2.4-2.5,3.6-3.7c2.9-2.9,6.1-5.6,9.2-8.3c1.4-1.3,2.6-2.8,3.9-4.2
			c1.3-1.4,2.7-2.6,4-3.9c2.9-2.8,6-5.7,8.7-8.7c1.3-1.4,2.7-2.8,4-4.2c0.5-0.6,0.9-1.4,1.5-1.9c0.5-0.5,1.3-0.9,1.8-1.4
			c2.5-2.2,3.8-5.4,6.2-7.6c0.6,1.4,1.1,2.8,1.6,4.3c0.4,1.4,0.8,2.9,1.5,4.2c0.4,0.6,1,1,1.3,1.6s0.2,1.2,0.4,1.8
			c0.4,1.1,1.2,2.3,1.8,3.4c0.7,1.2,1.7,2.2,2.6,3.2c0.2,0.3,0.5,0.5,0.7,0.7c-0.1-0.1-0.2-0.1-0.3-0.2c0.7,1.2,1.4,1.8,2.6,2.6
			c0,0.1-0.1,0.1-0.1,0.2c-0.6,1.3-1.3,2.6-1.8,3.9c-0.8,2.4-2.1,4.6-2.8,7.1c-0.4,1.3-0.6,2.6-1.2,3.9c-0.5,1.1-1.2,2.1-1.8,3.2
			c-1.2,2.6-2,5.3-3,8s-2.2,5.4-3.4,8s-2.4,5.3-3.5,8c-0.5,1.2-0.9,2.6-1.7,3.6c-0.8,1.2-2.1,1.5-3.3,1.9
			C225.1,315.9,220.1,318.6,215.5,321.4L215.5,321.4z M154.8,243.5c-2.9-2.4-6.9-1.7-10.4-1.8c-4.1,0-8.2,0.8-12.3,1.1
			s-8.2,0.5-12.3,0.4c-3.6-0.1-7.3-0.4-10.9-1.2c-1.8-0.4-3.5-0.5-5.3-0.7c-1.1-0.1-2.2-0.4-2.7-1.5c-0.7-1.4-0.6-3.5-0.6-5
			c-0.1-1.5-0.3-3.4,0.3-4.8c0.6-1.4,1.9-2.1,3.2-2.6c1.6-0.6,3.3-1.3,4.9-1.9c6.7-2.5,13.5-5.5,20.7-6.1c2-0.2,4-0.2,6-0.2
			c1.7-0.1,3.3-0.5,5-0.6c3.5-0.4,7-0.5,10.5-1.2c1-0.2,1.6,0.3,2.5,0.5c0.8,0.1,1.5,0.1,2.3,0c1.6-0.1,3.1-0.3,4.7-0.2
			c1.9,0.2,3.7,0.3,5.6,0.5c1.7,0.3,3.3,0.7,4.9,0.9c1.8,0.2,3.6,0.3,5.4,0.7c0.9,0.2,2.3,0.4,2.8,1.3c0.7,1.1,0.2,3.3,0.1,4.6
			c-0.1,1.8-0.2,3.6-0.2,5.3c0,1.9,0.3,3.8,0.7,5.7c0.3,1.4,0.8,3,0.5,4.4c-0.2,0.8-0.7,1.1-1.5,1c-0.6-0.1-1-0.6-1.5-0.7
			c-1-0.1,0,0.6-0.6,1.3c-0.5,0.5-1.2,0.4-1.8,0.5c-0.7,0.2-1.3,0.5-1.9,0.8c-1.4,0.6-2.9,1-4.2,1.7c-3.1,1.5-6,3.3-8.9,5.1
			c-0.5-1.5-0.8-3.7-1.8-4.9C157.1,244.9,155.8,244.4,154.8,243.5L154.8,243.5z M356.2,151.4c0.7-1.9,1.5-3.7,2.1-5.6
			c0.2-0.7,0.2-1.6,0.9-2c0.6-0.3,1.6-0.1,2.2-0.1c1.1,0,2.2,0,3.4,0c0.6,0,1.4-0.1,1.7,0.5c0.3,0.6-0.2,1.7-0.2,2.4
			c0,1,0.2,2,0.5,3c1.1,4.2,2.3,8.3,3.5,12.5c-1.3-0.6-2.3-1.9-3.7-2.1c-0.9-0.1-1.6,0.4-2.5,0.6c-0.7,0.1-1.4,0.2-2.2,0.3
			c-3.2,0.7-6.1,2.4-9.4,3c0.2-1.2,0.2-2.3,0.6-3.4c0.3-1,0.7-2,1-3C354.8,155.4,355.5,153.4,356.2,151.4L356.2,151.4z M366.8,123.3
			c1.5-0.7,3.1-2.7,1.6-4.3c-0.8-0.9-2.8-0.4-3.8-0.2c-1.4,0.3-6.9,3.9-7.6,1.4c-0.4-1.6,0.4-4,1.1-5.4c0.5-0.9,1.1-1.8,1.8-2.4
			c0.8-0.7,1.1-0.5,2.1-0.4c1.6,0.2,3.1-0.3,4.2,1.3c0.2,0.3,0.2,0.7,0.7,0.8c0.3,0,0.5-0.4,0.9-0.4c0.5,0,0.6,0.4,0.8,0.8
			c0.6,1.1,1.4,3.3,3,2.4c1.7-0.9,1.8-3.9,1.8-5.4c0-2.5,0.2-4.9,0.3-7.4c0.1-1.9,0.3-3.7,1.7-5.2c1.3-1.4,2.4-3.3,4-4.4
			c1.8-1.2,4.2-1.1,6.3-1.2c2.4-0.2,4.9-0.5,7.4-0.2s4.9,0.4,7.4,0.3s4.9-0.3,7.3-0.3c2.3-0.1,4.8,0.1,7.1-0.1
			c0.9-0.1,2.2-0.4,2.8,0.5c0.7,1.1,0.6,3,0.8,4.2c-2.5-0.5-6.7-1.6-7.6,1.9c-0.3,1.1,0.6,2.1,1.4,2.7c1.2,0.9,2.8,0.9,4.2,1.1
			c0.8,0.1,2.1,0.1,2.5,0.9s0.2,2.2,0.3,3c0.2,3.5,0.7,6.9,1.1,10.4c0.3,3.3,0.6,6.7,0.1,10c-0.3,1.7-1,3.3-1.1,5
			c-0.1,1.1,0.1,2.3-0.9,3c-1.1,0.8-3.1,0.8-4.4,1.1c-1.7,0.4-3.5,0.8-5.2,1.3c-2.7,0.8-6,1.2-7,4.2c-1,3.2-1.8,6.6-2.8,9.8
			c-0.5,1.7-1.2,3.1-2,4.7c-0.3,0.6-0.7,1.3-0.7,2c0.1,0.7,0.6,1.4,0.9,2.1c0.6-0.3,1.3-0.5,1.8-1c0.6-0.5,1-1.2,1.4-1.8
			c0.9-1.2,1.6-2.3,2.9-3.1c0.1,0.7,0.2,1.2-0.1,1.8c-0.2,0.4-0.7,0.8-1,1.2c-0.8,1-1.6,2.1-2.5,3c-1.8,1.9-3.9,3.5-5.7,5.4
			c-1.8,1.9-3.6,4.1-5.8,5.5c-2.2,1.3-4.5,2.5-6.7,3.7c2-4.5,0.6-9-1.7-13c-1.1-1.9-2.4-3.6-3.7-5.4c-1-1.4-2.9-3.3-2.8-5.1
			c0-1,0.7-1.8,1.2-2.6c0.5-0.9,0.9-1.8,1.4-2.8c0.9-1.9,2-3.9,2.3-6c0.3-1.8-0.1-4.3-1.4-5.8c-0.5-0.6-1.2-0.5-1.9-0.9
			c-0.6-0.4-1.1-1-1.6-1.5c-0.6-0.6-1.3-1-1.9-1.6s-1.1-1.4-1.5-2.2C369,126.9,367.9,125.1,366.8,123.3L366.8,123.3z M373.6,83.9
			c1.9,0,2.8,1.1,3.7,2.6c-0.6,0.9-2.1,3.6-3.4,2.6c-0.2-0.2-0.3-0.6-0.6-0.9c-0.3-0.2-0.6-0.3-0.9-0.5c-0.7-0.3-1.5-0.6-2-1.3
			C369.3,84.8,372.5,83.9,373.6,83.9L373.6,83.9z M409.8,153.4c0.3-0.1,1.4,0.6,1.7,0.7c0.6,0.3,1.4,0.5,1.9,0.9s0.7,1,1.1,1.5
			c0.1,4,0.4,8.1,0.3,12.1c-0.1-4-0.2-8.1-0.3-12.1c-0.2,1.1-0.6,2.1-0.6,3.3s0.2,2.4,0.3,3.5c0.2,2.2,0.5,4.4,0.7,6.6
			c0,1.3-0.1,2.5-0.2,3.8c-1.6-2.2-3.2-4.5-4.8-6.7c-1.4-2-3.3-2.1-5.6-2.3c1.5-3,3-6,4.5-9C408.8,155.4,409.5,153.5,409.8,153.4
			L409.8,153.4z M672.8,160.3c2.4-0.7,4.9-1.6,7.3-1.9c2.3-0.3,4.4-1.3,6.7-2c2-0.6,4-1.1,6-1.8c1.5-0.5,3.1-1,4.3-2.1
			s1.9-2.9,1.6-4.6c-0.3-1.9-1.7-2.2-3.3-2.7c-8.3-2.8-16.8-4.5-25.5-5.6c-4.5-0.6-9-1.3-13.5-1.2c-2.3,0-4.7,0.2-7,0
			c-2.1-0.1-4.3,0.7-6.4,0.2c-2.1-0.4-4.1,0.1-6.3,0.4c-2.3,0.3-4.6,0.4-6.9,0.5c-2.1,0.1-4.3,0-6.3,0.6c-2,0.5-3.5,0.9-5.6,0.3
			c2.1-2.3,4.2-4.7,6.4-7c4.4-4.8,8.9-10,11.6-16c1.1-2.6,1.7-6.3-0.2-8.7c-1.7-2.1-5.4-1.7-7.7-1.3c-3,0.4-5.9,1.5-8.5,3.1
			c-2.5,1.5-5.3,2.8-7.5,4.6c-2.2,1.8-4.8,3-7.1,4.8s-4.7,3.6-7,5.4c-5.1,3.9-9.3,8.8-14.1,13c-2.6,2.2-4.9,4.6-7.2,7.1
			c-1.1,1.2-2.2,2.4-3.1,3.7c-0.8,1.1-1.5,2.3-2.3,3.3c-1,1.3-2.2,2.4-3.2,3.6c-0.9,1.1-1.8,2.4-2.7,3.6c-0.9,1.3-1.7,2.6-2.6,3.9
			c-0.5,0.7-0.9,1.8-1.8,1.7c-1.3-0.2-2-1.3-3.5-0.5c-0.5,0.3-0.8,0.7-1.2,1.1c-0.6,0.5-1.2,0.7-1.9,1c-1.3,0.7-2.5,1.7-3.7,2.5
			c-1.3,0.9-2.6,1.7-3.7,2.8c-4.9,4.5-9.5,9.2-14.2,13.9c-1.1,1.1-2.4,2.2-3.5,3.3c-0.9,0.9-1.6,2-2.5,2.9c-0.5,0.5-1.1,0.7-1.7,1.2
			c-0.5,0.4-0.9,1.1-1.4,1.6c-1,1.2-2.1,2.4-3.1,3.6c-2.1,2.3-4.4,4.3-6.4,6.7c-2.1,2.4-4.4,4.7-6.5,7.1
			c-4.4,5.1-8.6,10.2-12.7,15.6c-2,2.7-4.3,5.1-6.2,7.9c-1.8,2.6-3.4,5.4-4.8,8.2c-0.4,0.8-0.9,3.2-2.3,2.4
			c-0.5-0.3-0.9-1.2-1.2-1.7c-0.4-0.7-0.9-1.3-1.3-2c-1.9-2.9-3.8-5.9-5.3-9c-2.8-6.1-5.6-12.1-8-18.4c-1.2-3.2-2.5-6.3-3.9-9.4
			c-1.3-3.1-2.3-6.3-3.6-9.4c-2.6-6.2-6-12-9.3-17.8c-3.1-5.3-6.4-10.7-10.7-15.1c-2.3-2.3-4.1-5-6.4-7.2c-1.2-1.1-2.5-2.2-3.7-3.4
			c-0.9-0.8-1.6-2-2.7-2.6c-0.8-0.4-1.6-0.3-2.4-0.3c-0.6,0-1.4-0.2-2-0.1c-0.6,0.1-0.8,0.5-1.3,0.6c-0.6,0.1-0.9-0.1-1.3-0.4
			c-2.7-1.9-6.5-2.7-9.6-3.8c2-1.2,4.4-1.3,6.6-1.8c1.9-0.4,3.6-1.2,5.1-2.4c3.4-2.6,3.9-6.6,4.6-10.5c0.7-4.5,1.2-9.4,0.6-13.9
			s-1.2-9-1.9-13.4c-0.3-2.2-0.7-4.3-1.4-6.4c-0.5-1.7-1.2-3.5-1.1-5.3c0-0.9,0.1-2.3,0.7-2.9c0.5-0.5,1.2-0.7,1.8-1.2
			c1.2-1.1,2.3-2.4,3-3.9c0.6-1.2,1.6-3,1-4.3c-0.7-1.5-2.7-1.8-4.1-2.1c-4.1-1.1-8.3-0.9-12.4-1.5c-2-0.3-4.1-0.9-6.1-0.8
			c-2,0-4,0.1-6,0c-4.3-0.1-8.7-0.2-13,0.3c-1.1,0.1-2.3,0.2-3.4,0.3c-0.9,0.1-1.6,0.5-2.4,0.7c-0.5,0.1-1.3-0.2-1.8-0.2
			c-0.9-0.1-1.8,0-2.6,0.1c-1.8,0.3-3.3,1.5-5.1,1.9c-1.4,0.3-2.5,1.1-3.2,2.3c-1.8,3.2-1.9,7.6-2.1,11.1c-0.2,4.2,0.1,8.5-0.1,12.7
			c-0.1,1-0.2,1.4-1.2,1.3c-1.5-0.1-2.8-0.6-4.4-0.2c-2.9,0.8-4.7,3.4-5.9,6c-1.2,2.7-1.8,5.8-1.6,8.8c0.2,2.6,1.1,6.1,4.1,6.8
			c1.6,0.4,3.1-0.2,4.6-0.7c1.4-0.4,2.6-1.7,3.4,0.1c1.5,3.5,3.1,6.8,5.5,9.8c-2.3-0.2-4.6-0.4-6.9-0.5c-1.5-0.1-3.6-0.5-5.1,0.1
			c-0.8,0.3-0.9,0.9-1.5,1.5c-0.7,0.6-2,0.3-2.8,0.3c-2.5-0.1-4.7-0.5-7.2-0.3c-1.8,0.2-3.5,1.1-5.3,1.4c-2.2,0.4-4.4,1.3-6.5,2.1
			c-2,0.8-3.9,1.6-5.9,2.3c-2.1,0.6-4.1,1.3-6.1,2.2c-3.5,1.6-6.5,4.2-9.6,6.4c-0.8,0.6-1.7,1.1-2.5,1.7c-0.6,0.5-1,1.2-1.7,1.8
			c-1,0.9-2.1,0.8-3.2,1.3s-2.1,1.5-3.1,2.1c-0.9,0.6-1.8,1.2-2.7,1.8c-1.7,1.2-3.4,2.5-5.2,3.4c-3.4,1.7-6,4.4-8.8,7
			c-3,2.8-6.2,5.2-9.1,8.1c-2.9,2.9-5.5,6-7.8,9.3c-2.4,3.5-4.4,7.2-6.7,10.8c-1,1.6-2.4,3-3.6,4.4c-0.6,0.7-1.2,1.5-1.7,2.3
			c-0.5,0.7-0.8,1.6-1.5,2.2c-1.4,1.1-2.8,1.7-3.9,3.1c-1.2,1.6-2.3,3.3-3.4,5c-2.1,3.4-4.1,7-6,10.5c-0.6,1.1-0.5,1.8-0.6,3
			c-0.1,0.9-0.4,1.7-0.5,2.6c-0.3,1.4-0.1,2.9-0.5,4.3c-0.2,0.9-0.8,1-1.6,1.6c-0.7,0.5-1.3,1.1-2,1.7c-1.3,1.2-2.5,2.4-3.9,3.5
			s-2.9,2.2-4.1,3.5c-1.3,1.4-2.4,2.7-3.8,3.9c-3.1,2.5-6,5.3-9.1,7.9c-3.2,2.7-6,5.6-8.9,8.6c-3,3.1-6.2,5.9-9.3,8.8
			c-0.2-3.5-0.4-6.9-0.7-10.4c-0.3-3.7-1.2-7.4-1.9-11c-0.7-3.3-1.1-6.8-2.2-9.9c-0.8-2.2-2.3-3.9-4.6-4.5c-1.2-0.3-2.9,0.3-3.5-1
			s-0.6-3.2-0.8-4.6c-1-6.1,1-12.8-1.6-18.6c-1.1-2.5-3.1-3.9-5.6-4.9c-3.2-1.4-6.7-1.1-10.1-1.8c-1.5-0.3-2.8-1.2-4.4-1.2
			c-1.6-0.1-3.2,0-4.8,0c-1.7,0.1-3.3-0.3-5-0.3c-1.5,0-2.6,1-4,0.7c-1.6-0.3-2.9-0.6-4.5-0.2c-1.4,0.4-2.8,0.5-4.3,0.6
			c-1.8,0.1-3.7-0.1-5.5,0c-1.7,0.1-3.3,0.6-5,0.8c-3.5,0.4-6.9,0.8-10.4,1.8c-3.4,0.9-6.7,2.3-10,3.5c-5.3,2-11.4,3.5-12.9,9.8
			c-0.8,3.5-1,7.2-0.5,10.8c0.4,2.9,1,6,2.7,8.4c1.8,2.6,4.8,3.4,7.6,4.2c3.3,1,6.6,1.2,10,1.8c3.5,0.6,7,1.1,10.5,1
			c3.5-0.1,7-1,10.5-1.3c3.6-0.3,7.2-0.7,10.8-1c2.4-0.2,7.1-0.9,8.3,1.9c0.4,0.9,0.9,1.9,0.2,2.7c-0.8,0.9-1.6,1.9-2.3,2.9
			c-1,1.4-1.8,2.7-2.1,4.5c-0.3,1.7-0.3,3.4-0.4,5.1c-0.1,7.1,1.7,14.2,3.4,21.1c1.8,7.1,3.8,14.2,6.3,21.1c2.4,6.6,4.1,13.4,7,19.8
			c1.4,3.2,3.3,6.1,5.2,9c1.6,2.4,3.1,5.4,5.6,7.2c2,1.5,4.6,2.2,7.1,2c3-0.2,5.9-2.1,8.5-3.4c6.3-3.2,12.2-7.5,17.9-11.8
			c2.7-2,5.2-4.4,8.1-6.2c2.8-1.8,5.7-3.3,8.9-4.3c-2.7,5.6-5.1,11.3-7.9,16.9c-2.8,5.5-5.1,11.1-7.6,16.7c-1,2.3-2.6,4.3-3.6,6.6
			c-1.2,2.6-2.3,5.3-3.5,7.9c-2.1,4.8-4.4,9.6-6.3,14.5c-0.4,1.1-0.2,2.4-0.8,3.4s-1.2,1.8-1.6,2.9c-0.9,2.3-1.7,4.6-2.7,6.9
			c-2.4,5-3.8,10.3-6.1,15.4c-2.3,5-4.3,10.1-6.3,15.3c-1,2.5-2.1,5-3,7.5c-0.9,2.3-1.6,4.8-3,6.9c-3,4.6-5.4,9.6-7.7,14.6
			c-1.1,2.4-2,4.7-2.2,7.4c-0.1,2.4,1.3,4.3,2.5,6.2c-2.2,1.1-4.2,2.5-6.3,3.6c-2.3,1.2-4.8,2.1-7.2,3.1s-4.9,2-7.3,3
			c-2.2,0.9-4.1,2-6.2,3c-2,1-3.8,2.2-5.6,3.4c-2,1.2-4.1,2.4-6.1,3.7c-4,2.4-7.8,4.9-12,6.9c-2.2,1.1-4.3,2.2-6.5,3.2
			c-1.8,0.9-3.7,1.7-5,3.2c-1.9,2.3-1.8,6.1,0.1,8.4c1.2,1.6,4.2,1.4,6,1.5c1.2,0,2.5,0,3.7-0.3c1-0.2,1.8-0.7,2.8-1
			c1.1-0.3,2.3-0.2,3.5-0.4c1.1-0.1,2.2-0.3,3.3-0.6c2.4-0.5,4.7-1.1,7.1-1.6c2.3-0.5,4.6-1,6.9-1.6c0.9-0.3,1.9-0.8,2.9-0.8
			s2,0.1,3-0.1c1.1-0.2,2.1-0.5,3.2-0.6c1-0.1,2,0,3-0.1c1.1-0.2,2.2-0.7,3.3-1s2.1-0.2,3.1-0.2c-2.7,2.1-5.5,4-8.3,6
			c-2.8,2-5.4,4.3-8.1,6.5c-2.2,1.8-4.9,3.5-6.2,6c-1.1,2-1.3,4.6-0.8,6.8c0.5,2.8,2.6,3.2,5.2,3.3c3.3,0.2,5.8-1.2,8.6-2.6
			c5.6-2.8,11-5.9,16.3-9.2c2.6-1.6,5.5-2.9,8.3-4.2c1.5-0.7,2.9-1.4,4.4-2.1c1.2-0.6,2.8-1.7,4.1-1.6c-3.7,7.6-7.5,15.1-10.7,22.8
			c-1.4,3.3-2.4,6.6-2.7,10.2c-0.2,2.5-0.1,7.4,3,8.2c1.4,0.4,2.6-0.6,3.6-1.5c1.3-1.3,2.5-2.7,3.8-4.1c2.5-2.7,5.1-5.2,7.8-7.6
			c2.7-2.5,5.5-4.9,7.9-7.6c2.3-2.6,5.3-4.6,7.5-7.3c2.3-2.8,4.4-5.8,6.7-8.6c1.5-1.8,2.7-4.7,5.3-5.1c0.4,2.2,2.3,4.1,3.6,5.9
			c2.9,3.9,6.4,7.1,10,10.4c3.3,2.9,6.8,5.4,10.9,7c2.7,1,8.4,3.5,10.5,0.2c1-1.6,0.5-4.6,0.1-6.3c-0.5-2.4-1.7-4.6-2.7-6.8
			c-2.1-4.4-4.5-8.7-6.8-13c-1.2-2.2-2.4-4.3-3.7-6.4c-1.1-1.8-2.7-3.6-3.2-5.7c-0.2-0.9-0.4-2-0.1-2.9c0.3-0.9,0.7-0.8,1.5-0.9
			c1.8-0.3,1.3-3.6,1-5c-0.2-1.2-0.7-2.3-1.1-3.4c-0.4-0.9-1.2-2.2-1.1-3.2c0-1,1-1.9,1.4-2.8c0.4-1,0.7-2.1,1-3.1
			c1.4-4.8,3.3-9.5,4.5-14.4s2.4-9.6,4.2-14.4c1.8-4.9,3.8-9.7,5.4-14.7c1.6-4.8,3.2-9.6,4.9-14.3c3.5-9.5,7.2-19,11.4-28.3
			c4.1-9.1,8.7-18.1,12.2-27.4c1.7-4.5,3.4-9,5-13.5c1.7-4.7,3.4-9.3,5.3-14c2-4.7,3.6-9.6,5.2-14.4c1.6-4.7,3.1-9.6,5.1-14.2
			c0.5,0.6,1,1,1.4,1.6c0.4,0.7,0.7,1.3,1.2,1.9c0.9,1,2.1,1.8,3.2,2.6c0.7,0.5,1.3,1.1,2.1,1.2c0,0,0,0,0.1,0c-0.1,0-0.3,0-0.5,0
			c1,0.7,2.1,1.4,3.1,2.1c-0.1-0.2-0.2-0.4-0.3-0.6c0.3,0.6,0.7,1.1,1.4,1.3c-0.1,0-0.1,0-0.2,0c0.5,0.4,2.2,2.1,2.1,0.2
			c0.1,0.3,0,0.5,0.1,0.8s0.4,0.6,0.7,0.9c0.5,0.5,1.1,1,1.6,1.4c1.4,1,2.8,1.8,4.2,2.9c0.4,0.3,1.7,1.8,2.1,1.8
			c0.8,0.7,1.7,1.5,2.5,2.2c-0.3-1.1-0.6-2.2-1-3.4c0.2,0.8,0.5,1.6,0.7,2.4c0.3,0.9,0.7,1.3,1.4,1.9c1.2,1.1,2.5,2.2,3.8,3.3
			c2.4,1.9,5.1,3.4,7.6,5.1c1.4,0.9,2.7,1.9,4,2.9c1.1,0.8,2.4,1.1,3.5,1.9c1.3,1,2.5,2.4,3.7,3.6c1,1.1,2.3,2.2,3,3.5
			c0.8,1.5,0.8,3.5,1.1,5.2c0.3,1.7,0.5,3.4,0.8,5.1c0.5,3.5,1,7,1.4,10.5c0.4,3.4,0.9,6.9,1.2,10.3c0.3,3.5,0.2,7,0.6,10.5
			c0.8,7,1.7,14.1,3.2,21s2.5,14,3.8,21c0.7,3.6,1.4,7.2,2.1,10.8c0.3,1.8,0.7,3.5,1.1,5.3c0.3,1.5,0.1,2.9,0.4,4.4
			c0.1,0.8,0.3,1.6,0.3,2.4s-0.5,1.5-0.5,2.2c0,1,0.9,2.5,1.4,3.3c0.8,1.2,2,2.3,2.9,3.3c1,1.1,1.4,1.5,1,3
			c-1.5,6.3,2.3,11.7,6.3,16.1c4.4,4.9,8.9,9.7,13.9,14c2.7,2.2,5.2,4.7,7.7,7c2.4,2.3,5.1,4,7.9,5.8c2.9,1.8,6,3,9,4.6
			c3,1.5,5.8,3,9,4.1c3,1.1,6,1.9,8.9,3.3c2.3,1.1,5.1,1,7.4,0c1.5-0.7,2.9-1.9,4.2-2.8c1.3-0.9,2.6-1.7,3.9-2.5
			c2.2-1.3,4.4-2.8,5.4-5.3c1.1-3,0.2-6.5-0.5-9.5s-2-5.9-3.6-8.5c-1.7-2.7-3.8-5.1-5.8-7.7c-2-2.7-3.8-5.4-5.9-8s-4.3-5-6.6-7.3
			c-2.3-2.3-4.4-4.9-6.6-7.4c-0.5-0.6-1.3-1.2-1.4-2.1c-0.1-0.7,0.4-1.3,0.7-1.9c0.5-1.3,0.3-2.6,0.4-4c0-0.6,0-1.3,0.3-1.9
			c0.3-0.5,0.8-0.8,1.1-1.3c0.2-0.5,0.1-1.2,0.2-1.7c0.1-0.7,0.5-1.2,0.7-1.8c0.5-1.6-0.1-3.5-0.4-5.1c-0.3-1.5-0.6-3.1-0.8-4.6
			c-0.6-3.3-1.1-6.6-2.1-9.8c-2.1-6.5-4.2-13-4.3-19.9c-0.1-3.5-1-6.8-1.8-10.1c-0.8-3.5-1.7-7.1-2.6-10.6
			c-1.7-6.8-3.7-13.5-5.4-20.2c-1.7-6.7-3.3-13.5-5.3-20.2c-2.1-6.7-4.9-13-8-19.4c-1.5-3-3.1-5.7-5.2-8.3c-2.2-2.7-4.5-5.3-6.9-8
			c-4.7-5.3-9.3-10.7-14-15.9c-2.4-2.6-4.7-5.1-7.5-7.3c-2.4-2-5.8-3.6-6.6-6.9c-0.2-0.9-0.4-1.8-0.6-2.7c-0.1-0.5-0.6-1.3-0.5-1.9
			c0.1-1.1,2.2-1.6,3.1-1.9c2.9-1.3,5.9-2.6,8.8-4.1c1.6-0.8,3-1.8,4.5-2.7c1.2-0.8,2.7-1.1,4.1-1.5c3.1-1,6-2.3,8.9-3.9
			c3-1.6,6-3.1,8.8-4.9c2.9-1.8,5.2-3.9,7.7-6.2c1.1-1,1.9-0.5,2.7,0.6c1,1.4,2,2.7,2.9,4.1c0.5,0.6,0.9,1.4,1.5,1.7c0,0,0,0,0.1,0
			c-0.1,0-0.2-0.1-0.4-0.1c0.2,1.7,1.5,2.9,2.6,4c-0.1-0.3-0.2-0.6-0.3-0.9c0.3,0.8,0.7,1.4,1.2,2c1,1.4,2.2,2.6,3.4,3.8
			c0.6,0.6,1.3,1.2,1.9,1.9c0.3,0.2,0.5,0.5,0.8,0.7c0.4,0.4,0.6,0.5,1.1,0.7c0.9,0.4,1.1,1.1,1.8,1.6c1.1,0.8,2.6,1.4,3.7,2.2
			c1,0.7,1.8,2,2.9,2.2c0.4,0.1,0.7,0,1,0.3c0.4,0.4,0,0.4,0.7,0.6c0.3,0.1,0.7-0.1,1,0c0.4,0.1,0.7,0.4,1,0.6
			c0.7,0.5,1.4,1,2.1,1.5c1.2,0.9,2.5,1.8,3.7,2.8c2.4,1.9,4.7,4,7.2,5.8c1.3,1,2.6,1.7,4,2.5c1.1,0.7,2.1,1.6,3.1,2.4
			c1.3,0.9,2.7,1.4,4.1,2.2c1.3,0.8,2.5,1.7,3.9,2.4c2.9,1.6,5.9,3.1,9,4.4s6.3,2.3,9.7,2.5c3.5,0.2,6.7-0.7,9.9-2
			c3.1-1.2,6.3-2.7,9.2-4.3c2.9-1.6,5.6-3.4,8.5-5.1s5.6-3.4,8.3-5.3c2.6-1.8,5.1-3.8,7.8-5.2c2.8-1.5,5.3-3.4,8-5.1
			c2.7-1.8,5.4-3.6,8.1-5.4c5.6-3.8,11.3-7.6,16.7-11.8c2.6-2,5.1-4.1,7.4-6.4c2.4-2.5,5.3-4.7,7.9-6.9c2.5-2.5,5.1-4.9,7.6-7.4l0,0
			c-2.5,2.5-5.1,4.9-7.6,7.4c1.2-0.2,2-1,3-1.8s2-1.6,3-2.4c1.5-1.2,3.2-2.4,3-4.5c0.6-0.6,1.3-1.2,2-1.7c1.1-0.9,2.4-1.4,3.6-2.2
			c2.4-1.6,4.5-3.7,6.8-5.5c1-0.8,1.9-1.4,2.1-2.7c0.2-1.5,0-3.1,0-4.6c0-1.1-0.3-2.8,0.1-3.8c0.4-1.1,1.9-1.6,2.9-2.1
			c2.7-1.5,5.3-3,8-4.5c2.6-1.4,4.9-2.4,7.9-2.7c1.3-0.1,2.6-0.3,3.9-0.5c1.3-0.2,2.6,0.2,3.9,0.4c3,0.5,6,0.9,9,1.4
			c3,0.6,6,1.3,8.9,2c3,0.7,5.9,1.5,8.9,2c1.5,0.3,3.1,0.4,4.6,0.9c1.1,0.4,2.2,0.9,3.4,1.1c2.8,0.6,5.7,0.7,8.4,1.6
			c2.7,0.9,5.5,1.4,8.4,1.8c1.5,0.2,3,0.5,4.5,0.8c0.9,0.2,1.7,0.3,2.6,0.1c1.9-0.5,3.4-2,4-3.8c1.7-5-1.5-10.4-4.8-14
			c-3.5-3.8-7.9-6.5-12.1-9.5c1.7-0.2,3.3,0.1,5,0.1c1.4,0,2.8,0,4.3,0c3.2,0.2,6.4-0.7,9.5-0.8c4.3-0.1,9.6-1,10.8-5.9
			c1-4.6-3.8-8.7-7.3-10.8c-2.2-1.3-4.5-2.6-6.7-4c-2.3-1.5-5.2-2.4-7.8-3.4s-5.3-2-8-2.8c-2.6-0.7-5.3-1.1-7.8-2.1
			c2.3-1,4.8-1.2,7.2-1.7C668,161.5,670.4,160.9,672.8,160.3L672.8,160.3z"/>
		<path class="st2" d="M687.4,339.5c-0.3,1.1-0.9,1.6-1.9,1.9c-1.8,0.4-3.7,0.5-5.5,0.7c-3.3,0.4-6.7,0.6-9.9,1.3
			c-3,0.7-6,1.8-8.8,3.3c0.9-4.3,1.9-8.4,1.5-12.8c-0.3-3.2-0.4-8.1-3.6-9.9c-0.8-0.4-1.9-0.3-2.8-0.3c-1.1-0.1-2.2-0.1-3.3-0.2
			c-2.2-0.1-4.3-0.3-6.4-0.6c-4.2-0.4-8.4-0.9-12.7-1.5c-0.7-0.1-1.9,0-2.4-0.6c-0.3-0.4-0.2-1.1-0.2-1.6c0.1-1.7,0-3.4-0.2-5.2
			c-0.5-3.7-1.5-7.4-2.7-11c-0.6-1.8-1.2-3.6-1.8-5.4c-0.3-0.9-0.9-2.1,0-2.7c0.6-0.4,1.6-0.4,2.3-0.6c0.8-0.2,1.6-0.5,2.4-0.7
			c1.9-0.6,3.8-1.3,5.7-1.9c7.2-2.4,14.4-4.6,21.5-7.1c1-0.3,2-0.7,3-1c0.4-0.1,1.2-0.5,1.7-0.3s0.4,0.8,0.8,1.2
			c0.3,0.3,1.1,0.3,1.6,0.6c1.1,0.6,1.8,1.8,2.7,2.7c1.1,1.2,2.4,2.2,3.5,3.4c4.5,4.8,7.8,10.6,10.6,16.5c0.8,1.6,1.3,3.2,1.7,4.9
			c0.4,1.6,1,3.2,1.3,4.8c0.6,3.9,0.6,7.8,1.1,11.7C687.2,332.3,688.2,336.2,687.4,339.5 M658.9,330.8c0,2.6-0.1,5.2-0.7,7.7
			c-0.6,2.6-1.6,5.1-2.6,7.5c-0.9,2.3-1.6,4.7-2.6,7s-2.3,4.3-3.1,6.6c-1.7,4.8-4.5,9-6.5,13.6c-2.1,4.7-4.3,9.2-6.9,13.7
			c-1.2,2.1-2.3,4.5-3.9,6.4c-0.8,1-1.6,1.9-2.5,2.7c-0.8,0.7-1.1,0.2-2.1,0.3c-1.4,0.2-2.1,2-2.9,2.9c-1.7,1.7-3.4,3.4-5.2,4.9
			c-1.9,1.6-3.9,2.9-5.8,4.4c-1.8,1.5-3.6,2.8-5.7,3.8c-4.1,2.1-8.9,4.7-13.6,4.4c-2.2-0.1-3.4-1.5-4.3-3.4c-1-2-0.6-4.4-0.5-6.6
			c0.2-2.6,0.8-4.9,2.2-7.1s0-3.5-1.3-5.3c-3-4-7.1-7.2-10.7-10.6c-1.9-1.8-3.8-3.5-5.7-5.3c-1-1-2.1-2-3.1-2.9
			c-0.8-0.7-1.5-1.2-1.8-2.2c2.1-1.1,4.2-2.1,6.1-3.5c3.9-2.8,7.5-6.3,11.1-9.4c1.8-1.5,3.2-3.4,4.6-5.2c1.4-1.8,2.9-3.4,4.1-5.3
			c2.5-4.1,5.4-8.1,7.4-12.5c1-2.2,1.5-4.4,2-6.7c0.3-1.4,0.7-2.8,1-4.2c0.2-0.9,0.3-2.4,0.9-3.2c1.1-1.4,4.4,0.8,5.6,1.2
			c2.3,0.7,4.7,1.1,7,1.4c5,0.8,10.1,1.4,15.1,2.4c2.6,0.5,5.2,1.1,7.9,1.3c2.6,0.3,5.2,0.1,7.7,0.1c0.6,0,1.2,0.1,1.6-0.4
			c0.2-0.3,0.1-0.7,0.4-0.9c0.4-0.4,1-0.2,1.5-0.1c1,0.1,2.1,0.2,3.1,0.3c0.4,0.1,1.3,0,1.7,0.2C659,329.5,658.9,330.2,658.9,330.8
			 M586.6,399.7c-1.2,2.4-1.9,5.8-1.9,8.5c0,1.4,0.2,2.9,0.5,4.3c0.3,1.2,1,2.6,0.7,3.9c-3-1.4-6-2.9-9.2-4.2
			c-2.7-1.1-4.7-3-6.9-4.8c-2.4-2-4.5-4.1-6.8-6.2c-2.4-2.2-5-4.3-7.5-6.5c-4.4-3.8-8.2-8.2-11.8-12.8c-3.2-4-7.8-9.2-7.6-14.6
			c0.1-2.5,0.3-5.4,1.5-7.7c1-1.9,2.9-4,4.6-5.3c1.7-1.2,3.3,1.8,4.3,2.9c2,2.3,4.1,4.6,6.2,6.8c3.9,4.3,7.6,8.9,11.9,12.9
			c4.3,4.1,8.6,8,13.2,11.7c2.3,1.8,4.8,3.6,6.9,5.6c0.8,0.8,2.3,1.6,2.8,2.6C588.1,397.9,587,398.8,586.6,399.7 M691.5,339.9
			c-0.6-0.1-0.6,0-0.7-0.6c-0.1-1,0.2-2.1,0.3-3.1c0.5-4.7,0.2-9.6-0.2-14.3c-0.8-9.2-2.7-18.2-7.5-26.2c-2.2-3.7-4.7-7.2-7.9-10.1
			c-1.5-1.4-2.9-2.8-4.5-4c-0.8-0.6-2-0.9-2.7-1.5c-0.4-0.3-0.6-1-0.9-1.4c-1.3-1.7-2.8-2.1-5-1.9s-4.5,0.9-6.7,1.5
			c-4.5,1.3-8.9,3.4-13.3,5.1c-4.4,1.7-8.8,3.5-13.1,5.3c-1.9,0.8-4.2,1.4-5.9,2.6c-1,0.7-1.3,1.6-1.2,2.9c0.4,4.3,2,8.6,3.2,12.7
			c1.3,4.4,2.4,8.9,2.7,13.5c-4.5-0.3-9-0.7-13.4-1.2c-2.2-0.3-4.5-0.5-6.7-0.8c-1.2-0.2-1.7-0.6-2.6-1.2c-0.8-0.5-1.2-0.1-1.6,0.7
			c-1.8,4.2-2.5,8.7-4.5,12.8c-0.9,1.9-2,3.6-2.9,5.4c-1,2-2.2,4-3.4,5.8c-0.6,0.9-1.3,1.5-2,2.4c-0.6,0.7-1,1.6-1.6,2.4
			c-1.1,1.6-2.5,3.1-3.9,4.5s-2.8,2.8-4.1,4.3c-1.3,1.4-2.9,2.6-4.3,4c-1.3,1.3-2.5,2.7-3.8,3.9c-1.3,1.2-1.9,2.9-3.3,4
			c-0.8,0.6-1.6,1.1-2.3,1.6c-0.6,0.5-1.3,1.3-2.1,1.2c-1-0.2-1.8-1.5-2.4-2.2c-0.8-0.9-1.6-1.7-2.4-2.6c-3.1-3.4-6.3-6.7-9.5-10.1
			c-1.5-1.6-3.2-3.1-4.7-4.8c-1.1-1.2-2.9-2.1-4.4-1.3c-1.5,0.8-3.4,1.6-4.7,2.9c-1.4,1.4-2.4,3.2-3.5,4.7c-1.2,1.6-1.6,3.6-1.9,5.5
			c-0.3,2.1-0.7,4.1-0.5,6.3c0.3,4,1,8.5,3.4,11.8c1.1,1.6,2.6,2.8,4,4.2c1.5,1.5,2.5,3.3,3.7,5c2.4,3.4,5.4,6.5,8.4,9.3
			c1.4,1.4,3.1,2.5,4.5,3.9c1.6,1.5,3.1,2.8,4.9,4c1.8,1.2,3.3,2.9,4.9,4.3c1.7,1.5,3.4,2.9,5.2,4.2c3.5,2.5,7.1,4.1,11.2,5.3
			c4.5,1.4,8.9,3.1,13.4,4.6c2.1,0.7,4.3-0.3,6.3-1c2.1-0.7,4.1-1.5,6.1-2.6c3.9-2.2,7.6-4.7,11.5-7.1c4-2.4,7.3-5.2,10.4-8.7
			c2.9-3.4,6-6.7,8.6-10.3c5.4-7.2,8.6-15.8,12.6-23.8c2.1-4.3,4.3-8.5,6-12.9c0.9-2.2,1.6-4.4,2.5-6.6c0.4-0.9,0.7-1.3,1.7-1.4
			c1.2-0.2,2.3-0.3,3.5-0.4c4.6-0.5,9.1-1.4,13.7-2.2c4.2-0.7,8.5-1.5,12.3-3.6c0.8-0.5,1.8-1,2.2-1.8c0.2-0.4,0.7-2.3,0.4-2.7
			C692.8,339.9,691.7,340,691.5,339.9"/>
		<path class="st2" d="M502.8,49c1.5-0.8,3-1.5,4.5-2.2c3.2-1.5,6.3-3.2,9.5-4.7c1.5-0.7,3-1.1,4.5-1.6c1.6-0.6,3.1-1.4,4.6-2.1
			c3.2-1.5,6.5-2.9,9.8-4.1c1-0.4,2-0.8,3.1-1.1c0.8-0.3,1.7-0.8,2.5-0.9c1.3-0.2,2.3,1.2,3.1,2c4.7,4.3,8.1,10.6,10.1,16.6
			c1.1,3.3,1.6,6.6,2.2,10c0.6,3.5,1.3,6.9,1.3,10.4c0,3.6,0.4,7.1,0.2,10.7c-0.1,1.3,0.2,3.8-0.6,4.9c-0.7,1.2-2.6,1.5-3.8,2
			c-6.6,2.4-13.2,5-19.9,7.1c-7,2.2-13.9,4.4-20.9,6.7c0.3-2,0.6-3.9,0.8-5.9c0.2-1.9,0.1-3.8,0-5.7c0-4.1-0.2-8.2-1-12.3
			c-1.5-7.4-3.9-14.6-8-21c-1-1.5-2.1-2.8-3.2-4.2c-0.4-0.5-1.8-1.6-1.7-2.4C500.1,50,502.1,49.3,502.8,49 M582,48.2
			c1.5,0.1,2.5,0.4,2.6,2c0.1,2.1,0.1,4.2,0.2,6.3c0.1,4,0.3,8,0.2,12c-0.2,7-0.9,14-3.1,20.6c-1,3.2-2.3,6.4-3.6,9.5
			c-1.3,3-3.1,5.7-4.7,8.6c-0.8,1.4-1.7,2.5-2.8,3.7c-0.5,0.6-0.8,0.9-1.5,0.9c-0.7,0.1-1.7-0.1-2.4-0.2c-3.5-0.3-7.1-0.6-10.6-0.8
			c-3.5-0.2-7,0-10.5-0.2c-1.6-0.1-3.2-0.6-4.8-0.9s-3.3-0.4-4.9-0.6c-0.8-0.1-0.8,0.1-1-0.7c-0.1-0.4,0-0.9,0.1-1.4
			c0-0.8,0.1-1.6,0.1-2.4c0-0.7-0.1-2,0.2-2.7c0.3-0.6,0.8-0.7,1.4-0.9c3.3-0.9,6.4-2,9.5-3.3c3.2-1.3,6.4-2.5,9.6-3.9
			c1.4-0.6,2.9-1.1,3.9-2.3c0.8-0.9,1.3-2.1,1.7-3.3c2.1-6.5,1.4-13.9,0.8-20.6c-0.6-6.8-1.6-13.9-4.1-20.3
			C566.2,47.7,574.1,47.8,582,48.2 M493.9,54.1c2.2,0.8,3.6,2.7,4.8,4.6c1.6,2.3,3.1,4.6,4.3,7.1c2.6,5.3,4.3,11.1,5.3,16.9
			c0.9,5.5,1.4,11.7,0.3,17.3c-0.3,1.5-1,2.7-1.5,4.1c-0.3,0.9-0.1,2.3,0.2,3.3c0.4,1.3,1.6,0.9,2.7,0.7c1.5-0.3,3.1-0.6,4.6-1
			c5.8-1.2,11.6-3.4,17.5-3.8c-0.5,1.6-0.8,3-1.8,4.4c-1,1.3-2.2,2.4-2.8,3.9c-0.5,1.3-0.5,3-0.1,4.3c0.5,1.4,1.7,1.4,2.9,1.5
			c3.5,0.4,7,1,10.5,1.2c0.8,0,1.5,0.1,2.3,0c0.6-0.1,1-0.3,1.6-0.2c0.8,0.1,1.5,0.5,2.4,0.6c0.8,0.1,1.6,0.1,2.4,0
			c3-0.1,5.9,0.2,8.9-0.1c0.9-0.1,2.5-0.6,3.3-0.1c0.9,0.5,0.2,1.6,0.6,2.3c0.6,1,2.5,0.5,3.4,0.4c1.3-0.1,2.5-0.3,3.7-0.9
			c2.4-1.2,4.6-2.9,6.4-5c1.9-2.2,3.2-4.7,4.5-7.2c1.4-2.6,2.8-5.2,3.8-7.9c1.1-2.8,2.1-5.8,2.7-8.7c0.6-3,1-6,1.6-9
			c0.6-3.1,0.7-6.3,0.9-9.4c0.2-3.3,0.2-6.5,0-9.7s-0.6-6.4-0.9-9.5c-0.1-0.8,0-1.7-0.2-2.5c-0.1-0.5-0.4-1.1-0.4-1.6
			c-0.1-1.1,0.9-1.8,0.9-2.9c-0.1-2.7-2.9-3.6-5-4.3c-2.7-0.8-5.8-1.3-8.6-1.1c-6.1,0.4-12.4,0.5-18.3,2.7
			c-3-5.2-5.8-10.8-10.8-14.4c-0.6-0.4-1.2-0.7-1.5-1.3c-0.3-0.5-0.4-1-0.9-1.5c-1-1.2-2.3-1.3-3.7-1c-3.1,0.7-6,1.4-9,2.5
			c-1.3,0.5-2.7,0.8-4,1.3s-2.5,1.1-3.7,1.7c-2.6,1.3-5.4,2.4-8,3.7c-5.3,2.6-10.5,5.4-15.4,8.8c-2.4,1.6-5.1,3.3-7.1,5.4
			c-0.9,0.9-1.3,2.1-1.1,3.3C492.2,54.2,492.9,53.7,493.9,54.1"/>
		<path class="st2" d="M146.7,64.2c0.3-3.4,0.2-6.7,0.4-10.1c0.2-3.2,0.9-6.5,1.5-9.6c0.6-3.2,1.8-6,3.1-9c0.7-1.6,1.4-3.3,2.1-4.9
			c0.4-1,0.7-2.1,1.9-2.3c1.5-0.3,3.4-0.1,5-0.1c1.6-0.1,3.2-0.2,4.8-0.3c3.5-0.3,6.9-0.8,10.3-1.2c3.3-0.3,6.6-0.5,9.8-1.2
			c1.7-0.3,3.3-0.8,5-1.2c1.2-0.3,3-1.1,4.2-0.8c-1.6,3.5-2,7.3-2.1,11.1c0,1.5-0.2,2.1-1.8,2c-2-0.1-3.9-0.3-5.9-0.5
			c-3.7-0.4-7.3-1.1-11-1.7c-1.7-0.3-3.4-0.7-5.1-1.1c-1.2-0.3-1.7,0.2-2.1,1.3c-0.3,0.8-0.4,1.2-1.1,1.6c-0.6,0.4-1.2,0.7-1.8,1.2
			c-1,0.8-1.9,1.7-2.6,2.8c-1.6,2.3-2.7,5-3.6,7.6c-2.4,6.6-3.6,13.8-3.8,20.9c-0.1,3.6-0.7,7.1-0.7,10.7c0,1.6,0.4,3.6-0.9,4.8
			c-1.3,1.1-2.9,1.9-4.4,2.9c-1.3-3.6-1.6-7.5-1.6-11.3C146.3,71.8,146.4,68,146.7,64.2 M200.1,45.1c1.6,0.4,3.2,0.8,4.8,1.2
			c-2.7,6.5-2.6,13.7-2.8,20.6c-0.1,3.1,0,6.2,0.3,9.3c0.3,3.1,1,6.2,1.7,9.2c0.1,0.7,0.5,1.8,0,2.4c-0.5,0.7-2.1,1.1-2.8,1.4
			c-2.8,1.3-5.5,2.6-8.3,3.7c-2.9,1.1-5.8,1.8-8.7,3.1c-2.7,1.3-5.5,2.5-8.4,3.5c-2.8,1-5.7,1.7-8.4,3c-2.6,1.2-4.7,2.8-6.9,4.6
			c-1.3-4.1-1.8-8.3-2.1-12.6c-0.2-4.1-0.6-8.4-0.1-12.6c0.2-1.9,0.2-3.6,0.2-5.5c0-1.7,0.4-3.3,0.5-5c0.3-3.7,0.3-7.4,0.8-11.1
			c0.9-7,2.8-14.4,6.6-20.3c0.2-0.4,0.5-1,0.8-1.3c0.6-0.5,0.4-0.4,1.1,0c0.7,0.4,1.4,0.7,2.1,1c1.5,0.7,3.1,0.9,4.7,1.4
			c1.7,0.5,3.3,1.2,5.1,1.5c1.7,0.3,3.5,0.3,5.2,0.6c1,0.2,1.8,0.5,2.8,0.7c0.8,0.2,1.5,0.1,2.3,0.2c1.5,0.2,3.1,0.6,4.6,0.7
			C196.8,44.9,198.4,44.6,200.1,45.1 M142.9,75.2c0.5,4.3,1.7,8.4,3.3,12.4c0.5,1.3,1.1,3.1,2.7,3.4c1.4,0.3,3.1-0.7,4.4-1.1
			c1,6.2,1.5,12.6,4.3,18.4c0.3,0.7,0.8,2.1,1.5,2.6s1.6,0,2.4-0.3c3.1-1.2,6.2-1.9,9.4-2.7c1.5-0.4,3.1-0.7,4.6-1.3
			c1.3-0.4,2.4-1,3.8-1.2c2.8-0.5,5.3-1.4,7.9-2.3c5.5-1.9,11.1-3.7,16.2-6.6c2.4-1.4,5-2.8,7.2-4.5c1.8-1.4,3.9-3.5,3-6
			c-0.3-0.8-1-2-1.9-2.2c-0.8-0.2-1.5,0.5-2.3,0.7c-1.1,0.3-0.9-0.6-1-1.5c-0.1-0.7-0.2-1.4-0.3-2.1c-0.2-1.5-0.3-2.9-0.5-4.4
			c-0.5-6-0.3-12.1-0.3-18.1c0-3,0.7-5.7,1.4-8.6c0.4-1.5,0.7-3.1,1.1-4.7c0.2-0.9,0.4-1.8,0.1-2.7c-0.6-2-3.4-2.5-5-3.1
			c-1.4-0.5-2.9-0.9-4.3-1.2c-0.8-0.2-3,0-3.5-0.7s0.1-2.9,0.1-3.7c0.1-1.5,0.2-2.9,0.4-4.4c0.3-2.4,0.3-4.6-1.6-6.3
			c1.2-0.9,2-2.9,0.3-3.8c-2-1-4.6-1.1-6.7-0.6c-2.3,0.6-4.8,0.6-7.1,0.8c-2.5,0.3-4.9,0.6-7.4,0.9c-4.3,0.5-8.6,0.7-12.8,1.5
			c-2.1,0.4-4.2,0.8-6.3,1.1c-2.2,0.3-3.5,0.6-4.8,2.5c-2.5,3.5-4.8,7.1-6.2,11.2c-1.3,3.9-1.9,8-2.3,12c-0.4,4.4-0.5,8.8-0.4,13.2
			C142.4,66.3,142.3,70.7,142.9,75.2"/>
		<path class="st2" d="M53.6,248.8c0.3-0.4,1-0.5,1.4-0.7c0.6-0.3,1.2-0.6,1.8-0.9c3-1.7,5.8-3.5,8.6-5.5c0.7-0.5,2.3-2.4,3.3-2.1
			c0.5,0.1,0.7,0.9,0.9,1.3c0.4,0.7,0.7,1.3,1.1,2c1.6,2.6,3.6,4.9,5.9,6.9c4.2,3.8,9,6.3,14.8,6.6c-3.7,5.1-7.3,10.4-11.5,15
			c-2.1,2.4-4.5,4.5-6.7,6.8c-0.4,0.4-0.6,0.6-1.1,0.8c-0.5,0.2-0.9,0.3-1.3,0.7c-0.7,0.7-0.7,1.7-0.6,2.6
			c-3.9,0.2-8.2-1.6-11.8-3.1c-2.1-0.9-4.2-1.8-6.1-2.9c-1.3-0.8-2.8-1.6-3.8-2.8c3.6-1.9,7.3-3.8,10.7-5.9c2.4-1.5,6.5-3.2,6.2-6.7
			c-0.1-0.5-0.3-1.2-0.7-1.5c-0.7-0.5-0.9,0.1-1.5,0.2c-1,0.2-2.3-1.1-3.1-1.7c-2.1-1.6-4.2-3.4-5.5-5.8
			C54.1,251.5,53.1,249.6,53.6,248.8 M31.5,279.4c0.6-1.9-2.2-3.4-3.4-4.3c-1.8-1.4-3.1-2.9-4.3-4.8c-4.8-7.5-6.4-16.7-6.1-25.5
			c0.1-2.4,0.4-4.9,0.4-7.3c0-1.3-0.1-2.4,0.2-3.7c0.3-1.2,0.6-2.4,0.9-3.5c0.6-2.3,0.9-4.8,1.6-7.1c0.6-2.1,1.5-4.2,2.5-6.2
			c0.7-1.3,1.3-3.2,3.1-2.9c2.2,0.3,4.4,1.5,6.6,2.1c2.4,0.7,4.8,1.2,7.3,1.8c2.4,0.6,4.7,1.3,7,1.8c1.2,0.2,2.5,0.4,3.7,0.3
			c0.5,0,1.5-0.1,1.6,0.7s-1.2,1.7-1.7,2.2c-0.7,0.7-1.3,1.4-1.7,2.3c-1,2.3-1.8,4.6-2.2,7c-0.3,2.4-0.3,4.8-0.3,7.2
			c-0.1,4.8,0.6,9.4,2.4,13.9c1.6,4.1,4,6.9,7.4,9.6c-3.5,1.7-7,3.5-10.5,5.2c-3.2,1.6-6.3,2.9-9,5.2c-1.1,1-2.4,2.1-3.2,3.3
			c-1,1.6,0.4,2.6,1.9,2c1.6-0.7,3.2-1.5,4.8-2.2c1-0.5,2.8-1.8,4-1.8c1,0,1.4,1.3,1.9,2.1c0.7,1.2,1.6,2.2,2.7,3.1
			c2.1,2,4.6,3.6,7.2,4.8c2.9,1.4,6,2.3,9.1,2.8c1.7,0.3,3.5,0.4,5.2,0.4c1.3,0,3.1-0.1,4.3-0.7c1-0.5,0.5-1.7,1.5-2.2
			c1.1-0.6,2.2-1.1,3.2-1.7c2.4-1.6,3.8-3.7,5.2-6.1c3.2-5.7,7.2-10.8,9.6-16.9c0.6-1.4,0.9-3.1,1.8-4.4c0.6-0.8,2-1.3,2.1-2.4
			c0.1-1.1-0.3-3.4-1.3-3.9c-1.2-0.6-3-0.6-4.3-0.9c-5.8-1.3-11.1-3.4-15.7-7.2c-1.1-1-2.2-2-3.2-3.1c-0.8-0.8-1.5-1.7-1.4-2.8
			s1-2.6-0.7-2.9c-1.2-0.2-2.8,0.4-3.7,1c-2.8,1.8-5.5,3.9-8.2,5.9c-2.5,1.8-5,3.5-7.5,5.3c0.3-4.1,0.2-8.6,1.1-12.7
			c0.5-2,1.3-3.8,2.4-5.6c1.1-1.8,2-3.6,3-5.5c0.5,0.3,1.4,1,1.9,0.2c0.3-0.5,0.1-1.9,0-2.5c-0.9-4.4-7.6-4.9-11.1-5.6
			c-5-1.1-10-2.4-15-3.2c-2.3-0.4-4.6-0.4-7-0.6c-1.2-0.1-2.6-0.3-3.3,0.9c-0.2,0.3-0.2,0.8-0.4,1.1c-0.2,0.2-0.8,0.5-1,0.7
			c-0.8,0.6-1.4,1.4-2,2.2c-1.2,1.6-2,3.5-2.8,5.4c-1.9,4.5-3,9.3-3.6,14.1c-0.6,5-1,10.1-0.7,15.1c0.6,9.2,3.1,18.6,8.9,25.9
			c1.3,1.7,2.8,3.1,4.7,4.1C28.1,279.3,31,281.1,31.5,279.4"/>
		<path class="st2" d="M97.5,387.6c-1.8,2.3-3.6,4.6-5.2,7c-1.6,2.5-3.2,5-4.7,7.5c-1.5,2.4-3.2,4.7-4.4,7.3
			c-0.7,1.5-0.8,3.4-2.7,3.4c-2.6-0.1-5-0.8-7.3-2c-4.5-2.4-8.3-5.8-11.1-10.1c-2.9-4.4-5.2-9.5-6.9-14.5c-0.9-2.8-1.6-5.6-2.3-8.5
			c-0.3-1.5-0.7-2.9-0.7-4.4c0-0.7,0-1.3,0.1-2c0-0.6,0.4-1.7-0.3-1.8c0.2-1.8,0.4-3.6,0.6-5.4c0.2-1.3,0.1-2.7,1.3-3.6
			c1.1-0.8,2.8-0.8,4.1-1.1c1.5-0.3,3.1-0.8,4.6-1.2c3.1-1,6.1-2.2,9.1-3.5c1.5-0.6,3-1.3,4.4-2.1c1.2-0.7,2-1.6,2.8-0.1
			c5.4,10.3,9.3,21.8,18.2,29.8c0.7,0.6,1.9,1.4,2,2.5C99,385.8,98.1,386.8,97.5,387.6 M104.6,380.3c-1.2-0.9-2.8-1-4.1-1.8
			c-1.4-0.9-2.4-2.9-3.4-4.3c-2.4-3.2-4.7-6.5-6.9-9.9c-1.9-3.1-3.7-6.3-5.5-9.4c-1-1.6-1.9-3.2-3.1-4.7c-0.5-0.6-1.7-2.9-2.7-2.8
			c-0.5,0-0.5,0.6-0.9,0.7c-0.2,0.1-0.3,0-0.5,0c-0.7,0.1-1.4-0.3-2.1-0.2c-1.7,0.2-3.6,0.9-5.3,1.4c-3.5,1.1-6.8,2.5-10.3,3.8
			c-3.4,1.2-7.2,2-10.3,3.9c-1.2,0.7-2.6,1.9-1.4,3.4c0.5,0.6,1.1,0.5,1.6,1c0.4,0.4,0.2,0.6,0.1,1.2c-0.1,0.3-0.1,0.7-0.2,1
			c-0.6,3.6-1,7.2-0.5,10.9c0.5,3.7,1.3,7.3,2.3,10.9C54.8,396.7,60.6,410,72,415c2.7,1.2,5.3,1.4,8.2,2c0.9,0.2,1.6,0.6,2.4,1
			c0.4,0.2,0.8,0.5,1.3,0.5c1-0.1,1.9-1.7,2.4-2.5c1.8-2.9,3.9-5.6,5.8-8.4c1-1.5,1.9-3,2.7-4.5c0.5-0.9,0.8-2.4,2.1-2.4
			c0.3,0.5,0.7,0.9,1,1.4c0.1,0.2,0.3,0.4,0.4,0.6c0.3,0.5,0.2,0.1,0.1,0.7c-0.1,0.8-0.9,1.7-1.3,2.3c-2.7,3.6-5.5,7.2-8.3,10.7
			s-5.6,6.9-8.9,10c-0.7,0.6-1.4,1.4-2.3,1.4s-1.9-0.4-2.7-0.6c-1.9-0.3-3.9-0.4-5.8-1c-1-0.3-1.8-0.9-2.8-0.9
			c-0.8-0.1-1.4-0.2-2.2-0.6c-1.7-1-3.5-1.6-5.2-2.5c-3.5-2-7.1-4.9-9.7-8c-1.3-1.6-2.4-3.4-3.7-5s-2.5-3.1-3.6-4.8
			c-2.2-3.3-3.9-7-5.2-10.8c-0.7-2-1-3.2,0.7-4.7c1.6-1.4,3.1-2.8,4.5-4.4c0.7-0.8,3.6-3.7,1.4-4.2c-1.2-0.3-3.1,1.8-4,2.5
			c-1.5,1.2-2.9,2.4-4.6,3.2c-1.9,1-2,2.2-1.9,4.2c0.1,4.2,1.6,8.2,3.2,12.1c1.7,3.9,3.7,7.6,6.2,11.1c4.8,6.6,10.1,13.3,17.6,17
			c3.7,1.8,7.6,2.8,11.7,3.2c2.4,0.3,4.8,0.4,7.2,0.3c1,0,2.3,0.1,3.3-0.2c0.8-0.3,0.9-0.8,1.2-1.6c0.7-1.7,2.5-2.6,3.7-4
			c1.3-1.5,2.6-2.8,3.9-4.2c2.9-3.1,4.7-6.7,7-10.2c1.3-1.9,2.6-3.8,3.7-5.8c0.9-1.6,2-3.8,2.3-5.6c0.2-1.5-0.9-3.6-2.6-3.7
			c-0.9,0-1.5,0.6-2.4,0.7c-0.3,0-1.1-0.1-1.4,0c1.4-3.3,3.4-6.5,4.9-9.7c0.9-1.8,1.7-3.7,2.5-5.6
			C105.4,382.5,106.1,381.3,104.6,380.3"/>
		<path class="st2" d="M126.6,116.5c2.7,6.2,7,11.2,11.5,16.2c2.3,2.7,4.7,5.1,7.6,7.3c2.6,2,5.3,4,8,5.9c-2.7,3.4-5.7,6.6-8.7,9.8
			c-2.8,2.9-5.5,5.9-7.3,9.6c-0.2-1.7-1.3-2.8-2.8-3.5c-1.9-0.9-3.6-1.8-5.3-3.1c-3.5-2.8-6.8-6.1-9.7-9.4
			c-6.1-6.7-9.9-15.2-14.1-23.1C112.6,122.9,119.6,119.7,126.6,116.5 M104.2,132.2c1,2.9,2.5,5.6,3.9,8.4c1.3,2.7,2.7,5.4,4.3,7.9
			c3,4.9,6.6,9.4,11.2,12.9c2.3,1.7,4.7,3.4,7.2,4.6c1.2,0.6,2.5,1.1,3.9,1c0.8,0,2-0.8,2.6-0.1c0.7,0.7,0.4,2,1.8,1.4
			c1.1-0.5,2.1-1.7,3-2.6c2.1-2.3,4.3-4.6,6.3-6.9c2-2.3,3.6-4.9,5.3-7.4c0.9-1.4,1.8-2.8,2.7-4.2c0.7-1,1.6-2,1.5-3.2
			c-0.1-2.5-3.1-4.1-4.8-5.5c-2.1-1.7-4-3.4-5.8-5.4c-1.9-2.1-4.3-3.9-6.3-5.9c-2.2-2.2-4.2-4.5-6.2-6.9c-1.6-1.9-3.2-3.8-4.5-5.9
			c-1.1-1.6-2.2-2.9-4.3-2.6c-1.6,0.4-3.3,0.7-4.9,1.3c-1.6,0.6-3.1,1.4-4.7,2.1c-2.8,1.3-5.4,2.9-8.1,4.4c-0.6,0.3-1.2,0.7-1.8,1.1
			c-0.3,0.2-0.6,0.7-1,0.8c-0.2,0.1-0.4,0.1-0.7,0.2c-1.1,0.3-1.5,0.9-2.1,1.9c-0.9,1.6-0.9,2.4-0.1,4
			C103.3,128.9,103.6,130.6,104.2,132.2"/>
		<path class="st3" d="M214.9,209.5c0.7,1.1,1.8,0.6,2.5-0.2c2-2.4,3.8-5,5.6-7.5c1.8-2.6,3.4-5.2,5.5-7.6c2-2.4,4.1-4.8,6.2-7.2
			c7.9-8.8,16-17.5,24.7-25.5c2.1-2,4.3-3.9,6.4-5.9c0.9-0.9,2-1.9,2-3.3c0-1-0.7-2.2-1.5-2.7c-1.9-1.1-4.4,1.6-5.8,2.6
			c-1.1,0.8-2.2,1.2-3.3,1.8c-1,0.5-2,1.4-2.8,2.1c-1.9,1.7-3.9,3.1-5.8,4.8c-1.9,1.7-3.7,3.6-5.6,5.3c-2,1.8-4.2,3.4-6,5.5
			s-3.3,4.3-5.2,6.3c-4,4.2-7.2,9-10.6,13.8c-1.6,2.3-2.9,4.8-4,7.3c-0.6,1.3-1.1,2.6-1.6,3.9c-0.5,1.2-0.5,2.5-0.8,3.8
			C214.8,206.6,214.6,209.1,214.9,209.5"/>
		<path class="st2" d="M655.9,418.8c1.5-1.8,2.5-4.4,3.6-6.5c1.2-2.2,2.2-4.3,2.7-6.7c0.2-1.2,0.4-2.4,0.7-3.6
			c0.3-1.1,0.6-2.1,0.5-3.3c-0.1-1.2-0.7-4.9-2.5-4.5c-1.1,0.2-0.9,1.4-0.9,2.2c0,1-0.1,1.9-0.4,2.8c-0.7,2.2-2.3,4.1-3.3,6.2
			c-1,2-2.1,3.8-3.6,5.5c-1.4,1.6-3,3.1-4.6,4.5c-1.5,1.2-3.2,2.1-4.3,3.7c-0.6,1-0.7,1.2-1.9,1.5c-0.9,0.2-1.8,0.6-2.6,1.1
			c-0.9,0.6-1.5,1.4-2.6,1.8c-0.9,0.4-1.9,0.6-2.8,0.9c-2.1,0.8-4,2.1-6.2,2.9c-1.1,0.4-2.3,0.7-3.4,1.1c-0.9,0.3-2,0.5-2.7,1.1
			c-1.3,1-2,3.7-0.9,5c1.2,1.5,4,0.6,5.5,0.4c0,0.1,0,0.2,0.1,0.3c2.6-0.5,5.3-0.8,7.9-1.7c1.3-0.4,2.5-1.1,3.8-1.7
			c1-0.6,2.1-0.8,3.2-1.2c1-0.3,1.8-0.8,2.4-1.7c0.8-1.1,1.1-0.8,2.3-1c2-0.4,3.7-2.7,5-4C652.5,422.2,654.4,420.6,655.9,418.8"/>
		<path class="st2" d="M280.8,102.2c0.5-0.7,2.1-1.4,2.8-1.9c1-0.6,2-1.3,3-2c1.8-1.3,3-0.4,4.5,0.8c2.9,2.2,4,5.2,3.8,8.8
			c0,1,0.3,2.8-0.5,3.6c-0.8,0.8-2.4,0.7-3.4,0.9c-1.3,0.3-3.3,1.9-4.7,1.5c-1.2-0.4-0.8-2.6-0.9-3.5c-0.2-1.8-0.8-3.5-1.9-4.9
			c-0.6-0.7-1.2-1.4-2-1.9C281.1,103.2,280.4,102.9,280.8,102.2 M275.6,107.5c1.1,0.2,2.3,0.7,3.4,1.2c0.7,0.3,1.6,0.6,2.2,1.1
			c0.9,0.8,0.6,2.2,0.8,3.3c0.1,0.6,0.5,1.2,0.2,1.9c-0.3,0.8-1.1,0.9-1.5,1.5c-0.6,0.9,0.2,2.2,0.7,3c0.9,1.4,2.1,0.7,3.5,0.5
			c1.7-0.2,3.4-0.3,5-0.9c1.3-0.5,2.4-1.5,3.4-0.1c0.4,0.5,0.5,1,1.2,0.8c0.6-0.2,1.2-1,1.7-1.4c2.6-2.7,3.3-6.3,3.3-9.9
			c0.1-4-1.3-7.7-3.4-11.1c-0.4-0.7-0.9-1.5-1.5-2.1c-0.6-0.5-1.4-0.7-2-1.4c-0.8-0.9-0.7-2.8-2-3.2c-1.4-0.4-3.5,1.3-4.5,2
			c-1.5,1-3,2.1-4.5,3.2c-3.1,2.4-6.6,4.7-9.5,7.4c-1,0.9-1.4,2.6-0.4,3.7C272.7,108,274.3,107.3,275.6,107.5"/>
		<path class="st3" d="M443.5,393.3c-0.6-3.5-1.6-7-2.9-10.3c-0.8-2.2-2.6-5.9-5.6-5.7c-3.2,0.2-1.1,4.4-0.8,6.1
			c1.2,6.6,1.9,13.3,2.9,19.8c0.5,3.3,0.6,6.6,1.4,9.9c0.4,1.6,0.9,3.1,1.6,4.6c0.4,0.9,0.9,2.2,2,2.6c3.2,1.3,2.4-4.3,2.4-5.7
			c-0.1-3.4-0.2-6.8-0.2-10.2h0.3C444,400.6,444.1,396.9,443.5,393.3"/>
		<path class="st2" d="M63.4,455c-1.7,0.6-3,1-5,0.8c-1.3-0.1-2.7-0.4-4-0.6c-3.4-0.4-6.7-1.4-9.8-2.8c-2.9-1.3-5.5-2.8-7.9-4.9
			c-1.2-1.1-2.4-2.3-3.5-3.5c-0.8-0.9-1.5-1.5-2.8-1.7c0.3,1.8,0.7,3.2,1.5,4.8c0.7,1.3,1.5,2.5,2.3,3.7c1.8,2.4,4,4.5,6.4,6.2
			s5.2,3.1,8,3.8c1.6,0.4,3.2,0.6,4.9,1c1.5,0.3,3,0.6,4.6,0.4c1.5-0.2,3-0.3,4.4-0.7c1.1-0.3,2.2-1,3.2-1.7
			C67.7,458.5,65.7,454.2,63.4,455"/>
		<path class="st2" d="M120.5,56.4c0.9,1.2,2.7,1.2,2.6-0.5c-0.1-1.6-0.6-3.1-1.1-4.6s-0.4-3.1-0.4-4.7c-0.1-3.8,0.1-7.4,0.8-11.1
			c0.7-3.6,1.1-7.2,1.9-10.7s2.2-6.7,3.1-10.2c0.3-1.1,0.5-3.1-1.1-3.4c-1.3-0.2-2.1,1.6-2.6,2.5c-1.7,2.8-3.5,5.5-4.5,8.7
			c-0.9,2.9-1.6,5.9-1.9,8.9c-0.3,3.1-0.3,6.3-0.5,9.4c0.3,3.6,0.1,7.7,1.3,11.2C118.7,53.4,119.5,55.1,120.5,56.4"/>
		<path class="st2" d="M608.6,70.7c-0.5,1.2-0.8,2.5,0.1,3.7c1.6,2.1,4.1-2.7,4.5-4c0.8-2.9,1.9-5.8,2.4-8.8c0.5-3,0.3-6.3,0.3-9.4
			c-0.3-3.7-0.7-7.3-1.6-10.9c-0.8-3.2-1.6-6.4-4.2-8.5c-1.1-0.9-1.8-0.2-2,1c-0.2,1.4,0.2,2.8,0.8,4c1.5,2.8,1.5,6.2,1.8,9.3
			c0.7,6.3,1,12.6-0.6,18.8C609.8,67.7,609.2,69.2,608.6,70.7"/>
		<path class="st2" d="M66.3,141.4c0.4,1.4,0.8,2.9,1.3,4.2c1,2.7,2.3,5.2,4,7.6c2.7,3.9,6.3,7.6,10.1,10.3c1.3,0.9,4.4,3.4,6,2.6
			c2.3-1.1-0.8-4.1-1.7-4.9c-1.9-1.8-3.8-3.6-5.7-5.3c-1.9-1.8-3.4-4-4.9-6.1s-3-4.3-4.4-6.5c-0.7-1.1-1.3-2.3-2.1-3.5
			c-0.6-1-1.5-1.7-2.3-2.5c-0.7,0.3-0.6,0.3-0.8,0.9c-0.1,0.3-0.1,0.8,0,1C65.9,139.9,66.1,140.6,66.3,141.4"/>
		<path class="st3" d="M228.7,163.6c3.6-3.3,7.5-6,10.9-9.5c0.9-0.9,1.5-1.4,0.8-2.6c-0.5-0.8-1.1-1.2-1.9-0.7
			c-2,1.3-3.9,2.9-5.8,4.3c-3.9,2.9-8,5.8-11.6,9.1c-1.6,1.5-3.1,3.2-4.3,5c-1.3,1.9-2.3,3.9-0.8,6
			C220.2,171.5,224.4,167.5,228.7,163.6"/>
		<path class="st2" d="M665.9,431c-0.6-0.2-1.7,0.6-2.2,0.9c-1.9,1.3-3.9,2.4-5.8,3.6c-1.8,1.1-3.5,2.3-5.3,3.5
			c-1.5,1-2.4,2.2-1.9,4c0.2,0.8,0.6,1.8,1.6,1.3c0.7-0.4,1.3-0.7,2.1-1c2-0.7,4-1.4,5.8-2.4c3.2-1.7,6.2-4.5,6.6-8.3
			C666.6,432.2,666.6,431.2,665.9,431"/>
		<path class="st3" d="M455.7,392.6c-0.6-0.7-1.4-0.7-1.8,0.1c-0.4,0.9,0.1,2.4,0.2,3.3c0.2,1.4,0.4,2.9,0.7,4.3
			c0.1,0.8,0.2,3.4,1.3,3.8c1.7,0.5,1.7-3.6,1.9-4.4c-0.4-1.2-0.7-2.4-1-3.6C456.7,395,456.5,393.5,455.7,392.6"/>
		<path class="st3" d="M172.9,322.1c-0.4-0.2-0.7-0.1-0.8-0.6c-0.1-0.4,0.6-0.8,0.6-1.2c0.3-1.2-0.9,0.1-1.4,0.5
			c0.4,1.1,0.9,2.2,1.3,3.3c0.5-0.2,1-0.4,1.5-0.6C173.7,322.9,173.6,322.5,172.9,322.1"/>
		<path class="st3" d="M407.8,124.4c0.8,0.3,2.1-0.1,2.9-0.3c0.8-0.2,1.7-0.4,2.5-0.7c1.9-0.8,1.8-3,1.3-4.8c-0.6-2.4-1.9-4.7-3-6.9
			c-0.6-1.2-1.1-2.3-1.6-3.5c-0.4-0.9-0.9-2.1-2-2.1c-1.8,0-0.9,4.2-0.6,5.2c0.7,2.5,2,4.8,3.1,7.2c-1,0.1-2.1,0.2-3.1,0.2
			c-1.1,0-1.3,0-1.6,1.2C405.4,121.4,405.9,123.8,407.8,124.4"/>
		<path class="st3" d="M391.8,103.9c1.9-0.1,3.8-0.3,5.7-0.5c1.4-0.2,3.8-0.2,4.8-1.3c0.7-0.8,0.6-2.4,0-3.2
			c-0.7-0.9-2.4-0.6-3.4-0.6c-2.8,0-5.6,0.4-8.1,1.7c-0.9,0.5-3,1.3-2.8,2.5C388.3,104.2,390.6,104,391.8,103.9"/>
		<path class="st3" d="M399.8,126c-1.6,0.4-1.3,3.1-0.8,4.3c0.7,1.7,2.6,2.1,4.3,2c0.8-0.1,2,0.2,2.6-0.5s0.6-2,0.2-2.8
			c-0.6-1-2-1.6-3-2C402.2,126.5,400.8,125.7,399.8,126"/>
		<path class="st3" d="M400,111.7c0.1-1.6-0.8-5.1-2.9-5c-1,0.1-1.8,1.5-2,2.4s0.1,1.9,0.3,2.7c0.4,1.5,1,3.7,2.9,3.4
			C399.9,115,400,113.1,400,111.7"/>
		<path class="st3" d="M415,113.3c0.4,0.4,1,0.7,1.6,0.4c0.9-0.4,0.7-1.4,0.7-2.2c0.1,0,0.2-0.1,0.3-0.1c-0.5-1.4-0.8-4.3-2.5-4.6
			c-1.7-0.4-1.8,1.5-1.7,2.7C413.7,110.8,414.1,112.4,415,113.3"/>
		<path class="st3" d="M361.9,113.2c-0.8,0.1-2.4,0.5-2.3,1.5c0.2,1.5,2.6,1.8,3.8,2c1.4,0.2,3.5,0,2.1-1.8
			C364.7,113.8,363.3,113.3,361.9,113.2"/>
		<path class="st3" d="M291.2,296.5c-0.3,0.6-0.6,1.2-0.9,1.8c0.9,0.1,1.9,0.2,2.8,0.4C293.1,297.9,291.7,297,291.2,296.5"/>
	</g>
</g>
</svg>
