<svg width="79" height="94" viewBox="0 0 79 94" fill="none" xmlns="http://www.w3.org/2000/svg">
<path d="M70.3 0.699995C72.7267 0.699995 74.6333 1.48 76.02 3.04C77.4933 4.51333 78.23 6.50666 78.23 9.02V85.33C78.23 87.8433 77.4933 89.88 76.02 91.44C74.5467 93 72.64 93.78 70.3 93.78C67.5267 93.78 65.4033 92.7833 63.93 90.79L16.48 29.04V85.33C16.48 87.8433 15.7867 89.88 14.4 91.44C13.0133 93 11.1067 93.78 8.68 93.78C6.25333 93.78 4.34667 93 2.96 91.44C1.57333 89.88 0.880001 87.8433 0.880001 85.33V9.02C0.880001 6.50666 1.61667 4.51333 3.09 3.04C4.56333 1.48 6.51333 0.699995 8.94 0.699995C11.6267 0.699995 13.7067 1.69666 15.18 3.69L62.5 65.18V9.02C62.5 6.50666 63.1933 4.51333 64.58 3.04C66.0533 1.48 67.96 0.699995 70.3 0.699995Z" fill="#31344B"/>
</svg>
